M48
; DRILL file {KiCad (6.0.7)} date Thu Aug  4 11:05:05 2022
; FORMAT={-:-/ absolute / inch / decimal}
; #@! TF.CreationDate,2022-08-04T11:05:05-07:00
; #@! TF.GenerationSoftware,Kicad,Pcbnew,(6.0.7)
; #@! TF.FileFunction,Plated,1,4,PTH
FMAT,2
INCH
; #@! TA.AperFunction,Plated,PTH,ViaDrill
T1C0.0100
; #@! TA.AperFunction,Plated,PTH,ComponentDrill
T2C0.0315
; #@! TA.AperFunction,Plated,PTH,ComponentDrill
T3C0.1260
%
G90
G05
T1
X4.7815Y-3.3602
X4.9016Y-3.4665
X4.937Y-3.2323
X4.9488Y-3.4665
X5.0217Y-3.2264
X5.0945Y-3.3787
X5.1105Y-2.928
X5.1105Y-3.005
X5.1122Y-3.1073
X5.1145Y-2.857
X5.2085Y-2.943
X5.2085Y-2.9906
X5.2385Y-2.6199
X5.2481Y-2.943
X5.2481Y-2.9906
X5.2525Y-3.13
X5.2645Y-2.776
X5.2725Y-2.7139
X5.2765Y-2.6199
X5.3005Y-2.776
X5.3019Y-2.4531
X5.3019Y-2.4843
X5.3305Y-2.84
X5.3315Y-2.905
X5.3355Y-2.963
X5.3355Y-2.99
X5.3771Y-2.521
X5.3771Y-2.7644
X5.4031Y-2.521
X5.4031Y-2.7644
X5.4211Y-2.6185
X5.4361Y-2.521
X5.4361Y-2.7644
X5.4621Y-2.521
X5.4621Y-2.7644
X5.4891Y-2.6186
X5.4951Y-2.5114
X5.5108Y-2.6186
X5.5211Y-2.5114
X5.5541Y-2.5114
X5.5621Y-2.6185
X5.5801Y-2.5114
X5.6131Y-2.5114
X5.6391Y-2.5114
X5.6496Y-2.6185
X5.6723Y-2.521
X5.6723Y-2.7644
X5.6983Y-2.521
X5.6983Y-2.7644
X5.7165Y-2.6185
X5.7314Y-2.521
X5.7314Y-2.7644
X5.7441Y-2.6185
X5.7574Y-2.521
X5.7574Y-2.7644
X5.7904Y-2.521
X5.8071Y-2.6185
X5.8164Y-2.521
X5.8524Y-2.5114
X5.8951Y-2.4557
X5.8951Y-2.4847
X5.8951Y-2.7087
X5.8951Y-2.7367
X5.9053Y-2.7989
X5.9121Y-2.6185
X5.9621Y-2.6185
T2
X5.1793Y-2.6106
X6.0333Y-2.6106
T3
X4.8189Y-2.9843
X4.8189Y-4.874
X4.8618Y-2.5906
X6.3508Y-2.5906
X6.3937Y-2.9843
X6.3937Y-4.874
T0
M30
