%TF.GenerationSoftware,KiCad,Pcbnew,(6.0.7)*%
%TF.CreationDate,2022-08-04T11:05:02-07:00*%
%TF.ProjectId,SZG-TEMPLATE-TXR,535a472d-5445-44d5-904c-4154452d5458,A*%
%TF.SameCoordinates,Original*%
%TF.FileFunction,Copper,L4,Bot*%
%TF.FilePolarity,Positive*%
%FSLAX46Y46*%
G04 Gerber Fmt 4.6, Leading zero omitted, Abs format (unit mm)*
G04 Created by KiCad (PCBNEW (6.0.7)) date 2022-08-04 11:05:02*
%MOMM*%
%LPD*%
G01*
G04 APERTURE LIST*
G04 Aperture macros list*
%AMRoundRect*
0 Rectangle with rounded corners*
0 $1 Rounding radius*
0 $2 $3 $4 $5 $6 $7 $8 $9 X,Y pos of 4 corners*
0 Add a 4 corners polygon primitive as box body*
4,1,4,$2,$3,$4,$5,$6,$7,$8,$9,$2,$3,0*
0 Add four circle primitives for the rounded corners*
1,1,$1+$1,$2,$3*
1,1,$1+$1,$4,$5*
1,1,$1+$1,$6,$7*
1,1,$1+$1,$8,$9*
0 Add four rect primitives between the rounded corners*
20,1,$1+$1,$2,$3,$4,$5,0*
20,1,$1+$1,$4,$5,$6,$7,0*
20,1,$1+$1,$6,$7,$8,$9,0*
20,1,$1+$1,$8,$9,$2,$3,0*%
G04 Aperture macros list end*
%TA.AperFunction,ConnectorPad*%
%ADD10C,6.500000*%
%TD*%
%TA.AperFunction,ComponentPad*%
%ADD11C,3.600000*%
%TD*%
%TA.AperFunction,ConnectorPad*%
%ADD12C,0.787400*%
%TD*%
%TA.AperFunction,SMDPad,CuDef*%
%ADD13RoundRect,0.140000X0.170000X-0.140000X0.170000X0.140000X-0.170000X0.140000X-0.170000X-0.140000X0*%
%TD*%
%TA.AperFunction,SMDPad,CuDef*%
%ADD14RoundRect,0.135000X0.135000X0.185000X-0.135000X0.185000X-0.135000X-0.185000X0.135000X-0.185000X0*%
%TD*%
%TA.AperFunction,SMDPad,CuDef*%
%ADD15O,0.250000X0.800000*%
%TD*%
%TA.AperFunction,SMDPad,CuDef*%
%ADD16O,0.800000X0.250000*%
%TD*%
%TA.AperFunction,SMDPad,CuDef*%
%ADD17R,2.700000X2.700000*%
%TD*%
%TA.AperFunction,SMDPad,CuDef*%
%ADD18RoundRect,0.140000X-0.140000X-0.170000X0.140000X-0.170000X0.140000X0.170000X-0.140000X0.170000X0*%
%TD*%
%TA.AperFunction,SMDPad,CuDef*%
%ADD19C,1.000000*%
%TD*%
%TA.AperFunction,SMDPad,CuDef*%
%ADD20C,0.508000*%
%TD*%
%TA.AperFunction,SMDPad,CuDef*%
%ADD21R,2.540000X0.640000*%
%TD*%
%TA.AperFunction,SMDPad,CuDef*%
%ADD22R,4.700000X0.640000*%
%TD*%
%TA.AperFunction,SMDPad,CuDef*%
%ADD23R,0.300000X1.450000*%
%TD*%
%TA.AperFunction,ComponentPad*%
%ADD24C,1.200000*%
%TD*%
%TA.AperFunction,ViaPad*%
%ADD25C,0.508000*%
%TD*%
%TA.AperFunction,Conductor*%
%ADD26C,0.228600*%
%TD*%
%TA.AperFunction,Conductor*%
%ADD27C,0.254000*%
%TD*%
%TA.AperFunction,Conductor*%
%ADD28C,0.177800*%
%TD*%
%TA.AperFunction,Conductor*%
%ADD29C,0.406400*%
%TD*%
%TA.AperFunction,Conductor*%
%ADD30C,1.524000*%
%TD*%
%TA.AperFunction,Conductor*%
%ADD31C,0.127000*%
%TD*%
%TA.AperFunction,Conductor*%
%ADD32C,0.133350*%
%TD*%
G04 APERTURE END LIST*
D10*
%TO.P,H1,1,1*%
%TO.N,unconnected-(H1-Pad1)*%
X123490000Y-65800000D03*
D11*
X123490000Y-65800000D03*
%TD*%
D10*
%TO.P,H2,1,1*%
%TO.N,unconnected-(H2-Pad1)*%
X161310000Y-65800000D03*
D11*
X161310000Y-65800000D03*
%TD*%
%TO.P,H3,1,1*%
%TO.N,unconnected-(H3-Pad1)*%
X122400000Y-75800000D03*
D10*
X122400000Y-75800000D03*
%TD*%
D11*
%TO.P,H4,1,1*%
%TO.N,unconnected-(H4-Pad1)*%
X162400000Y-75800000D03*
D10*
X162400000Y-75800000D03*
%TD*%
%TO.P,H5,1,1*%
%TO.N,unconnected-(H5-Pad1)*%
X122400000Y-123800000D03*
D11*
X122400000Y-123800000D03*
%TD*%
D10*
%TO.P,H6,1,1*%
%TO.N,unconnected-(H6-Pad1)*%
X162400000Y-123800000D03*
D11*
X162400000Y-123800000D03*
%TD*%
D12*
%TO.P,J2,1,Pin_1*%
%TO.N,/MCU_MISO*%
X124765000Y-85670000D03*
%TO.P,J2,2,Pin_2*%
%TO.N,+3V3*%
X126035000Y-85670000D03*
%TO.P,J2,3,Pin_3*%
%TO.N,/MCU_SCL_USCK*%
X124765000Y-84400000D03*
%TO.P,J2,4,Pin_4*%
%TO.N,/MCU_SDA_MOSI*%
X126035000Y-84400000D03*
%TO.P,J2,5,Pin_5*%
%TO.N,/MCU_RESET_B*%
X124765000Y-83130000D03*
%TO.P,J2,6,Pin_6*%
%TO.N,GND*%
X126035000Y-83130000D03*
%TD*%
D13*
%TO.P,C1,1*%
%TO.N,+3V3*%
X136206800Y-76094800D03*
%TO.P,C1,2*%
%TO.N,GND*%
X136206800Y-75134800D03*
%TD*%
D14*
%TO.P,R2,1*%
%TO.N,+3V3*%
X133643400Y-78789800D03*
%TO.P,R2,2*%
%TO.N,/MCU_RESET_B*%
X132623400Y-78789800D03*
%TD*%
%TO.P,R1,1*%
%TO.N,+3V3*%
X134684800Y-71169800D03*
%TO.P,R1,2*%
%TO.N,/R_GA*%
X133664800Y-71169800D03*
%TD*%
D15*
%TO.P,U1,1,PA4*%
%TO.N,/MCU_SCL_USCK*%
X131701600Y-73360800D03*
%TO.P,U1,2,PA3*%
%TO.N,Net-(TP10-Pad1)*%
X132201600Y-73360800D03*
%TO.P,U1,3,PA2*%
%TO.N,Net-(TP8-Pad1)*%
X132701600Y-73360800D03*
%TO.P,U1,4,PA1*%
%TO.N,Net-(TP6-Pad1)*%
X133201600Y-73360800D03*
%TO.P,U1,5,AREF/PA0*%
%TO.N,/R_GA*%
X133701600Y-73360800D03*
D16*
%TO.P,U1,6,NC*%
%TO.N,unconnected-(U1-Pad6)*%
X134701600Y-74360800D03*
%TO.P,U1,7,NC*%
%TO.N,unconnected-(U1-Pad7)*%
X134701600Y-74860800D03*
%TO.P,U1,8,GND*%
%TO.N,GND*%
X134701600Y-75360800D03*
%TO.P,U1,9,VCC*%
%TO.N,+3V3*%
X134701600Y-75860800D03*
%TO.P,U1,10,NC*%
%TO.N,unconnected-(U1-Pad10)*%
X134701600Y-76360800D03*
D15*
%TO.P,U1,11,XTAL1/PB0*%
%TO.N,Net-(TP5-Pad1)*%
X133701600Y-77360800D03*
%TO.P,U1,12,XTAL2/PB1*%
%TO.N,Net-(TP7-Pad1)*%
X133201600Y-77360800D03*
%TO.P,U1,13,~{RESET}/PB3*%
%TO.N,/MCU_RESET_B*%
X132701600Y-77360800D03*
%TO.P,U1,14,PB2*%
%TO.N,Net-(TP9-Pad1)*%
X132201600Y-77360800D03*
%TO.P,U1,15,PA7*%
%TO.N,Net-(TP11-Pad1)*%
X131701600Y-77360800D03*
D16*
%TO.P,U1,16,PA6*%
%TO.N,/MCU_SDA_MOSI*%
X130701600Y-76360800D03*
%TO.P,U1,17,NC*%
%TO.N,unconnected-(U1-Pad17)*%
X130701600Y-75860800D03*
%TO.P,U1,18,NC*%
%TO.N,unconnected-(U1-Pad18)*%
X130701600Y-75360800D03*
%TO.P,U1,19,NC*%
%TO.N,unconnected-(U1-Pad19)*%
X130701600Y-74860800D03*
%TO.P,U1,20,PA5*%
%TO.N,/MCU_MISO*%
X130701600Y-74360800D03*
D17*
%TO.P,U1,21,GND*%
%TO.N,GND*%
X132701600Y-75360800D03*
%TD*%
D18*
%TO.P,C2,1*%
%TO.N,/R_GA*%
X133694800Y-72135000D03*
%TO.P,C2,2*%
%TO.N,GND*%
X134654800Y-72135000D03*
%TD*%
D19*
%TO.P,FID1,*%
%TO.N,*%
X157400000Y-126000000D03*
%TD*%
%TO.P,FID2,*%
%TO.N,*%
X127400000Y-126000000D03*
%TD*%
%TO.P,FID3,*%
%TO.N,*%
X164873000Y-61365000D03*
%TD*%
%TO.P,FID4,*%
%TO.N,*%
X119762000Y-70578000D03*
%TD*%
D20*
%TO.P,TP5,1,1*%
%TO.N,Net-(TP5-Pad1)*%
X135622600Y-77596000D03*
%TD*%
%TO.P,TP6,1,1*%
%TO.N,Net-(TP6-Pad1)*%
X132777800Y-72033400D03*
%TD*%
%TO.P,TP7,1,1*%
%TO.N,Net-(TP7-Pad1)*%
X134733600Y-78459600D03*
%TD*%
%TO.P,TP8,1,1*%
%TO.N,Net-(TP8-Pad1)*%
X131914200Y-72033400D03*
%TD*%
%TO.P,TP9,1,1*%
%TO.N,Net-(TP9-Pad1)*%
X131660200Y-78612000D03*
%TD*%
%TO.P,TP11,1,1*%
%TO.N,Net-(TP11-Pad1)*%
X130745800Y-78612000D03*
%TD*%
%TO.P,TP10,1,1*%
%TO.N,Net-(TP10-Pad1)*%
X131050600Y-72033400D03*
%TD*%
D21*
%TO.P,J1,0,GND*%
%TO.N,GND*%
X150840320Y-65810000D03*
D22*
X145580320Y-65810000D03*
D21*
X133960320Y-65810000D03*
D22*
X139230320Y-65810000D03*
D23*
%TO.P,J1,1,SCL*%
%TO.N,/MCU_SCL_USCK*%
X135150320Y-68900000D03*
%TO.P,J1,2,5V*%
%TO.N,+5V*%
X135150320Y-62720000D03*
%TO.P,J1,3,SDA*%
%TO.N,/MCU_SDA_MOSI*%
X135650320Y-68900000D03*
%TO.P,J1,4,R_GA*%
%TO.N,/R_GA*%
X135650320Y-62720000D03*
%TO.P,J1,5,RX0p*%
%TO.N,/RX0P*%
X136650330Y-68900000D03*
%TO.P,J1,6,TX0p*%
%TO.N,/TX0P*%
X136650330Y-62720000D03*
%TO.P,J1,7,RX0n*%
%TO.N,/RX0N*%
X137150320Y-68900000D03*
%TO.P,J1,8,TX0n*%
%TO.N,/TX0N*%
X137150320Y-62720000D03*
%TO.P,J1,9,RX1p*%
%TO.N,/RX1P*%
X138150320Y-68900000D03*
%TO.P,J1,10,TX1p*%
%TO.N,/TX1P*%
X138150320Y-62720000D03*
%TO.P,J1,11,RX1n*%
%TO.N,/RX1N*%
X138650320Y-68900000D03*
%TO.P,J1,12,TX1n*%
%TO.N,/TX1N*%
X138650320Y-62720000D03*
%TO.P,J1,13,REFCLKp*%
%TO.N,/REFCLKP*%
X139650320Y-68900000D03*
%TO.P,J1,14,S0*%
%TO.N,/S0*%
X139650320Y-62720000D03*
%TO.P,J1,15,REFCLKn*%
%TO.N,/REFCLKN*%
X140150320Y-68900000D03*
%TO.P,J1,16,S1*%
%TO.N,/S1*%
X140150320Y-62720000D03*
%TO.P,J1,17,S2*%
%TO.N,/S2*%
X141150320Y-68900000D03*
%TO.P,J1,18,S3*%
%TO.N,/S3*%
X141150320Y-62720000D03*
%TO.P,J1,19,S4*%
%TO.N,/S4*%
X141650320Y-68900000D03*
%TO.P,J1,20,S5*%
%TO.N,/S5*%
X141650320Y-62720000D03*
%TO.P,J1,21,S6*%
%TO.N,/S6*%
X142650320Y-68900000D03*
%TO.P,J1,22,S7*%
%TO.N,/S7*%
X142650320Y-62720000D03*
%TO.P,J1,23,S8*%
%TO.N,/S8*%
X143150320Y-68900000D03*
%TO.P,J1,24,S9*%
%TO.N,/S9*%
X143150320Y-62720000D03*
%TO.P,J1,25,RX3p*%
%TO.N,/RX3P*%
X144150320Y-68900000D03*
%TO.P,J1,26,TX3p*%
%TO.N,/TX3P*%
X144150320Y-62720000D03*
%TO.P,J1,27,RX3n*%
%TO.N,/RX3N*%
X144650320Y-68900000D03*
%TO.P,J1,28,TX3n*%
%TO.N,/TX3N*%
X144650320Y-62720000D03*
%TO.P,J1,29,RX2p*%
%TO.N,/RX2P*%
X145650330Y-68900000D03*
%TO.P,J1,30,TX2p*%
%TO.N,/TX2P*%
X145650330Y-62720000D03*
%TO.P,J1,31,RX2n*%
%TO.N,/RX2N*%
X146150320Y-68900000D03*
%TO.P,J1,32,TX2n*%
%TO.N,/TX2N*%
X146150320Y-62720000D03*
%TO.P,J1,33,P2C_CLKp*%
%TO.N,/P2C_CLKP*%
X147150320Y-68900000D03*
%TO.P,J1,34,C2P_CLKp*%
%TO.N,/C2P_CLKP*%
X147150320Y-62720000D03*
%TO.P,J1,35,P2C_CLKn*%
%TO.N,/P2C_CLKN*%
X147650320Y-68900000D03*
%TO.P,J1,36,C2P_CLKn*%
%TO.N,/C2P_CLKN*%
X147650320Y-62720000D03*
%TO.P,J1,37,RSVD*%
%TO.N,/RSVD_37*%
X148650320Y-68900000D03*
%TO.P,J1,38,RSVD*%
%TO.N,/RSVD_38*%
X148650320Y-62720000D03*
%TO.P,J1,39,VIO*%
%TO.N,/VIO*%
X149150320Y-68900000D03*
%TO.P,J1,40,+3.3V*%
%TO.N,+3V3*%
X149150320Y-62720000D03*
D24*
%TO.P,J1,MH*%
%TO.N,N/C*%
X153245320Y-66310000D03*
X131555320Y-66310000D03*
%TD*%
D25*
%TO.N,+5V*%
X134668730Y-62308600D03*
X134668730Y-63100000D03*
%TO.N,GND*%
X125400000Y-82100000D03*
X133057200Y-66544600D03*
X145900320Y-66510000D03*
X139422120Y-66513440D03*
X143500320Y-66510000D03*
X145200320Y-66510000D03*
X150166320Y-66510000D03*
X151436320Y-66510000D03*
X147499320Y-66510000D03*
X141276320Y-66510000D03*
X139975320Y-66513440D03*
X137694920Y-66510000D03*
X135521000Y-75259200D03*
X135394000Y-72135000D03*
X133301600Y-75960800D03*
X132295200Y-74751200D03*
X133301600Y-74751200D03*
X132295200Y-75960800D03*
X134022400Y-66544600D03*
X135419400Y-73786000D03*
%TO.N,+3V3*%
X124500000Y-88050000D03*
X149735520Y-62374800D03*
X149735520Y-63111400D03*
X129850000Y-78925000D03*
X135521000Y-75945000D03*
X134632000Y-70509400D03*
X133412800Y-79501000D03*
%TO.N,/R_GA*%
X133717600Y-70509400D03*
X133920800Y-68932200D03*
%TO.N,/RSVD_38*%
X148650320Y-63788400D03*
%TO.N,/RSVD_37*%
X149995240Y-71092070D03*
%TO.N,/C2P_CLKN*%
X147737710Y-64034600D03*
%TO.N,/C2P_CLKP*%
X147077310Y-64034600D03*
%TO.N,/MCU_SDA_MOSI*%
X121450002Y-85350000D03*
X129806000Y-76326000D03*
%TO.N,/MCU_SCL_USCK*%
X129907600Y-72566800D03*
X129400000Y-85819910D03*
%TO.N,/MCU_MISO*%
X125700000Y-88050000D03*
X129806000Y-74370200D03*
%TO.N,/MCU_RESET_B*%
X127550000Y-81950000D03*
%TO.N,/VIO*%
X149735520Y-69511200D03*
X149735520Y-68800000D03*
%TO.N,/RX0P*%
X136577320Y-70214600D03*
%TO.N,/RX0N*%
X137237720Y-70214600D03*
%TO.N,/TX2P*%
X145577320Y-64034600D03*
%TO.N,/TX1P*%
X138077310Y-64034600D03*
%TO.N,/TX3P*%
X144077310Y-64034600D03*
%TO.N,/S3*%
X141074920Y-63788400D03*
%TO.N,/TX0P*%
X136577320Y-64034600D03*
%TO.N,/S9*%
X143233920Y-63788400D03*
%TO.N,/RX1P*%
X138077320Y-70214600D03*
%TO.N,/RX1N*%
X138737720Y-70214600D03*
%TO.N,/TX2N*%
X146237720Y-64034600D03*
%TO.N,/RX2P*%
X145577320Y-70214600D03*
%TO.N,/S5*%
X141735320Y-63788400D03*
%TO.N,/RX2N*%
X146237720Y-70214600D03*
%TO.N,/TX3N*%
X144737710Y-64034600D03*
%TO.N,/S7*%
X142573520Y-63788400D03*
%TO.N,/S1*%
X140236720Y-63788400D03*
%TO.N,/S0*%
X139576320Y-63788400D03*
%TO.N,/TX1N*%
X138737710Y-64034600D03*
%TO.N,/RX3N*%
X144737710Y-70214600D03*
%TO.N,/TX0N*%
X137237720Y-64034600D03*
%TO.N,/RX3P*%
X144077310Y-70214600D03*
%TD*%
D26*
%TO.N,GND*%
X135419400Y-75360800D02*
X135521000Y-75259200D01*
D27*
X134634800Y-72135000D02*
X135394000Y-72135000D01*
D28*
X126035000Y-82835000D02*
X125400000Y-82200000D01*
D29*
X136102400Y-75259200D02*
X136206800Y-75154800D01*
X135521000Y-75259200D02*
X136102400Y-75259200D01*
D26*
X134701600Y-75360800D02*
X135419400Y-75360800D01*
D28*
X126035000Y-83130000D02*
X126035000Y-82835000D01*
X125400000Y-82200000D02*
X125400000Y-82100000D01*
%TO.N,+3V3*%
X126400000Y-86035000D02*
X126035000Y-85670000D01*
X126000000Y-88600000D02*
X126400000Y-88200000D01*
X126400000Y-88200000D02*
X126400000Y-86035000D01*
X125050000Y-88600000D02*
X126000000Y-88600000D01*
X124500000Y-88050000D02*
X125050000Y-88600000D01*
D29*
X135521000Y-75945000D02*
X136077000Y-75945000D01*
D26*
X134701600Y-75860800D02*
X135436800Y-75860800D01*
D28*
X134624800Y-70516600D02*
X134632000Y-70509400D01*
D30*
X152541400Y-62711600D02*
X155028200Y-65198400D01*
D28*
X134624800Y-71169800D02*
X134624800Y-70516600D01*
X133412800Y-79501000D02*
X133583400Y-79330400D01*
D26*
X135436800Y-75860800D02*
X135521000Y-75945000D01*
D28*
X133583400Y-79330400D02*
X133583400Y-78789800D01*
D29*
X136077000Y-75945000D02*
X136206800Y-76074800D01*
D30*
X155028200Y-65198400D02*
X155028200Y-78000000D01*
X149811720Y-62711600D02*
X152541400Y-62711600D01*
D28*
%TO.N,/R_GA*%
X133701600Y-73360800D02*
X133701600Y-71193000D01*
X135650320Y-62720000D02*
X135650320Y-66999480D01*
X135267000Y-67382800D02*
X134530400Y-67382800D01*
X135650320Y-66999480D02*
X135267000Y-67382800D01*
X133724800Y-71169800D02*
X133724800Y-70465800D01*
X134149400Y-67763800D02*
X134149400Y-68703600D01*
X133701600Y-71193000D02*
X133724800Y-71169800D01*
X133717600Y-70458600D02*
X133724800Y-70465800D01*
X134149400Y-68703600D02*
X133920800Y-68932200D01*
X134530400Y-67382800D02*
X134149400Y-67763800D01*
D31*
%TO.N,/RSVD_38*%
X148650320Y-63788400D02*
X148650320Y-62720000D01*
%TO.N,/RSVD_37*%
X148650320Y-69747150D02*
X148650320Y-68900000D01*
X148650320Y-69747150D02*
X149995240Y-71092070D01*
D32*
%TO.N,/C2P_CLKN*%
X147575000Y-63245000D02*
X147575000Y-63871880D01*
X147575000Y-63871880D02*
X147737720Y-64034600D01*
%TO.N,/P2C_CLKN*%
X147538070Y-70798800D02*
X147538070Y-69655800D01*
X147567000Y-68983320D02*
X147650320Y-68900000D01*
X147567000Y-69608890D02*
X147567000Y-68983320D01*
%TO.N,/C2P_CLKP*%
X147077320Y-64034600D02*
X147225000Y-63886920D01*
X147225000Y-63886920D02*
X147225000Y-63245000D01*
%TO.N,/P2C_CLKP*%
X147252320Y-70798800D02*
X147252320Y-69605000D01*
X147150320Y-68900000D02*
X147233650Y-68983320D01*
X147233650Y-69619900D02*
X147233650Y-68983320D01*
D28*
%TO.N,/MCU_SDA_MOSI*%
X121450002Y-85350000D02*
X120875000Y-85925002D01*
X135450000Y-67850000D02*
X135650320Y-68050320D01*
X130692200Y-76351400D02*
X130701600Y-76360800D01*
X126969010Y-85334010D02*
X126035000Y-84400000D01*
X134555800Y-68044200D02*
X134750000Y-67850000D01*
X129780600Y-76351400D02*
X130692200Y-76351400D01*
X134368200Y-69450000D02*
X134555800Y-69262400D01*
X120875000Y-85925002D02*
X120875000Y-87725000D01*
X134555800Y-69262400D02*
X134555800Y-68044200D01*
X134750000Y-67850000D02*
X135450000Y-67850000D01*
X129925000Y-88075000D02*
X129925000Y-85625000D01*
X135650320Y-68050320D02*
X135650320Y-68900000D01*
X132050000Y-69450000D02*
X134368200Y-69450000D01*
X122500000Y-89350000D02*
X128650000Y-89350000D01*
X129806000Y-76326000D02*
X128917000Y-75437000D01*
X120875000Y-87725000D02*
X122500000Y-89350000D01*
X128917000Y-75437000D02*
X128917000Y-72583000D01*
X128917000Y-72583000D02*
X132050000Y-69450000D01*
X129925000Y-85625000D02*
X129634010Y-85334010D01*
X129634010Y-85334010D02*
X126969010Y-85334010D01*
X128650000Y-89350000D02*
X129925000Y-88075000D01*
%TO.N,/MCU_SCL_USCK*%
X124500000Y-84400000D02*
X124765000Y-84400000D01*
X122650000Y-89000000D02*
X121275000Y-87625000D01*
X131701600Y-73360800D02*
X131701600Y-73065400D01*
X122200000Y-85350000D02*
X123550000Y-85350000D01*
X129550000Y-85969910D02*
X129550000Y-87875000D01*
X130212400Y-72871600D02*
X131507800Y-72871600D01*
X129400000Y-85819910D02*
X129550000Y-85969910D01*
X129907600Y-72566800D02*
X129907600Y-72185800D01*
X121275000Y-87625000D02*
X121275000Y-86275000D01*
X129550000Y-87875000D02*
X128425000Y-89000000D01*
X132219000Y-69874400D02*
X135025600Y-69874400D01*
X131507800Y-72871600D02*
X131701600Y-73065400D01*
X123550000Y-85350000D02*
X124500000Y-84400000D01*
X129907600Y-72185800D02*
X132219000Y-69874400D01*
X135025600Y-69874400D02*
X135150320Y-69749680D01*
X128425000Y-89000000D02*
X122650000Y-89000000D01*
X121275000Y-86275000D02*
X122200000Y-85350000D01*
X135150320Y-69749680D02*
X135150320Y-68900000D01*
X129907600Y-72566800D02*
X130212400Y-72871600D01*
%TO.N,/MCU_MISO*%
X124500000Y-87259210D02*
X125290790Y-88050000D01*
X124500000Y-85935000D02*
X124500000Y-87259210D01*
X124765000Y-85670000D02*
X124500000Y-85935000D01*
X125290790Y-88050000D02*
X125700000Y-88050000D01*
X130692200Y-74370200D02*
X130701600Y-74360800D01*
X129806000Y-74370200D02*
X130692200Y-74370200D01*
%TO.N,/MCU_RESET_B*%
X127550000Y-81450000D02*
X127050000Y-80950000D01*
X123950000Y-80950000D02*
X123400000Y-81500000D01*
X127550000Y-81950000D02*
X127550000Y-81450000D01*
X124430000Y-83130000D02*
X124765000Y-83130000D01*
X123400000Y-82100000D02*
X124430000Y-83130000D01*
X127050000Y-80950000D02*
X123950000Y-80950000D01*
X123400000Y-81500000D02*
X123400000Y-82100000D01*
X132683400Y-78789800D02*
X129523200Y-81950000D01*
X132701600Y-78771600D02*
X132701600Y-77360800D01*
X129523200Y-81950000D02*
X127550000Y-81950000D01*
%TO.N,Net-(TP11-Pad1)*%
X131701600Y-77656200D02*
X131701600Y-77360800D01*
X130745800Y-78612000D02*
X131701600Y-77656200D01*
%TO.N,Net-(TP7-Pad1)*%
X133201600Y-77842000D02*
X133201600Y-77360800D01*
X134403400Y-78129400D02*
X134733600Y-78459600D01*
X133489000Y-78129400D02*
X134403400Y-78129400D01*
X133201600Y-77842000D02*
X133489000Y-78129400D01*
%TO.N,Net-(TP9-Pad1)*%
X131660200Y-78612000D02*
X132201600Y-78070600D01*
X132201600Y-78070600D02*
X132201600Y-77360800D01*
%TO.N,Net-(TP8-Pad1)*%
X132701600Y-73360800D02*
X132701600Y-72871600D01*
X131914200Y-72084200D02*
X132701600Y-72871600D01*
X131914200Y-72084200D02*
X131914200Y-72033400D01*
%TO.N,Net-(TP5-Pad1)*%
X133701600Y-77360800D02*
X135387400Y-77360800D01*
X135387400Y-77360800D02*
X135622600Y-77596000D01*
%TO.N,Net-(TP6-Pad1)*%
X132777800Y-72414400D02*
X132777800Y-72033400D01*
X133201600Y-73360800D02*
X133201600Y-72838200D01*
X132777800Y-72414400D02*
X133201600Y-72838200D01*
%TO.N,Net-(TP10-Pad1)*%
X131050600Y-72033400D02*
X131203000Y-72033400D01*
X132201600Y-73360800D02*
X132201600Y-73032000D01*
X131203000Y-72033400D02*
X132201600Y-73032000D01*
D32*
%TO.N,/RX0P*%
X136577330Y-70214600D02*
X136725010Y-70066920D01*
X136725010Y-70066920D02*
X136725010Y-69425000D01*
%TO.N,/RX0N*%
X137075010Y-70051880D02*
X137237730Y-70214600D01*
X137075010Y-69425000D02*
X137075010Y-70051880D01*
%TO.N,/REFCLKN*%
X140067000Y-69608890D02*
X140067000Y-68983320D01*
X140067000Y-68983320D02*
X140150320Y-68900000D01*
X140038070Y-70798800D02*
X140038070Y-69655800D01*
%TO.N,/TX2P*%
X145725010Y-63886920D02*
X145725010Y-63245000D01*
X145577330Y-64034600D02*
X145725010Y-63886920D01*
D31*
%TO.N,/S6*%
X142650320Y-70810000D02*
X142650320Y-68900000D01*
D32*
%TO.N,/TX1P*%
X138077320Y-64034600D02*
X138225000Y-63886920D01*
X138225000Y-63886920D02*
X138225000Y-63245000D01*
%TO.N,/TX3P*%
X144077320Y-64034600D02*
X144225000Y-63886920D01*
X144225000Y-63886920D02*
X144225000Y-63245000D01*
%TO.N,/REFCLKP*%
X139650320Y-68900000D02*
X139733650Y-68983320D01*
X139733650Y-69619900D02*
X139733650Y-68983320D01*
X139752320Y-70798800D02*
X139752320Y-69605000D01*
D31*
%TO.N,/S3*%
X141150320Y-63713000D02*
X141150320Y-62720000D01*
X141074920Y-63788400D02*
X141150320Y-63713000D01*
D32*
%TO.N,/TX0P*%
X136725010Y-63886920D02*
X136725010Y-63245000D01*
X136577330Y-64034600D02*
X136725010Y-63886920D01*
D31*
%TO.N,/S8*%
X143150320Y-70810000D02*
X143150320Y-68900000D01*
%TO.N,/S9*%
X143150320Y-63704800D02*
X143150320Y-62720000D01*
X143150320Y-63704800D02*
X143233920Y-63788400D01*
D32*
%TO.N,/RX1P*%
X138225000Y-70066920D02*
X138225000Y-69425000D01*
X138077320Y-70214600D02*
X138225000Y-70066920D01*
%TO.N,/RX1N*%
X138575000Y-69425000D02*
X138575000Y-70051880D01*
X138575000Y-70051880D02*
X138737720Y-70214600D01*
%TO.N,/TX2N*%
X146075010Y-63871880D02*
X146237730Y-64034600D01*
X146075010Y-63245000D02*
X146075010Y-63871880D01*
%TO.N,/RX2P*%
X145725010Y-70066920D02*
X145725010Y-69425000D01*
X145577330Y-70214600D02*
X145725010Y-70066920D01*
D31*
%TO.N,/S5*%
X141650320Y-63703400D02*
X141735320Y-63788400D01*
X141650320Y-63703400D02*
X141650320Y-62720000D01*
D32*
%TO.N,/RX2N*%
X146075010Y-70051880D02*
X146237730Y-70214600D01*
X146075010Y-69425000D02*
X146075010Y-70051880D01*
%TO.N,/TX3N*%
X144575000Y-63871880D02*
X144737720Y-64034600D01*
X144575000Y-63245000D02*
X144575000Y-63871880D01*
D31*
%TO.N,/S7*%
X142650320Y-63711590D02*
X142650320Y-62720000D01*
X142573520Y-63788400D02*
X142650320Y-63711590D01*
%TO.N,/S1*%
X140150320Y-63702000D02*
X140150320Y-62720000D01*
X140150320Y-63702000D02*
X140236720Y-63788400D01*
%TO.N,/S2*%
X141150320Y-70810000D02*
X141150320Y-68900000D01*
%TO.N,/S0*%
X139650320Y-63714390D02*
X139650320Y-62720000D01*
X139576320Y-63788400D02*
X139650320Y-63714390D01*
%TO.N,/S4*%
X141650320Y-70810000D02*
X141650320Y-68900000D01*
D32*
%TO.N,/TX1N*%
X138575000Y-63871880D02*
X138737720Y-64034600D01*
X138575000Y-63245000D02*
X138575000Y-63871880D01*
%TO.N,/RX3N*%
X144575000Y-69425000D02*
X144575000Y-70051880D01*
X144575000Y-70051880D02*
X144737720Y-70214600D01*
%TO.N,/TX0N*%
X137075010Y-63871880D02*
X137237730Y-64034600D01*
X137075010Y-63245000D02*
X137075010Y-63871880D01*
%TO.N,/RX3P*%
X144225000Y-70066920D02*
X144225000Y-69425000D01*
X144077320Y-70214600D02*
X144225000Y-70066920D01*
%TD*%
%TA.AperFunction,Conductor*%
%TO.N,+5V*%
G36*
X135137141Y-62018002D02*
G01*
X135183634Y-62071658D01*
X135195020Y-62124000D01*
X135195020Y-63319800D01*
X135175018Y-63387921D01*
X135121362Y-63434414D01*
X135069020Y-63445800D01*
X134478600Y-63445800D01*
X134410479Y-63425798D01*
X134363986Y-63372142D01*
X134352600Y-63319800D01*
X134352600Y-62124000D01*
X134372602Y-62055879D01*
X134426258Y-62009386D01*
X134478600Y-61998000D01*
X135069020Y-61998000D01*
X135137141Y-62018002D01*
G37*
%TD.AperFunction*%
%TD*%
%TA.AperFunction,Conductor*%
%TO.N,/VIO*%
G36*
X149818981Y-68190202D02*
G01*
X149836163Y-68203468D01*
X149936966Y-68296200D01*
X150009106Y-68362564D01*
X150045698Y-68423404D01*
X150049800Y-68455294D01*
X150049800Y-69692000D01*
X150029798Y-69760121D01*
X149976142Y-69806614D01*
X149923800Y-69818000D01*
X149294922Y-69818000D01*
X149226801Y-69797998D01*
X149205827Y-69781095D01*
X149142525Y-69717793D01*
X149108499Y-69655481D01*
X149105620Y-69628698D01*
X149105620Y-68296200D01*
X149125622Y-68228079D01*
X149179278Y-68181586D01*
X149231620Y-68170200D01*
X149750860Y-68170200D01*
X149818981Y-68190202D01*
G37*
%TD.AperFunction*%
%TD*%
%TA.AperFunction,Conductor*%
%TO.N,GND*%
G36*
X147842121Y-65520002D02*
G01*
X147888614Y-65573658D01*
X147900000Y-65626000D01*
X147900000Y-66724000D01*
X147879998Y-66792121D01*
X147826342Y-66838614D01*
X147774000Y-66850000D01*
X143376000Y-66850000D01*
X143307879Y-66829998D01*
X143261386Y-66776342D01*
X143250000Y-66724000D01*
X143250000Y-65626000D01*
X143270002Y-65557879D01*
X143323658Y-65511386D01*
X143376000Y-65500000D01*
X147774000Y-65500000D01*
X147842121Y-65520002D01*
G37*
%TD.AperFunction*%
%TD*%
%TA.AperFunction,Conductor*%
%TO.N,GND*%
G36*
X141492121Y-65520002D02*
G01*
X141538614Y-65573658D01*
X141550000Y-65626000D01*
X141550000Y-66724000D01*
X141529998Y-66792121D01*
X141476342Y-66838614D01*
X141424000Y-66850000D01*
X137026000Y-66850000D01*
X136957879Y-66829998D01*
X136911386Y-66776342D01*
X136900000Y-66724000D01*
X136900000Y-65626000D01*
X136920002Y-65557879D01*
X136973658Y-65511386D01*
X137026000Y-65500000D01*
X141424000Y-65500000D01*
X141492121Y-65520002D01*
G37*
%TD.AperFunction*%
%TD*%
%TA.AperFunction,Conductor*%
%TO.N,GND*%
G36*
X152022121Y-65520002D02*
G01*
X152068614Y-65573658D01*
X152080000Y-65626000D01*
X152080000Y-66774000D01*
X152059998Y-66842121D01*
X152006342Y-66888614D01*
X151954000Y-66900000D01*
X149706000Y-66900000D01*
X149637879Y-66879998D01*
X149591386Y-66826342D01*
X149580000Y-66774000D01*
X149580000Y-65626000D01*
X149600002Y-65557879D01*
X149653658Y-65511386D01*
X149706000Y-65500000D01*
X151954000Y-65500000D01*
X152022121Y-65520002D01*
G37*
%TD.AperFunction*%
%TD*%
%TA.AperFunction,Conductor*%
%TO.N,GND*%
G36*
X135122041Y-65520002D02*
G01*
X135168534Y-65573658D01*
X135179920Y-65626000D01*
X135179920Y-66752444D01*
X135159918Y-66820565D01*
X135143015Y-66841539D01*
X135121459Y-66863095D01*
X135059147Y-66897121D01*
X135032364Y-66900000D01*
X132826000Y-66900000D01*
X132757879Y-66879998D01*
X132711386Y-66826342D01*
X132700000Y-66774000D01*
X132700000Y-65626000D01*
X132720002Y-65557879D01*
X132773658Y-65511386D01*
X132826000Y-65500000D01*
X135053920Y-65500000D01*
X135122041Y-65520002D01*
G37*
%TD.AperFunction*%
%TD*%
%TA.AperFunction,Conductor*%
%TO.N,+3V3*%
G36*
X149957041Y-62013802D02*
G01*
X150003534Y-62067458D01*
X150014920Y-62119800D01*
X150014920Y-63290200D01*
X149994918Y-63358321D01*
X149941262Y-63404814D01*
X149888920Y-63416200D01*
X149307820Y-63416200D01*
X149239699Y-63396198D01*
X149193206Y-63342542D01*
X149181820Y-63290200D01*
X149181820Y-62119800D01*
X149201822Y-62051679D01*
X149255478Y-62005186D01*
X149307820Y-61993800D01*
X149888920Y-61993800D01*
X149957041Y-62013802D01*
G37*
%TD.AperFunction*%
%TD*%
M02*
