%TF.GenerationSoftware,KiCad,Pcbnew,(5.1.9)-1*%
%TF.CreationDate,2021-04-06T13:05:03-07:00*%
%TF.ProjectId,SZG-TEMPLATE-TXR,535a472d-5445-44d5-904c-4154452d5458,A*%
%TF.SameCoordinates,Original*%
%TF.FileFunction,Paste,Bot*%
%TF.FilePolarity,Positive*%
%FSLAX46Y46*%
G04 Gerber Fmt 4.6, Leading zero omitted, Abs format (unit mm)*
G04 Created by KiCad (PCBNEW (5.1.9)-1) date 2021-04-06 13:05:03*
%MOMM*%
%LPD*%
G01*
G04 APERTURE LIST*
%ADD10R,0.300000X1.450000*%
%ADD11R,2.540000X0.640000*%
%ADD12R,4.700000X0.640000*%
%ADD13R,2.700000X2.700000*%
%ADD14O,0.800000X0.250000*%
%ADD15O,0.250000X0.800000*%
%ADD16C,0.254000*%
%ADD17C,0.100000*%
G04 APERTURE END LIST*
D10*
%TO.C,J1*%
X136650330Y-68900000D03*
X137150320Y-68900000D03*
X135650320Y-68900000D03*
X135150320Y-68900000D03*
X140150320Y-68900000D03*
X145650330Y-62720000D03*
X147150320Y-68900000D03*
X137150320Y-62720000D03*
X142650320Y-68900000D03*
X138150320Y-62720000D03*
D11*
X133960320Y-65810000D03*
D12*
X145580320Y-65810000D03*
D10*
X144150320Y-68900000D03*
X144150320Y-62720000D03*
X139650320Y-68900000D03*
X141150320Y-62720000D03*
X136650330Y-62720000D03*
X143150320Y-68900000D03*
X143150320Y-62720000D03*
X149150320Y-62720000D03*
X149150320Y-68900000D03*
X138150320Y-68900000D03*
X138650320Y-68900000D03*
X146150320Y-62720000D03*
X145650330Y-68900000D03*
X148650320Y-68900000D03*
X141650320Y-62720000D03*
X146150320Y-68900000D03*
X144650320Y-62720000D03*
X142650320Y-62720000D03*
X140150320Y-62720000D03*
X141150320Y-68900000D03*
X139650320Y-62720000D03*
X141650320Y-68900000D03*
X138650320Y-62720000D03*
X135150320Y-62720000D03*
X144650320Y-68900000D03*
X147150320Y-62720000D03*
X135650320Y-62720000D03*
X147650320Y-68900000D03*
X148650320Y-62720000D03*
X147650320Y-62720000D03*
D11*
X150840320Y-65810000D03*
D12*
X139230320Y-65810000D03*
%TD*%
D13*
%TO.C,U1*%
X132701600Y-75360800D03*
D14*
X130701600Y-75360800D03*
X130701600Y-74860800D03*
D15*
X131701600Y-77360800D03*
D14*
X130701600Y-74360800D03*
X130701600Y-76360800D03*
D15*
X133201600Y-77360800D03*
D14*
X134701600Y-75360800D03*
X134701600Y-74360800D03*
D15*
X131701600Y-73360800D03*
D14*
X130701600Y-75860800D03*
D15*
X132201600Y-77360800D03*
X132701600Y-77360800D03*
D14*
X134701600Y-74860800D03*
X134701600Y-75860800D03*
D15*
X132701600Y-73360800D03*
D14*
X134701600Y-76360800D03*
D15*
X133701600Y-77360800D03*
X133701600Y-73360800D03*
X133201600Y-73360800D03*
X132201600Y-73360800D03*
%TD*%
%TO.C,R1*%
G36*
G01*
X133934800Y-70984800D02*
X133934800Y-71354800D01*
G75*
G02*
X133799800Y-71489800I-135000J0D01*
G01*
X133529800Y-71489800D01*
G75*
G02*
X133394800Y-71354800I0J135000D01*
G01*
X133394800Y-70984800D01*
G75*
G02*
X133529800Y-70849800I135000J0D01*
G01*
X133799800Y-70849800D01*
G75*
G02*
X133934800Y-70984800I0J-135000D01*
G01*
G37*
G36*
G01*
X134954800Y-70984800D02*
X134954800Y-71354800D01*
G75*
G02*
X134819800Y-71489800I-135000J0D01*
G01*
X134549800Y-71489800D01*
G75*
G02*
X134414800Y-71354800I0J135000D01*
G01*
X134414800Y-70984800D01*
G75*
G02*
X134549800Y-70849800I135000J0D01*
G01*
X134819800Y-70849800D01*
G75*
G02*
X134954800Y-70984800I0J-135000D01*
G01*
G37*
%TD*%
%TO.C,R2*%
G36*
G01*
X132893400Y-78604800D02*
X132893400Y-78974800D01*
G75*
G02*
X132758400Y-79109800I-135000J0D01*
G01*
X132488400Y-79109800D01*
G75*
G02*
X132353400Y-78974800I0J135000D01*
G01*
X132353400Y-78604800D01*
G75*
G02*
X132488400Y-78469800I135000J0D01*
G01*
X132758400Y-78469800D01*
G75*
G02*
X132893400Y-78604800I0J-135000D01*
G01*
G37*
G36*
G01*
X133913400Y-78604800D02*
X133913400Y-78974800D01*
G75*
G02*
X133778400Y-79109800I-135000J0D01*
G01*
X133508400Y-79109800D01*
G75*
G02*
X133373400Y-78974800I0J135000D01*
G01*
X133373400Y-78604800D01*
G75*
G02*
X133508400Y-78469800I135000J0D01*
G01*
X133778400Y-78469800D01*
G75*
G02*
X133913400Y-78604800I0J-135000D01*
G01*
G37*
%TD*%
%TO.C,C2*%
G36*
G01*
X134374800Y-72305000D02*
X134374800Y-71965000D01*
G75*
G02*
X134514800Y-71825000I140000J0D01*
G01*
X134794800Y-71825000D01*
G75*
G02*
X134934800Y-71965000I0J-140000D01*
G01*
X134934800Y-72305000D01*
G75*
G02*
X134794800Y-72445000I-140000J0D01*
G01*
X134514800Y-72445000D01*
G75*
G02*
X134374800Y-72305000I0J140000D01*
G01*
G37*
G36*
G01*
X133414800Y-72305000D02*
X133414800Y-71965000D01*
G75*
G02*
X133554800Y-71825000I140000J0D01*
G01*
X133834800Y-71825000D01*
G75*
G02*
X133974800Y-71965000I0J-140000D01*
G01*
X133974800Y-72305000D01*
G75*
G02*
X133834800Y-72445000I-140000J0D01*
G01*
X133554800Y-72445000D01*
G75*
G02*
X133414800Y-72305000I0J140000D01*
G01*
G37*
%TD*%
%TO.C,C1*%
G36*
G01*
X136376800Y-75414800D02*
X136036800Y-75414800D01*
G75*
G02*
X135896800Y-75274800I0J140000D01*
G01*
X135896800Y-74994800D01*
G75*
G02*
X136036800Y-74854800I140000J0D01*
G01*
X136376800Y-74854800D01*
G75*
G02*
X136516800Y-74994800I0J-140000D01*
G01*
X136516800Y-75274800D01*
G75*
G02*
X136376800Y-75414800I-140000J0D01*
G01*
G37*
G36*
G01*
X136376800Y-76374800D02*
X136036800Y-76374800D01*
G75*
G02*
X135896800Y-76234800I0J140000D01*
G01*
X135896800Y-75954800D01*
G75*
G02*
X136036800Y-75814800I140000J0D01*
G01*
X136376800Y-75814800D01*
G75*
G02*
X136516800Y-75954800I0J-140000D01*
G01*
X136516800Y-76234800D01*
G75*
G02*
X136376800Y-76374800I-140000J0D01*
G01*
G37*
%TD*%
D16*
X133774550Y-75033850D02*
X133028550Y-75033850D01*
X133028550Y-74287850D01*
X133774550Y-74287850D01*
X133774550Y-75033850D01*
D17*
G36*
X133774550Y-75033850D02*
G01*
X133028550Y-75033850D01*
X133028550Y-74287850D01*
X133774550Y-74287850D01*
X133774550Y-75033850D01*
G37*
D16*
X133774550Y-76433750D02*
X133028550Y-76433750D01*
X133028550Y-75687750D01*
X133774550Y-75687750D01*
X133774550Y-76433750D01*
D17*
G36*
X133774550Y-76433750D02*
G01*
X133028550Y-76433750D01*
X133028550Y-75687750D01*
X133774550Y-75687750D01*
X133774550Y-76433750D01*
G37*
D16*
X132374650Y-76433750D02*
X131628650Y-76433750D01*
X131628650Y-75687750D01*
X132374650Y-75687750D01*
X132374650Y-76433750D01*
D17*
G36*
X132374650Y-76433750D02*
G01*
X131628650Y-76433750D01*
X131628650Y-75687750D01*
X132374650Y-75687750D01*
X132374650Y-76433750D01*
G37*
D16*
X132374650Y-75033850D02*
X131628650Y-75033850D01*
X131628650Y-74287850D01*
X132374650Y-74287850D01*
X132374650Y-75033850D01*
D17*
G36*
X132374650Y-75033850D02*
G01*
X131628650Y-75033850D01*
X131628650Y-74287850D01*
X132374650Y-74287850D01*
X132374650Y-75033850D01*
G37*
M02*
