%TF.GenerationSoftware,KiCad,Pcbnew,(6.0.7)*%
%TF.CreationDate,2022-08-04T11:05:02-07:00*%
%TF.ProjectId,SZG-TEMPLATE-TXR,535a472d-5445-44d5-904c-4154452d5458,A*%
%TF.SameCoordinates,Original*%
%TF.FileFunction,Copper,L2,Inr*%
%TF.FilePolarity,Positive*%
%FSLAX46Y46*%
G04 Gerber Fmt 4.6, Leading zero omitted, Abs format (unit mm)*
G04 Created by KiCad (PCBNEW (6.0.7)) date 2022-08-04 11:05:02*
%MOMM*%
%LPD*%
G01*
G04 APERTURE LIST*
%TA.AperFunction,ComponentPad*%
%ADD10C,3.600000*%
%TD*%
%TA.AperFunction,ComponentPad*%
%ADD11C,1.200000*%
%TD*%
%TA.AperFunction,ViaPad*%
%ADD12C,0.508000*%
%TD*%
G04 APERTURE END LIST*
D10*
%TO.N,unconnected-(H1-Pad1)*%
%TO.C,H1*%
X123490000Y-65800000D03*
%TD*%
%TO.N,unconnected-(H2-Pad1)*%
%TO.C,H2*%
X161310000Y-65800000D03*
%TD*%
%TO.N,unconnected-(H3-Pad1)*%
%TO.C,H3*%
X122400000Y-75800000D03*
%TD*%
%TO.N,unconnected-(H4-Pad1)*%
%TO.C,H4*%
X162400000Y-75800000D03*
%TD*%
%TO.N,unconnected-(H5-Pad1)*%
%TO.C,H5*%
X122400000Y-123800000D03*
%TD*%
%TO.N,unconnected-(H6-Pad1)*%
%TO.C,H6*%
X162400000Y-123800000D03*
%TD*%
D11*
%TO.N,N/C*%
%TO.C,J1*%
X153245320Y-66310000D03*
X131555320Y-66310000D03*
%TD*%
D12*
%TO.N,+5V*%
X134668730Y-62308600D03*
X134668730Y-63100000D03*
%TO.N,GND*%
X125400000Y-82100000D03*
X133057200Y-66544600D03*
X145900320Y-66510000D03*
X139422120Y-66513440D03*
X143500320Y-66510000D03*
X145200320Y-66510000D03*
X150166320Y-66510000D03*
X151436320Y-66510000D03*
X147499320Y-66510000D03*
X141276320Y-66510000D03*
X139975320Y-66513440D03*
X137694920Y-66510000D03*
X135521000Y-75259200D03*
X135394000Y-72135000D03*
X133301600Y-75960800D03*
X132295200Y-74751200D03*
X133301600Y-74751200D03*
X132295200Y-75960800D03*
X134022400Y-66544600D03*
X135419400Y-73786000D03*
%TO.N,+3V3*%
X124500000Y-88050000D03*
X149735520Y-62374800D03*
X149735520Y-63111400D03*
X129850000Y-78925000D03*
X135521000Y-75945000D03*
X134632000Y-70509400D03*
X133412800Y-79501000D03*
%TO.N,/R_GA*%
X133717600Y-70509400D03*
X133920800Y-68932200D03*
%TO.N,/RSVD_38*%
X148650320Y-63788400D03*
%TO.N,/RSVD_37*%
X149995240Y-71092070D03*
%TO.N,/C2P_CLKN*%
X147737710Y-64034600D03*
%TO.N,/C2P_CLKP*%
X147077310Y-64034600D03*
%TO.N,/MCU_SDA_MOSI*%
X121450002Y-85350000D03*
X129806000Y-76326000D03*
%TO.N,/MCU_SCL_USCK*%
X129907600Y-72566800D03*
X129400000Y-85819910D03*
%TO.N,/MCU_MISO*%
X125700000Y-88050000D03*
X129806000Y-74370200D03*
%TO.N,/MCU_RESET_B*%
X127550000Y-81950000D03*
%TO.N,/VIO*%
X149735520Y-69511200D03*
X149735520Y-68800000D03*
%TO.N,/RX0P*%
X136577320Y-70214600D03*
%TO.N,/RX0N*%
X137237720Y-70214600D03*
%TO.N,/TX2P*%
X145577320Y-64034600D03*
%TO.N,/TX1P*%
X138077310Y-64034600D03*
%TO.N,/TX3P*%
X144077310Y-64034600D03*
%TO.N,/S3*%
X141074920Y-63788400D03*
%TO.N,/TX0P*%
X136577320Y-64034600D03*
%TO.N,/S9*%
X143233920Y-63788400D03*
%TO.N,/RX1P*%
X138077320Y-70214600D03*
%TO.N,/RX1N*%
X138737720Y-70214600D03*
%TO.N,/TX2N*%
X146237720Y-64034600D03*
%TO.N,/RX2P*%
X145577320Y-70214600D03*
%TO.N,/S5*%
X141735320Y-63788400D03*
%TO.N,/RX2N*%
X146237720Y-70214600D03*
%TO.N,/TX3N*%
X144737710Y-64034600D03*
%TO.N,/S7*%
X142573520Y-63788400D03*
%TO.N,/S1*%
X140236720Y-63788400D03*
%TO.N,/S0*%
X139576320Y-63788400D03*
%TO.N,/TX1N*%
X138737710Y-64034600D03*
%TO.N,/RX3N*%
X144737710Y-70214600D03*
%TO.N,/TX0N*%
X137237720Y-64034600D03*
%TO.N,/RX3P*%
X144077310Y-70214600D03*
%TD*%
%TA.AperFunction,Conductor*%
%TO.N,GND*%
G36*
X166842098Y-59320014D02*
G01*
X166888602Y-59373660D01*
X166900000Y-59426027D01*
X166900000Y-128174000D01*
X166879998Y-128242121D01*
X166826342Y-128288614D01*
X166774000Y-128300000D01*
X118126000Y-128300000D01*
X118057879Y-128279998D01*
X118011386Y-128226342D01*
X118000000Y-128174000D01*
X118000000Y-123778169D01*
X120315354Y-123778169D01*
X120331679Y-124061290D01*
X120332504Y-124065495D01*
X120332505Y-124065503D01*
X120364065Y-124226363D01*
X120386276Y-124339576D01*
X120387663Y-124343626D01*
X120387664Y-124343631D01*
X120476748Y-124603821D01*
X120478137Y-124607877D01*
X120605559Y-124861229D01*
X120607985Y-124864758D01*
X120607988Y-124864764D01*
X120643937Y-124917070D01*
X120766187Y-125094944D01*
X120957048Y-125304697D01*
X120960337Y-125307447D01*
X121171317Y-125483854D01*
X121171322Y-125483858D01*
X121174609Y-125486606D01*
X121230418Y-125521615D01*
X121411205Y-125635023D01*
X121411209Y-125635025D01*
X121414845Y-125637306D01*
X121418755Y-125639071D01*
X121418756Y-125639072D01*
X121669399Y-125752242D01*
X121669403Y-125752244D01*
X121673311Y-125754008D01*
X121677431Y-125755228D01*
X121677430Y-125755228D01*
X121941111Y-125833334D01*
X121941115Y-125833335D01*
X121945224Y-125834552D01*
X121949458Y-125835200D01*
X121949463Y-125835201D01*
X122221310Y-125876799D01*
X122221312Y-125876799D01*
X122225552Y-125877448D01*
X122369875Y-125879715D01*
X122504817Y-125881836D01*
X122504823Y-125881836D01*
X122509108Y-125881903D01*
X122790645Y-125847833D01*
X123064954Y-125775870D01*
X123068914Y-125774230D01*
X123068919Y-125774228D01*
X123195956Y-125721607D01*
X123326958Y-125667344D01*
X123571809Y-125524264D01*
X123794977Y-125349279D01*
X123841255Y-125301524D01*
X123989348Y-125148702D01*
X123992331Y-125145624D01*
X123994864Y-125142176D01*
X123994868Y-125142171D01*
X124157683Y-124920525D01*
X124160221Y-124917070D01*
X124190540Y-124861229D01*
X124293489Y-124671622D01*
X124293490Y-124671620D01*
X124295539Y-124667846D01*
X124395781Y-124402562D01*
X124459093Y-124126128D01*
X124484303Y-123843660D01*
X124484760Y-123800000D01*
X124484591Y-123797519D01*
X124483272Y-123778169D01*
X160315354Y-123778169D01*
X160331679Y-124061290D01*
X160332504Y-124065495D01*
X160332505Y-124065503D01*
X160364065Y-124226363D01*
X160386276Y-124339576D01*
X160387663Y-124343626D01*
X160387664Y-124343631D01*
X160476748Y-124603821D01*
X160478137Y-124607877D01*
X160605559Y-124861229D01*
X160607985Y-124864758D01*
X160607988Y-124864764D01*
X160643937Y-124917070D01*
X160766187Y-125094944D01*
X160957048Y-125304697D01*
X160960337Y-125307447D01*
X161171317Y-125483854D01*
X161171322Y-125483858D01*
X161174609Y-125486606D01*
X161230418Y-125521615D01*
X161411205Y-125635023D01*
X161411209Y-125635025D01*
X161414845Y-125637306D01*
X161418755Y-125639071D01*
X161418756Y-125639072D01*
X161669399Y-125752242D01*
X161669403Y-125752244D01*
X161673311Y-125754008D01*
X161677431Y-125755228D01*
X161677430Y-125755228D01*
X161941111Y-125833334D01*
X161941115Y-125833335D01*
X161945224Y-125834552D01*
X161949458Y-125835200D01*
X161949463Y-125835201D01*
X162221310Y-125876799D01*
X162221312Y-125876799D01*
X162225552Y-125877448D01*
X162369875Y-125879715D01*
X162504817Y-125881836D01*
X162504823Y-125881836D01*
X162509108Y-125881903D01*
X162790645Y-125847833D01*
X163064954Y-125775870D01*
X163068914Y-125774230D01*
X163068919Y-125774228D01*
X163195956Y-125721607D01*
X163326958Y-125667344D01*
X163571809Y-125524264D01*
X163794977Y-125349279D01*
X163841255Y-125301524D01*
X163989348Y-125148702D01*
X163992331Y-125145624D01*
X163994864Y-125142176D01*
X163994868Y-125142171D01*
X164157683Y-124920525D01*
X164160221Y-124917070D01*
X164190540Y-124861229D01*
X164293489Y-124671622D01*
X164293490Y-124671620D01*
X164295539Y-124667846D01*
X164395781Y-124402562D01*
X164459093Y-124126128D01*
X164484303Y-123843660D01*
X164484760Y-123800000D01*
X164484591Y-123797519D01*
X164465763Y-123521343D01*
X164465762Y-123521337D01*
X164465471Y-123517066D01*
X164407963Y-123239367D01*
X164313298Y-122972042D01*
X164183229Y-122720038D01*
X164172821Y-122705228D01*
X164022626Y-122491523D01*
X164020163Y-122488018D01*
X163827116Y-122280275D01*
X163607662Y-122100654D01*
X163365861Y-121952478D01*
X163348070Y-121944668D01*
X163110119Y-121840215D01*
X163106187Y-121838489D01*
X162833446Y-121760797D01*
X162624934Y-121731122D01*
X162556936Y-121721444D01*
X162556934Y-121721444D01*
X162552684Y-121720839D01*
X162403222Y-121720056D01*
X162273383Y-121719376D01*
X162273376Y-121719376D01*
X162269097Y-121719354D01*
X162264853Y-121719913D01*
X162264849Y-121719913D01*
X162141234Y-121736187D01*
X161987932Y-121756370D01*
X161983792Y-121757503D01*
X161983790Y-121757503D01*
X161718537Y-121830068D01*
X161714392Y-121831202D01*
X161453539Y-121942465D01*
X161449858Y-121944668D01*
X161213881Y-122085897D01*
X161213877Y-122085900D01*
X161210199Y-122088101D01*
X160988876Y-122265414D01*
X160793665Y-122471124D01*
X160628178Y-122701424D01*
X160495477Y-122952052D01*
X160398018Y-123218371D01*
X160337605Y-123495452D01*
X160315354Y-123778169D01*
X124483272Y-123778169D01*
X124465763Y-123521343D01*
X124465762Y-123521337D01*
X124465471Y-123517066D01*
X124407963Y-123239367D01*
X124313298Y-122972042D01*
X124183229Y-122720038D01*
X124172821Y-122705228D01*
X124022626Y-122491523D01*
X124020163Y-122488018D01*
X123827116Y-122280275D01*
X123607662Y-122100654D01*
X123365861Y-121952478D01*
X123348070Y-121944668D01*
X123110119Y-121840215D01*
X123106187Y-121838489D01*
X122833446Y-121760797D01*
X122624934Y-121731122D01*
X122556936Y-121721444D01*
X122556934Y-121721444D01*
X122552684Y-121720839D01*
X122403222Y-121720056D01*
X122273383Y-121719376D01*
X122273376Y-121719376D01*
X122269097Y-121719354D01*
X122264853Y-121719913D01*
X122264849Y-121719913D01*
X122141234Y-121736187D01*
X121987932Y-121756370D01*
X121983792Y-121757503D01*
X121983790Y-121757503D01*
X121718537Y-121830068D01*
X121714392Y-121831202D01*
X121453539Y-121942465D01*
X121449858Y-121944668D01*
X121213881Y-122085897D01*
X121213877Y-122085900D01*
X121210199Y-122088101D01*
X120988876Y-122265414D01*
X120793665Y-122471124D01*
X120628178Y-122701424D01*
X120495477Y-122952052D01*
X120398018Y-123218371D01*
X120337605Y-123495452D01*
X120315354Y-123778169D01*
X118000000Y-123778169D01*
X118000000Y-85350000D01*
X120911495Y-85350000D01*
X120929844Y-85489376D01*
X120983641Y-85619253D01*
X121013064Y-85657598D01*
X121054708Y-85711869D01*
X121069220Y-85730782D01*
X121075770Y-85735808D01*
X121075773Y-85735811D01*
X121121162Y-85770639D01*
X121180748Y-85816361D01*
X121209084Y-85828098D01*
X121302996Y-85866998D01*
X121302999Y-85866999D01*
X121310626Y-85870158D01*
X121450002Y-85888507D01*
X121458190Y-85887429D01*
X121555903Y-85874565D01*
X121626052Y-85885504D01*
X121679150Y-85932633D01*
X121698340Y-86000987D01*
X121677529Y-86068864D01*
X121671231Y-86077579D01*
X121662083Y-86089163D01*
X121633624Y-86125198D01*
X121517013Y-86336438D01*
X121436470Y-86563887D01*
X121435563Y-86568979D01*
X121398066Y-86779484D01*
X121394155Y-86801437D01*
X121394092Y-86806600D01*
X121392482Y-86938442D01*
X121391208Y-87042708D01*
X121427705Y-87281221D01*
X121502668Y-87510570D01*
X121614083Y-87724596D01*
X121617186Y-87728729D01*
X121617188Y-87728732D01*
X121748029Y-87902995D01*
X121758958Y-87917551D01*
X121933402Y-88084253D01*
X121970209Y-88109361D01*
X122103013Y-88199954D01*
X122132730Y-88220226D01*
X122137413Y-88222400D01*
X122137417Y-88222402D01*
X122346895Y-88319638D01*
X122346898Y-88319639D01*
X122351590Y-88321817D01*
X122584104Y-88386299D01*
X122589241Y-88386848D01*
X122777751Y-88406994D01*
X122777759Y-88406994D01*
X122781086Y-88407350D01*
X122921169Y-88407350D01*
X122923742Y-88407138D01*
X122923753Y-88407138D01*
X123024249Y-88398875D01*
X123100478Y-88392608D01*
X123334497Y-88333826D01*
X123482498Y-88269474D01*
X123551037Y-88239673D01*
X123551040Y-88239671D01*
X123555774Y-88237613D01*
X123737318Y-88120167D01*
X123754022Y-88109361D01*
X123754025Y-88109359D01*
X123758365Y-88106551D01*
X123768148Y-88097649D01*
X123831993Y-88066597D01*
X123902492Y-88074991D01*
X123957261Y-88120167D01*
X123977870Y-88174397D01*
X123979842Y-88189376D01*
X124033639Y-88319253D01*
X124038666Y-88325804D01*
X124088959Y-88391347D01*
X124119218Y-88430782D01*
X124125768Y-88435808D01*
X124125771Y-88435811D01*
X124174982Y-88473572D01*
X124230746Y-88516361D01*
X124295685Y-88543260D01*
X124352994Y-88566998D01*
X124352997Y-88566999D01*
X124360624Y-88570158D01*
X124500000Y-88588507D01*
X124508188Y-88587429D01*
X124631188Y-88571236D01*
X124639376Y-88570158D01*
X124647003Y-88566999D01*
X124647006Y-88566998D01*
X124704315Y-88543259D01*
X124769254Y-88516361D01*
X124825018Y-88473572D01*
X124874229Y-88435811D01*
X124874232Y-88435808D01*
X124880782Y-88430782D01*
X124911042Y-88391347D01*
X124961334Y-88325804D01*
X124966361Y-88319253D01*
X124983591Y-88277656D01*
X125028139Y-88222375D01*
X125095503Y-88199954D01*
X125164294Y-88217512D01*
X125212672Y-88269474D01*
X125216408Y-88277654D01*
X125233639Y-88319253D01*
X125238666Y-88325804D01*
X125288959Y-88391347D01*
X125319218Y-88430782D01*
X125325768Y-88435808D01*
X125325771Y-88435811D01*
X125374982Y-88473572D01*
X125430746Y-88516361D01*
X125495685Y-88543260D01*
X125552994Y-88566998D01*
X125552997Y-88566999D01*
X125560624Y-88570158D01*
X125700000Y-88588507D01*
X125708188Y-88587429D01*
X125831188Y-88571236D01*
X125839376Y-88570158D01*
X125847003Y-88566999D01*
X125847006Y-88566998D01*
X125904315Y-88543259D01*
X125969254Y-88516361D01*
X126025018Y-88473572D01*
X126074229Y-88435811D01*
X126074232Y-88435808D01*
X126080782Y-88430782D01*
X126111042Y-88391347D01*
X126161334Y-88325804D01*
X126166361Y-88319253D01*
X126220158Y-88189376D01*
X126238507Y-88050000D01*
X126220158Y-87910624D01*
X126166361Y-87780747D01*
X126080782Y-87669218D01*
X126074232Y-87664192D01*
X126074229Y-87664189D01*
X126017529Y-87620682D01*
X125975662Y-87563344D01*
X125971440Y-87492473D01*
X126000265Y-87440643D01*
X125998554Y-87439268D01*
X126002966Y-87433781D01*
X126007965Y-87428817D01*
X126011737Y-87422874D01*
X126011739Y-87422871D01*
X126097377Y-87287927D01*
X126101154Y-87281976D01*
X126111432Y-87253111D01*
X126157132Y-87124773D01*
X126157133Y-87124768D01*
X126159494Y-87118138D01*
X126160327Y-87111152D01*
X126160328Y-87111148D01*
X126179252Y-86952439D01*
X126180086Y-86945446D01*
X126164950Y-86801437D01*
X126162643Y-86779484D01*
X126162642Y-86779482D01*
X126161907Y-86772484D01*
X126105860Y-86607847D01*
X126102169Y-86601847D01*
X126018422Y-86465718D01*
X126018420Y-86465716D01*
X126014731Y-86459719D01*
X125893049Y-86335462D01*
X125746862Y-86241251D01*
X125740242Y-86238841D01*
X125740239Y-86238840D01*
X125590055Y-86184177D01*
X125590054Y-86184177D01*
X125583436Y-86181768D01*
X125576448Y-86180885D01*
X125576447Y-86180885D01*
X125544121Y-86176801D01*
X125449118Y-86164800D01*
X125356271Y-86164800D01*
X125227169Y-86179281D01*
X125220516Y-86181598D01*
X125220515Y-86181598D01*
X125184497Y-86194141D01*
X125062928Y-86236476D01*
X125056954Y-86240209D01*
X125056952Y-86240210D01*
X124921414Y-86324904D01*
X124915440Y-86328637D01*
X124910442Y-86333600D01*
X124910441Y-86333601D01*
X124891892Y-86352021D01*
X124792035Y-86451183D01*
X124698846Y-86598024D01*
X124696481Y-86604666D01*
X124642868Y-86755227D01*
X124642867Y-86755232D01*
X124640506Y-86761862D01*
X124639673Y-86768848D01*
X124639672Y-86768852D01*
X124630895Y-86842462D01*
X124619914Y-86934554D01*
X124620650Y-86941557D01*
X124620650Y-86941558D01*
X124635585Y-87083651D01*
X124638093Y-87107516D01*
X124694140Y-87272153D01*
X124697829Y-87278149D01*
X124697832Y-87278156D01*
X124732739Y-87334895D01*
X124751398Y-87403396D01*
X124730059Y-87471111D01*
X124675500Y-87516539D01*
X124608977Y-87525840D01*
X124500000Y-87511493D01*
X124404227Y-87524102D01*
X124334080Y-87513163D01*
X124280981Y-87466035D01*
X124261791Y-87397681D01*
X124269009Y-87357122D01*
X124281803Y-87320992D01*
X124281805Y-87320984D01*
X124283530Y-87316113D01*
X124317614Y-87124773D01*
X124324939Y-87083651D01*
X124324939Y-87083647D01*
X124325845Y-87078563D01*
X124327471Y-86945446D01*
X124328729Y-86842462D01*
X124328729Y-86842460D01*
X124328792Y-86837292D01*
X124292295Y-86598779D01*
X124217332Y-86369430D01*
X124149351Y-86238840D01*
X124108306Y-86159993D01*
X124108305Y-86159992D01*
X124105917Y-86155404D01*
X124086639Y-86129727D01*
X123964147Y-85966584D01*
X123964145Y-85966581D01*
X123961042Y-85962449D01*
X123786598Y-85795747D01*
X123587270Y-85659774D01*
X123582587Y-85657600D01*
X123582583Y-85657598D01*
X123373105Y-85560362D01*
X123373102Y-85560361D01*
X123368410Y-85558183D01*
X123135896Y-85493701D01*
X123130759Y-85493152D01*
X122985730Y-85477653D01*
X122920120Y-85450525D01*
X122879592Y-85392233D01*
X122877013Y-85321283D01*
X122913202Y-85260202D01*
X122976669Y-85228382D01*
X122988793Y-85226790D01*
X123100478Y-85217608D01*
X123334497Y-85158826D01*
X123463309Y-85102817D01*
X123551037Y-85064673D01*
X123551040Y-85064671D01*
X123555774Y-85062613D01*
X123707905Y-84964195D01*
X123754022Y-84934361D01*
X123754025Y-84934359D01*
X123758365Y-84931551D01*
X123782871Y-84909253D01*
X123933008Y-84772638D01*
X123933009Y-84772636D01*
X123936830Y-84769160D01*
X123940029Y-84765109D01*
X123940033Y-84765105D01*
X124083171Y-84583860D01*
X124086376Y-84579802D01*
X124202987Y-84368562D01*
X124283530Y-84141113D01*
X124325845Y-83903563D01*
X124328792Y-83662292D01*
X124292295Y-83423779D01*
X124217332Y-83194430D01*
X124105917Y-82980404D01*
X123961042Y-82787449D01*
X123957305Y-82783877D01*
X123954482Y-82780698D01*
X123924214Y-82716477D01*
X123933472Y-82646087D01*
X123979316Y-82591875D01*
X124047191Y-82571055D01*
X124091800Y-82578645D01*
X124200564Y-82618232D01*
X124207552Y-82619115D01*
X124207553Y-82619115D01*
X124226465Y-82621504D01*
X124334882Y-82635200D01*
X124427729Y-82635200D01*
X124556831Y-82620719D01*
X124563484Y-82618402D01*
X124563485Y-82618402D01*
X124639659Y-82591875D01*
X124721072Y-82563524D01*
X124734826Y-82554930D01*
X124862586Y-82475096D01*
X124868560Y-82471363D01*
X124874639Y-82465327D01*
X124967376Y-82373235D01*
X124991965Y-82348817D01*
X125085154Y-82201976D01*
X125128165Y-82081188D01*
X125141132Y-82044773D01*
X125141133Y-82044768D01*
X125143494Y-82038138D01*
X125144327Y-82031152D01*
X125144328Y-82031148D01*
X125163252Y-81872439D01*
X125164086Y-81865446D01*
X125162941Y-81854554D01*
X125635914Y-81854554D01*
X125654093Y-82027516D01*
X125710140Y-82192153D01*
X125713830Y-82198151D01*
X125713831Y-82198153D01*
X125784112Y-82312392D01*
X125801269Y-82340281D01*
X125922951Y-82464538D01*
X126069138Y-82558749D01*
X126075758Y-82561159D01*
X126075761Y-82561160D01*
X126225945Y-82615823D01*
X126232564Y-82618232D01*
X126239552Y-82619115D01*
X126239553Y-82619115D01*
X126258465Y-82621504D01*
X126366882Y-82635200D01*
X126459729Y-82635200D01*
X126588831Y-82620719D01*
X126595485Y-82618402D01*
X126652781Y-82598449D01*
X126711641Y-82577952D01*
X126782549Y-82574438D01*
X126844102Y-82609819D01*
X126876754Y-82672861D01*
X126870140Y-82743549D01*
X126851959Y-82775035D01*
X126838889Y-82791585D01*
X126713624Y-82950198D01*
X126597013Y-83161438D01*
X126516470Y-83388887D01*
X126474155Y-83626437D01*
X126471208Y-83867708D01*
X126507705Y-84106221D01*
X126582668Y-84335570D01*
X126694083Y-84549596D01*
X126697186Y-84553729D01*
X126697188Y-84553732D01*
X126800234Y-84690976D01*
X126838958Y-84742551D01*
X127013402Y-84909253D01*
X127212730Y-85045226D01*
X127217413Y-85047400D01*
X127217417Y-85047402D01*
X127426895Y-85144638D01*
X127426898Y-85144639D01*
X127431590Y-85146817D01*
X127664104Y-85211299D01*
X127669241Y-85211848D01*
X127814270Y-85227347D01*
X127879880Y-85254475D01*
X127920408Y-85312767D01*
X127922987Y-85383717D01*
X127886798Y-85444798D01*
X127823331Y-85476618D01*
X127811207Y-85478210D01*
X127699522Y-85487392D01*
X127465503Y-85546174D01*
X127432873Y-85560362D01*
X127248963Y-85640327D01*
X127248960Y-85640329D01*
X127244226Y-85642387D01*
X127163964Y-85694311D01*
X127045978Y-85770639D01*
X127045975Y-85770641D01*
X127041635Y-85773449D01*
X127037812Y-85776928D01*
X127037809Y-85776930D01*
X126930510Y-85874565D01*
X126863170Y-85935840D01*
X126859971Y-85939891D01*
X126859967Y-85939895D01*
X126838628Y-85966915D01*
X126713624Y-86125198D01*
X126597013Y-86336438D01*
X126516470Y-86563887D01*
X126515563Y-86568979D01*
X126478066Y-86779484D01*
X126474155Y-86801437D01*
X126474092Y-86806600D01*
X126472482Y-86938442D01*
X126471208Y-87042708D01*
X126507705Y-87281221D01*
X126582668Y-87510570D01*
X126694083Y-87724596D01*
X126697186Y-87728729D01*
X126697188Y-87728732D01*
X126828029Y-87902995D01*
X126838958Y-87917551D01*
X127013402Y-88084253D01*
X127050209Y-88109361D01*
X127183013Y-88199954D01*
X127212730Y-88220226D01*
X127217413Y-88222400D01*
X127217417Y-88222402D01*
X127426895Y-88319638D01*
X127426898Y-88319639D01*
X127431590Y-88321817D01*
X127664104Y-88386299D01*
X127669241Y-88386848D01*
X127857751Y-88406994D01*
X127857759Y-88406994D01*
X127861086Y-88407350D01*
X128001169Y-88407350D01*
X128003742Y-88407138D01*
X128003753Y-88407138D01*
X128104249Y-88398875D01*
X128180478Y-88392608D01*
X128414497Y-88333826D01*
X128562498Y-88269474D01*
X128631037Y-88239673D01*
X128631040Y-88239671D01*
X128635774Y-88237613D01*
X128817318Y-88120167D01*
X128834022Y-88109361D01*
X128834025Y-88109359D01*
X128838365Y-88106551D01*
X128848149Y-88097649D01*
X129013008Y-87947638D01*
X129013009Y-87947636D01*
X129016830Y-87944160D01*
X129020029Y-87940109D01*
X129020033Y-87940105D01*
X129145886Y-87780747D01*
X129166376Y-87754802D01*
X129282987Y-87543562D01*
X129363530Y-87316113D01*
X129397614Y-87124773D01*
X129404939Y-87083651D01*
X129404939Y-87083647D01*
X129405845Y-87078563D01*
X129407471Y-86945446D01*
X129408729Y-86842462D01*
X129408729Y-86842460D01*
X129408792Y-86837292D01*
X129372295Y-86598779D01*
X129345267Y-86516087D01*
X129343116Y-86445125D01*
X129379672Y-86384263D01*
X129448585Y-86352021D01*
X129531188Y-86341146D01*
X129539376Y-86340068D01*
X129547003Y-86336909D01*
X129547006Y-86336908D01*
X129604315Y-86313170D01*
X129669254Y-86286271D01*
X129727925Y-86241251D01*
X129774229Y-86205721D01*
X129774232Y-86205718D01*
X129780782Y-86200692D01*
X129793455Y-86184177D01*
X129861334Y-86095714D01*
X129866361Y-86089163D01*
X129920158Y-85959286D01*
X129938507Y-85819910D01*
X129920158Y-85680534D01*
X129866361Y-85550657D01*
X129780782Y-85439128D01*
X129774232Y-85434102D01*
X129774229Y-85434099D01*
X129708569Y-85383717D01*
X129669254Y-85353549D01*
X129591357Y-85321283D01*
X129547006Y-85302912D01*
X129547003Y-85302911D01*
X129539376Y-85299752D01*
X129400000Y-85281403D01*
X129260624Y-85299752D01*
X129130747Y-85353549D01*
X129019218Y-85439128D01*
X128933639Y-85550657D01*
X128930479Y-85558287D01*
X128899048Y-85634167D01*
X128854500Y-85689448D01*
X128787136Y-85711869D01*
X128718345Y-85694311D01*
X128711635Y-85690037D01*
X128671546Y-85662690D01*
X128671538Y-85662685D01*
X128667270Y-85659774D01*
X128662587Y-85657600D01*
X128662583Y-85657598D01*
X128453105Y-85560362D01*
X128453102Y-85560361D01*
X128448410Y-85558183D01*
X128215896Y-85493701D01*
X128210759Y-85493152D01*
X128065730Y-85477653D01*
X128000120Y-85450525D01*
X127959592Y-85392233D01*
X127957013Y-85321283D01*
X127993202Y-85260202D01*
X128056669Y-85228382D01*
X128068793Y-85226790D01*
X128180478Y-85217608D01*
X128414497Y-85158826D01*
X128543309Y-85102817D01*
X128631037Y-85064673D01*
X128631040Y-85064671D01*
X128635774Y-85062613D01*
X128787905Y-84964195D01*
X128834022Y-84934361D01*
X128834025Y-84934359D01*
X128838365Y-84931551D01*
X128862871Y-84909253D01*
X129013008Y-84772638D01*
X129013009Y-84772636D01*
X129016830Y-84769160D01*
X129020029Y-84765109D01*
X129020033Y-84765105D01*
X129163171Y-84583860D01*
X129166376Y-84579802D01*
X129282987Y-84368562D01*
X129363530Y-84141113D01*
X129405845Y-83903563D01*
X129408792Y-83662292D01*
X129372295Y-83423779D01*
X129297332Y-83194430D01*
X129185917Y-82980404D01*
X129166639Y-82954727D01*
X129044147Y-82791584D01*
X129044145Y-82791581D01*
X129041042Y-82787449D01*
X128866598Y-82620747D01*
X128667270Y-82484774D01*
X128662587Y-82482600D01*
X128662583Y-82482598D01*
X128453105Y-82385362D01*
X128453102Y-82385361D01*
X128448410Y-82383183D01*
X128215896Y-82318701D01*
X128210759Y-82318152D01*
X128152847Y-82311963D01*
X128087237Y-82284835D01*
X128046709Y-82226543D01*
X128044130Y-82155593D01*
X128049828Y-82138457D01*
X128066997Y-82097009D01*
X128066998Y-82097004D01*
X128070158Y-82089376D01*
X128088507Y-81950000D01*
X128070158Y-81810624D01*
X128016361Y-81680747D01*
X127930782Y-81569218D01*
X127924232Y-81564192D01*
X127924229Y-81564189D01*
X127869047Y-81521847D01*
X127819254Y-81483639D01*
X127754315Y-81456741D01*
X127697006Y-81433002D01*
X127697003Y-81433001D01*
X127689376Y-81429842D01*
X127550000Y-81411493D01*
X127410624Y-81429842D01*
X127280747Y-81483639D01*
X127274198Y-81488664D01*
X127274195Y-81488666D01*
X127265163Y-81495597D01*
X127198943Y-81521198D01*
X127129394Y-81506934D01*
X127081141Y-81461658D01*
X127034424Y-81385720D01*
X127034419Y-81385713D01*
X127030731Y-81379719D01*
X126909049Y-81255462D01*
X126762862Y-81161251D01*
X126756242Y-81158841D01*
X126756239Y-81158840D01*
X126606055Y-81104177D01*
X126606054Y-81104177D01*
X126599436Y-81101768D01*
X126592448Y-81100885D01*
X126592447Y-81100885D01*
X126560121Y-81096801D01*
X126465118Y-81084800D01*
X126372271Y-81084800D01*
X126243169Y-81099281D01*
X126236516Y-81101598D01*
X126236515Y-81101598D01*
X126169497Y-81124936D01*
X126078928Y-81156476D01*
X126072954Y-81160209D01*
X126072952Y-81160210D01*
X125937414Y-81244904D01*
X125931440Y-81248637D01*
X125808035Y-81371183D01*
X125714846Y-81518024D01*
X125712481Y-81524666D01*
X125658868Y-81675227D01*
X125658867Y-81675232D01*
X125656506Y-81681862D01*
X125655673Y-81688848D01*
X125655672Y-81688852D01*
X125642062Y-81802995D01*
X125635914Y-81854554D01*
X125162941Y-81854554D01*
X125145907Y-81692484D01*
X125089860Y-81527847D01*
X125060719Y-81480479D01*
X125002422Y-81385718D01*
X125002420Y-81385716D01*
X124998731Y-81379719D01*
X124877049Y-81255462D01*
X124730862Y-81161251D01*
X124724242Y-81158841D01*
X124724239Y-81158840D01*
X124574055Y-81104177D01*
X124574054Y-81104177D01*
X124567436Y-81101768D01*
X124560448Y-81100885D01*
X124560447Y-81100885D01*
X124528121Y-81096801D01*
X124433118Y-81084800D01*
X124340271Y-81084800D01*
X124211169Y-81099281D01*
X124204516Y-81101598D01*
X124204515Y-81101598D01*
X124137497Y-81124936D01*
X124046928Y-81156476D01*
X124040954Y-81160209D01*
X124040952Y-81160210D01*
X123905414Y-81244904D01*
X123899440Y-81248637D01*
X123776035Y-81371183D01*
X123682846Y-81518024D01*
X123680481Y-81524666D01*
X123626868Y-81675227D01*
X123626867Y-81675232D01*
X123624506Y-81681862D01*
X123623673Y-81688848D01*
X123623672Y-81688852D01*
X123610062Y-81802995D01*
X123603914Y-81854554D01*
X123622093Y-82027516D01*
X123678140Y-82192153D01*
X123681830Y-82198151D01*
X123681831Y-82198153D01*
X123747073Y-82304202D01*
X123765731Y-82372703D01*
X123744392Y-82440417D01*
X123689832Y-82485845D01*
X123619373Y-82494565D01*
X123586707Y-82484513D01*
X123476826Y-82433508D01*
X123373105Y-82385362D01*
X123373102Y-82385361D01*
X123368410Y-82383183D01*
X123135896Y-82318701D01*
X123130759Y-82318152D01*
X122942249Y-82298006D01*
X122942241Y-82298006D01*
X122938914Y-82297650D01*
X122798831Y-82297650D01*
X122796258Y-82297862D01*
X122796247Y-82297862D01*
X122695751Y-82306125D01*
X122619522Y-82312392D01*
X122385503Y-82371174D01*
X122352873Y-82385362D01*
X122168963Y-82465327D01*
X122168960Y-82465329D01*
X122164226Y-82467387D01*
X122040387Y-82547502D01*
X121965978Y-82595639D01*
X121965975Y-82595641D01*
X121961635Y-82598449D01*
X121957812Y-82601928D01*
X121957809Y-82601930D01*
X121786992Y-82757362D01*
X121783170Y-82760840D01*
X121779971Y-82764891D01*
X121779967Y-82764895D01*
X121758889Y-82791585D01*
X121633624Y-82950198D01*
X121517013Y-83161438D01*
X121436470Y-83388887D01*
X121394155Y-83626437D01*
X121391208Y-83867708D01*
X121427705Y-84106221D01*
X121502668Y-84335570D01*
X121614083Y-84549596D01*
X121617186Y-84553729D01*
X121617188Y-84553732D01*
X121670317Y-84624492D01*
X121695223Y-84690976D01*
X121680231Y-84760372D01*
X121630101Y-84810646D01*
X121560748Y-84825837D01*
X121553111Y-84825067D01*
X121458191Y-84812571D01*
X121458190Y-84812571D01*
X121450002Y-84811493D01*
X121310626Y-84829842D01*
X121180749Y-84883639D01*
X121069220Y-84969218D01*
X120983641Y-85080747D01*
X120929844Y-85210624D01*
X120911495Y-85350000D01*
X118000000Y-85350000D01*
X118000000Y-79501000D01*
X132874293Y-79501000D01*
X132892642Y-79640376D01*
X132946439Y-79770253D01*
X133032018Y-79881782D01*
X133038568Y-79886808D01*
X133038571Y-79886811D01*
X133087782Y-79924572D01*
X133143546Y-79967361D01*
X133208485Y-79994260D01*
X133265794Y-80017998D01*
X133265797Y-80017999D01*
X133273424Y-80021158D01*
X133412800Y-80039507D01*
X133420988Y-80038429D01*
X133543988Y-80022236D01*
X133552176Y-80021158D01*
X133559803Y-80017999D01*
X133559806Y-80017998D01*
X133617115Y-79994260D01*
X133682054Y-79967361D01*
X133737818Y-79924572D01*
X133787029Y-79886811D01*
X133787032Y-79886808D01*
X133793582Y-79881782D01*
X133879161Y-79770253D01*
X133932958Y-79640376D01*
X133951307Y-79501000D01*
X133932958Y-79361624D01*
X133879161Y-79231747D01*
X133793582Y-79120218D01*
X133787032Y-79115192D01*
X133787029Y-79115189D01*
X133730750Y-79072005D01*
X133682054Y-79034639D01*
X133617115Y-79007741D01*
X133559806Y-78984002D01*
X133559803Y-78984001D01*
X133552176Y-78980842D01*
X133412800Y-78962493D01*
X133273424Y-78980842D01*
X133143547Y-79034639D01*
X133032018Y-79120218D01*
X132946439Y-79231747D01*
X132892642Y-79361624D01*
X132874293Y-79501000D01*
X118000000Y-79501000D01*
X118000000Y-78925000D01*
X129311493Y-78925000D01*
X129329842Y-79064376D01*
X129383639Y-79194253D01*
X129469218Y-79305782D01*
X129475768Y-79310808D01*
X129475771Y-79310811D01*
X129524982Y-79348572D01*
X129580746Y-79391361D01*
X129645685Y-79418259D01*
X129702994Y-79441998D01*
X129702997Y-79441999D01*
X129710624Y-79445158D01*
X129850000Y-79463507D01*
X129858188Y-79462429D01*
X129981188Y-79446236D01*
X129989376Y-79445158D01*
X129997003Y-79441999D01*
X129997006Y-79441998D01*
X130054315Y-79418260D01*
X130119254Y-79391361D01*
X130175018Y-79348572D01*
X130224229Y-79310811D01*
X130224232Y-79310808D01*
X130230782Y-79305782D01*
X130316361Y-79194253D01*
X130370158Y-79064376D01*
X130388507Y-78925000D01*
X130370158Y-78785624D01*
X130316361Y-78655747D01*
X130230782Y-78544218D01*
X130224232Y-78539192D01*
X130224229Y-78539189D01*
X130175018Y-78501428D01*
X130119254Y-78458639D01*
X130054315Y-78431740D01*
X129997006Y-78408002D01*
X129997003Y-78408001D01*
X129989376Y-78404842D01*
X129850000Y-78386493D01*
X129710624Y-78404842D01*
X129580747Y-78458639D01*
X129469218Y-78544218D01*
X129383639Y-78655747D01*
X129329842Y-78785624D01*
X129311493Y-78925000D01*
X118000000Y-78925000D01*
X118000000Y-75778169D01*
X120315354Y-75778169D01*
X120331679Y-76061290D01*
X120332504Y-76065495D01*
X120332505Y-76065503D01*
X120356268Y-76186624D01*
X120386276Y-76339576D01*
X120387663Y-76343626D01*
X120387664Y-76343631D01*
X120476748Y-76603821D01*
X120478137Y-76607877D01*
X120480064Y-76611708D01*
X120572512Y-76795521D01*
X120605559Y-76861229D01*
X120607985Y-76864758D01*
X120607988Y-76864764D01*
X120643937Y-76917070D01*
X120766187Y-77094944D01*
X120957048Y-77304697D01*
X120960337Y-77307447D01*
X121171317Y-77483854D01*
X121171322Y-77483858D01*
X121174609Y-77486606D01*
X121230418Y-77521615D01*
X121411205Y-77635023D01*
X121411209Y-77635025D01*
X121414845Y-77637306D01*
X121418755Y-77639071D01*
X121418756Y-77639072D01*
X121669399Y-77752242D01*
X121669403Y-77752244D01*
X121673311Y-77754008D01*
X121677431Y-77755228D01*
X121677430Y-77755228D01*
X121941111Y-77833334D01*
X121941115Y-77833335D01*
X121945224Y-77834552D01*
X121949458Y-77835200D01*
X121949463Y-77835201D01*
X122221310Y-77876799D01*
X122221312Y-77876799D01*
X122225552Y-77877448D01*
X122369875Y-77879715D01*
X122504817Y-77881836D01*
X122504823Y-77881836D01*
X122509108Y-77881903D01*
X122790645Y-77847833D01*
X123064954Y-77775870D01*
X123068914Y-77774230D01*
X123068919Y-77774228D01*
X123195956Y-77721607D01*
X123326958Y-77667344D01*
X123571809Y-77524264D01*
X123794977Y-77349279D01*
X123841255Y-77301524D01*
X123989348Y-77148702D01*
X123992331Y-77145624D01*
X123994864Y-77142176D01*
X123994868Y-77142171D01*
X124157683Y-76920525D01*
X124160221Y-76917070D01*
X124188621Y-76864764D01*
X124293489Y-76671622D01*
X124293490Y-76671620D01*
X124295539Y-76667846D01*
X124395781Y-76402562D01*
X124413316Y-76326000D01*
X129267493Y-76326000D01*
X129285842Y-76465376D01*
X129339639Y-76595253D01*
X129425218Y-76706782D01*
X129431768Y-76711808D01*
X129431771Y-76711811D01*
X129480982Y-76749572D01*
X129536746Y-76792361D01*
X129601685Y-76819260D01*
X129658994Y-76842998D01*
X129658997Y-76842999D01*
X129666624Y-76846158D01*
X129806000Y-76864507D01*
X129814188Y-76863429D01*
X129937188Y-76847236D01*
X129945376Y-76846158D01*
X129953003Y-76842999D01*
X129953006Y-76842998D01*
X130010315Y-76819260D01*
X130075254Y-76792361D01*
X130131018Y-76749572D01*
X130180229Y-76711811D01*
X130180232Y-76711808D01*
X130186782Y-76706782D01*
X130272361Y-76595253D01*
X130326158Y-76465376D01*
X130344507Y-76326000D01*
X130326158Y-76186624D01*
X130272361Y-76056747D01*
X130186782Y-75945218D01*
X130186498Y-75945000D01*
X134982493Y-75945000D01*
X135000842Y-76084376D01*
X135054639Y-76214253D01*
X135140218Y-76325782D01*
X135146768Y-76330808D01*
X135146771Y-76330811D01*
X135163479Y-76343631D01*
X135251746Y-76411361D01*
X135316685Y-76438259D01*
X135373994Y-76461998D01*
X135373997Y-76461999D01*
X135381624Y-76465158D01*
X135389812Y-76466236D01*
X135451312Y-76474333D01*
X135521000Y-76483507D01*
X135529188Y-76482429D01*
X135652188Y-76466236D01*
X135660376Y-76465158D01*
X135668003Y-76461999D01*
X135668006Y-76461998D01*
X135725315Y-76438259D01*
X135790254Y-76411361D01*
X135878521Y-76343631D01*
X135895229Y-76330811D01*
X135895232Y-76330808D01*
X135901782Y-76325782D01*
X135987361Y-76214253D01*
X136041158Y-76084376D01*
X136059507Y-75945000D01*
X136046490Y-75846124D01*
X136042236Y-75813812D01*
X136041158Y-75805624D01*
X136029786Y-75778169D01*
X160315354Y-75778169D01*
X160331679Y-76061290D01*
X160332504Y-76065495D01*
X160332505Y-76065503D01*
X160356268Y-76186624D01*
X160386276Y-76339576D01*
X160387663Y-76343626D01*
X160387664Y-76343631D01*
X160476748Y-76603821D01*
X160478137Y-76607877D01*
X160480064Y-76611708D01*
X160572512Y-76795521D01*
X160605559Y-76861229D01*
X160607985Y-76864758D01*
X160607988Y-76864764D01*
X160643937Y-76917070D01*
X160766187Y-77094944D01*
X160957048Y-77304697D01*
X160960337Y-77307447D01*
X161171317Y-77483854D01*
X161171322Y-77483858D01*
X161174609Y-77486606D01*
X161230418Y-77521615D01*
X161411205Y-77635023D01*
X161411209Y-77635025D01*
X161414845Y-77637306D01*
X161418755Y-77639071D01*
X161418756Y-77639072D01*
X161669399Y-77752242D01*
X161669403Y-77752244D01*
X161673311Y-77754008D01*
X161677431Y-77755228D01*
X161677430Y-77755228D01*
X161941111Y-77833334D01*
X161941115Y-77833335D01*
X161945224Y-77834552D01*
X161949458Y-77835200D01*
X161949463Y-77835201D01*
X162221310Y-77876799D01*
X162221312Y-77876799D01*
X162225552Y-77877448D01*
X162369875Y-77879715D01*
X162504817Y-77881836D01*
X162504823Y-77881836D01*
X162509108Y-77881903D01*
X162790645Y-77847833D01*
X163064954Y-77775870D01*
X163068914Y-77774230D01*
X163068919Y-77774228D01*
X163195956Y-77721607D01*
X163326958Y-77667344D01*
X163571809Y-77524264D01*
X163794977Y-77349279D01*
X163841255Y-77301524D01*
X163989348Y-77148702D01*
X163992331Y-77145624D01*
X163994864Y-77142176D01*
X163994868Y-77142171D01*
X164157683Y-76920525D01*
X164160221Y-76917070D01*
X164188621Y-76864764D01*
X164293489Y-76671622D01*
X164293490Y-76671620D01*
X164295539Y-76667846D01*
X164395781Y-76402562D01*
X164459093Y-76126128D01*
X164484303Y-75843660D01*
X164484760Y-75800000D01*
X164483907Y-75787493D01*
X164465763Y-75521343D01*
X164465762Y-75521337D01*
X164465471Y-75517066D01*
X164407963Y-75239367D01*
X164313298Y-74972042D01*
X164183229Y-74720038D01*
X164172821Y-74705228D01*
X164035314Y-74509576D01*
X164020163Y-74488018D01*
X163827116Y-74280275D01*
X163607662Y-74100654D01*
X163365861Y-73952478D01*
X163348070Y-73944668D01*
X163110119Y-73840215D01*
X163106187Y-73838489D01*
X163082330Y-73831693D01*
X162837574Y-73761973D01*
X162837576Y-73761973D01*
X162833446Y-73760797D01*
X162624934Y-73731122D01*
X162556936Y-73721444D01*
X162556934Y-73721444D01*
X162552684Y-73720839D01*
X162403222Y-73720056D01*
X162273383Y-73719376D01*
X162273376Y-73719376D01*
X162269097Y-73719354D01*
X162264853Y-73719913D01*
X162264849Y-73719913D01*
X162141234Y-73736187D01*
X161987932Y-73756370D01*
X161983792Y-73757503D01*
X161983790Y-73757503D01*
X161718537Y-73830068D01*
X161714392Y-73831202D01*
X161453539Y-73942465D01*
X161449858Y-73944668D01*
X161213881Y-74085897D01*
X161213877Y-74085900D01*
X161210199Y-74088101D01*
X160988876Y-74265414D01*
X160793665Y-74471124D01*
X160628178Y-74701424D01*
X160495477Y-74952052D01*
X160398018Y-75218371D01*
X160337605Y-75495452D01*
X160315354Y-75778169D01*
X136029786Y-75778169D01*
X135987361Y-75675747D01*
X135901782Y-75564218D01*
X135895232Y-75559192D01*
X135895229Y-75559189D01*
X135834863Y-75512869D01*
X135790254Y-75478639D01*
X135725315Y-75451741D01*
X135668006Y-75428002D01*
X135668003Y-75428001D01*
X135660376Y-75424842D01*
X135521000Y-75406493D01*
X135381624Y-75424842D01*
X135251747Y-75478639D01*
X135140218Y-75564218D01*
X135054639Y-75675747D01*
X135000842Y-75805624D01*
X134999764Y-75813812D01*
X134995510Y-75846124D01*
X134982493Y-75945000D01*
X130186498Y-75945000D01*
X130180232Y-75940192D01*
X130180229Y-75940189D01*
X130131018Y-75902429D01*
X130075254Y-75859639D01*
X130010315Y-75832741D01*
X129953006Y-75809002D01*
X129953003Y-75809001D01*
X129945376Y-75805842D01*
X129885772Y-75797995D01*
X129814188Y-75788571D01*
X129806000Y-75787493D01*
X129797812Y-75788571D01*
X129726229Y-75797995D01*
X129666624Y-75805842D01*
X129536747Y-75859639D01*
X129425218Y-75945218D01*
X129339639Y-76056747D01*
X129285842Y-76186624D01*
X129267493Y-76326000D01*
X124413316Y-76326000D01*
X124459093Y-76126128D01*
X124484303Y-75843660D01*
X124484760Y-75800000D01*
X124483907Y-75787493D01*
X124465763Y-75521343D01*
X124465762Y-75521337D01*
X124465471Y-75517066D01*
X124407963Y-75239367D01*
X124313298Y-74972042D01*
X124183229Y-74720038D01*
X124172821Y-74705228D01*
X124035314Y-74509576D01*
X124020163Y-74488018D01*
X123910680Y-74370200D01*
X129267493Y-74370200D01*
X129285842Y-74509576D01*
X129339639Y-74639453D01*
X129425218Y-74750982D01*
X129431768Y-74756008D01*
X129431771Y-74756011D01*
X129480982Y-74793771D01*
X129536746Y-74836561D01*
X129601685Y-74863459D01*
X129658994Y-74887198D01*
X129658997Y-74887199D01*
X129666624Y-74890358D01*
X129806000Y-74908707D01*
X129814188Y-74907629D01*
X129937188Y-74891436D01*
X129945376Y-74890358D01*
X129953003Y-74887199D01*
X129953006Y-74887198D01*
X130010315Y-74863459D01*
X130075254Y-74836561D01*
X130131018Y-74793772D01*
X130180229Y-74756011D01*
X130180232Y-74756008D01*
X130186782Y-74750982D01*
X130272361Y-74639453D01*
X130326158Y-74509576D01*
X130344507Y-74370200D01*
X130326158Y-74230824D01*
X130272361Y-74100947D01*
X130186782Y-73989418D01*
X130180232Y-73984392D01*
X130180229Y-73984389D01*
X130123401Y-73940784D01*
X130075254Y-73903839D01*
X130010315Y-73876941D01*
X129953006Y-73853202D01*
X129953003Y-73853201D01*
X129945376Y-73850042D01*
X129806000Y-73831693D01*
X129666624Y-73850042D01*
X129536747Y-73903839D01*
X129425218Y-73989418D01*
X129339639Y-74100947D01*
X129285842Y-74230824D01*
X129267493Y-74370200D01*
X123910680Y-74370200D01*
X123827116Y-74280275D01*
X123607662Y-74100654D01*
X123365861Y-73952478D01*
X123348070Y-73944668D01*
X123110119Y-73840215D01*
X123106187Y-73838489D01*
X123082330Y-73831693D01*
X122837574Y-73761973D01*
X122837576Y-73761973D01*
X122833446Y-73760797D01*
X122624934Y-73731122D01*
X122556936Y-73721444D01*
X122556934Y-73721444D01*
X122552684Y-73720839D01*
X122403222Y-73720056D01*
X122273383Y-73719376D01*
X122273376Y-73719376D01*
X122269097Y-73719354D01*
X122264853Y-73719913D01*
X122264849Y-73719913D01*
X122141234Y-73736187D01*
X121987932Y-73756370D01*
X121983792Y-73757503D01*
X121983790Y-73757503D01*
X121718537Y-73830068D01*
X121714392Y-73831202D01*
X121453539Y-73942465D01*
X121449858Y-73944668D01*
X121213881Y-74085897D01*
X121213877Y-74085900D01*
X121210199Y-74088101D01*
X120988876Y-74265414D01*
X120793665Y-74471124D01*
X120628178Y-74701424D01*
X120495477Y-74952052D01*
X120398018Y-75218371D01*
X120337605Y-75495452D01*
X120315354Y-75778169D01*
X118000000Y-75778169D01*
X118000000Y-72566800D01*
X129369093Y-72566800D01*
X129387442Y-72706176D01*
X129441239Y-72836053D01*
X129526818Y-72947582D01*
X129533368Y-72952608D01*
X129533371Y-72952611D01*
X129582582Y-72990371D01*
X129638346Y-73033161D01*
X129703285Y-73060059D01*
X129760594Y-73083798D01*
X129760597Y-73083799D01*
X129768224Y-73086958D01*
X129907600Y-73105307D01*
X129915788Y-73104229D01*
X130038788Y-73088036D01*
X130046976Y-73086958D01*
X130054603Y-73083799D01*
X130054606Y-73083798D01*
X130111915Y-73060059D01*
X130176854Y-73033161D01*
X130232618Y-72990371D01*
X130281829Y-72952611D01*
X130281832Y-72952608D01*
X130288382Y-72947582D01*
X130373961Y-72836053D01*
X130427758Y-72706176D01*
X130446107Y-72566800D01*
X130427758Y-72427424D01*
X130373961Y-72297547D01*
X130288382Y-72186018D01*
X130281832Y-72180992D01*
X130281829Y-72180989D01*
X130232618Y-72143228D01*
X130176854Y-72100439D01*
X130111915Y-72073541D01*
X130054606Y-72049802D01*
X130054603Y-72049801D01*
X130046976Y-72046642D01*
X129907600Y-72028293D01*
X129768224Y-72046642D01*
X129638347Y-72100439D01*
X129526818Y-72186018D01*
X129441239Y-72297547D01*
X129387442Y-72427424D01*
X129369093Y-72566800D01*
X118000000Y-72566800D01*
X118000000Y-71092070D01*
X149456733Y-71092070D01*
X149475082Y-71231446D01*
X149528879Y-71361323D01*
X149614458Y-71472852D01*
X149621008Y-71477878D01*
X149621011Y-71477881D01*
X149670222Y-71515641D01*
X149725986Y-71558431D01*
X149790925Y-71585330D01*
X149848234Y-71609068D01*
X149848237Y-71609069D01*
X149855864Y-71612228D01*
X149995240Y-71630577D01*
X150003428Y-71629499D01*
X150126428Y-71613306D01*
X150134616Y-71612228D01*
X150142243Y-71609069D01*
X150142246Y-71609068D01*
X150199555Y-71585329D01*
X150264494Y-71558431D01*
X150320258Y-71515641D01*
X150369469Y-71477881D01*
X150369472Y-71477878D01*
X150376022Y-71472852D01*
X150461601Y-71361323D01*
X150515398Y-71231446D01*
X150533747Y-71092070D01*
X150515398Y-70952694D01*
X150461601Y-70822817D01*
X150394031Y-70734758D01*
X150381049Y-70717839D01*
X150381048Y-70717838D01*
X150376022Y-70711288D01*
X150369472Y-70706262D01*
X150369469Y-70706259D01*
X150314609Y-70664164D01*
X150264494Y-70625709D01*
X150191278Y-70595382D01*
X150142246Y-70575072D01*
X150142243Y-70575071D01*
X150134616Y-70571912D01*
X149995240Y-70553563D01*
X149855864Y-70571912D01*
X149725987Y-70625709D01*
X149614458Y-70711288D01*
X149528879Y-70822817D01*
X149475082Y-70952694D01*
X149456733Y-71092070D01*
X118000000Y-71092070D01*
X118000000Y-70509400D01*
X133179093Y-70509400D01*
X133197442Y-70648776D01*
X133251239Y-70778653D01*
X133336818Y-70890182D01*
X133343368Y-70895208D01*
X133343371Y-70895211D01*
X133392582Y-70932971D01*
X133448346Y-70975761D01*
X133513285Y-71002660D01*
X133570594Y-71026398D01*
X133570597Y-71026399D01*
X133578224Y-71029558D01*
X133717600Y-71047907D01*
X133725788Y-71046829D01*
X133848788Y-71030636D01*
X133856976Y-71029558D01*
X133864603Y-71026399D01*
X133864606Y-71026398D01*
X133921915Y-71002660D01*
X133986854Y-70975761D01*
X134098098Y-70890400D01*
X134164316Y-70864800D01*
X134233865Y-70879064D01*
X134251495Y-70890395D01*
X134362746Y-70975761D01*
X134427685Y-71002660D01*
X134484994Y-71026398D01*
X134484997Y-71026399D01*
X134492624Y-71029558D01*
X134632000Y-71047907D01*
X134640188Y-71046829D01*
X134763188Y-71030636D01*
X134771376Y-71029558D01*
X134779003Y-71026399D01*
X134779006Y-71026398D01*
X134836315Y-71002660D01*
X134901254Y-70975761D01*
X134957018Y-70932971D01*
X135006229Y-70895211D01*
X135006232Y-70895208D01*
X135012782Y-70890182D01*
X135098361Y-70778653D01*
X135152158Y-70648776D01*
X135170507Y-70509400D01*
X135152158Y-70370024D01*
X135098361Y-70240147D01*
X135078758Y-70214600D01*
X136038813Y-70214600D01*
X136057162Y-70353976D01*
X136110959Y-70483853D01*
X136115986Y-70490404D01*
X136180954Y-70575072D01*
X136196538Y-70595382D01*
X136203088Y-70600408D01*
X136203091Y-70600411D01*
X136247120Y-70634195D01*
X136308066Y-70680961D01*
X136369141Y-70706259D01*
X136430314Y-70731598D01*
X136430317Y-70731599D01*
X136437944Y-70734758D01*
X136577320Y-70753107D01*
X136585508Y-70752029D01*
X136708508Y-70735836D01*
X136716696Y-70734758D01*
X136724323Y-70731599D01*
X136724326Y-70731598D01*
X136838946Y-70684121D01*
X136838948Y-70684120D01*
X136846574Y-70680961D01*
X136847634Y-70680148D01*
X136913512Y-70664164D01*
X136967071Y-70679890D01*
X136968466Y-70680961D01*
X136976092Y-70684120D01*
X136976094Y-70684121D01*
X137090714Y-70731598D01*
X137090717Y-70731599D01*
X137098344Y-70734758D01*
X137237720Y-70753107D01*
X137245908Y-70752029D01*
X137368908Y-70735836D01*
X137377096Y-70734758D01*
X137384723Y-70731599D01*
X137384726Y-70731598D01*
X137445899Y-70706259D01*
X137506974Y-70680961D01*
X137567920Y-70634195D01*
X137580816Y-70624300D01*
X137647036Y-70598699D01*
X137716585Y-70612964D01*
X137734224Y-70624300D01*
X137747120Y-70634195D01*
X137808066Y-70680961D01*
X137869141Y-70706259D01*
X137930314Y-70731598D01*
X137930317Y-70731599D01*
X137937944Y-70734758D01*
X138077320Y-70753107D01*
X138085508Y-70752029D01*
X138208508Y-70735836D01*
X138216696Y-70734758D01*
X138224323Y-70731599D01*
X138224326Y-70731598D01*
X138338946Y-70684121D01*
X138338948Y-70684120D01*
X138346574Y-70680961D01*
X138347634Y-70680148D01*
X138413512Y-70664164D01*
X138467071Y-70679890D01*
X138468466Y-70680961D01*
X138476092Y-70684120D01*
X138476094Y-70684121D01*
X138590714Y-70731598D01*
X138590717Y-70731599D01*
X138598344Y-70734758D01*
X138737720Y-70753107D01*
X138745908Y-70752029D01*
X138868908Y-70735836D01*
X138877096Y-70734758D01*
X138884723Y-70731599D01*
X138884726Y-70731598D01*
X138945899Y-70706259D01*
X139006974Y-70680961D01*
X139067920Y-70634195D01*
X139111949Y-70600411D01*
X139111952Y-70600408D01*
X139118502Y-70595382D01*
X139134087Y-70575072D01*
X139199054Y-70490404D01*
X139204081Y-70483853D01*
X139257878Y-70353976D01*
X139276227Y-70214600D01*
X143538803Y-70214600D01*
X143557152Y-70353976D01*
X143610949Y-70483853D01*
X143615976Y-70490404D01*
X143680944Y-70575072D01*
X143696528Y-70595382D01*
X143703078Y-70600408D01*
X143703081Y-70600411D01*
X143747110Y-70634195D01*
X143808056Y-70680961D01*
X143869131Y-70706259D01*
X143930304Y-70731598D01*
X143930307Y-70731599D01*
X143937934Y-70734758D01*
X144077310Y-70753107D01*
X144085498Y-70752029D01*
X144208498Y-70735836D01*
X144216686Y-70734758D01*
X144224313Y-70731599D01*
X144224316Y-70731598D01*
X144338936Y-70684121D01*
X144338938Y-70684120D01*
X144346564Y-70680961D01*
X144347624Y-70680148D01*
X144413502Y-70664164D01*
X144467061Y-70679890D01*
X144468456Y-70680961D01*
X144476082Y-70684120D01*
X144476084Y-70684121D01*
X144590704Y-70731598D01*
X144590707Y-70731599D01*
X144598334Y-70734758D01*
X144737710Y-70753107D01*
X144745898Y-70752029D01*
X144868898Y-70735836D01*
X144877086Y-70734758D01*
X144884713Y-70731599D01*
X144884716Y-70731598D01*
X144945889Y-70706259D01*
X145006964Y-70680961D01*
X145067910Y-70634195D01*
X145080811Y-70624296D01*
X145147031Y-70598695D01*
X145216580Y-70612960D01*
X145234219Y-70624296D01*
X145247120Y-70634195D01*
X145308066Y-70680961D01*
X145369141Y-70706259D01*
X145430314Y-70731598D01*
X145430317Y-70731599D01*
X145437944Y-70734758D01*
X145577320Y-70753107D01*
X145585508Y-70752029D01*
X145708508Y-70735836D01*
X145716696Y-70734758D01*
X145724323Y-70731599D01*
X145724326Y-70731598D01*
X145838946Y-70684121D01*
X145838948Y-70684120D01*
X145846574Y-70680961D01*
X145847634Y-70680148D01*
X145913512Y-70664164D01*
X145967071Y-70679890D01*
X145968466Y-70680961D01*
X145976092Y-70684120D01*
X145976094Y-70684121D01*
X146090714Y-70731598D01*
X146090717Y-70731599D01*
X146098344Y-70734758D01*
X146237720Y-70753107D01*
X146245908Y-70752029D01*
X146368908Y-70735836D01*
X146377096Y-70734758D01*
X146384723Y-70731599D01*
X146384726Y-70731598D01*
X146445899Y-70706259D01*
X146506974Y-70680961D01*
X146567920Y-70634195D01*
X146611949Y-70600411D01*
X146611952Y-70600408D01*
X146618502Y-70595382D01*
X146634087Y-70575072D01*
X146699054Y-70490404D01*
X146704081Y-70483853D01*
X146757878Y-70353976D01*
X146776227Y-70214600D01*
X146757878Y-70075224D01*
X146704081Y-69945347D01*
X146618502Y-69833818D01*
X146611952Y-69828792D01*
X146611949Y-69828789D01*
X146528864Y-69765036D01*
X146506974Y-69748239D01*
X146442035Y-69721340D01*
X146384726Y-69697602D01*
X146384723Y-69697601D01*
X146377096Y-69694442D01*
X146237720Y-69676093D01*
X146098344Y-69694442D01*
X146090715Y-69697602D01*
X145976097Y-69745078D01*
X145976094Y-69745080D01*
X145968467Y-69748239D01*
X145967404Y-69749055D01*
X145901524Y-69765036D01*
X145847970Y-69749310D01*
X145846574Y-69748239D01*
X145838948Y-69745080D01*
X145838946Y-69745079D01*
X145724326Y-69697602D01*
X145724323Y-69697601D01*
X145716696Y-69694442D01*
X145577320Y-69676093D01*
X145437944Y-69694442D01*
X145308067Y-69748239D01*
X145301516Y-69753266D01*
X145301511Y-69753269D01*
X145234219Y-69804904D01*
X145167999Y-69830505D01*
X145098450Y-69816241D01*
X145080811Y-69804904D01*
X145028854Y-69765036D01*
X145006964Y-69748239D01*
X144942025Y-69721340D01*
X144884716Y-69697602D01*
X144884713Y-69697601D01*
X144877086Y-69694442D01*
X144737710Y-69676093D01*
X144598334Y-69694442D01*
X144590705Y-69697602D01*
X144476087Y-69745078D01*
X144476084Y-69745080D01*
X144468457Y-69748239D01*
X144467394Y-69749055D01*
X144401514Y-69765036D01*
X144347960Y-69749310D01*
X144346564Y-69748239D01*
X144338938Y-69745080D01*
X144338936Y-69745079D01*
X144224316Y-69697602D01*
X144224313Y-69697601D01*
X144216686Y-69694442D01*
X144077310Y-69676093D01*
X143937934Y-69694442D01*
X143808057Y-69748239D01*
X143696528Y-69833818D01*
X143610949Y-69945347D01*
X143557152Y-70075224D01*
X143538803Y-70214600D01*
X139276227Y-70214600D01*
X139257878Y-70075224D01*
X139204081Y-69945347D01*
X139118502Y-69833818D01*
X139111952Y-69828792D01*
X139111949Y-69828789D01*
X139028864Y-69765036D01*
X139006974Y-69748239D01*
X138942035Y-69721340D01*
X138884726Y-69697602D01*
X138884723Y-69697601D01*
X138877096Y-69694442D01*
X138737720Y-69676093D01*
X138598344Y-69694442D01*
X138590715Y-69697602D01*
X138476097Y-69745078D01*
X138476094Y-69745080D01*
X138468467Y-69748239D01*
X138467404Y-69749055D01*
X138401524Y-69765036D01*
X138347970Y-69749310D01*
X138346574Y-69748239D01*
X138338948Y-69745080D01*
X138338946Y-69745079D01*
X138224326Y-69697602D01*
X138224323Y-69697601D01*
X138216696Y-69694442D01*
X138077320Y-69676093D01*
X137937944Y-69694442D01*
X137808067Y-69748239D01*
X137801516Y-69753266D01*
X137801511Y-69753269D01*
X137734224Y-69804900D01*
X137668004Y-69830501D01*
X137598455Y-69816236D01*
X137580816Y-69804900D01*
X137528864Y-69765036D01*
X137506974Y-69748239D01*
X137442035Y-69721340D01*
X137384726Y-69697602D01*
X137384723Y-69697601D01*
X137377096Y-69694442D01*
X137237720Y-69676093D01*
X137098344Y-69694442D01*
X137090715Y-69697602D01*
X136976097Y-69745078D01*
X136976094Y-69745080D01*
X136968467Y-69748239D01*
X136967404Y-69749055D01*
X136901524Y-69765036D01*
X136847970Y-69749310D01*
X136846574Y-69748239D01*
X136838948Y-69745080D01*
X136838946Y-69745079D01*
X136724326Y-69697602D01*
X136724323Y-69697601D01*
X136716696Y-69694442D01*
X136577320Y-69676093D01*
X136437944Y-69694442D01*
X136308067Y-69748239D01*
X136196538Y-69833818D01*
X136110959Y-69945347D01*
X136057162Y-70075224D01*
X136038813Y-70214600D01*
X135078758Y-70214600D01*
X135055571Y-70184382D01*
X135017809Y-70135169D01*
X135017808Y-70135168D01*
X135012782Y-70128618D01*
X135006232Y-70123592D01*
X135006229Y-70123589D01*
X134943198Y-70075224D01*
X134901254Y-70043039D01*
X134836315Y-70016141D01*
X134779006Y-69992402D01*
X134779003Y-69992401D01*
X134771376Y-69989242D01*
X134632000Y-69970893D01*
X134492624Y-69989242D01*
X134362747Y-70043039D01*
X134356193Y-70048068D01*
X134251503Y-70128399D01*
X134185282Y-70153999D01*
X134115734Y-70139734D01*
X134098095Y-70128398D01*
X133993407Y-70048067D01*
X133993405Y-70048066D01*
X133986854Y-70043039D01*
X133921915Y-70016141D01*
X133864606Y-69992402D01*
X133864603Y-69992401D01*
X133856976Y-69989242D01*
X133717600Y-69970893D01*
X133578224Y-69989242D01*
X133448347Y-70043039D01*
X133336818Y-70128618D01*
X133331795Y-70135164D01*
X133312003Y-70160958D01*
X133251239Y-70240147D01*
X133197442Y-70370024D01*
X133179093Y-70509400D01*
X118000000Y-70509400D01*
X118000000Y-69511200D01*
X149197013Y-69511200D01*
X149215362Y-69650576D01*
X149269159Y-69780453D01*
X149354738Y-69891982D01*
X149361288Y-69897008D01*
X149361291Y-69897011D01*
X149410502Y-69934771D01*
X149466266Y-69977561D01*
X149531205Y-70004459D01*
X149588514Y-70028198D01*
X149588517Y-70028199D01*
X149596144Y-70031358D01*
X149735520Y-70049707D01*
X149743708Y-70048629D01*
X149747970Y-70048068D01*
X149874896Y-70031358D01*
X149882523Y-70028199D01*
X149882526Y-70028198D01*
X149939835Y-70004459D01*
X150004774Y-69977561D01*
X150060538Y-69934771D01*
X150109749Y-69897011D01*
X150109752Y-69897008D01*
X150116302Y-69891982D01*
X150201881Y-69780453D01*
X150255678Y-69650576D01*
X150274027Y-69511200D01*
X150255678Y-69371824D01*
X150201881Y-69241947D01*
X150196854Y-69235396D01*
X150196852Y-69235392D01*
X150194481Y-69232302D01*
X150193292Y-69229225D01*
X150192724Y-69228242D01*
X150192877Y-69228153D01*
X150168882Y-69166081D01*
X150183148Y-69096532D01*
X150194481Y-69078898D01*
X150196852Y-69075808D01*
X150196854Y-69075804D01*
X150201881Y-69069253D01*
X150255678Y-68939376D01*
X150274027Y-68800000D01*
X150255678Y-68660624D01*
X150201881Y-68530747D01*
X150152728Y-68466689D01*
X150121329Y-68425769D01*
X150121328Y-68425768D01*
X150116302Y-68419218D01*
X150109752Y-68414192D01*
X150109749Y-68414189D01*
X150051273Y-68369319D01*
X150004774Y-68333639D01*
X149939835Y-68306741D01*
X149882526Y-68283002D01*
X149882523Y-68283001D01*
X149874896Y-68279842D01*
X149735520Y-68261493D01*
X149596144Y-68279842D01*
X149466267Y-68333639D01*
X149354738Y-68419218D01*
X149269159Y-68530747D01*
X149215362Y-68660624D01*
X149197013Y-68800000D01*
X149215362Y-68939376D01*
X149269159Y-69069253D01*
X149274186Y-69075804D01*
X149274188Y-69075808D01*
X149276559Y-69078898D01*
X149277748Y-69081975D01*
X149278316Y-69082958D01*
X149278163Y-69083047D01*
X149302158Y-69145119D01*
X149287892Y-69214668D01*
X149276559Y-69232302D01*
X149274188Y-69235392D01*
X149274186Y-69235396D01*
X149269159Y-69241947D01*
X149215362Y-69371824D01*
X149197013Y-69511200D01*
X118000000Y-69511200D01*
X118000000Y-65778169D01*
X121405354Y-65778169D01*
X121421679Y-66061290D01*
X121422504Y-66065495D01*
X121422505Y-66065503D01*
X121435672Y-66132615D01*
X121476276Y-66339576D01*
X121477663Y-66343626D01*
X121477664Y-66343631D01*
X121526883Y-66487385D01*
X121568137Y-66607877D01*
X121570064Y-66611708D01*
X121682342Y-66834949D01*
X121695559Y-66861229D01*
X121697985Y-66864758D01*
X121697988Y-66864764D01*
X121771262Y-66971378D01*
X121856187Y-67094944D01*
X122047048Y-67304697D01*
X122050337Y-67307447D01*
X122261317Y-67483854D01*
X122261322Y-67483858D01*
X122264609Y-67486606D01*
X122320418Y-67521615D01*
X122501205Y-67635023D01*
X122501209Y-67635025D01*
X122504845Y-67637306D01*
X122508755Y-67639071D01*
X122508756Y-67639072D01*
X122759399Y-67752242D01*
X122759403Y-67752244D01*
X122763311Y-67754008D01*
X122767431Y-67755228D01*
X122767430Y-67755228D01*
X123031111Y-67833334D01*
X123031115Y-67833335D01*
X123035224Y-67834552D01*
X123039458Y-67835200D01*
X123039463Y-67835201D01*
X123311310Y-67876799D01*
X123311312Y-67876799D01*
X123315552Y-67877448D01*
X123459875Y-67879715D01*
X123594817Y-67881836D01*
X123594823Y-67881836D01*
X123599108Y-67881903D01*
X123880645Y-67847833D01*
X123931655Y-67834451D01*
X132365441Y-67834451D01*
X132366177Y-67841454D01*
X132366177Y-67841455D01*
X132366902Y-67848349D01*
X132383965Y-68010693D01*
X132441075Y-68178451D01*
X132533932Y-68329388D01*
X132538859Y-68334419D01*
X132538861Y-68334422D01*
X132573035Y-68369319D01*
X132657921Y-68456002D01*
X132806880Y-68551999D01*
X132973406Y-68612610D01*
X133110268Y-68629900D01*
X133204877Y-68629900D01*
X133243436Y-68625575D01*
X133269309Y-68622673D01*
X133339235Y-68634957D01*
X133391419Y-68683096D01*
X133409293Y-68751806D01*
X133405061Y-68780500D01*
X133403804Y-68785189D01*
X133400642Y-68792824D01*
X133382293Y-68932200D01*
X133400642Y-69071576D01*
X133454439Y-69201453D01*
X133540018Y-69312982D01*
X133546568Y-69318008D01*
X133546571Y-69318011D01*
X133595782Y-69355772D01*
X133651546Y-69398561D01*
X133716485Y-69425460D01*
X133773794Y-69449198D01*
X133773797Y-69449199D01*
X133781424Y-69452358D01*
X133920800Y-69470707D01*
X133928988Y-69469629D01*
X134051988Y-69453436D01*
X134060176Y-69452358D01*
X134067803Y-69449199D01*
X134067806Y-69449198D01*
X134125115Y-69425460D01*
X134190054Y-69398561D01*
X134245818Y-69355771D01*
X134295029Y-69318011D01*
X134295032Y-69318008D01*
X134301582Y-69312982D01*
X134387161Y-69201453D01*
X134440958Y-69071576D01*
X134459307Y-68932200D01*
X134440958Y-68792824D01*
X134387161Y-68662947D01*
X134301582Y-68551418D01*
X134295032Y-68546392D01*
X134295029Y-68546389D01*
X134245818Y-68508628D01*
X134190054Y-68465839D01*
X134125115Y-68438941D01*
X134067806Y-68415202D01*
X134067803Y-68415201D01*
X134060176Y-68412042D01*
X134051988Y-68410964D01*
X133953828Y-68398041D01*
X133888901Y-68369319D01*
X133849809Y-68310053D01*
X133848964Y-68239062D01*
X133863888Y-68205607D01*
X133874770Y-68188460D01*
X133885222Y-68159108D01*
X133931854Y-68028151D01*
X133931855Y-68028146D01*
X133934216Y-68021516D01*
X133955199Y-67845549D01*
X133954112Y-67835201D01*
X133954033Y-67834451D01*
X150845441Y-67834451D01*
X150846177Y-67841454D01*
X150846177Y-67841455D01*
X150846902Y-67848349D01*
X150863965Y-68010693D01*
X150921075Y-68178451D01*
X151013932Y-68329388D01*
X151018859Y-68334419D01*
X151018861Y-68334422D01*
X151053035Y-68369319D01*
X151137921Y-68456002D01*
X151286880Y-68551999D01*
X151453406Y-68612610D01*
X151590268Y-68629900D01*
X151684877Y-68629900D01*
X151776747Y-68619595D01*
X151809431Y-68615929D01*
X151809432Y-68615929D01*
X151816428Y-68615144D01*
X151823705Y-68612610D01*
X151977137Y-68559180D01*
X151977139Y-68559179D01*
X151983784Y-68556865D01*
X152134069Y-68462956D01*
X152178114Y-68419218D01*
X152254817Y-68343048D01*
X152259814Y-68338086D01*
X152269142Y-68323388D01*
X152350992Y-68194414D01*
X152350994Y-68194410D01*
X152354770Y-68188460D01*
X152365222Y-68159108D01*
X152411854Y-68028151D01*
X152411855Y-68028146D01*
X152414216Y-68021516D01*
X152435199Y-67845549D01*
X152434112Y-67835201D01*
X152425706Y-67755228D01*
X152416675Y-67669307D01*
X152359565Y-67501549D01*
X152266708Y-67350612D01*
X152261781Y-67345581D01*
X152261779Y-67345578D01*
X152204714Y-67287305D01*
X152142719Y-67223998D01*
X151993760Y-67128001D01*
X151911658Y-67098118D01*
X151833853Y-67069799D01*
X151833852Y-67069799D01*
X151827234Y-67067390D01*
X151690372Y-67050100D01*
X151595763Y-67050100D01*
X151503893Y-67060405D01*
X151471209Y-67064071D01*
X151471208Y-67064071D01*
X151464212Y-67064856D01*
X151457564Y-67067171D01*
X151303503Y-67120820D01*
X151303501Y-67120821D01*
X151296856Y-67123135D01*
X151146571Y-67217044D01*
X151020826Y-67341914D01*
X151017052Y-67347860D01*
X151017051Y-67347862D01*
X150929648Y-67485586D01*
X150929646Y-67485590D01*
X150925870Y-67491540D01*
X150923505Y-67498182D01*
X150868786Y-67651849D01*
X150868785Y-67651854D01*
X150866424Y-67658484D01*
X150865591Y-67665472D01*
X150865590Y-67665475D01*
X150865133Y-67669307D01*
X150845441Y-67834451D01*
X133954033Y-67834451D01*
X133945706Y-67755228D01*
X133936675Y-67669307D01*
X133879565Y-67501549D01*
X133786708Y-67350612D01*
X133781781Y-67345581D01*
X133781779Y-67345578D01*
X133724714Y-67287305D01*
X133662719Y-67223998D01*
X133513760Y-67128001D01*
X133431658Y-67098118D01*
X133353853Y-67069799D01*
X133353852Y-67069799D01*
X133347234Y-67067390D01*
X133210372Y-67050100D01*
X133115763Y-67050100D01*
X133023893Y-67060405D01*
X132991209Y-67064071D01*
X132991208Y-67064071D01*
X132984212Y-67064856D01*
X132977564Y-67067171D01*
X132823503Y-67120820D01*
X132823501Y-67120821D01*
X132816856Y-67123135D01*
X132666571Y-67217044D01*
X132540826Y-67341914D01*
X132537052Y-67347860D01*
X132537051Y-67347862D01*
X132449648Y-67485586D01*
X132449646Y-67485590D01*
X132445870Y-67491540D01*
X132443505Y-67498182D01*
X132388786Y-67651849D01*
X132388785Y-67651854D01*
X132386424Y-67658484D01*
X132385591Y-67665472D01*
X132385590Y-67665475D01*
X132385133Y-67669307D01*
X132365441Y-67834451D01*
X123931655Y-67834451D01*
X124154954Y-67775870D01*
X124158914Y-67774230D01*
X124158919Y-67774228D01*
X124285956Y-67721607D01*
X124416958Y-67667344D01*
X124661809Y-67524264D01*
X124884977Y-67349279D01*
X124888564Y-67345578D01*
X125040754Y-67188528D01*
X125082331Y-67145624D01*
X125084864Y-67142176D01*
X125084868Y-67142171D01*
X125247683Y-66920525D01*
X125250221Y-66917070D01*
X125280540Y-66861229D01*
X125383489Y-66671622D01*
X125383490Y-66671620D01*
X125385539Y-66667846D01*
X125485781Y-66402562D01*
X125506981Y-66310000D01*
X130670573Y-66310000D01*
X130689907Y-66493949D01*
X130747063Y-66669859D01*
X130750366Y-66675580D01*
X130750367Y-66675582D01*
X130836243Y-66824323D01*
X130836246Y-66824328D01*
X130839545Y-66830041D01*
X130963309Y-66967495D01*
X130968651Y-66971376D01*
X130968653Y-66971378D01*
X131096234Y-67064071D01*
X131112946Y-67076213D01*
X131118974Y-67078897D01*
X131118976Y-67078898D01*
X131261090Y-67142171D01*
X131281918Y-67151444D01*
X131372379Y-67170672D01*
X131456382Y-67188528D01*
X131456386Y-67188528D01*
X131462839Y-67189900D01*
X131647801Y-67189900D01*
X131654254Y-67188528D01*
X131654258Y-67188528D01*
X131738261Y-67170672D01*
X131828722Y-67151444D01*
X131849550Y-67142171D01*
X131991664Y-67078898D01*
X131991666Y-67078897D01*
X131997694Y-67076213D01*
X132014406Y-67064071D01*
X132141987Y-66971378D01*
X132141989Y-66971376D01*
X132147331Y-66967495D01*
X132271095Y-66830041D01*
X132274394Y-66824328D01*
X132274397Y-66824323D01*
X132360273Y-66675582D01*
X132360274Y-66675580D01*
X132363577Y-66669859D01*
X132420733Y-66493949D01*
X132440067Y-66310000D01*
X152360573Y-66310000D01*
X152379907Y-66493949D01*
X152437063Y-66669859D01*
X152440366Y-66675580D01*
X152440367Y-66675582D01*
X152526243Y-66824323D01*
X152526246Y-66824328D01*
X152529545Y-66830041D01*
X152653309Y-66967495D01*
X152658651Y-66971376D01*
X152658653Y-66971378D01*
X152786234Y-67064071D01*
X152802946Y-67076213D01*
X152808974Y-67078897D01*
X152808976Y-67078898D01*
X152951090Y-67142171D01*
X152971918Y-67151444D01*
X153062379Y-67170672D01*
X153146382Y-67188528D01*
X153146386Y-67188528D01*
X153152839Y-67189900D01*
X153337801Y-67189900D01*
X153344254Y-67188528D01*
X153344258Y-67188528D01*
X153428261Y-67170672D01*
X153518722Y-67151444D01*
X153539550Y-67142171D01*
X153681664Y-67078898D01*
X153681666Y-67078897D01*
X153687694Y-67076213D01*
X153704406Y-67064071D01*
X153831987Y-66971378D01*
X153831989Y-66971376D01*
X153837331Y-66967495D01*
X153961095Y-66830041D01*
X153964394Y-66824328D01*
X153964397Y-66824323D01*
X154050273Y-66675582D01*
X154050274Y-66675580D01*
X154053577Y-66669859D01*
X154110733Y-66493949D01*
X154130067Y-66310000D01*
X154110733Y-66126051D01*
X154053577Y-65950141D01*
X154050273Y-65944418D01*
X153964397Y-65795677D01*
X153964394Y-65795672D01*
X153961095Y-65789959D01*
X153950479Y-65778169D01*
X159225354Y-65778169D01*
X159241679Y-66061290D01*
X159242504Y-66065495D01*
X159242505Y-66065503D01*
X159255672Y-66132615D01*
X159296276Y-66339576D01*
X159297663Y-66343626D01*
X159297664Y-66343631D01*
X159346883Y-66487385D01*
X159388137Y-66607877D01*
X159390064Y-66611708D01*
X159502342Y-66834949D01*
X159515559Y-66861229D01*
X159517985Y-66864758D01*
X159517988Y-66864764D01*
X159591262Y-66971378D01*
X159676187Y-67094944D01*
X159867048Y-67304697D01*
X159870337Y-67307447D01*
X160081317Y-67483854D01*
X160081322Y-67483858D01*
X160084609Y-67486606D01*
X160140418Y-67521615D01*
X160321205Y-67635023D01*
X160321209Y-67635025D01*
X160324845Y-67637306D01*
X160328755Y-67639071D01*
X160328756Y-67639072D01*
X160579399Y-67752242D01*
X160579403Y-67752244D01*
X160583311Y-67754008D01*
X160587431Y-67755228D01*
X160587430Y-67755228D01*
X160851111Y-67833334D01*
X160851115Y-67833335D01*
X160855224Y-67834552D01*
X160859458Y-67835200D01*
X160859463Y-67835201D01*
X161131310Y-67876799D01*
X161131312Y-67876799D01*
X161135552Y-67877448D01*
X161279875Y-67879715D01*
X161414817Y-67881836D01*
X161414823Y-67881836D01*
X161419108Y-67881903D01*
X161700645Y-67847833D01*
X161974954Y-67775870D01*
X161978914Y-67774230D01*
X161978919Y-67774228D01*
X162105956Y-67721607D01*
X162236958Y-67667344D01*
X162481809Y-67524264D01*
X162704977Y-67349279D01*
X162708564Y-67345578D01*
X162860754Y-67188528D01*
X162902331Y-67145624D01*
X162904864Y-67142176D01*
X162904868Y-67142171D01*
X163067683Y-66920525D01*
X163070221Y-66917070D01*
X163100540Y-66861229D01*
X163203489Y-66671622D01*
X163203490Y-66671620D01*
X163205539Y-66667846D01*
X163305781Y-66402562D01*
X163337437Y-66264345D01*
X163368136Y-66130308D01*
X163368137Y-66130303D01*
X163369093Y-66126128D01*
X163394303Y-65843660D01*
X163394760Y-65800000D01*
X163394465Y-65795677D01*
X163375763Y-65521343D01*
X163375762Y-65521337D01*
X163375471Y-65517066D01*
X163317963Y-65239367D01*
X163223298Y-64972042D01*
X163093229Y-64720038D01*
X163082821Y-64705228D01*
X162977826Y-64555836D01*
X162930163Y-64488018D01*
X162780449Y-64326907D01*
X162740037Y-64283418D01*
X162740034Y-64283415D01*
X162737116Y-64280275D01*
X162517662Y-64100654D01*
X162275861Y-63952478D01*
X162258070Y-63944668D01*
X162020119Y-63840215D01*
X162016187Y-63838489D01*
X161743446Y-63760797D01*
X161534934Y-63731122D01*
X161466936Y-63721444D01*
X161466934Y-63721444D01*
X161462684Y-63720839D01*
X161313222Y-63720056D01*
X161183383Y-63719376D01*
X161183376Y-63719376D01*
X161179097Y-63719354D01*
X161174853Y-63719913D01*
X161174849Y-63719913D01*
X161051234Y-63736187D01*
X160897932Y-63756370D01*
X160893792Y-63757503D01*
X160893790Y-63757503D01*
X160628537Y-63830068D01*
X160624392Y-63831202D01*
X160363539Y-63942465D01*
X160359858Y-63944668D01*
X160123881Y-64085897D01*
X160123877Y-64085900D01*
X160120199Y-64088101D01*
X159898876Y-64265414D01*
X159804810Y-64364539D01*
X159739874Y-64432968D01*
X159703665Y-64471124D01*
X159538178Y-64701424D01*
X159405477Y-64952052D01*
X159308018Y-65218371D01*
X159247605Y-65495452D01*
X159225354Y-65778169D01*
X153950479Y-65778169D01*
X153837331Y-65652505D01*
X153687694Y-65543787D01*
X153681666Y-65541103D01*
X153681664Y-65541102D01*
X153524753Y-65471241D01*
X153524752Y-65471241D01*
X153518722Y-65468556D01*
X153428262Y-65449328D01*
X153344258Y-65431472D01*
X153344254Y-65431472D01*
X153337801Y-65430100D01*
X153152839Y-65430100D01*
X153146386Y-65431472D01*
X153146382Y-65431472D01*
X153062378Y-65449328D01*
X152971918Y-65468556D01*
X152965889Y-65471241D01*
X152965887Y-65471241D01*
X152808977Y-65541102D01*
X152808975Y-65541103D01*
X152802947Y-65543787D01*
X152797606Y-65547667D01*
X152797605Y-65547668D01*
X152658653Y-65648622D01*
X152658651Y-65648624D01*
X152653309Y-65652505D01*
X152529545Y-65789959D01*
X152526246Y-65795672D01*
X152526243Y-65795677D01*
X152440367Y-65944418D01*
X152437063Y-65950141D01*
X152379907Y-66126051D01*
X152360573Y-66310000D01*
X132440067Y-66310000D01*
X132420733Y-66126051D01*
X132363577Y-65950141D01*
X132360273Y-65944418D01*
X132274397Y-65795677D01*
X132274394Y-65795672D01*
X132271095Y-65789959D01*
X132147331Y-65652505D01*
X131997694Y-65543787D01*
X131991666Y-65541103D01*
X131991664Y-65541102D01*
X131834753Y-65471241D01*
X131834752Y-65471241D01*
X131828722Y-65468556D01*
X131738262Y-65449328D01*
X131654258Y-65431472D01*
X131654254Y-65431472D01*
X131647801Y-65430100D01*
X131462839Y-65430100D01*
X131456386Y-65431472D01*
X131456382Y-65431472D01*
X131372378Y-65449328D01*
X131281918Y-65468556D01*
X131275889Y-65471241D01*
X131275887Y-65471241D01*
X131118977Y-65541102D01*
X131118975Y-65541103D01*
X131112947Y-65543787D01*
X131107606Y-65547667D01*
X131107605Y-65547668D01*
X130968653Y-65648622D01*
X130968651Y-65648624D01*
X130963309Y-65652505D01*
X130839545Y-65789959D01*
X130836246Y-65795672D01*
X130836243Y-65795677D01*
X130750367Y-65944418D01*
X130747063Y-65950141D01*
X130689907Y-66126051D01*
X130670573Y-66310000D01*
X125506981Y-66310000D01*
X125517437Y-66264345D01*
X125548136Y-66130308D01*
X125548137Y-66130303D01*
X125549093Y-66126128D01*
X125574303Y-65843660D01*
X125574760Y-65800000D01*
X125574465Y-65795677D01*
X125555763Y-65521343D01*
X125555762Y-65521337D01*
X125555471Y-65517066D01*
X125497963Y-65239367D01*
X125403298Y-64972042D01*
X125273229Y-64720038D01*
X125262821Y-64705228D01*
X125157826Y-64555836D01*
X125110163Y-64488018D01*
X124960449Y-64326907D01*
X124920037Y-64283418D01*
X124920034Y-64283415D01*
X124917116Y-64280275D01*
X124697662Y-64100654D01*
X124589872Y-64034600D01*
X136038813Y-64034600D01*
X136057162Y-64173976D01*
X136110959Y-64303853D01*
X136196538Y-64415382D01*
X136203088Y-64420408D01*
X136203091Y-64420411D01*
X136219456Y-64432968D01*
X136308066Y-64500961D01*
X136373005Y-64527860D01*
X136430314Y-64551598D01*
X136430317Y-64551599D01*
X136437944Y-64554758D01*
X136577320Y-64573107D01*
X136585508Y-64572029D01*
X136708508Y-64555836D01*
X136716696Y-64554758D01*
X136724323Y-64551599D01*
X136724326Y-64551598D01*
X136838946Y-64504121D01*
X136838948Y-64504120D01*
X136846574Y-64500961D01*
X136847634Y-64500148D01*
X136913512Y-64484164D01*
X136967071Y-64499890D01*
X136968466Y-64500961D01*
X136976092Y-64504120D01*
X136976094Y-64504121D01*
X137090714Y-64551598D01*
X137090717Y-64551599D01*
X137098344Y-64554758D01*
X137237720Y-64573107D01*
X137245908Y-64572029D01*
X137368908Y-64555836D01*
X137377096Y-64554758D01*
X137384723Y-64551599D01*
X137384726Y-64551598D01*
X137442035Y-64527860D01*
X137506974Y-64500961D01*
X137580812Y-64444302D01*
X137647031Y-64418703D01*
X137716580Y-64432968D01*
X137734215Y-64444300D01*
X137808056Y-64500961D01*
X137872995Y-64527860D01*
X137930304Y-64551598D01*
X137930307Y-64551599D01*
X137937934Y-64554758D01*
X138077310Y-64573107D01*
X138085498Y-64572029D01*
X138208498Y-64555836D01*
X138216686Y-64554758D01*
X138224313Y-64551599D01*
X138224316Y-64551598D01*
X138338936Y-64504121D01*
X138338938Y-64504120D01*
X138346564Y-64500961D01*
X138347624Y-64500148D01*
X138413502Y-64484164D01*
X138467061Y-64499890D01*
X138468456Y-64500961D01*
X138476082Y-64504120D01*
X138476084Y-64504121D01*
X138590704Y-64551598D01*
X138590707Y-64551599D01*
X138598334Y-64554758D01*
X138737710Y-64573107D01*
X138745898Y-64572029D01*
X138868898Y-64555836D01*
X138877086Y-64554758D01*
X138884713Y-64551599D01*
X138884716Y-64551598D01*
X138942025Y-64527860D01*
X139006964Y-64500961D01*
X139095574Y-64432968D01*
X139111939Y-64420411D01*
X139111942Y-64420408D01*
X139118492Y-64415382D01*
X139198639Y-64310932D01*
X139255977Y-64269065D01*
X139326848Y-64264843D01*
X139346811Y-64271224D01*
X139436944Y-64308558D01*
X139445132Y-64309636D01*
X139506632Y-64317732D01*
X139576320Y-64326907D01*
X139584508Y-64325829D01*
X139707508Y-64309636D01*
X139715696Y-64308558D01*
X139723323Y-64305399D01*
X139723326Y-64305398D01*
X139837946Y-64257921D01*
X139837948Y-64257920D01*
X139845574Y-64254761D01*
X139846634Y-64253948D01*
X139912512Y-64237964D01*
X139966071Y-64253690D01*
X139967466Y-64254761D01*
X139975092Y-64257920D01*
X139975094Y-64257921D01*
X140089714Y-64305398D01*
X140089717Y-64305399D01*
X140097344Y-64308558D01*
X140105532Y-64309636D01*
X140167032Y-64317732D01*
X140236720Y-64326907D01*
X140244908Y-64325829D01*
X140367908Y-64309636D01*
X140376096Y-64308558D01*
X140383723Y-64305399D01*
X140383726Y-64305398D01*
X140444377Y-64280275D01*
X140505974Y-64254761D01*
X140579115Y-64198637D01*
X140645336Y-64173036D01*
X140714885Y-64187301D01*
X140732524Y-64198637D01*
X140805666Y-64254761D01*
X140867263Y-64280275D01*
X140927914Y-64305398D01*
X140927917Y-64305399D01*
X140935544Y-64308558D01*
X140943732Y-64309636D01*
X141005232Y-64317732D01*
X141074920Y-64326907D01*
X141083108Y-64325829D01*
X141206108Y-64309636D01*
X141214296Y-64308558D01*
X141221923Y-64305399D01*
X141221926Y-64305398D01*
X141336546Y-64257921D01*
X141336548Y-64257920D01*
X141344174Y-64254761D01*
X141345234Y-64253948D01*
X141411112Y-64237964D01*
X141464671Y-64253690D01*
X141466066Y-64254761D01*
X141473692Y-64257920D01*
X141473694Y-64257921D01*
X141588314Y-64305398D01*
X141588317Y-64305399D01*
X141595944Y-64308558D01*
X141604132Y-64309636D01*
X141665632Y-64317732D01*
X141735320Y-64326907D01*
X141743508Y-64325829D01*
X141866508Y-64309636D01*
X141874696Y-64308558D01*
X141882323Y-64305399D01*
X141882326Y-64305398D01*
X141942977Y-64280275D01*
X142004574Y-64254761D01*
X142077715Y-64198637D01*
X142143936Y-64173036D01*
X142213485Y-64187301D01*
X142231124Y-64198637D01*
X142304266Y-64254761D01*
X142365863Y-64280275D01*
X142426514Y-64305398D01*
X142426517Y-64305399D01*
X142434144Y-64308558D01*
X142442332Y-64309636D01*
X142503832Y-64317732D01*
X142573520Y-64326907D01*
X142581708Y-64325829D01*
X142704708Y-64309636D01*
X142712896Y-64308558D01*
X142720523Y-64305399D01*
X142720526Y-64305398D01*
X142835146Y-64257921D01*
X142835148Y-64257920D01*
X142842774Y-64254761D01*
X142843834Y-64253948D01*
X142909712Y-64237964D01*
X142963271Y-64253690D01*
X142964666Y-64254761D01*
X142972292Y-64257920D01*
X142972294Y-64257921D01*
X143086914Y-64305398D01*
X143086917Y-64305399D01*
X143094544Y-64308558D01*
X143102732Y-64309636D01*
X143164232Y-64317732D01*
X143233920Y-64326907D01*
X143242108Y-64325829D01*
X143365108Y-64309636D01*
X143373296Y-64308558D01*
X143467048Y-64269725D01*
X143537637Y-64262136D01*
X143601124Y-64293915D01*
X143615227Y-64309430D01*
X143691497Y-64408827D01*
X143691501Y-64408831D01*
X143696528Y-64415382D01*
X143703078Y-64420408D01*
X143703081Y-64420411D01*
X143719446Y-64432968D01*
X143808056Y-64500961D01*
X143872995Y-64527860D01*
X143930304Y-64551598D01*
X143930307Y-64551599D01*
X143937934Y-64554758D01*
X144077310Y-64573107D01*
X144085498Y-64572029D01*
X144208498Y-64555836D01*
X144216686Y-64554758D01*
X144224313Y-64551599D01*
X144224316Y-64551598D01*
X144338936Y-64504121D01*
X144338938Y-64504120D01*
X144346564Y-64500961D01*
X144347624Y-64500148D01*
X144413502Y-64484164D01*
X144467061Y-64499890D01*
X144468456Y-64500961D01*
X144476082Y-64504120D01*
X144476084Y-64504121D01*
X144590704Y-64551598D01*
X144590707Y-64551599D01*
X144598334Y-64554758D01*
X144737710Y-64573107D01*
X144745898Y-64572029D01*
X144868898Y-64555836D01*
X144877086Y-64554758D01*
X144884713Y-64551599D01*
X144884716Y-64551598D01*
X144942025Y-64527860D01*
X145006964Y-64500961D01*
X145080811Y-64444296D01*
X145147031Y-64418695D01*
X145216580Y-64432960D01*
X145234219Y-64444296D01*
X145308066Y-64500961D01*
X145373005Y-64527860D01*
X145430314Y-64551598D01*
X145430317Y-64551599D01*
X145437944Y-64554758D01*
X145577320Y-64573107D01*
X145585508Y-64572029D01*
X145708508Y-64555836D01*
X145716696Y-64554758D01*
X145724323Y-64551599D01*
X145724326Y-64551598D01*
X145838946Y-64504121D01*
X145838948Y-64504120D01*
X145846574Y-64500961D01*
X145847634Y-64500148D01*
X145913512Y-64484164D01*
X145967071Y-64499890D01*
X145968466Y-64500961D01*
X145976092Y-64504120D01*
X145976094Y-64504121D01*
X146090714Y-64551598D01*
X146090717Y-64551599D01*
X146098344Y-64554758D01*
X146237720Y-64573107D01*
X146245908Y-64572029D01*
X146368908Y-64555836D01*
X146377096Y-64554758D01*
X146384723Y-64551599D01*
X146384726Y-64551598D01*
X146442035Y-64527860D01*
X146506974Y-64500961D01*
X146580812Y-64444302D01*
X146647031Y-64418703D01*
X146716580Y-64432968D01*
X146734215Y-64444300D01*
X146808056Y-64500961D01*
X146872995Y-64527860D01*
X146930304Y-64551598D01*
X146930307Y-64551599D01*
X146937934Y-64554758D01*
X147077310Y-64573107D01*
X147085498Y-64572029D01*
X147208498Y-64555836D01*
X147216686Y-64554758D01*
X147224313Y-64551599D01*
X147224316Y-64551598D01*
X147338936Y-64504121D01*
X147338938Y-64504120D01*
X147346564Y-64500961D01*
X147347624Y-64500148D01*
X147413502Y-64484164D01*
X147467061Y-64499890D01*
X147468456Y-64500961D01*
X147476082Y-64504120D01*
X147476084Y-64504121D01*
X147590704Y-64551598D01*
X147590707Y-64551599D01*
X147598334Y-64554758D01*
X147737710Y-64573107D01*
X147745898Y-64572029D01*
X147868898Y-64555836D01*
X147877086Y-64554758D01*
X147884713Y-64551599D01*
X147884716Y-64551598D01*
X147942025Y-64527860D01*
X148006964Y-64500961D01*
X148095574Y-64432968D01*
X148111939Y-64420411D01*
X148111942Y-64420408D01*
X148118492Y-64415382D01*
X148204071Y-64303853D01*
X148206672Y-64297574D01*
X148257565Y-64249047D01*
X148327278Y-64235610D01*
X148376694Y-64251406D01*
X148381066Y-64254761D01*
X148442663Y-64280275D01*
X148503314Y-64305398D01*
X148503317Y-64305399D01*
X148510944Y-64308558D01*
X148519132Y-64309636D01*
X148580632Y-64317732D01*
X148650320Y-64326907D01*
X148658508Y-64325829D01*
X148781508Y-64309636D01*
X148789696Y-64308558D01*
X148797323Y-64305399D01*
X148797326Y-64305398D01*
X148857977Y-64280275D01*
X148919574Y-64254761D01*
X148992716Y-64198637D01*
X149024549Y-64174211D01*
X149024552Y-64174208D01*
X149031102Y-64169182D01*
X149116681Y-64057653D01*
X149170478Y-63927776D01*
X149188827Y-63788400D01*
X149170478Y-63649024D01*
X149167318Y-63641395D01*
X149165180Y-63633416D01*
X149167882Y-63632692D01*
X149161754Y-63575696D01*
X149193532Y-63512209D01*
X149254589Y-63475980D01*
X149325541Y-63478513D01*
X149362455Y-63498103D01*
X149387866Y-63517602D01*
X149453857Y-63568239D01*
X149466266Y-63577761D01*
X149489513Y-63587390D01*
X149588514Y-63628398D01*
X149588517Y-63628399D01*
X149596144Y-63631558D01*
X149604332Y-63632636D01*
X149610257Y-63633416D01*
X149735520Y-63649907D01*
X149743708Y-63648829D01*
X149743967Y-63648795D01*
X149860783Y-63633416D01*
X149866708Y-63632636D01*
X149874896Y-63631558D01*
X149882523Y-63628399D01*
X149882526Y-63628398D01*
X149981527Y-63587390D01*
X150004774Y-63577761D01*
X150060538Y-63534972D01*
X150109749Y-63497211D01*
X150109752Y-63497208D01*
X150116302Y-63492182D01*
X150201881Y-63380653D01*
X150255678Y-63250776D01*
X150274027Y-63111400D01*
X150255678Y-62972024D01*
X150201881Y-62842147D01*
X150196857Y-62835599D01*
X150196852Y-62835591D01*
X150184737Y-62819803D01*
X150159137Y-62753582D01*
X150173402Y-62684034D01*
X150184737Y-62666397D01*
X150196852Y-62650609D01*
X150196857Y-62650601D01*
X150201881Y-62644053D01*
X150255678Y-62514176D01*
X150274027Y-62374800D01*
X150255678Y-62235424D01*
X150201881Y-62105547D01*
X150116302Y-61994018D01*
X150109752Y-61988992D01*
X150109749Y-61988989D01*
X150038560Y-61934364D01*
X150004774Y-61908439D01*
X149939835Y-61881540D01*
X149882526Y-61857802D01*
X149882523Y-61857801D01*
X149874896Y-61854642D01*
X149735520Y-61836293D01*
X149596144Y-61854642D01*
X149466267Y-61908439D01*
X149354738Y-61994018D01*
X149269159Y-62105547D01*
X149215362Y-62235424D01*
X149197013Y-62374800D01*
X149215362Y-62514176D01*
X149269159Y-62644053D01*
X149274183Y-62650601D01*
X149274188Y-62650609D01*
X149286303Y-62666397D01*
X149311903Y-62732618D01*
X149297638Y-62802166D01*
X149286303Y-62819803D01*
X149274188Y-62835591D01*
X149274183Y-62835599D01*
X149269159Y-62842147D01*
X149215362Y-62972024D01*
X149197013Y-63111400D01*
X149215362Y-63250776D01*
X149218522Y-63258405D01*
X149220660Y-63266384D01*
X149217958Y-63267108D01*
X149224086Y-63324104D01*
X149192308Y-63387591D01*
X149131251Y-63423820D01*
X149060299Y-63421287D01*
X149023384Y-63401696D01*
X148926127Y-63327067D01*
X148926125Y-63327066D01*
X148919574Y-63322039D01*
X148854635Y-63295141D01*
X148797326Y-63271402D01*
X148797323Y-63271401D01*
X148789696Y-63268242D01*
X148781083Y-63267108D01*
X148658508Y-63250971D01*
X148650320Y-63249893D01*
X148642132Y-63250971D01*
X148519558Y-63267108D01*
X148510944Y-63268242D01*
X148381067Y-63322039D01*
X148269538Y-63407618D01*
X148183959Y-63519147D01*
X148181358Y-63525426D01*
X148130465Y-63573953D01*
X148060752Y-63587390D01*
X148011336Y-63571594D01*
X148006964Y-63568239D01*
X147942025Y-63541340D01*
X147884716Y-63517602D01*
X147884713Y-63517601D01*
X147877086Y-63514442D01*
X147860125Y-63512209D01*
X147745898Y-63497171D01*
X147737710Y-63496093D01*
X147729522Y-63497171D01*
X147615296Y-63512209D01*
X147598334Y-63514442D01*
X147590705Y-63517602D01*
X147476087Y-63565078D01*
X147476084Y-63565080D01*
X147468457Y-63568239D01*
X147467394Y-63569055D01*
X147401514Y-63585036D01*
X147347960Y-63569310D01*
X147346564Y-63568239D01*
X147338938Y-63565080D01*
X147338936Y-63565079D01*
X147224316Y-63517602D01*
X147224313Y-63517601D01*
X147216686Y-63514442D01*
X147199725Y-63512209D01*
X147085498Y-63497171D01*
X147077310Y-63496093D01*
X147069122Y-63497171D01*
X146954896Y-63512209D01*
X146937934Y-63514442D01*
X146808057Y-63568239D01*
X146801506Y-63573266D01*
X146801501Y-63573269D01*
X146734219Y-63624896D01*
X146667999Y-63650497D01*
X146598450Y-63636232D01*
X146580815Y-63624900D01*
X146506974Y-63568239D01*
X146442035Y-63541340D01*
X146384726Y-63517602D01*
X146384723Y-63517601D01*
X146377096Y-63514442D01*
X146360135Y-63512209D01*
X146245908Y-63497171D01*
X146237720Y-63496093D01*
X146229532Y-63497171D01*
X146115306Y-63512209D01*
X146098344Y-63514442D01*
X146090715Y-63517602D01*
X145976097Y-63565078D01*
X145976094Y-63565080D01*
X145968467Y-63568239D01*
X145967404Y-63569055D01*
X145901524Y-63585036D01*
X145847970Y-63569310D01*
X145846574Y-63568239D01*
X145838948Y-63565080D01*
X145838946Y-63565079D01*
X145724326Y-63517602D01*
X145724323Y-63517601D01*
X145716696Y-63514442D01*
X145699735Y-63512209D01*
X145585508Y-63497171D01*
X145577320Y-63496093D01*
X145569132Y-63497171D01*
X145454906Y-63512209D01*
X145437944Y-63514442D01*
X145308067Y-63568239D01*
X145301516Y-63573266D01*
X145301511Y-63573269D01*
X145234219Y-63624904D01*
X145167999Y-63650505D01*
X145098450Y-63636241D01*
X145080811Y-63624904D01*
X145067634Y-63614793D01*
X145006964Y-63568239D01*
X144942025Y-63541340D01*
X144884716Y-63517602D01*
X144884713Y-63517601D01*
X144877086Y-63514442D01*
X144860125Y-63512209D01*
X144745898Y-63497171D01*
X144737710Y-63496093D01*
X144729522Y-63497171D01*
X144615296Y-63512209D01*
X144598334Y-63514442D01*
X144590705Y-63517602D01*
X144476087Y-63565078D01*
X144476084Y-63565080D01*
X144468457Y-63568239D01*
X144467394Y-63569055D01*
X144401514Y-63585036D01*
X144347960Y-63569310D01*
X144346564Y-63568239D01*
X144338938Y-63565080D01*
X144338936Y-63565079D01*
X144224316Y-63517602D01*
X144224313Y-63517601D01*
X144216686Y-63514442D01*
X144199725Y-63512209D01*
X144085498Y-63497171D01*
X144077310Y-63496093D01*
X144069122Y-63497171D01*
X143954896Y-63512209D01*
X143937934Y-63514442D01*
X143930305Y-63517602D01*
X143844183Y-63553275D01*
X143773593Y-63560864D01*
X143710106Y-63529085D01*
X143696003Y-63513570D01*
X143619733Y-63414173D01*
X143619728Y-63414168D01*
X143614702Y-63407618D01*
X143608152Y-63402592D01*
X143608149Y-63402589D01*
X143558938Y-63364828D01*
X143503174Y-63322039D01*
X143438235Y-63295141D01*
X143380926Y-63271402D01*
X143380923Y-63271401D01*
X143373296Y-63268242D01*
X143364683Y-63267108D01*
X143242108Y-63250971D01*
X143233920Y-63249893D01*
X143225732Y-63250971D01*
X143103158Y-63267108D01*
X143094544Y-63268242D01*
X143086915Y-63271402D01*
X142972297Y-63318878D01*
X142972294Y-63318880D01*
X142964667Y-63322039D01*
X142963604Y-63322855D01*
X142897724Y-63338836D01*
X142844170Y-63323110D01*
X142842774Y-63322039D01*
X142835148Y-63318880D01*
X142835146Y-63318879D01*
X142720526Y-63271402D01*
X142720523Y-63271401D01*
X142712896Y-63268242D01*
X142704283Y-63267108D01*
X142581708Y-63250971D01*
X142573520Y-63249893D01*
X142565332Y-63250971D01*
X142442758Y-63267108D01*
X142434144Y-63268242D01*
X142304267Y-63322039D01*
X142297716Y-63327066D01*
X142297711Y-63327069D01*
X142231124Y-63378163D01*
X142164904Y-63403764D01*
X142095355Y-63389499D01*
X142077716Y-63378163D01*
X142062768Y-63366693D01*
X142004574Y-63322039D01*
X141939635Y-63295141D01*
X141882326Y-63271402D01*
X141882323Y-63271401D01*
X141874696Y-63268242D01*
X141866083Y-63267108D01*
X141743508Y-63250971D01*
X141735320Y-63249893D01*
X141727132Y-63250971D01*
X141604558Y-63267108D01*
X141595944Y-63268242D01*
X141588315Y-63271402D01*
X141473697Y-63318878D01*
X141473694Y-63318880D01*
X141466067Y-63322039D01*
X141465004Y-63322855D01*
X141399124Y-63338836D01*
X141345570Y-63323110D01*
X141344174Y-63322039D01*
X141336548Y-63318880D01*
X141336546Y-63318879D01*
X141221926Y-63271402D01*
X141221923Y-63271401D01*
X141214296Y-63268242D01*
X141205683Y-63267108D01*
X141083108Y-63250971D01*
X141074920Y-63249893D01*
X141066732Y-63250971D01*
X140944158Y-63267108D01*
X140935544Y-63268242D01*
X140805667Y-63322039D01*
X140799116Y-63327066D01*
X140799111Y-63327069D01*
X140732524Y-63378163D01*
X140666304Y-63403764D01*
X140596755Y-63389499D01*
X140579116Y-63378163D01*
X140564168Y-63366693D01*
X140505974Y-63322039D01*
X140441035Y-63295141D01*
X140383726Y-63271402D01*
X140383723Y-63271401D01*
X140376096Y-63268242D01*
X140367483Y-63267108D01*
X140244908Y-63250971D01*
X140236720Y-63249893D01*
X140228532Y-63250971D01*
X140105958Y-63267108D01*
X140097344Y-63268242D01*
X140089715Y-63271402D01*
X139975097Y-63318878D01*
X139975094Y-63318880D01*
X139967467Y-63322039D01*
X139966404Y-63322855D01*
X139900524Y-63338836D01*
X139846970Y-63323110D01*
X139845574Y-63322039D01*
X139837948Y-63318880D01*
X139837946Y-63318879D01*
X139723326Y-63271402D01*
X139723323Y-63271401D01*
X139715696Y-63268242D01*
X139707083Y-63267108D01*
X139584508Y-63250971D01*
X139576320Y-63249893D01*
X139568132Y-63250971D01*
X139445558Y-63267108D01*
X139436944Y-63268242D01*
X139307067Y-63322039D01*
X139195538Y-63407618D01*
X139141139Y-63478513D01*
X139115391Y-63512068D01*
X139058053Y-63553935D01*
X138987182Y-63558157D01*
X138967219Y-63551776D01*
X138877086Y-63514442D01*
X138860125Y-63512209D01*
X138745898Y-63497171D01*
X138737710Y-63496093D01*
X138729522Y-63497171D01*
X138615296Y-63512209D01*
X138598334Y-63514442D01*
X138590705Y-63517602D01*
X138476087Y-63565078D01*
X138476084Y-63565080D01*
X138468457Y-63568239D01*
X138467394Y-63569055D01*
X138401514Y-63585036D01*
X138347960Y-63569310D01*
X138346564Y-63568239D01*
X138338938Y-63565080D01*
X138338936Y-63565079D01*
X138224316Y-63517602D01*
X138224313Y-63517601D01*
X138216686Y-63514442D01*
X138199725Y-63512209D01*
X138085498Y-63497171D01*
X138077310Y-63496093D01*
X138069122Y-63497171D01*
X137954896Y-63512209D01*
X137937934Y-63514442D01*
X137808057Y-63568239D01*
X137801506Y-63573266D01*
X137801501Y-63573269D01*
X137734219Y-63624896D01*
X137667999Y-63650497D01*
X137598450Y-63636232D01*
X137580815Y-63624900D01*
X137506974Y-63568239D01*
X137442035Y-63541340D01*
X137384726Y-63517602D01*
X137384723Y-63517601D01*
X137377096Y-63514442D01*
X137360135Y-63512209D01*
X137245908Y-63497171D01*
X137237720Y-63496093D01*
X137229532Y-63497171D01*
X137115306Y-63512209D01*
X137098344Y-63514442D01*
X137090715Y-63517602D01*
X136976097Y-63565078D01*
X136976094Y-63565080D01*
X136968467Y-63568239D01*
X136967404Y-63569055D01*
X136901524Y-63585036D01*
X136847970Y-63569310D01*
X136846574Y-63568239D01*
X136838948Y-63565080D01*
X136838946Y-63565079D01*
X136724326Y-63517602D01*
X136724323Y-63517601D01*
X136716696Y-63514442D01*
X136699735Y-63512209D01*
X136585508Y-63497171D01*
X136577320Y-63496093D01*
X136569132Y-63497171D01*
X136454906Y-63512209D01*
X136437944Y-63514442D01*
X136308067Y-63568239D01*
X136196538Y-63653818D01*
X136110959Y-63765347D01*
X136057162Y-63895224D01*
X136038813Y-64034600D01*
X124589872Y-64034600D01*
X124455861Y-63952478D01*
X124438070Y-63944668D01*
X124200119Y-63840215D01*
X124196187Y-63838489D01*
X123923446Y-63760797D01*
X123714934Y-63731122D01*
X123646936Y-63721444D01*
X123646934Y-63721444D01*
X123642684Y-63720839D01*
X123493222Y-63720056D01*
X123363383Y-63719376D01*
X123363376Y-63719376D01*
X123359097Y-63719354D01*
X123354853Y-63719913D01*
X123354849Y-63719913D01*
X123231234Y-63736187D01*
X123077932Y-63756370D01*
X123073792Y-63757503D01*
X123073790Y-63757503D01*
X122808537Y-63830068D01*
X122804392Y-63831202D01*
X122543539Y-63942465D01*
X122539858Y-63944668D01*
X122303881Y-64085897D01*
X122303877Y-64085900D01*
X122300199Y-64088101D01*
X122078876Y-64265414D01*
X121984810Y-64364539D01*
X121919874Y-64432968D01*
X121883665Y-64471124D01*
X121718178Y-64701424D01*
X121585477Y-64952052D01*
X121488018Y-65218371D01*
X121427605Y-65495452D01*
X121405354Y-65778169D01*
X118000000Y-65778169D01*
X118000000Y-63100000D01*
X134130223Y-63100000D01*
X134148572Y-63239376D01*
X134202369Y-63369253D01*
X134287948Y-63480782D01*
X134294498Y-63485808D01*
X134294501Y-63485811D01*
X134330409Y-63513364D01*
X134399476Y-63566361D01*
X134444562Y-63585036D01*
X134521724Y-63616998D01*
X134521727Y-63616999D01*
X134529354Y-63620158D01*
X134537542Y-63621236D01*
X134565404Y-63624904D01*
X134668730Y-63638507D01*
X134676918Y-63637429D01*
X134686011Y-63636232D01*
X134772056Y-63624904D01*
X134799918Y-63621236D01*
X134808106Y-63620158D01*
X134815733Y-63616999D01*
X134815736Y-63616998D01*
X134892898Y-63585036D01*
X134937984Y-63566361D01*
X135007051Y-63513364D01*
X135042959Y-63485811D01*
X135042962Y-63485808D01*
X135049512Y-63480782D01*
X135135091Y-63369253D01*
X135188888Y-63239376D01*
X135207237Y-63100000D01*
X135188888Y-62960624D01*
X135135091Y-62830747D01*
X135096922Y-62781004D01*
X135071322Y-62714783D01*
X135085587Y-62645235D01*
X135096922Y-62627596D01*
X135130064Y-62584404D01*
X135135091Y-62577853D01*
X135188888Y-62447976D01*
X135207237Y-62308600D01*
X135188888Y-62169224D01*
X135135091Y-62039347D01*
X135049512Y-61927818D01*
X135042962Y-61922792D01*
X135042959Y-61922789D01*
X134993748Y-61885028D01*
X134937984Y-61842239D01*
X134873045Y-61815340D01*
X134815736Y-61791602D01*
X134815733Y-61791601D01*
X134808106Y-61788442D01*
X134668730Y-61770093D01*
X134529354Y-61788442D01*
X134399477Y-61842239D01*
X134287948Y-61927818D01*
X134202369Y-62039347D01*
X134148572Y-62169224D01*
X134130223Y-62308600D01*
X134148572Y-62447976D01*
X134202369Y-62577853D01*
X134207396Y-62584404D01*
X134240538Y-62627596D01*
X134266138Y-62693817D01*
X134251873Y-62763365D01*
X134240538Y-62781004D01*
X134202369Y-62830747D01*
X134148572Y-62960624D01*
X134130223Y-63100000D01*
X118000000Y-63100000D01*
X118000000Y-59436443D01*
X118020002Y-59368322D01*
X118073658Y-59321829D01*
X118125973Y-59310443D01*
X148816772Y-59303872D01*
X166773973Y-59300027D01*
X166842098Y-59320014D01*
G37*
%TD.AperFunction*%
%TD*%
M02*
