%TF.GenerationSoftware,KiCad,Pcbnew,(6.0.7)*%
%TF.CreationDate,2022-08-04T11:05:02-07:00*%
%TF.ProjectId,SZG-TEMPLATE-TXR,535a472d-5445-44d5-904c-4154452d5458,A*%
%TF.SameCoordinates,Original*%
%TF.FileFunction,Paste,Bot*%
%TF.FilePolarity,Positive*%
%FSLAX46Y46*%
G04 Gerber Fmt 4.6, Leading zero omitted, Abs format (unit mm)*
G04 Created by KiCad (PCBNEW (6.0.7)) date 2022-08-04 11:05:02*
%MOMM*%
%LPD*%
G01*
G04 APERTURE LIST*
G04 Aperture macros list*
%AMRoundRect*
0 Rectangle with rounded corners*
0 $1 Rounding radius*
0 $2 $3 $4 $5 $6 $7 $8 $9 X,Y pos of 4 corners*
0 Add a 4 corners polygon primitive as box body*
4,1,4,$2,$3,$4,$5,$6,$7,$8,$9,$2,$3,0*
0 Add four circle primitives for the rounded corners*
1,1,$1+$1,$2,$3*
1,1,$1+$1,$4,$5*
1,1,$1+$1,$6,$7*
1,1,$1+$1,$8,$9*
0 Add four rect primitives between the rounded corners*
20,1,$1+$1,$2,$3,$4,$5,0*
20,1,$1+$1,$4,$5,$6,$7,0*
20,1,$1+$1,$6,$7,$8,$9,0*
20,1,$1+$1,$8,$9,$2,$3,0*%
G04 Aperture macros list end*
%ADD10RoundRect,0.140000X0.170000X-0.140000X0.170000X0.140000X-0.170000X0.140000X-0.170000X-0.140000X0*%
%ADD11RoundRect,0.135000X0.135000X0.185000X-0.135000X0.185000X-0.135000X-0.185000X0.135000X-0.185000X0*%
%ADD12O,0.250000X0.800000*%
%ADD13O,0.800000X0.250000*%
%ADD14R,2.700000X2.700000*%
%ADD15RoundRect,0.140000X-0.140000X-0.170000X0.140000X-0.170000X0.140000X0.170000X-0.140000X0.170000X0*%
%ADD16R,2.540000X0.640000*%
%ADD17R,4.700000X0.640000*%
%ADD18R,0.300000X1.450000*%
G04 APERTURE END LIST*
D10*
%TO.C,C1*%
X136206800Y-76094800D03*
X136206800Y-75134800D03*
%TD*%
D11*
%TO.C,R2*%
X133643400Y-78789800D03*
X132623400Y-78789800D03*
%TD*%
%TO.C,R1*%
X134684800Y-71169800D03*
X133664800Y-71169800D03*
%TD*%
D12*
%TO.C,U1*%
X131701600Y-73360800D03*
X132201600Y-73360800D03*
X132701600Y-73360800D03*
X133201600Y-73360800D03*
X133701600Y-73360800D03*
D13*
X134701600Y-74360800D03*
X134701600Y-74860800D03*
X134701600Y-75360800D03*
X134701600Y-75860800D03*
X134701600Y-76360800D03*
D12*
X133701600Y-77360800D03*
X133201600Y-77360800D03*
X132701600Y-77360800D03*
X132201600Y-77360800D03*
X131701600Y-77360800D03*
D13*
X130701600Y-76360800D03*
X130701600Y-75860800D03*
X130701600Y-75360800D03*
X130701600Y-74860800D03*
X130701600Y-74360800D03*
D14*
X132701600Y-75360800D03*
%TD*%
D15*
%TO.C,C2*%
X133694800Y-72135000D03*
X134654800Y-72135000D03*
%TD*%
D16*
%TO.C,J1*%
X150840320Y-65810000D03*
D17*
X145580320Y-65810000D03*
D16*
X133960320Y-65810000D03*
D17*
X139230320Y-65810000D03*
D18*
X135150320Y-68900000D03*
X135150320Y-62720000D03*
X135650320Y-68900000D03*
X135650320Y-62720000D03*
X136650330Y-68900000D03*
X136650330Y-62720000D03*
X137150320Y-68900000D03*
X137150320Y-62720000D03*
X138150320Y-68900000D03*
X138150320Y-62720000D03*
X138650320Y-68900000D03*
X138650320Y-62720000D03*
X139650320Y-68900000D03*
X139650320Y-62720000D03*
X140150320Y-68900000D03*
X140150320Y-62720000D03*
X141150320Y-68900000D03*
X141150320Y-62720000D03*
X141650320Y-68900000D03*
X141650320Y-62720000D03*
X142650320Y-68900000D03*
X142650320Y-62720000D03*
X143150320Y-68900000D03*
X143150320Y-62720000D03*
X144150320Y-68900000D03*
X144150320Y-62720000D03*
X144650320Y-68900000D03*
X144650320Y-62720000D03*
X145650330Y-68900000D03*
X145650330Y-62720000D03*
X146150320Y-68900000D03*
X146150320Y-62720000D03*
X147150320Y-68900000D03*
X147150320Y-62720000D03*
X147650320Y-68900000D03*
X147650320Y-62720000D03*
X148650320Y-68900000D03*
X148650320Y-62720000D03*
X149150320Y-68900000D03*
X149150320Y-62720000D03*
%TD*%
G36*
X132443771Y-74180852D02*
G01*
X132490264Y-74234508D01*
X132501650Y-74286850D01*
X132501650Y-75034850D01*
X132481648Y-75102971D01*
X132427992Y-75149464D01*
X132375650Y-75160850D01*
X131627650Y-75160850D01*
X131559529Y-75140848D01*
X131513036Y-75087192D01*
X131501650Y-75034850D01*
X131501650Y-74286850D01*
X131521652Y-74218729D01*
X131575308Y-74172236D01*
X131627650Y-74160850D01*
X132375650Y-74160850D01*
X132443771Y-74180852D01*
G37*
G36*
X132443771Y-75580752D02*
G01*
X132490264Y-75634408D01*
X132501650Y-75686750D01*
X132501650Y-76434750D01*
X132481648Y-76502871D01*
X132427992Y-76549364D01*
X132375650Y-76560750D01*
X131627650Y-76560750D01*
X131559529Y-76540748D01*
X131513036Y-76487092D01*
X131501650Y-76434750D01*
X131501650Y-75686750D01*
X131521652Y-75618629D01*
X131575308Y-75572136D01*
X131627650Y-75560750D01*
X132375650Y-75560750D01*
X132443771Y-75580752D01*
G37*
G36*
X133843671Y-75580752D02*
G01*
X133890164Y-75634408D01*
X133901550Y-75686750D01*
X133901550Y-76434750D01*
X133881548Y-76502871D01*
X133827892Y-76549364D01*
X133775550Y-76560750D01*
X133027550Y-76560750D01*
X132959429Y-76540748D01*
X132912936Y-76487092D01*
X132901550Y-76434750D01*
X132901550Y-75686750D01*
X132921552Y-75618629D01*
X132975208Y-75572136D01*
X133027550Y-75560750D01*
X133775550Y-75560750D01*
X133843671Y-75580752D01*
G37*
G36*
X133843671Y-74180852D02*
G01*
X133890164Y-74234508D01*
X133901550Y-74286850D01*
X133901550Y-75034850D01*
X133881548Y-75102971D01*
X133827892Y-75149464D01*
X133775550Y-75160850D01*
X133027550Y-75160850D01*
X132959429Y-75140848D01*
X132912936Y-75087192D01*
X132901550Y-75034850D01*
X132901550Y-74286850D01*
X132921552Y-74218729D01*
X132975208Y-74172236D01*
X133027550Y-74160850D01*
X133775550Y-74160850D01*
X133843671Y-74180852D01*
G37*
M02*
