M48
; DRILL file {KiCad (5.1.9)-1} date 04/06/21 13:07:51
; FORMAT={-:-/ absolute / inch / decimal}
; #@! TF.CreationDate,2021-04-06T13:07:51-07:00
; #@! TF.GenerationSoftware,Kicad,Pcbnew,(5.1.9)-1
; #@! TF.FileFunction,Plated,1,4,PTH
FMAT,2
INCH
T1C0.0100
T2C0.0315
T3C0.1260
%
G90
G05
T1
X4.7815Y-3.3602
X4.9016Y-3.4665
X4.937Y-3.2323
X4.9488Y-3.4665
X5.0217Y-3.2264
X5.0866Y-3.3787
X5.1105Y-2.928
X5.1105Y-3.005
X5.1145Y-2.857
X5.2085Y-2.943
X5.2085Y-2.9906
X5.2385Y-2.6199
X5.2402Y-3.1614
X5.2481Y-2.943
X5.2481Y-2.9906
X5.2525Y-3.13
X5.2645Y-2.776
X5.2725Y-2.7139
X5.2765Y-2.6199
X5.3005Y-2.776
X5.3019Y-2.4531
X5.3019Y-2.4843
X5.3305Y-2.84
X5.3315Y-2.905
X5.3355Y-2.963
X5.3355Y-2.99
X5.3769Y-2.5114
X5.3769Y-2.7547
X5.4029Y-2.5114
X5.4029Y-2.7547
X5.4115Y-2.6199
X5.4359Y-2.5114
X5.4619Y-2.5114
X5.4771Y-2.7574
X5.4771Y-2.7834
X5.4891Y-2.6194
X5.4951Y-2.5114
X5.5211Y-2.5114
X5.5291Y-2.6194
X5.5531Y-2.7744
X5.5541Y-2.5114
X5.5621Y-2.6194
X5.5771Y-2.8054
X5.5801Y-2.5114
X5.6131Y-2.5114
X5.6162Y-2.7544
X5.6358Y-2.7894
X5.6391Y-2.5114
X5.6571Y-2.6201
X5.6721Y-2.5114
X5.6752Y-2.7544
X5.6949Y-2.7894
X5.6981Y-2.5114
X5.7071Y-2.6201
X5.7311Y-2.5114
X5.7343Y-2.7544
X5.7539Y-2.7894
X5.7571Y-2.6201
X5.7571Y-2.5114
X5.7901Y-2.7544
X5.7901Y-2.5114
X5.8071Y-2.6201
X5.8161Y-2.7544
X5.8161Y-2.5114
X5.8524Y-2.5114
X5.8641Y-2.7594
X5.8951Y-2.4557
X5.8951Y-2.4847
X5.8951Y-2.6987
X5.8951Y-2.7267
X5.9121Y-2.6201
X5.9621Y-2.6201
T2
X5.1793Y-2.6106
X6.0333Y-2.6106
T3
X4.9173Y-2.9843
X4.9173Y-4.874
X4.937Y-2.5906
X6.2756Y-2.5906
X6.2953Y-2.9843
X6.2953Y-4.874
T0
M30
