%TF.GenerationSoftware,KiCad,Pcbnew,(5.1.9)-1*%
%TF.CreationDate,2021-04-14T12:05:26-07:00*%
%TF.ProjectId,SZG-TEMPLATE-TXR,535a472d-5445-44d5-904c-4154452d5458,A*%
%TF.SameCoordinates,Original*%
%TF.FileFunction,Copper,L4,Bot*%
%TF.FilePolarity,Positive*%
%FSLAX46Y46*%
G04 Gerber Fmt 4.6, Leading zero omitted, Abs format (unit mm)*
G04 Created by KiCad (PCBNEW (5.1.9)-1) date 2021-04-14 12:05:26*
%MOMM*%
%LPD*%
G01*
G04 APERTURE LIST*
%TA.AperFunction,ConnectorPad*%
%ADD10C,0.787400*%
%TD*%
%TA.AperFunction,ComponentPad*%
%ADD11C,1.200000*%
%TD*%
%TA.AperFunction,SMDPad,CuDef*%
%ADD12R,0.300000X1.450000*%
%TD*%
%TA.AperFunction,SMDPad,CuDef*%
%ADD13R,2.540000X0.640000*%
%TD*%
%TA.AperFunction,SMDPad,CuDef*%
%ADD14R,4.700000X0.640000*%
%TD*%
%TA.AperFunction,ComponentPad*%
%ADD15C,3.600000*%
%TD*%
%TA.AperFunction,ConnectorPad*%
%ADD16C,6.500000*%
%TD*%
%TA.AperFunction,SMDPad,CuDef*%
%ADD17R,2.700000X2.700000*%
%TD*%
%TA.AperFunction,SMDPad,CuDef*%
%ADD18O,0.800000X0.250000*%
%TD*%
%TA.AperFunction,SMDPad,CuDef*%
%ADD19O,0.250000X0.800000*%
%TD*%
%TA.AperFunction,SMDPad,CuDef*%
%ADD20C,0.508000*%
%TD*%
%TA.AperFunction,SMDPad,CuDef*%
%ADD21C,1.000000*%
%TD*%
%TA.AperFunction,ViaPad*%
%ADD22C,0.508000*%
%TD*%
%TA.AperFunction,Conductor*%
%ADD23C,0.254000*%
%TD*%
%TA.AperFunction,Conductor*%
%ADD24C,0.228600*%
%TD*%
%TA.AperFunction,Conductor*%
%ADD25C,0.406400*%
%TD*%
%TA.AperFunction,Conductor*%
%ADD26C,0.177800*%
%TD*%
%TA.AperFunction,Conductor*%
%ADD27C,1.524000*%
%TD*%
%TA.AperFunction,Conductor*%
%ADD28C,0.127000*%
%TD*%
%TA.AperFunction,Conductor*%
%ADD29C,0.133350*%
%TD*%
%TA.AperFunction,Conductor*%
%ADD30C,0.100000*%
%TD*%
G04 APERTURE END LIST*
D10*
%TO.P,J2,6*%
%TO.N,GND*%
X126035000Y-83130000D03*
%TO.P,J2,2*%
%TO.N,+3V3*%
X126035000Y-85670000D03*
%TO.P,J2,5*%
%TO.N,/MCU_RESET_B*%
X124765000Y-83130000D03*
%TO.P,J2,4*%
%TO.N,/MCU_SDA_MOSI*%
X126035000Y-84400000D03*
%TO.P,J2,3*%
%TO.N,/MCU_SCL_USCK*%
X124765000Y-84400000D03*
%TO.P,J2,1*%
%TO.N,/MCU_MISO*%
X124765000Y-85670000D03*
%TD*%
D11*
%TO.P,J1,MH*%
%TO.N,N/C*%
X131555320Y-66310000D03*
D12*
%TO.P,J1,5*%
%TO.N,/RX0P*%
X136650330Y-68900000D03*
D11*
%TO.P,J1,MH*%
%TO.N,N/C*%
X153245320Y-66310000D03*
D12*
%TO.P,J1,7*%
%TO.N,/RX0N*%
X137150320Y-68900000D03*
%TO.P,J1,3*%
%TO.N,/MCU_SDA_MOSI*%
X135650320Y-68900000D03*
%TO.P,J1,1*%
%TO.N,/MCU_SCL_USCK*%
X135150320Y-68900000D03*
%TO.P,J1,15*%
%TO.N,/REFCLKN*%
X140150320Y-68900000D03*
%TO.P,J1,30*%
%TO.N,/TX2P*%
X145650330Y-62720000D03*
%TO.P,J1,33*%
%TO.N,/P2C_CLKP*%
X147150320Y-68900000D03*
%TO.P,J1,8*%
%TO.N,/TX0N*%
X137150320Y-62720000D03*
%TO.P,J1,21*%
%TO.N,/S6*%
X142650320Y-68900000D03*
%TO.P,J1,10*%
%TO.N,/TX1P*%
X138150320Y-62720000D03*
D13*
%TO.P,J1,0*%
%TO.N,GND*%
X133960320Y-65810000D03*
D14*
X145580320Y-65810000D03*
D12*
%TO.P,J1,25*%
%TO.N,/RX3P*%
X144150320Y-68900000D03*
%TO.P,J1,26*%
%TO.N,/TX3P*%
X144150320Y-62720000D03*
%TO.P,J1,13*%
%TO.N,/REFCLKP*%
X139650320Y-68900000D03*
%TO.P,J1,18*%
%TO.N,/S3*%
X141150320Y-62720000D03*
%TO.P,J1,6*%
%TO.N,/TX0P*%
X136650330Y-62720000D03*
%TO.P,J1,23*%
%TO.N,/S8*%
X143150320Y-68900000D03*
%TO.P,J1,24*%
%TO.N,/S9*%
X143150320Y-62720000D03*
%TO.P,J1,40*%
%TO.N,+3V3*%
X149150320Y-62720000D03*
%TO.P,J1,39*%
%TO.N,/VIO*%
X149150320Y-68900000D03*
%TO.P,J1,9*%
%TO.N,/RX1P*%
X138150320Y-68900000D03*
%TO.P,J1,11*%
%TO.N,/RX1N*%
X138650320Y-68900000D03*
%TO.P,J1,32*%
%TO.N,/TX2N*%
X146150320Y-62720000D03*
%TO.P,J1,29*%
%TO.N,/RX2P*%
X145650330Y-68900000D03*
%TO.P,J1,37*%
%TO.N,/RSVD_37*%
X148650320Y-68900000D03*
%TO.P,J1,20*%
%TO.N,/S5*%
X141650320Y-62720000D03*
%TO.P,J1,31*%
%TO.N,/RX2N*%
X146150320Y-68900000D03*
%TO.P,J1,28*%
%TO.N,/TX3N*%
X144650320Y-62720000D03*
%TO.P,J1,22*%
%TO.N,/S7*%
X142650320Y-62720000D03*
%TO.P,J1,16*%
%TO.N,/S1*%
X140150320Y-62720000D03*
%TO.P,J1,17*%
%TO.N,/S2*%
X141150320Y-68900000D03*
%TO.P,J1,14*%
%TO.N,/S0*%
X139650320Y-62720000D03*
%TO.P,J1,19*%
%TO.N,/S4*%
X141650320Y-68900000D03*
%TO.P,J1,12*%
%TO.N,/TX1N*%
X138650320Y-62720000D03*
%TO.P,J1,2*%
%TO.N,+5V*%
X135150320Y-62720000D03*
%TO.P,J1,27*%
%TO.N,/RX3N*%
X144650320Y-68900000D03*
%TO.P,J1,34*%
%TO.N,/C2P_CLKP*%
X147150320Y-62720000D03*
%TO.P,J1,4*%
%TO.N,/R_GA*%
X135650320Y-62720000D03*
%TO.P,J1,35*%
%TO.N,/P2C_CLKN*%
X147650320Y-68900000D03*
%TO.P,J1,38*%
%TO.N,/RSVD_38*%
X148650320Y-62720000D03*
%TO.P,J1,36*%
%TO.N,/C2P_CLKN*%
X147650320Y-62720000D03*
D13*
%TO.P,J1,0*%
%TO.N,GND*%
X150840320Y-65810000D03*
D14*
X139230320Y-65810000D03*
%TD*%
D15*
%TO.P,H6,1*%
%TO.N,Net-(H6-Pad1)*%
X159900000Y-123800000D03*
D16*
X159900000Y-123800000D03*
%TD*%
D15*
%TO.P,H5,1*%
%TO.N,Net-(H5-Pad1)*%
X124900000Y-123800000D03*
D16*
X124900000Y-123800000D03*
%TD*%
D15*
%TO.P,H4,1*%
%TO.N,Net-(H4-Pad1)*%
X159900000Y-75800000D03*
D16*
X159900000Y-75800000D03*
%TD*%
D15*
%TO.P,H3,1*%
%TO.N,Net-(H3-Pad1)*%
X124900000Y-75800000D03*
D16*
X124900000Y-75800000D03*
%TD*%
D15*
%TO.P,H2,1*%
%TO.N,Net-(H2-Pad1)*%
X159400000Y-65800000D03*
D16*
X159400000Y-65800000D03*
%TD*%
D15*
%TO.P,H1,1*%
%TO.N,Net-(H1-Pad1)*%
X125400000Y-65800000D03*
D16*
X125400000Y-65800000D03*
%TD*%
D17*
%TO.P,U1,21*%
%TO.N,GND*%
X132701600Y-75360800D03*
D18*
%TO.P,U1,18*%
%TO.N,Net-(U1-Pad18)*%
X130701600Y-75360800D03*
%TO.P,U1,19*%
%TO.N,Net-(U1-Pad19)*%
X130701600Y-74860800D03*
D19*
%TO.P,U1,15*%
%TO.N,Net-(TP11-Pad1)*%
X131701600Y-77360800D03*
D18*
%TO.P,U1,20*%
%TO.N,/MCU_MISO*%
X130701600Y-74360800D03*
%TO.P,U1,16*%
%TO.N,/MCU_SDA_MOSI*%
X130701600Y-76360800D03*
D19*
%TO.P,U1,12*%
%TO.N,Net-(TP7-Pad1)*%
X133201600Y-77360800D03*
D18*
%TO.P,U1,8*%
%TO.N,GND*%
X134701600Y-75360800D03*
%TO.P,U1,6*%
%TO.N,Net-(U1-Pad6)*%
X134701600Y-74360800D03*
D19*
%TO.P,U1,1*%
%TO.N,/MCU_SCL_USCK*%
X131701600Y-73360800D03*
D18*
%TO.P,U1,17*%
%TO.N,Net-(U1-Pad17)*%
X130701600Y-75860800D03*
D19*
%TO.P,U1,14*%
%TO.N,Net-(TP9-Pad1)*%
X132201600Y-77360800D03*
%TO.P,U1,13*%
%TO.N,/MCU_RESET_B*%
X132701600Y-77360800D03*
D18*
%TO.P,U1,7*%
%TO.N,Net-(U1-Pad7)*%
X134701600Y-74860800D03*
%TO.P,U1,9*%
%TO.N,+3V3*%
X134701600Y-75860800D03*
D19*
%TO.P,U1,3*%
%TO.N,Net-(TP8-Pad1)*%
X132701600Y-73360800D03*
D18*
%TO.P,U1,10*%
%TO.N,Net-(U1-Pad10)*%
X134701600Y-76360800D03*
D19*
%TO.P,U1,11*%
%TO.N,Net-(TP5-Pad1)*%
X133701600Y-77360800D03*
%TO.P,U1,5*%
%TO.N,/R_GA*%
X133701600Y-73360800D03*
%TO.P,U1,4*%
%TO.N,Net-(TP6-Pad1)*%
X133201600Y-73360800D03*
%TO.P,U1,2*%
%TO.N,Net-(TP10-Pad1)*%
X132201600Y-73360800D03*
%TD*%
D20*
%TO.P,TP11,1*%
%TO.N,Net-(TP11-Pad1)*%
X130745800Y-78612000D03*
%TD*%
%TO.P,TP10,1*%
%TO.N,Net-(TP10-Pad1)*%
X131050600Y-72033400D03*
%TD*%
%TO.P,TP9,1*%
%TO.N,Net-(TP9-Pad1)*%
X131660200Y-78612000D03*
%TD*%
%TO.P,TP8,1*%
%TO.N,Net-(TP8-Pad1)*%
X131914200Y-72033400D03*
%TD*%
%TO.P,TP7,1*%
%TO.N,Net-(TP7-Pad1)*%
X134733600Y-78459600D03*
%TD*%
%TO.P,TP6,1*%
%TO.N,Net-(TP6-Pad1)*%
X132777800Y-72033400D03*
%TD*%
%TO.P,TP5,1*%
%TO.N,Net-(TP5-Pad1)*%
X135622600Y-77596000D03*
%TD*%
%TO.P,R1,2*%
%TO.N,/R_GA*%
%TA.AperFunction,SMDPad,CuDef*%
G36*
G01*
X133934800Y-70984800D02*
X133934800Y-71354800D01*
G75*
G02*
X133799800Y-71489800I-135000J0D01*
G01*
X133529800Y-71489800D01*
G75*
G02*
X133394800Y-71354800I0J135000D01*
G01*
X133394800Y-70984800D01*
G75*
G02*
X133529800Y-70849800I135000J0D01*
G01*
X133799800Y-70849800D01*
G75*
G02*
X133934800Y-70984800I0J-135000D01*
G01*
G37*
%TD.AperFunction*%
%TO.P,R1,1*%
%TO.N,+3V3*%
%TA.AperFunction,SMDPad,CuDef*%
G36*
G01*
X134954800Y-70984800D02*
X134954800Y-71354800D01*
G75*
G02*
X134819800Y-71489800I-135000J0D01*
G01*
X134549800Y-71489800D01*
G75*
G02*
X134414800Y-71354800I0J135000D01*
G01*
X134414800Y-70984800D01*
G75*
G02*
X134549800Y-70849800I135000J0D01*
G01*
X134819800Y-70849800D01*
G75*
G02*
X134954800Y-70984800I0J-135000D01*
G01*
G37*
%TD.AperFunction*%
%TD*%
%TO.P,R2,2*%
%TO.N,/MCU_RESET_B*%
%TA.AperFunction,SMDPad,CuDef*%
G36*
G01*
X132893400Y-78604800D02*
X132893400Y-78974800D01*
G75*
G02*
X132758400Y-79109800I-135000J0D01*
G01*
X132488400Y-79109800D01*
G75*
G02*
X132353400Y-78974800I0J135000D01*
G01*
X132353400Y-78604800D01*
G75*
G02*
X132488400Y-78469800I135000J0D01*
G01*
X132758400Y-78469800D01*
G75*
G02*
X132893400Y-78604800I0J-135000D01*
G01*
G37*
%TD.AperFunction*%
%TO.P,R2,1*%
%TO.N,+3V3*%
%TA.AperFunction,SMDPad,CuDef*%
G36*
G01*
X133913400Y-78604800D02*
X133913400Y-78974800D01*
G75*
G02*
X133778400Y-79109800I-135000J0D01*
G01*
X133508400Y-79109800D01*
G75*
G02*
X133373400Y-78974800I0J135000D01*
G01*
X133373400Y-78604800D01*
G75*
G02*
X133508400Y-78469800I135000J0D01*
G01*
X133778400Y-78469800D01*
G75*
G02*
X133913400Y-78604800I0J-135000D01*
G01*
G37*
%TD.AperFunction*%
%TD*%
%TO.P,C2,2*%
%TO.N,GND*%
%TA.AperFunction,SMDPad,CuDef*%
G36*
G01*
X134374800Y-72305000D02*
X134374800Y-71965000D01*
G75*
G02*
X134514800Y-71825000I140000J0D01*
G01*
X134794800Y-71825000D01*
G75*
G02*
X134934800Y-71965000I0J-140000D01*
G01*
X134934800Y-72305000D01*
G75*
G02*
X134794800Y-72445000I-140000J0D01*
G01*
X134514800Y-72445000D01*
G75*
G02*
X134374800Y-72305000I0J140000D01*
G01*
G37*
%TD.AperFunction*%
%TO.P,C2,1*%
%TO.N,/R_GA*%
%TA.AperFunction,SMDPad,CuDef*%
G36*
G01*
X133414800Y-72305000D02*
X133414800Y-71965000D01*
G75*
G02*
X133554800Y-71825000I140000J0D01*
G01*
X133834800Y-71825000D01*
G75*
G02*
X133974800Y-71965000I0J-140000D01*
G01*
X133974800Y-72305000D01*
G75*
G02*
X133834800Y-72445000I-140000J0D01*
G01*
X133554800Y-72445000D01*
G75*
G02*
X133414800Y-72305000I0J140000D01*
G01*
G37*
%TD.AperFunction*%
%TD*%
%TO.P,C1,2*%
%TO.N,GND*%
%TA.AperFunction,SMDPad,CuDef*%
G36*
G01*
X136376800Y-75414800D02*
X136036800Y-75414800D01*
G75*
G02*
X135896800Y-75274800I0J140000D01*
G01*
X135896800Y-74994800D01*
G75*
G02*
X136036800Y-74854800I140000J0D01*
G01*
X136376800Y-74854800D01*
G75*
G02*
X136516800Y-74994800I0J-140000D01*
G01*
X136516800Y-75274800D01*
G75*
G02*
X136376800Y-75414800I-140000J0D01*
G01*
G37*
%TD.AperFunction*%
%TO.P,C1,1*%
%TO.N,+3V3*%
%TA.AperFunction,SMDPad,CuDef*%
G36*
G01*
X136376800Y-76374800D02*
X136036800Y-76374800D01*
G75*
G02*
X135896800Y-76234800I0J140000D01*
G01*
X135896800Y-75954800D01*
G75*
G02*
X136036800Y-75814800I140000J0D01*
G01*
X136376800Y-75814800D01*
G75*
G02*
X136516800Y-75954800I0J-140000D01*
G01*
X136516800Y-76234800D01*
G75*
G02*
X136376800Y-76374800I-140000J0D01*
G01*
G37*
%TD.AperFunction*%
%TD*%
D21*
%TO.P,FID1,*%
%TO.N,*%
X163212400Y-127165200D03*
%TD*%
%TO.P,FID2,*%
%TO.N,*%
X121322400Y-127350800D03*
%TD*%
%TO.P,FID3,*%
%TO.N,*%
X162900000Y-60800000D03*
%TD*%
%TO.P,FID4,*%
%TO.N,*%
X121900000Y-60800000D03*
%TD*%
D22*
%TO.N,+5V*%
X134668730Y-63100000D03*
X134668730Y-62308600D03*
%TO.N,GND*%
X145900320Y-66510000D03*
X139422120Y-66513440D03*
X143500320Y-66510000D03*
X145200320Y-66510000D03*
X150166320Y-66510000D03*
X151436320Y-66510000D03*
X147499320Y-66510000D03*
X141276320Y-66510000D03*
X139975320Y-66513440D03*
X137694920Y-66510000D03*
X133057200Y-66544600D03*
X125400000Y-82100000D03*
X132295200Y-75960800D03*
X133301600Y-75960800D03*
X132295200Y-74751200D03*
X133301600Y-74751200D03*
X135521000Y-75259200D03*
X135394000Y-72135000D03*
X135419400Y-73786000D03*
X134022400Y-66544600D03*
%TO.N,+3V3*%
X149735520Y-62374800D03*
X149735520Y-63111400D03*
%TO.N,/MCU_MISO*%
X125700000Y-88050000D03*
%TO.N,+3V3*%
X135521000Y-75945000D03*
X133412800Y-79501000D03*
X134632000Y-70509400D03*
%TO.N,/R_GA*%
X133717600Y-70509400D03*
X133920800Y-68932200D03*
%TO.N,/RSVD_38*%
X148650320Y-63788400D03*
%TO.N,/RSVD_37*%
X149995240Y-71092070D03*
%TO.N,/C2P_CLKN*%
X147737710Y-64034600D03*
%TO.N,/C2P_CLKP*%
X147077310Y-64034600D03*
%TO.N,/MCU_SDA_MOSI*%
X129806000Y-76326000D03*
%TO.N,/MCU_SCL_USCK*%
X129199996Y-85819910D03*
%TO.N,+3V3*%
X124500000Y-88050000D03*
%TO.N,/MCU_SCL_USCK*%
X129907600Y-72566800D03*
%TO.N,+3V3*%
X129850000Y-78925000D03*
%TO.N,/MCU_SDA_MOSI*%
X121450002Y-85350000D03*
%TO.N,/MCU_MISO*%
X129806000Y-74370200D03*
%TO.N,/MCU_RESET_B*%
X127550000Y-81950000D03*
%TO.N,/VIO*%
X149735520Y-69258200D03*
X149735520Y-68547000D03*
%TO.N,/RX0P*%
X136577320Y-70214600D03*
%TO.N,/RX0N*%
X137237720Y-70214600D03*
%TO.N,/TX2P*%
X145577320Y-64034600D03*
%TO.N,/TX1P*%
X138077310Y-64034600D03*
%TO.N,/TX3P*%
X144077310Y-64034600D03*
%TO.N,/S3*%
X141074920Y-63788400D03*
%TO.N,/TX0P*%
X136577320Y-64034600D03*
%TO.N,/S9*%
X143233920Y-63788400D03*
%TO.N,/RX1P*%
X138077320Y-70214600D03*
%TO.N,/RX1N*%
X138737720Y-70214600D03*
%TO.N,/TX2N*%
X146237720Y-64034600D03*
%TO.N,/RX2P*%
X145577320Y-70214600D03*
%TO.N,/S5*%
X141735320Y-63788400D03*
%TO.N,/RX2N*%
X146237720Y-70214600D03*
%TO.N,/TX3N*%
X144737710Y-64034600D03*
%TO.N,/S7*%
X142573520Y-63788400D03*
%TO.N,/S1*%
X140236720Y-63788400D03*
%TO.N,/S0*%
X139576320Y-63788400D03*
%TO.N,/TX1N*%
X138737710Y-64034600D03*
%TO.N,/RX3N*%
X144737710Y-70214600D03*
%TO.N,/TX0N*%
X137237720Y-64034600D03*
%TO.N,/RX3P*%
X144077310Y-70214600D03*
%TD*%
D23*
%TO.N,GND*%
X134634800Y-72135000D02*
X135394000Y-72135000D01*
D24*
X134701600Y-75360800D02*
X135419400Y-75360800D01*
X135419400Y-75360800D02*
X135521000Y-75259200D01*
D25*
X136102400Y-75259200D02*
X136206800Y-75154800D01*
X135521000Y-75259200D02*
X136102400Y-75259200D01*
D26*
X125400000Y-82200000D02*
X125400000Y-82100000D01*
X126035000Y-82835000D02*
X125400000Y-82200000D01*
X126035000Y-83130000D02*
X126035000Y-82835000D01*
%TO.N,/MCU_MISO*%
X124500000Y-87259210D02*
X125290790Y-88050000D01*
X124500000Y-85935000D02*
X124500000Y-87259210D01*
X124765000Y-85670000D02*
X124500000Y-85935000D01*
X125290790Y-88050000D02*
X125700000Y-88050000D01*
%TO.N,+3V3*%
X133583400Y-79330400D02*
X133583400Y-78789800D01*
X133412800Y-79501000D02*
X133583400Y-79330400D01*
D24*
X134701600Y-75860800D02*
X135436800Y-75860800D01*
X135436800Y-75860800D02*
X135521000Y-75945000D01*
D25*
X136077000Y-75945000D02*
X136206800Y-76074800D01*
X135521000Y-75945000D02*
X136077000Y-75945000D01*
D26*
X134624800Y-71169800D02*
X134624800Y-70516600D01*
X134624800Y-70516600D02*
X134632000Y-70509400D01*
D27*
X155028200Y-65198400D02*
X155028200Y-78000000D01*
X152541400Y-62711600D02*
X155028200Y-65198400D01*
X149811720Y-62711600D02*
X152541400Y-62711600D01*
D26*
%TO.N,/R_GA*%
X133701600Y-71193000D02*
X133724800Y-71169800D01*
X133724800Y-71169800D02*
X133724800Y-70465800D01*
X133717600Y-70458600D02*
X133724800Y-70465800D01*
X133701600Y-73360800D02*
X133701600Y-71193000D01*
X135650320Y-62720000D02*
X135650320Y-66999480D01*
X135650320Y-66999480D02*
X135267000Y-67382800D01*
X135267000Y-67382800D02*
X134530400Y-67382800D01*
X134530400Y-67382800D02*
X134149400Y-67763800D01*
X134149400Y-67763800D02*
X134149400Y-68703600D01*
X134149400Y-68703600D02*
X133920800Y-68932200D01*
D28*
%TO.N,/RSVD_38*%
X148650320Y-63788400D02*
X148650320Y-62720000D01*
%TO.N,/RSVD_37*%
X148650320Y-69747150D02*
X148650320Y-68900000D01*
X148650320Y-69747150D02*
X149995240Y-71092070D01*
D29*
%TO.N,/C2P_CLKN*%
X147575000Y-63245000D02*
X147575000Y-63871880D01*
X147575000Y-63871880D02*
X147737720Y-64034600D01*
%TO.N,/P2C_CLKN*%
X147538070Y-70798800D02*
X147538070Y-69655800D01*
X147567000Y-68983320D02*
X147650320Y-68900000D01*
X147567000Y-69608890D02*
X147567000Y-68983320D01*
%TO.N,/C2P_CLKP*%
X147077320Y-64034600D02*
X147225000Y-63886920D01*
X147225000Y-63886920D02*
X147225000Y-63245000D01*
%TO.N,/P2C_CLKP*%
X147252320Y-70798800D02*
X147252320Y-69605000D01*
X147150320Y-68900000D02*
X147233650Y-68983320D01*
X147233650Y-69619900D02*
X147233650Y-68983320D01*
D26*
%TO.N,/MCU_SDA_MOSI*%
X130692200Y-76351400D02*
X130701600Y-76360800D01*
X129780600Y-76351400D02*
X130692200Y-76351400D01*
X135650320Y-68050320D02*
X135650320Y-68900000D01*
X134750000Y-67850000D02*
X135450000Y-67850000D01*
X134555800Y-68044200D02*
X134750000Y-67850000D01*
X134555800Y-69262400D02*
X134555800Y-68044200D01*
X135450000Y-67850000D02*
X135650320Y-68050320D01*
X134368200Y-69450000D02*
X134555800Y-69262400D01*
X132050000Y-69450000D02*
X134368200Y-69450000D01*
X128917000Y-72583000D02*
X132050000Y-69450000D01*
X128917000Y-75437000D02*
X128917000Y-72583000D01*
X129806000Y-76326000D02*
X128917000Y-75437000D01*
%TO.N,/MCU_SCL_USCK*%
X129550000Y-86169914D02*
X129199996Y-85819910D01*
X122650000Y-89000000D02*
X128425000Y-89000000D01*
X129550000Y-87875000D02*
X129550000Y-86169914D01*
X121275000Y-87625000D02*
X122650000Y-89000000D01*
X121275000Y-86275000D02*
X121275000Y-87625000D01*
X122200000Y-85350000D02*
X121275000Y-86275000D01*
X128425000Y-89000000D02*
X129550000Y-87875000D01*
X123550000Y-85350000D02*
X122200000Y-85350000D01*
X124500000Y-84400000D02*
X123550000Y-85350000D01*
X124765000Y-84400000D02*
X124500000Y-84400000D01*
%TO.N,+3V3*%
X126400000Y-86035000D02*
X126035000Y-85670000D01*
X126000000Y-88600000D02*
X126400000Y-88200000D01*
X126400000Y-88200000D02*
X126400000Y-86035000D01*
X125050000Y-88600000D02*
X126000000Y-88600000D01*
X124500000Y-88050000D02*
X125050000Y-88600000D01*
%TO.N,/MCU_SCL_USCK*%
X131507800Y-72871600D02*
X131701600Y-73065400D01*
X131701600Y-73360800D02*
X131701600Y-73065400D01*
X129907600Y-72566800D02*
X130212400Y-72871600D01*
X130212400Y-72871600D02*
X131507800Y-72871600D01*
X135150320Y-69749680D02*
X135150320Y-68900000D01*
X135025600Y-69874400D02*
X135150320Y-69749680D01*
X132219000Y-69874400D02*
X135025600Y-69874400D01*
X129907600Y-72185800D02*
X132219000Y-69874400D01*
X129907600Y-72566800D02*
X129907600Y-72185800D01*
%TO.N,/MCU_MISO*%
X129806000Y-74370200D02*
X130692200Y-74370200D01*
X130692200Y-74370200D02*
X130701600Y-74360800D01*
%TO.N,/MCU_SDA_MOSI*%
X129495450Y-85350000D02*
X127267500Y-85350000D01*
X126317500Y-84400000D02*
X126035000Y-84400000D01*
X129925000Y-85779550D02*
X129495450Y-85350000D01*
X129925000Y-88075000D02*
X129925000Y-85779550D01*
X128650000Y-89350000D02*
X129925000Y-88075000D01*
X122500000Y-89350000D02*
X128650000Y-89350000D01*
X120875000Y-87725000D02*
X122500000Y-89350000D01*
X127267500Y-85350000D02*
X126317500Y-84400000D01*
X120875000Y-85925002D02*
X120875000Y-87725000D01*
X121450002Y-85350000D02*
X120875000Y-85925002D01*
%TO.N,/MCU_RESET_B*%
X127550000Y-81450000D02*
X127050000Y-80950000D01*
X123950000Y-80950000D02*
X123400000Y-81500000D01*
X127550000Y-81950000D02*
X127550000Y-81450000D01*
X124430000Y-83130000D02*
X124765000Y-83130000D01*
X123400000Y-82100000D02*
X124430000Y-83130000D01*
X127050000Y-80950000D02*
X123950000Y-80950000D01*
X123400000Y-81500000D02*
X123400000Y-82100000D01*
X132701600Y-78771600D02*
X132701600Y-77360800D01*
X129523200Y-81950000D02*
X127550000Y-81950000D01*
X132683400Y-78789800D02*
X129523200Y-81950000D01*
%TO.N,Net-(TP11-Pad1)*%
X131701600Y-77656200D02*
X131701600Y-77360800D01*
X130745800Y-78612000D02*
X131701600Y-77656200D01*
%TO.N,Net-(TP7-Pad1)*%
X133201600Y-77842000D02*
X133201600Y-77360800D01*
X133201600Y-77842000D02*
X133489000Y-78129400D01*
X133489000Y-78129400D02*
X134403400Y-78129400D01*
X134403400Y-78129400D02*
X134733600Y-78459600D01*
%TO.N,Net-(TP9-Pad1)*%
X132201600Y-78070600D02*
X132201600Y-77360800D01*
X131660200Y-78612000D02*
X132201600Y-78070600D01*
%TO.N,Net-(TP8-Pad1)*%
X132701600Y-73360800D02*
X132701600Y-72871600D01*
X131914200Y-72084200D02*
X132701600Y-72871600D01*
X131914200Y-72084200D02*
X131914200Y-72033400D01*
%TO.N,Net-(TP5-Pad1)*%
X133701600Y-77360800D02*
X135387400Y-77360800D01*
X135387400Y-77360800D02*
X135622600Y-77596000D01*
%TO.N,Net-(TP6-Pad1)*%
X133201600Y-73360800D02*
X133201600Y-72838200D01*
X132777800Y-72414400D02*
X133201600Y-72838200D01*
X132777800Y-72414400D02*
X132777800Y-72033400D01*
%TO.N,Net-(TP10-Pad1)*%
X132201600Y-73360800D02*
X132201600Y-73032000D01*
X131203000Y-72033400D02*
X132201600Y-73032000D01*
X131050600Y-72033400D02*
X131203000Y-72033400D01*
D29*
%TO.N,/RX0P*%
X136577330Y-70214600D02*
X136725010Y-70066920D01*
X136725010Y-70066920D02*
X136725010Y-69425000D01*
%TO.N,/RX0N*%
X137075010Y-70051880D02*
X137237730Y-70214600D01*
X137075010Y-69425000D02*
X137075010Y-70051880D01*
%TO.N,/REFCLKN*%
X140067000Y-69608890D02*
X140067000Y-68983320D01*
X140067000Y-68983320D02*
X140150320Y-68900000D01*
X140038070Y-70798800D02*
X140038070Y-69655800D01*
%TO.N,/TX2P*%
X145577330Y-64034600D02*
X145725010Y-63886920D01*
X145725010Y-63886920D02*
X145725010Y-63245000D01*
D28*
%TO.N,/S6*%
X142650320Y-70810000D02*
X142650320Y-68900000D01*
D29*
%TO.N,/TX1P*%
X138077320Y-64034600D02*
X138225000Y-63886920D01*
X138225000Y-63886920D02*
X138225000Y-63245000D01*
%TO.N,/TX3P*%
X144077320Y-64034600D02*
X144225000Y-63886920D01*
X144225000Y-63886920D02*
X144225000Y-63245000D01*
%TO.N,/REFCLKP*%
X139650320Y-68900000D02*
X139733650Y-68983320D01*
X139733650Y-69619900D02*
X139733650Y-68983320D01*
X139752320Y-70798800D02*
X139752320Y-69605000D01*
D28*
%TO.N,/S3*%
X141150320Y-63713000D02*
X141150320Y-62720000D01*
X141074920Y-63788400D02*
X141150320Y-63713000D01*
D29*
%TO.N,/TX0P*%
X136577330Y-64034600D02*
X136725010Y-63886920D01*
X136725010Y-63886920D02*
X136725010Y-63245000D01*
D28*
%TO.N,/S8*%
X143150320Y-70810000D02*
X143150320Y-68900000D01*
%TO.N,/S9*%
X143150320Y-63704800D02*
X143233920Y-63788400D01*
X143150320Y-63704800D02*
X143150320Y-62720000D01*
D29*
%TO.N,/RX1P*%
X138225000Y-70066920D02*
X138225000Y-69425000D01*
X138077320Y-70214600D02*
X138225000Y-70066920D01*
%TO.N,/RX1N*%
X138575000Y-70051880D02*
X138737720Y-70214600D01*
X138575000Y-69425000D02*
X138575000Y-70051880D01*
%TO.N,/TX2N*%
X146075010Y-63245000D02*
X146075010Y-63871880D01*
X146075010Y-63871880D02*
X146237730Y-64034600D01*
%TO.N,/RX2P*%
X145577330Y-70214600D02*
X145725010Y-70066920D01*
X145725010Y-70066920D02*
X145725010Y-69425000D01*
D28*
%TO.N,/S5*%
X141650320Y-63703400D02*
X141735320Y-63788400D01*
X141650320Y-63703400D02*
X141650320Y-62720000D01*
D29*
%TO.N,/RX2N*%
X146075010Y-69425000D02*
X146075010Y-70051880D01*
X146075010Y-70051880D02*
X146237730Y-70214600D01*
%TO.N,/TX3N*%
X144575000Y-63245000D02*
X144575000Y-63871880D01*
X144575000Y-63871880D02*
X144737720Y-64034600D01*
D28*
%TO.N,/S7*%
X142650320Y-63711590D02*
X142650320Y-62720000D01*
X142573520Y-63788400D02*
X142650320Y-63711590D01*
%TO.N,/S1*%
X140150320Y-63702000D02*
X140150320Y-62720000D01*
X140150320Y-63702000D02*
X140236720Y-63788400D01*
%TO.N,/S2*%
X141150320Y-70810000D02*
X141150320Y-68900000D01*
%TO.N,/S0*%
X139650320Y-63714390D02*
X139650320Y-62720000D01*
X139576320Y-63788400D02*
X139650320Y-63714390D01*
%TO.N,/S4*%
X141650320Y-70810000D02*
X141650320Y-68900000D01*
D29*
%TO.N,/TX1N*%
X138575000Y-63245000D02*
X138575000Y-63871880D01*
X138575000Y-63871880D02*
X138737720Y-64034600D01*
%TO.N,/RX3N*%
X144575000Y-69425000D02*
X144575000Y-70051880D01*
X144575000Y-70051880D02*
X144737720Y-70214600D01*
%TO.N,/TX0N*%
X137075010Y-63245000D02*
X137075010Y-63871880D01*
X137075010Y-63871880D02*
X137237730Y-64034600D01*
%TO.N,/RX3P*%
X144077320Y-70214600D02*
X144225000Y-70066920D01*
X144225000Y-70066920D02*
X144225000Y-69425000D01*
%TD*%
D23*
%TO.N,+3V3*%
X149887920Y-63289200D02*
X149310777Y-63289200D01*
X149310777Y-62120800D01*
X149887920Y-62120800D01*
X149887920Y-63289200D01*
%TA.AperFunction,Conductor*%
D30*
G36*
X149887920Y-63289200D02*
G01*
X149310777Y-63289200D01*
X149310777Y-62120800D01*
X149887920Y-62120800D01*
X149887920Y-63289200D01*
G37*
%TD.AperFunction*%
%TD*%
D23*
%TO.N,GND*%
X135053421Y-66752236D02*
X135032657Y-66773000D01*
X132827000Y-66773000D01*
X132827000Y-65627000D01*
X135053421Y-65627000D01*
X135053421Y-66752236D01*
%TA.AperFunction,Conductor*%
D30*
G36*
X135053421Y-66752236D02*
G01*
X135032657Y-66773000D01*
X132827000Y-66773000D01*
X132827000Y-65627000D01*
X135053421Y-65627000D01*
X135053421Y-66752236D01*
G37*
%TD.AperFunction*%
%TD*%
D23*
%TO.N,GND*%
X151953000Y-66773000D02*
X149707000Y-66773000D01*
X149707000Y-65627000D01*
X151953000Y-65627000D01*
X151953000Y-66773000D01*
%TA.AperFunction,Conductor*%
D30*
G36*
X151953000Y-66773000D02*
G01*
X149707000Y-66773000D01*
X149707000Y-65627000D01*
X151953000Y-65627000D01*
X151953000Y-66773000D01*
G37*
%TD.AperFunction*%
%TD*%
D23*
%TO.N,GND*%
X141423000Y-66723000D02*
X137027000Y-66723000D01*
X137027000Y-65627000D01*
X141423000Y-65627000D01*
X141423000Y-66723000D01*
%TA.AperFunction,Conductor*%
D30*
G36*
X141423000Y-66723000D02*
G01*
X137027000Y-66723000D01*
X137027000Y-65627000D01*
X141423000Y-65627000D01*
X141423000Y-66723000D01*
G37*
%TD.AperFunction*%
%TD*%
D23*
%TO.N,GND*%
X147773000Y-66723000D02*
X143377000Y-66723000D01*
X143377000Y-65627000D01*
X147773000Y-65627000D01*
X147773000Y-66723000D01*
%TA.AperFunction,Conductor*%
D30*
G36*
X147773000Y-66723000D02*
G01*
X143377000Y-66723000D01*
X143377000Y-65627000D01*
X147773000Y-65627000D01*
X147773000Y-66723000D01*
G37*
%TD.AperFunction*%
%TD*%
D23*
%TO.N,/VIO*%
X149922800Y-69491000D02*
X149234209Y-69491000D01*
X149234209Y-68297200D01*
X149922800Y-68297200D01*
X149922800Y-69491000D01*
%TA.AperFunction,Conductor*%
D30*
G36*
X149922800Y-69491000D02*
G01*
X149234209Y-69491000D01*
X149234209Y-68297200D01*
X149922800Y-68297200D01*
X149922800Y-69491000D01*
G37*
%TD.AperFunction*%
%TD*%
D23*
%TO.N,+5V*%
X135066431Y-63318800D02*
X134479600Y-63318800D01*
X134479600Y-62125000D01*
X135066431Y-62125000D01*
X135066431Y-63318800D01*
%TA.AperFunction,Conductor*%
D30*
G36*
X135066431Y-63318800D02*
G01*
X134479600Y-63318800D01*
X134479600Y-62125000D01*
X135066431Y-62125000D01*
X135066431Y-63318800D01*
G37*
%TD.AperFunction*%
%TD*%
M02*
