%TF.GenerationSoftware,KiCad,Pcbnew,(5.1.9)-1*%
%TF.CreationDate,2021-04-06T13:05:03-07:00*%
%TF.ProjectId,SZG-TEMPLATE-TXR,535a472d-5445-44d5-904c-4154452d5458,A*%
%TF.SameCoordinates,Original*%
%TF.FileFunction,Copper,L2,Inr*%
%TF.FilePolarity,Positive*%
%FSLAX46Y46*%
G04 Gerber Fmt 4.6, Leading zero omitted, Abs format (unit mm)*
G04 Created by KiCad (PCBNEW (5.1.9)-1) date 2021-04-06 13:05:03*
%MOMM*%
%LPD*%
G01*
G04 APERTURE LIST*
%TA.AperFunction,ComponentPad*%
%ADD10C,1.200000*%
%TD*%
%TA.AperFunction,ComponentPad*%
%ADD11C,3.600000*%
%TD*%
%TA.AperFunction,ViaPad*%
%ADD12C,0.508000*%
%TD*%
%TA.AperFunction,Conductor*%
%ADD13C,0.254000*%
%TD*%
%TA.AperFunction,Conductor*%
%ADD14C,0.100000*%
%TD*%
G04 APERTURE END LIST*
D10*
%TO.N,N/C*%
%TO.C,J1*%
X131555320Y-66310000D03*
X153245320Y-66310000D03*
%TD*%
D11*
%TO.N,Net-(H6-Pad1)*%
%TO.C,H6*%
X159900000Y-123800000D03*
%TD*%
%TO.N,Net-(H5-Pad1)*%
%TO.C,H5*%
X124900000Y-123800000D03*
%TD*%
%TO.N,Net-(H4-Pad1)*%
%TO.C,H4*%
X159900000Y-75800000D03*
%TD*%
%TO.N,Net-(H3-Pad1)*%
%TO.C,H3*%
X124900000Y-75800000D03*
%TD*%
%TO.N,Net-(H2-Pad1)*%
%TO.C,H2*%
X159400000Y-65800000D03*
%TD*%
%TO.N,Net-(H1-Pad1)*%
%TO.C,H1*%
X125400000Y-65800000D03*
%TD*%
D12*
%TO.N,+5V*%
X134668730Y-63100000D03*
X134668730Y-62308600D03*
%TO.N,GND*%
X141276320Y-66531600D03*
X140438120Y-66531600D03*
X137451400Y-66544600D03*
X139422120Y-66531600D03*
X147499320Y-66550400D03*
X143689320Y-66550400D03*
X146229320Y-66550400D03*
X144959320Y-66550400D03*
X150166320Y-66550400D03*
X151436320Y-66550400D03*
X133057200Y-66544600D03*
X125400000Y-82100000D03*
X132295200Y-75960800D03*
X133301600Y-75960800D03*
X132295200Y-74751200D03*
X133301600Y-74751200D03*
X135521000Y-75259200D03*
X135394000Y-72135000D03*
X135419400Y-73786000D03*
X134022400Y-66544600D03*
%TO.N,+3V3*%
X149735520Y-62374800D03*
X149735520Y-63111400D03*
X125700000Y-88050000D03*
X135521000Y-75945000D03*
X133412800Y-79501000D03*
X134632000Y-70509400D03*
X133100000Y-80300000D03*
%TO.N,/R_GA*%
X133717600Y-70509400D03*
X133920800Y-68932200D03*
%TO.N,/RSVD_38*%
X148650320Y-63788400D03*
%TO.N,/RSVD_37*%
X148947120Y-70087600D03*
%TO.N,/C2P_CLKN*%
X147729720Y-63788400D03*
%TO.N,/P2C_CLKN*%
X147727920Y-69960600D03*
%TO.N,/C2P_CLKP*%
X147069320Y-63788400D03*
%TO.N,/P2C_CLKP*%
X147067520Y-69960600D03*
%TO.N,/MCU_SDA_MOSI*%
X129806000Y-76326000D03*
X129199996Y-85819910D03*
%TO.N,/MCU_SCL_USCK*%
X124500000Y-88050000D03*
X129907600Y-72566800D03*
%TO.N,/MCU_MISO*%
X121450002Y-85350000D03*
X129806000Y-74370200D03*
%TO.N,/MCU_RESET_B*%
X127550000Y-81950000D03*
%TO.N,/VIO*%
X149735520Y-69258200D03*
X149735520Y-68547000D03*
%TO.N,/RX0P*%
X136572130Y-69968400D03*
%TO.N,/RX0N*%
X137232530Y-69968400D03*
%TO.N,/TX2P*%
X145570720Y-63788400D03*
%TO.N,/S6*%
X142650320Y-69960600D03*
%TO.N,/TX1P*%
X138072120Y-63788400D03*
%TO.N,/RS3P*%
X144150320Y-69960600D03*
%TO.N,/TX3P*%
X144072120Y-63788400D03*
%TO.N,/S3*%
X141074920Y-63788400D03*
%TO.N,/TX0P*%
X136572130Y-63788400D03*
%TO.N,/S8*%
X143150320Y-70849600D03*
%TO.N,/S9*%
X143233920Y-63788400D03*
%TO.N,/RX1P*%
X139117320Y-70697200D03*
%TO.N,/RX1N*%
X139117320Y-70036800D03*
%TO.N,/TX2N*%
X146231120Y-63788400D03*
%TO.N,/RX2P*%
X145650330Y-69960600D03*
%TO.N,/S5*%
X141735320Y-63788400D03*
%TO.N,/RX2N*%
X146150320Y-70849600D03*
%TO.N,/TX3N*%
X144732520Y-63788400D03*
%TO.N,/S7*%
X142573520Y-63788400D03*
%TO.N,/S1*%
X140236720Y-63788400D03*
%TO.N,/S2*%
X141047720Y-70468600D03*
%TO.N,/S0*%
X139576320Y-63788400D03*
%TO.N,/S4*%
X141657320Y-71256000D03*
%TO.N,/TX1N*%
X138732520Y-63788400D03*
%TO.N,/RX3N*%
X144650320Y-70849600D03*
%TO.N,/TX0N*%
X137232530Y-63788400D03*
%TD*%
D13*
%TO.N,GND*%
X164262540Y-128162540D02*
X120537460Y-128162540D01*
X120537460Y-123582689D01*
X122693600Y-123582689D01*
X122693600Y-124017311D01*
X122778391Y-124443583D01*
X122944714Y-124845122D01*
X123186177Y-125206498D01*
X123493502Y-125513823D01*
X123854878Y-125755286D01*
X124256417Y-125921609D01*
X124682689Y-126006400D01*
X125117311Y-126006400D01*
X125543583Y-125921609D01*
X125945122Y-125755286D01*
X126306498Y-125513823D01*
X126613823Y-125206498D01*
X126855286Y-124845122D01*
X127021609Y-124443583D01*
X127106400Y-124017311D01*
X127106400Y-123582689D01*
X157693600Y-123582689D01*
X157693600Y-124017311D01*
X157778391Y-124443583D01*
X157944714Y-124845122D01*
X158186177Y-125206498D01*
X158493502Y-125513823D01*
X158854878Y-125755286D01*
X159256417Y-125921609D01*
X159682689Y-126006400D01*
X160117311Y-126006400D01*
X160543583Y-125921609D01*
X160945122Y-125755286D01*
X161306498Y-125513823D01*
X161613823Y-125206498D01*
X161855286Y-124845122D01*
X162021609Y-124443583D01*
X162106400Y-124017311D01*
X162106400Y-123582689D01*
X162021609Y-123156417D01*
X161855286Y-122754878D01*
X161613823Y-122393502D01*
X161306498Y-122086177D01*
X160945122Y-121844714D01*
X160543583Y-121678391D01*
X160117311Y-121593600D01*
X159682689Y-121593600D01*
X159256417Y-121678391D01*
X158854878Y-121844714D01*
X158493502Y-122086177D01*
X158186177Y-122393502D01*
X157944714Y-122754878D01*
X157778391Y-123156417D01*
X157693600Y-123582689D01*
X127106400Y-123582689D01*
X127021609Y-123156417D01*
X126855286Y-122754878D01*
X126613823Y-122393502D01*
X126306498Y-122086177D01*
X125945122Y-121844714D01*
X125543583Y-121678391D01*
X125117311Y-121593600D01*
X124682689Y-121593600D01*
X124256417Y-121678391D01*
X123854878Y-121844714D01*
X123493502Y-122086177D01*
X123186177Y-122393502D01*
X122944714Y-122754878D01*
X122778391Y-123156417D01*
X122693600Y-123582689D01*
X120537460Y-123582689D01*
X120537460Y-85284956D01*
X120789602Y-85284956D01*
X120789602Y-85415044D01*
X120814981Y-85542631D01*
X120864763Y-85662817D01*
X120937036Y-85770980D01*
X121029022Y-85862966D01*
X121137185Y-85935239D01*
X121257371Y-85985021D01*
X121384958Y-86010400D01*
X121515046Y-86010400D01*
X121571771Y-85999116D01*
X121447548Y-86185029D01*
X121327401Y-86475091D01*
X121266150Y-86783019D01*
X121266150Y-87096981D01*
X121327401Y-87404909D01*
X121447548Y-87694971D01*
X121621976Y-87956020D01*
X121843980Y-88178024D01*
X122105029Y-88352452D01*
X122395091Y-88472599D01*
X122703019Y-88533850D01*
X123016981Y-88533850D01*
X123324909Y-88472599D01*
X123614971Y-88352452D01*
X123854931Y-88192115D01*
X123864979Y-88242631D01*
X123914761Y-88362817D01*
X123987034Y-88470980D01*
X124079020Y-88562966D01*
X124187183Y-88635239D01*
X124307369Y-88685021D01*
X124434956Y-88710400D01*
X124565044Y-88710400D01*
X124692631Y-88685021D01*
X124812817Y-88635239D01*
X124920980Y-88562966D01*
X125012966Y-88470980D01*
X125085239Y-88362817D01*
X125100000Y-88327180D01*
X125114761Y-88362817D01*
X125187034Y-88470980D01*
X125279020Y-88562966D01*
X125387183Y-88635239D01*
X125507369Y-88685021D01*
X125634956Y-88710400D01*
X125765044Y-88710400D01*
X125892631Y-88685021D01*
X126012817Y-88635239D01*
X126120980Y-88562966D01*
X126212966Y-88470980D01*
X126285239Y-88362817D01*
X126335021Y-88242631D01*
X126360400Y-88115044D01*
X126360400Y-87984956D01*
X126335021Y-87857369D01*
X126285239Y-87737183D01*
X126212966Y-87629020D01*
X126120980Y-87537034D01*
X126095313Y-87519883D01*
X126100396Y-87514800D01*
X126199076Y-87367115D01*
X126267048Y-87203016D01*
X126301700Y-87028810D01*
X126301700Y-86851190D01*
X126267048Y-86676984D01*
X126199076Y-86512885D01*
X126100396Y-86365200D01*
X125974800Y-86239604D01*
X125827115Y-86140924D01*
X125663016Y-86072952D01*
X125488810Y-86038300D01*
X125311190Y-86038300D01*
X125136984Y-86072952D01*
X124972885Y-86140924D01*
X124825200Y-86239604D01*
X124699604Y-86365200D01*
X124600924Y-86512885D01*
X124532952Y-86676984D01*
X124498300Y-86851190D01*
X124498300Y-87028810D01*
X124532952Y-87203016D01*
X124600924Y-87367115D01*
X124623751Y-87401278D01*
X124565044Y-87389600D01*
X124434956Y-87389600D01*
X124394025Y-87397742D01*
X124453850Y-87096981D01*
X124453850Y-86783019D01*
X124392599Y-86475091D01*
X124272452Y-86185029D01*
X124098024Y-85923980D01*
X123876020Y-85701976D01*
X123614971Y-85527548D01*
X123324909Y-85407401D01*
X123048904Y-85352500D01*
X123324909Y-85297599D01*
X123614971Y-85177452D01*
X123876020Y-85003024D01*
X124098024Y-84781020D01*
X124272452Y-84519971D01*
X124392599Y-84229909D01*
X124453850Y-83921981D01*
X124453850Y-83608019D01*
X124392599Y-83300091D01*
X124272452Y-83010029D01*
X124098024Y-82748980D01*
X124044349Y-82695305D01*
X124120984Y-82727048D01*
X124295190Y-82761700D01*
X124472810Y-82761700D01*
X124647016Y-82727048D01*
X124811115Y-82659076D01*
X124958800Y-82560396D01*
X125084396Y-82434800D01*
X125183076Y-82287115D01*
X125251048Y-82123016D01*
X125285700Y-81948810D01*
X125285700Y-81771190D01*
X125514300Y-81771190D01*
X125514300Y-81948810D01*
X125548952Y-82123016D01*
X125616924Y-82287115D01*
X125715604Y-82434800D01*
X125841200Y-82560396D01*
X125988885Y-82659076D01*
X126152984Y-82727048D01*
X126327190Y-82761700D01*
X126504810Y-82761700D01*
X126679016Y-82727048D01*
X126755651Y-82695305D01*
X126701976Y-82748980D01*
X126527548Y-83010029D01*
X126407401Y-83300091D01*
X126346150Y-83608019D01*
X126346150Y-83921981D01*
X126407401Y-84229909D01*
X126527548Y-84519971D01*
X126701976Y-84781020D01*
X126923980Y-85003024D01*
X127185029Y-85177452D01*
X127475091Y-85297599D01*
X127751096Y-85352500D01*
X127475091Y-85407401D01*
X127185029Y-85527548D01*
X126923980Y-85701976D01*
X126701976Y-85923980D01*
X126527548Y-86185029D01*
X126407401Y-86475091D01*
X126346150Y-86783019D01*
X126346150Y-87096981D01*
X126407401Y-87404909D01*
X126527548Y-87694971D01*
X126701976Y-87956020D01*
X126923980Y-88178024D01*
X127185029Y-88352452D01*
X127475091Y-88472599D01*
X127783019Y-88533850D01*
X128096981Y-88533850D01*
X128404909Y-88472599D01*
X128694971Y-88352452D01*
X128956020Y-88178024D01*
X129178024Y-87956020D01*
X129352452Y-87694971D01*
X129472599Y-87404909D01*
X129533850Y-87096981D01*
X129533850Y-86783019D01*
X129472599Y-86475091D01*
X129453760Y-86429609D01*
X129512813Y-86405149D01*
X129620976Y-86332876D01*
X129712962Y-86240890D01*
X129785235Y-86132727D01*
X129835017Y-86012541D01*
X129860396Y-85884954D01*
X129860396Y-85754866D01*
X129835017Y-85627279D01*
X129785235Y-85507093D01*
X129712962Y-85398930D01*
X129620976Y-85306944D01*
X129512813Y-85234671D01*
X129392627Y-85184889D01*
X129265040Y-85159510D01*
X129134952Y-85159510D01*
X129007365Y-85184889D01*
X128887179Y-85234671D01*
X128779016Y-85306944D01*
X128687030Y-85398930D01*
X128621440Y-85497091D01*
X128404909Y-85407401D01*
X128128904Y-85352500D01*
X128404909Y-85297599D01*
X128694971Y-85177452D01*
X128956020Y-85003024D01*
X129178024Y-84781020D01*
X129352452Y-84519971D01*
X129472599Y-84229909D01*
X129533850Y-83921981D01*
X129533850Y-83608019D01*
X129472599Y-83300091D01*
X129352452Y-83010029D01*
X129178024Y-82748980D01*
X128956020Y-82526976D01*
X128694971Y-82352548D01*
X128404909Y-82232401D01*
X128167406Y-82185158D01*
X128185021Y-82142631D01*
X128210400Y-82015044D01*
X128210400Y-81884956D01*
X128185021Y-81757369D01*
X128135239Y-81637183D01*
X128062966Y-81529020D01*
X127970980Y-81437034D01*
X127862817Y-81364761D01*
X127742631Y-81314979D01*
X127615044Y-81289600D01*
X127484956Y-81289600D01*
X127357369Y-81314979D01*
X127237183Y-81364761D01*
X127190430Y-81396000D01*
X127116396Y-81285200D01*
X126990800Y-81159604D01*
X126843115Y-81060924D01*
X126679016Y-80992952D01*
X126504810Y-80958300D01*
X126327190Y-80958300D01*
X126152984Y-80992952D01*
X125988885Y-81060924D01*
X125841200Y-81159604D01*
X125715604Y-81285200D01*
X125616924Y-81432885D01*
X125548952Y-81596984D01*
X125514300Y-81771190D01*
X125285700Y-81771190D01*
X125251048Y-81596984D01*
X125183076Y-81432885D01*
X125084396Y-81285200D01*
X124958800Y-81159604D01*
X124811115Y-81060924D01*
X124647016Y-80992952D01*
X124472810Y-80958300D01*
X124295190Y-80958300D01*
X124120984Y-80992952D01*
X123956885Y-81060924D01*
X123809200Y-81159604D01*
X123683604Y-81285200D01*
X123584924Y-81432885D01*
X123516952Y-81596984D01*
X123482300Y-81771190D01*
X123482300Y-81948810D01*
X123516952Y-82123016D01*
X123584924Y-82287115D01*
X123639674Y-82369054D01*
X123614971Y-82352548D01*
X123324909Y-82232401D01*
X123016981Y-82171150D01*
X122703019Y-82171150D01*
X122395091Y-82232401D01*
X122105029Y-82352548D01*
X121843980Y-82526976D01*
X121621976Y-82748980D01*
X121447548Y-83010029D01*
X121327401Y-83300091D01*
X121266150Y-83608019D01*
X121266150Y-83921981D01*
X121327401Y-84229909D01*
X121447548Y-84519971D01*
X121567918Y-84700117D01*
X121515046Y-84689600D01*
X121384958Y-84689600D01*
X121257371Y-84714979D01*
X121137185Y-84764761D01*
X121029022Y-84837034D01*
X120937036Y-84929020D01*
X120864763Y-85037183D01*
X120814981Y-85157369D01*
X120789602Y-85284956D01*
X120537460Y-85284956D01*
X120537460Y-80234956D01*
X132439600Y-80234956D01*
X132439600Y-80365044D01*
X132464979Y-80492631D01*
X132514761Y-80612817D01*
X132587034Y-80720980D01*
X132679020Y-80812966D01*
X132787183Y-80885239D01*
X132907369Y-80935021D01*
X133034956Y-80960400D01*
X133165044Y-80960400D01*
X133292631Y-80935021D01*
X133412817Y-80885239D01*
X133520980Y-80812966D01*
X133612966Y-80720980D01*
X133685239Y-80612817D01*
X133735021Y-80492631D01*
X133760400Y-80365044D01*
X133760400Y-80234956D01*
X133735021Y-80107369D01*
X133726127Y-80085898D01*
X133833780Y-80013966D01*
X133925766Y-79921980D01*
X133998039Y-79813817D01*
X134047821Y-79693631D01*
X134073200Y-79566044D01*
X134073200Y-79435956D01*
X134047821Y-79308369D01*
X133998039Y-79188183D01*
X133925766Y-79080020D01*
X133833780Y-78988034D01*
X133725617Y-78915761D01*
X133605431Y-78865979D01*
X133477844Y-78840600D01*
X133347756Y-78840600D01*
X133220169Y-78865979D01*
X133099983Y-78915761D01*
X132991820Y-78988034D01*
X132899834Y-79080020D01*
X132827561Y-79188183D01*
X132777779Y-79308369D01*
X132752400Y-79435956D01*
X132752400Y-79566044D01*
X132777779Y-79693631D01*
X132786673Y-79715102D01*
X132679020Y-79787034D01*
X132587034Y-79879020D01*
X132514761Y-79987183D01*
X132464979Y-80107369D01*
X132439600Y-80234956D01*
X120537460Y-80234956D01*
X120537460Y-75582689D01*
X122693600Y-75582689D01*
X122693600Y-76017311D01*
X122778391Y-76443583D01*
X122944714Y-76845122D01*
X123186177Y-77206498D01*
X123493502Y-77513823D01*
X123854878Y-77755286D01*
X124256417Y-77921609D01*
X124682689Y-78006400D01*
X125117311Y-78006400D01*
X125543583Y-77921609D01*
X125945122Y-77755286D01*
X126306498Y-77513823D01*
X126613823Y-77206498D01*
X126855286Y-76845122D01*
X127021609Y-76443583D01*
X127057935Y-76260956D01*
X129145600Y-76260956D01*
X129145600Y-76391044D01*
X129170979Y-76518631D01*
X129220761Y-76638817D01*
X129293034Y-76746980D01*
X129385020Y-76838966D01*
X129493183Y-76911239D01*
X129613369Y-76961021D01*
X129740956Y-76986400D01*
X129871044Y-76986400D01*
X129998631Y-76961021D01*
X130118817Y-76911239D01*
X130226980Y-76838966D01*
X130318966Y-76746980D01*
X130391239Y-76638817D01*
X130441021Y-76518631D01*
X130466400Y-76391044D01*
X130466400Y-76260956D01*
X130441021Y-76133369D01*
X130391239Y-76013183D01*
X130318966Y-75905020D01*
X130293902Y-75879956D01*
X134860600Y-75879956D01*
X134860600Y-76010044D01*
X134885979Y-76137631D01*
X134935761Y-76257817D01*
X135008034Y-76365980D01*
X135100020Y-76457966D01*
X135208183Y-76530239D01*
X135328369Y-76580021D01*
X135455956Y-76605400D01*
X135586044Y-76605400D01*
X135713631Y-76580021D01*
X135833817Y-76530239D01*
X135941980Y-76457966D01*
X136033966Y-76365980D01*
X136106239Y-76257817D01*
X136156021Y-76137631D01*
X136181400Y-76010044D01*
X136181400Y-75879956D01*
X136156021Y-75752369D01*
X136106239Y-75632183D01*
X136073168Y-75582689D01*
X157693600Y-75582689D01*
X157693600Y-76017311D01*
X157778391Y-76443583D01*
X157944714Y-76845122D01*
X158186177Y-77206498D01*
X158493502Y-77513823D01*
X158854878Y-77755286D01*
X159256417Y-77921609D01*
X159682689Y-78006400D01*
X160117311Y-78006400D01*
X160543583Y-77921609D01*
X160945122Y-77755286D01*
X161306498Y-77513823D01*
X161613823Y-77206498D01*
X161855286Y-76845122D01*
X162021609Y-76443583D01*
X162106400Y-76017311D01*
X162106400Y-75582689D01*
X162021609Y-75156417D01*
X161855286Y-74754878D01*
X161613823Y-74393502D01*
X161306498Y-74086177D01*
X160945122Y-73844714D01*
X160543583Y-73678391D01*
X160117311Y-73593600D01*
X159682689Y-73593600D01*
X159256417Y-73678391D01*
X158854878Y-73844714D01*
X158493502Y-74086177D01*
X158186177Y-74393502D01*
X157944714Y-74754878D01*
X157778391Y-75156417D01*
X157693600Y-75582689D01*
X136073168Y-75582689D01*
X136033966Y-75524020D01*
X135941980Y-75432034D01*
X135833817Y-75359761D01*
X135713631Y-75309979D01*
X135586044Y-75284600D01*
X135455956Y-75284600D01*
X135328369Y-75309979D01*
X135208183Y-75359761D01*
X135100020Y-75432034D01*
X135008034Y-75524020D01*
X134935761Y-75632183D01*
X134885979Y-75752369D01*
X134860600Y-75879956D01*
X130293902Y-75879956D01*
X130226980Y-75813034D01*
X130118817Y-75740761D01*
X129998631Y-75690979D01*
X129871044Y-75665600D01*
X129740956Y-75665600D01*
X129613369Y-75690979D01*
X129493183Y-75740761D01*
X129385020Y-75813034D01*
X129293034Y-75905020D01*
X129220761Y-76013183D01*
X129170979Y-76133369D01*
X129145600Y-76260956D01*
X127057935Y-76260956D01*
X127106400Y-76017311D01*
X127106400Y-75582689D01*
X127021609Y-75156417D01*
X126855286Y-74754878D01*
X126613823Y-74393502D01*
X126525477Y-74305156D01*
X129145600Y-74305156D01*
X129145600Y-74435244D01*
X129170979Y-74562831D01*
X129220761Y-74683017D01*
X129293034Y-74791180D01*
X129385020Y-74883166D01*
X129493183Y-74955439D01*
X129613369Y-75005221D01*
X129740956Y-75030600D01*
X129871044Y-75030600D01*
X129998631Y-75005221D01*
X130118817Y-74955439D01*
X130226980Y-74883166D01*
X130318966Y-74791180D01*
X130391239Y-74683017D01*
X130441021Y-74562831D01*
X130466400Y-74435244D01*
X130466400Y-74305156D01*
X130441021Y-74177569D01*
X130391239Y-74057383D01*
X130318966Y-73949220D01*
X130226980Y-73857234D01*
X130118817Y-73784961D01*
X129998631Y-73735179D01*
X129871044Y-73709800D01*
X129740956Y-73709800D01*
X129613369Y-73735179D01*
X129493183Y-73784961D01*
X129385020Y-73857234D01*
X129293034Y-73949220D01*
X129220761Y-74057383D01*
X129170979Y-74177569D01*
X129145600Y-74305156D01*
X126525477Y-74305156D01*
X126306498Y-74086177D01*
X125945122Y-73844714D01*
X125543583Y-73678391D01*
X125117311Y-73593600D01*
X124682689Y-73593600D01*
X124256417Y-73678391D01*
X123854878Y-73844714D01*
X123493502Y-74086177D01*
X123186177Y-74393502D01*
X122944714Y-74754878D01*
X122778391Y-75156417D01*
X122693600Y-75582689D01*
X120537460Y-75582689D01*
X120537460Y-72501756D01*
X129247200Y-72501756D01*
X129247200Y-72631844D01*
X129272579Y-72759431D01*
X129322361Y-72879617D01*
X129394634Y-72987780D01*
X129486620Y-73079766D01*
X129594783Y-73152039D01*
X129714969Y-73201821D01*
X129842556Y-73227200D01*
X129972644Y-73227200D01*
X130100231Y-73201821D01*
X130220417Y-73152039D01*
X130328580Y-73079766D01*
X130420566Y-72987780D01*
X130492839Y-72879617D01*
X130542621Y-72759431D01*
X130568000Y-72631844D01*
X130568000Y-72501756D01*
X130542621Y-72374169D01*
X130492839Y-72253983D01*
X130420566Y-72145820D01*
X130328580Y-72053834D01*
X130220417Y-71981561D01*
X130100231Y-71931779D01*
X129972644Y-71906400D01*
X129842556Y-71906400D01*
X129714969Y-71931779D01*
X129594783Y-71981561D01*
X129486620Y-72053834D01*
X129394634Y-72145820D01*
X129322361Y-72253983D01*
X129272579Y-72374169D01*
X129247200Y-72501756D01*
X120537460Y-72501756D01*
X120537460Y-70444356D01*
X133057200Y-70444356D01*
X133057200Y-70574444D01*
X133082579Y-70702031D01*
X133132361Y-70822217D01*
X133204634Y-70930380D01*
X133296620Y-71022366D01*
X133404783Y-71094639D01*
X133524969Y-71144421D01*
X133652556Y-71169800D01*
X133782644Y-71169800D01*
X133910231Y-71144421D01*
X134030417Y-71094639D01*
X134138580Y-71022366D01*
X134174800Y-70986146D01*
X134211020Y-71022366D01*
X134319183Y-71094639D01*
X134439369Y-71144421D01*
X134566956Y-71169800D01*
X134697044Y-71169800D01*
X134824631Y-71144421D01*
X134944817Y-71094639D01*
X135052980Y-71022366D01*
X135144966Y-70930380D01*
X135217239Y-70822217D01*
X135267021Y-70702031D01*
X135292400Y-70574444D01*
X135292400Y-70444356D01*
X135267021Y-70316769D01*
X135217239Y-70196583D01*
X135144966Y-70088420D01*
X135052980Y-69996434D01*
X134944817Y-69924161D01*
X134894589Y-69903356D01*
X135911730Y-69903356D01*
X135911730Y-70033444D01*
X135937109Y-70161031D01*
X135986891Y-70281217D01*
X136059164Y-70389380D01*
X136151150Y-70481366D01*
X136259313Y-70553639D01*
X136379499Y-70603421D01*
X136507086Y-70628800D01*
X136637174Y-70628800D01*
X136764761Y-70603421D01*
X136884947Y-70553639D01*
X136902330Y-70542024D01*
X136919713Y-70553639D01*
X137039899Y-70603421D01*
X137167486Y-70628800D01*
X137297574Y-70628800D01*
X137425161Y-70603421D01*
X137545347Y-70553639D01*
X137653510Y-70481366D01*
X137745496Y-70389380D01*
X137817769Y-70281217D01*
X137867551Y-70161031D01*
X137892930Y-70033444D01*
X137892930Y-69971756D01*
X138456920Y-69971756D01*
X138456920Y-70101844D01*
X138482299Y-70229431D01*
X138532081Y-70349617D01*
X138543696Y-70367000D01*
X138532081Y-70384383D01*
X138482299Y-70504569D01*
X138456920Y-70632156D01*
X138456920Y-70762244D01*
X138482299Y-70889831D01*
X138532081Y-71010017D01*
X138604354Y-71118180D01*
X138696340Y-71210166D01*
X138804503Y-71282439D01*
X138924689Y-71332221D01*
X139052276Y-71357600D01*
X139182364Y-71357600D01*
X139309951Y-71332221D01*
X139430137Y-71282439D01*
X139538300Y-71210166D01*
X139630286Y-71118180D01*
X139702559Y-71010017D01*
X139752341Y-70889831D01*
X139777720Y-70762244D01*
X139777720Y-70632156D01*
X139752341Y-70504569D01*
X139710501Y-70403556D01*
X140387320Y-70403556D01*
X140387320Y-70533644D01*
X140412699Y-70661231D01*
X140462481Y-70781417D01*
X140534754Y-70889580D01*
X140626740Y-70981566D01*
X140734903Y-71053839D01*
X140855089Y-71103621D01*
X140982676Y-71129000D01*
X141009244Y-71129000D01*
X140996920Y-71190956D01*
X140996920Y-71321044D01*
X141022299Y-71448631D01*
X141072081Y-71568817D01*
X141144354Y-71676980D01*
X141236340Y-71768966D01*
X141344503Y-71841239D01*
X141464689Y-71891021D01*
X141592276Y-71916400D01*
X141722364Y-71916400D01*
X141849951Y-71891021D01*
X141970137Y-71841239D01*
X142078300Y-71768966D01*
X142170286Y-71676980D01*
X142242559Y-71568817D01*
X142292341Y-71448631D01*
X142317720Y-71321044D01*
X142317720Y-71190956D01*
X142292341Y-71063369D01*
X142242559Y-70943183D01*
X142170286Y-70835020D01*
X142078300Y-70743034D01*
X141970137Y-70670761D01*
X141849951Y-70620979D01*
X141722364Y-70595600D01*
X141695796Y-70595600D01*
X141708120Y-70533644D01*
X141708120Y-70403556D01*
X141682741Y-70275969D01*
X141632959Y-70155783D01*
X141560686Y-70047620D01*
X141468700Y-69955634D01*
X141378788Y-69895556D01*
X141989920Y-69895556D01*
X141989920Y-70025644D01*
X142015299Y-70153231D01*
X142065081Y-70273417D01*
X142137354Y-70381580D01*
X142229340Y-70473566D01*
X142337503Y-70545839D01*
X142457689Y-70595621D01*
X142534390Y-70610878D01*
X142515299Y-70656969D01*
X142489920Y-70784556D01*
X142489920Y-70914644D01*
X142515299Y-71042231D01*
X142565081Y-71162417D01*
X142637354Y-71270580D01*
X142729340Y-71362566D01*
X142837503Y-71434839D01*
X142957689Y-71484621D01*
X143085276Y-71510000D01*
X143215364Y-71510000D01*
X143342951Y-71484621D01*
X143463137Y-71434839D01*
X143571300Y-71362566D01*
X143663286Y-71270580D01*
X143735559Y-71162417D01*
X143785341Y-71042231D01*
X143810720Y-70914644D01*
X143810720Y-70784556D01*
X143785341Y-70656969D01*
X143735559Y-70536783D01*
X143663286Y-70428620D01*
X143571300Y-70336634D01*
X143463137Y-70264361D01*
X143342951Y-70214579D01*
X143266250Y-70199322D01*
X143285341Y-70153231D01*
X143310720Y-70025644D01*
X143310720Y-69895556D01*
X143489920Y-69895556D01*
X143489920Y-70025644D01*
X143515299Y-70153231D01*
X143565081Y-70273417D01*
X143637354Y-70381580D01*
X143729340Y-70473566D01*
X143837503Y-70545839D01*
X143957689Y-70595621D01*
X144034390Y-70610878D01*
X144015299Y-70656969D01*
X143989920Y-70784556D01*
X143989920Y-70914644D01*
X144015299Y-71042231D01*
X144065081Y-71162417D01*
X144137354Y-71270580D01*
X144229340Y-71362566D01*
X144337503Y-71434839D01*
X144457689Y-71484621D01*
X144585276Y-71510000D01*
X144715364Y-71510000D01*
X144842951Y-71484621D01*
X144963137Y-71434839D01*
X145071300Y-71362566D01*
X145163286Y-71270580D01*
X145235559Y-71162417D01*
X145285341Y-71042231D01*
X145310720Y-70914644D01*
X145310720Y-70784556D01*
X145285341Y-70656969D01*
X145235559Y-70536783D01*
X145163286Y-70428620D01*
X145071300Y-70336634D01*
X144963137Y-70264361D01*
X144842951Y-70214579D01*
X144766250Y-70199322D01*
X144785341Y-70153231D01*
X144810720Y-70025644D01*
X144810720Y-69895556D01*
X144989930Y-69895556D01*
X144989930Y-70025644D01*
X145015309Y-70153231D01*
X145065091Y-70273417D01*
X145137364Y-70381580D01*
X145229350Y-70473566D01*
X145337513Y-70545839D01*
X145457699Y-70595621D01*
X145534391Y-70610876D01*
X145515299Y-70656969D01*
X145489920Y-70784556D01*
X145489920Y-70914644D01*
X145515299Y-71042231D01*
X145565081Y-71162417D01*
X145637354Y-71270580D01*
X145729340Y-71362566D01*
X145837503Y-71434839D01*
X145957689Y-71484621D01*
X146085276Y-71510000D01*
X146215364Y-71510000D01*
X146342951Y-71484621D01*
X146463137Y-71434839D01*
X146571300Y-71362566D01*
X146663286Y-71270580D01*
X146735559Y-71162417D01*
X146785341Y-71042231D01*
X146810720Y-70914644D01*
X146810720Y-70784556D01*
X146785341Y-70656969D01*
X146735559Y-70536783D01*
X146731049Y-70530034D01*
X146754703Y-70545839D01*
X146874889Y-70595621D01*
X147002476Y-70621000D01*
X147132564Y-70621000D01*
X147260151Y-70595621D01*
X147380337Y-70545839D01*
X147397720Y-70534224D01*
X147415103Y-70545839D01*
X147535289Y-70595621D01*
X147662876Y-70621000D01*
X147792964Y-70621000D01*
X147920551Y-70595621D01*
X148040737Y-70545839D01*
X148148900Y-70473566D01*
X148240886Y-70381580D01*
X148311298Y-70276203D01*
X148312099Y-70280231D01*
X148361881Y-70400417D01*
X148434154Y-70508580D01*
X148526140Y-70600566D01*
X148634303Y-70672839D01*
X148754489Y-70722621D01*
X148882076Y-70748000D01*
X149012164Y-70748000D01*
X149139751Y-70722621D01*
X149259937Y-70672839D01*
X149368100Y-70600566D01*
X149460086Y-70508580D01*
X149532359Y-70400417D01*
X149582141Y-70280231D01*
X149607520Y-70152644D01*
X149607520Y-70022556D01*
X149583396Y-69901278D01*
X149670476Y-69918600D01*
X149800564Y-69918600D01*
X149928151Y-69893221D01*
X150048337Y-69843439D01*
X150156500Y-69771166D01*
X150248486Y-69679180D01*
X150320759Y-69571017D01*
X150370541Y-69450831D01*
X150395920Y-69323244D01*
X150395920Y-69193156D01*
X150370541Y-69065569D01*
X150320759Y-68945383D01*
X150292172Y-68902600D01*
X150320759Y-68859817D01*
X150370541Y-68739631D01*
X150395920Y-68612044D01*
X150395920Y-68481956D01*
X150370541Y-68354369D01*
X150320759Y-68234183D01*
X150248486Y-68126020D01*
X150156500Y-68034034D01*
X150048337Y-67961761D01*
X149928151Y-67911979D01*
X149800564Y-67886600D01*
X149670476Y-67886600D01*
X149542889Y-67911979D01*
X149422703Y-67961761D01*
X149314540Y-68034034D01*
X149222554Y-68126020D01*
X149150281Y-68234183D01*
X149100499Y-68354369D01*
X149075120Y-68481956D01*
X149075120Y-68612044D01*
X149100499Y-68739631D01*
X149150281Y-68859817D01*
X149178868Y-68902600D01*
X149150281Y-68945383D01*
X149100499Y-69065569D01*
X149075120Y-69193156D01*
X149075120Y-69323244D01*
X149099244Y-69444522D01*
X149012164Y-69427200D01*
X148882076Y-69427200D01*
X148754489Y-69452579D01*
X148634303Y-69502361D01*
X148526140Y-69574634D01*
X148434154Y-69666620D01*
X148363742Y-69771997D01*
X148362941Y-69767969D01*
X148313159Y-69647783D01*
X148240886Y-69539620D01*
X148148900Y-69447634D01*
X148040737Y-69375361D01*
X147920551Y-69325579D01*
X147792964Y-69300200D01*
X147662876Y-69300200D01*
X147535289Y-69325579D01*
X147415103Y-69375361D01*
X147397720Y-69386976D01*
X147380337Y-69375361D01*
X147260151Y-69325579D01*
X147132564Y-69300200D01*
X147002476Y-69300200D01*
X146874889Y-69325579D01*
X146754703Y-69375361D01*
X146646540Y-69447634D01*
X146554554Y-69539620D01*
X146482281Y-69647783D01*
X146432499Y-69767969D01*
X146407120Y-69895556D01*
X146407120Y-70025644D01*
X146432499Y-70153231D01*
X146482281Y-70273417D01*
X146486791Y-70280166D01*
X146463137Y-70264361D01*
X146342951Y-70214579D01*
X146266259Y-70199324D01*
X146285351Y-70153231D01*
X146310730Y-70025644D01*
X146310730Y-69895556D01*
X146285351Y-69767969D01*
X146235569Y-69647783D01*
X146163296Y-69539620D01*
X146071310Y-69447634D01*
X145963147Y-69375361D01*
X145842961Y-69325579D01*
X145715374Y-69300200D01*
X145585286Y-69300200D01*
X145457699Y-69325579D01*
X145337513Y-69375361D01*
X145229350Y-69447634D01*
X145137364Y-69539620D01*
X145065091Y-69647783D01*
X145015309Y-69767969D01*
X144989930Y-69895556D01*
X144810720Y-69895556D01*
X144785341Y-69767969D01*
X144735559Y-69647783D01*
X144663286Y-69539620D01*
X144571300Y-69447634D01*
X144463137Y-69375361D01*
X144342951Y-69325579D01*
X144215364Y-69300200D01*
X144085276Y-69300200D01*
X143957689Y-69325579D01*
X143837503Y-69375361D01*
X143729340Y-69447634D01*
X143637354Y-69539620D01*
X143565081Y-69647783D01*
X143515299Y-69767969D01*
X143489920Y-69895556D01*
X143310720Y-69895556D01*
X143285341Y-69767969D01*
X143235559Y-69647783D01*
X143163286Y-69539620D01*
X143071300Y-69447634D01*
X142963137Y-69375361D01*
X142842951Y-69325579D01*
X142715364Y-69300200D01*
X142585276Y-69300200D01*
X142457689Y-69325579D01*
X142337503Y-69375361D01*
X142229340Y-69447634D01*
X142137354Y-69539620D01*
X142065081Y-69647783D01*
X142015299Y-69767969D01*
X141989920Y-69895556D01*
X141378788Y-69895556D01*
X141360537Y-69883361D01*
X141240351Y-69833579D01*
X141112764Y-69808200D01*
X140982676Y-69808200D01*
X140855089Y-69833579D01*
X140734903Y-69883361D01*
X140626740Y-69955634D01*
X140534754Y-70047620D01*
X140462481Y-70155783D01*
X140412699Y-70275969D01*
X140387320Y-70403556D01*
X139710501Y-70403556D01*
X139702559Y-70384383D01*
X139690944Y-70367000D01*
X139702559Y-70349617D01*
X139752341Y-70229431D01*
X139777720Y-70101844D01*
X139777720Y-69971756D01*
X139752341Y-69844169D01*
X139702559Y-69723983D01*
X139630286Y-69615820D01*
X139538300Y-69523834D01*
X139430137Y-69451561D01*
X139309951Y-69401779D01*
X139182364Y-69376400D01*
X139052276Y-69376400D01*
X138924689Y-69401779D01*
X138804503Y-69451561D01*
X138696340Y-69523834D01*
X138604354Y-69615820D01*
X138532081Y-69723983D01*
X138482299Y-69844169D01*
X138456920Y-69971756D01*
X137892930Y-69971756D01*
X137892930Y-69903356D01*
X137867551Y-69775769D01*
X137817769Y-69655583D01*
X137745496Y-69547420D01*
X137653510Y-69455434D01*
X137545347Y-69383161D01*
X137425161Y-69333379D01*
X137297574Y-69308000D01*
X137167486Y-69308000D01*
X137039899Y-69333379D01*
X136919713Y-69383161D01*
X136902330Y-69394776D01*
X136884947Y-69383161D01*
X136764761Y-69333379D01*
X136637174Y-69308000D01*
X136507086Y-69308000D01*
X136379499Y-69333379D01*
X136259313Y-69383161D01*
X136151150Y-69455434D01*
X136059164Y-69547420D01*
X135986891Y-69655583D01*
X135937109Y-69775769D01*
X135911730Y-69903356D01*
X134894589Y-69903356D01*
X134824631Y-69874379D01*
X134697044Y-69849000D01*
X134566956Y-69849000D01*
X134439369Y-69874379D01*
X134319183Y-69924161D01*
X134211020Y-69996434D01*
X134174800Y-70032654D01*
X134138580Y-69996434D01*
X134030417Y-69924161D01*
X133910231Y-69874379D01*
X133782644Y-69849000D01*
X133652556Y-69849000D01*
X133524969Y-69874379D01*
X133404783Y-69924161D01*
X133296620Y-69996434D01*
X133204634Y-70088420D01*
X133132361Y-70196583D01*
X133082579Y-70316769D01*
X133057200Y-70444356D01*
X120537460Y-70444356D01*
X120537460Y-65582689D01*
X123193600Y-65582689D01*
X123193600Y-66017311D01*
X123278391Y-66443583D01*
X123444714Y-66845122D01*
X123686177Y-67206498D01*
X123993502Y-67513823D01*
X124354878Y-67755286D01*
X124756417Y-67921609D01*
X125182689Y-68006400D01*
X125617311Y-68006400D01*
X126043583Y-67921609D01*
X126445122Y-67755286D01*
X126453419Y-67749742D01*
X132243920Y-67749742D01*
X132243920Y-67930258D01*
X132279137Y-68107304D01*
X132348217Y-68274078D01*
X132448506Y-68424171D01*
X132576149Y-68551814D01*
X132726242Y-68652103D01*
X132893016Y-68721183D01*
X133070062Y-68756400D01*
X133250578Y-68756400D01*
X133283743Y-68749803D01*
X133260400Y-68867156D01*
X133260400Y-68997244D01*
X133285779Y-69124831D01*
X133335561Y-69245017D01*
X133407834Y-69353180D01*
X133499820Y-69445166D01*
X133607983Y-69517439D01*
X133728169Y-69567221D01*
X133855756Y-69592600D01*
X133985844Y-69592600D01*
X134113431Y-69567221D01*
X134233617Y-69517439D01*
X134341780Y-69445166D01*
X134433766Y-69353180D01*
X134506039Y-69245017D01*
X134555821Y-69124831D01*
X134581200Y-68997244D01*
X134581200Y-68867156D01*
X134555821Y-68739569D01*
X134506039Y-68619383D01*
X134433766Y-68511220D01*
X134341780Y-68419234D01*
X134233617Y-68346961D01*
X134113431Y-68297179D01*
X133985844Y-68271800D01*
X133973367Y-68271800D01*
X134041503Y-68107304D01*
X134076720Y-67930258D01*
X134076720Y-67749742D01*
X150723920Y-67749742D01*
X150723920Y-67930258D01*
X150759137Y-68107304D01*
X150828217Y-68274078D01*
X150928506Y-68424171D01*
X151056149Y-68551814D01*
X151206242Y-68652103D01*
X151373016Y-68721183D01*
X151550062Y-68756400D01*
X151730578Y-68756400D01*
X151907624Y-68721183D01*
X152074398Y-68652103D01*
X152224491Y-68551814D01*
X152352134Y-68424171D01*
X152452423Y-68274078D01*
X152521503Y-68107304D01*
X152556720Y-67930258D01*
X152556720Y-67749742D01*
X152521503Y-67572696D01*
X152452423Y-67405922D01*
X152352134Y-67255829D01*
X152224491Y-67128186D01*
X152074398Y-67027897D01*
X151907624Y-66958817D01*
X151730578Y-66923600D01*
X151550062Y-66923600D01*
X151373016Y-66958817D01*
X151206242Y-67027897D01*
X151056149Y-67128186D01*
X150928506Y-67255829D01*
X150828217Y-67405922D01*
X150759137Y-67572696D01*
X150723920Y-67749742D01*
X134076720Y-67749742D01*
X134041503Y-67572696D01*
X133972423Y-67405922D01*
X133872134Y-67255829D01*
X133744491Y-67128186D01*
X133594398Y-67027897D01*
X133427624Y-66958817D01*
X133250578Y-66923600D01*
X133070062Y-66923600D01*
X132893016Y-66958817D01*
X132726242Y-67027897D01*
X132576149Y-67128186D01*
X132448506Y-67255829D01*
X132348217Y-67405922D01*
X132279137Y-67572696D01*
X132243920Y-67749742D01*
X126453419Y-67749742D01*
X126806498Y-67513823D01*
X127113823Y-67206498D01*
X127355286Y-66845122D01*
X127521609Y-66443583D01*
X127567897Y-66210878D01*
X130548920Y-66210878D01*
X130548920Y-66409122D01*
X130587595Y-66603556D01*
X130663459Y-66786709D01*
X130773598Y-66951543D01*
X130913777Y-67091722D01*
X131078611Y-67201861D01*
X131261764Y-67277725D01*
X131456198Y-67316400D01*
X131654442Y-67316400D01*
X131848876Y-67277725D01*
X132032029Y-67201861D01*
X132196863Y-67091722D01*
X132337042Y-66951543D01*
X132447181Y-66786709D01*
X132523045Y-66603556D01*
X132561720Y-66409122D01*
X132561720Y-66210878D01*
X152238920Y-66210878D01*
X152238920Y-66409122D01*
X152277595Y-66603556D01*
X152353459Y-66786709D01*
X152463598Y-66951543D01*
X152603777Y-67091722D01*
X152768611Y-67201861D01*
X152951764Y-67277725D01*
X153146198Y-67316400D01*
X153344442Y-67316400D01*
X153538876Y-67277725D01*
X153722029Y-67201861D01*
X153886863Y-67091722D01*
X154027042Y-66951543D01*
X154137181Y-66786709D01*
X154213045Y-66603556D01*
X154251720Y-66409122D01*
X154251720Y-66210878D01*
X154213045Y-66016444D01*
X154137181Y-65833291D01*
X154027042Y-65668457D01*
X153941274Y-65582689D01*
X157193600Y-65582689D01*
X157193600Y-66017311D01*
X157278391Y-66443583D01*
X157444714Y-66845122D01*
X157686177Y-67206498D01*
X157993502Y-67513823D01*
X158354878Y-67755286D01*
X158756417Y-67921609D01*
X159182689Y-68006400D01*
X159617311Y-68006400D01*
X160043583Y-67921609D01*
X160445122Y-67755286D01*
X160806498Y-67513823D01*
X161113823Y-67206498D01*
X161355286Y-66845122D01*
X161521609Y-66443583D01*
X161606400Y-66017311D01*
X161606400Y-65582689D01*
X161521609Y-65156417D01*
X161355286Y-64754878D01*
X161113823Y-64393502D01*
X160806498Y-64086177D01*
X160445122Y-63844714D01*
X160043583Y-63678391D01*
X159617311Y-63593600D01*
X159182689Y-63593600D01*
X158756417Y-63678391D01*
X158354878Y-63844714D01*
X157993502Y-64086177D01*
X157686177Y-64393502D01*
X157444714Y-64754878D01*
X157278391Y-65156417D01*
X157193600Y-65582689D01*
X153941274Y-65582689D01*
X153886863Y-65528278D01*
X153722029Y-65418139D01*
X153538876Y-65342275D01*
X153344442Y-65303600D01*
X153146198Y-65303600D01*
X152951764Y-65342275D01*
X152768611Y-65418139D01*
X152603777Y-65528278D01*
X152463598Y-65668457D01*
X152353459Y-65833291D01*
X152277595Y-66016444D01*
X152238920Y-66210878D01*
X132561720Y-66210878D01*
X132523045Y-66016444D01*
X132447181Y-65833291D01*
X132337042Y-65668457D01*
X132196863Y-65528278D01*
X132032029Y-65418139D01*
X131848876Y-65342275D01*
X131654442Y-65303600D01*
X131456198Y-65303600D01*
X131261764Y-65342275D01*
X131078611Y-65418139D01*
X130913777Y-65528278D01*
X130773598Y-65668457D01*
X130663459Y-65833291D01*
X130587595Y-66016444D01*
X130548920Y-66210878D01*
X127567897Y-66210878D01*
X127606400Y-66017311D01*
X127606400Y-65582689D01*
X127521609Y-65156417D01*
X127355286Y-64754878D01*
X127113823Y-64393502D01*
X126806498Y-64086177D01*
X126445122Y-63844714D01*
X126043583Y-63678391D01*
X125617311Y-63593600D01*
X125182689Y-63593600D01*
X124756417Y-63678391D01*
X124354878Y-63844714D01*
X123993502Y-64086177D01*
X123686177Y-64393502D01*
X123444714Y-64754878D01*
X123278391Y-65156417D01*
X123193600Y-65582689D01*
X120537460Y-65582689D01*
X120537460Y-62243556D01*
X134008330Y-62243556D01*
X134008330Y-62373644D01*
X134033709Y-62501231D01*
X134083491Y-62621417D01*
X134138872Y-62704300D01*
X134083491Y-62787183D01*
X134033709Y-62907369D01*
X134008330Y-63034956D01*
X134008330Y-63165044D01*
X134033709Y-63292631D01*
X134083491Y-63412817D01*
X134155764Y-63520980D01*
X134247750Y-63612966D01*
X134355913Y-63685239D01*
X134476099Y-63735021D01*
X134603686Y-63760400D01*
X134733774Y-63760400D01*
X134861361Y-63735021D01*
X134889523Y-63723356D01*
X135911730Y-63723356D01*
X135911730Y-63853444D01*
X135937109Y-63981031D01*
X135986891Y-64101217D01*
X136059164Y-64209380D01*
X136151150Y-64301366D01*
X136259313Y-64373639D01*
X136379499Y-64423421D01*
X136507086Y-64448800D01*
X136637174Y-64448800D01*
X136764761Y-64423421D01*
X136884947Y-64373639D01*
X136902330Y-64362024D01*
X136919713Y-64373639D01*
X137039899Y-64423421D01*
X137167486Y-64448800D01*
X137297574Y-64448800D01*
X137425161Y-64423421D01*
X137545347Y-64373639D01*
X137652325Y-64302158D01*
X137759303Y-64373639D01*
X137879489Y-64423421D01*
X138007076Y-64448800D01*
X138137164Y-64448800D01*
X138264751Y-64423421D01*
X138384937Y-64373639D01*
X138402320Y-64362024D01*
X138419703Y-64373639D01*
X138539889Y-64423421D01*
X138667476Y-64448800D01*
X138797564Y-64448800D01*
X138925151Y-64423421D01*
X139045337Y-64373639D01*
X139153500Y-64301366D01*
X139154420Y-64300446D01*
X139155340Y-64301366D01*
X139263503Y-64373639D01*
X139383689Y-64423421D01*
X139511276Y-64448800D01*
X139641364Y-64448800D01*
X139768951Y-64423421D01*
X139889137Y-64373639D01*
X139906520Y-64362024D01*
X139923903Y-64373639D01*
X140044089Y-64423421D01*
X140171676Y-64448800D01*
X140301764Y-64448800D01*
X140429351Y-64423421D01*
X140549537Y-64373639D01*
X140655820Y-64302622D01*
X140762103Y-64373639D01*
X140882289Y-64423421D01*
X141009876Y-64448800D01*
X141139964Y-64448800D01*
X141267551Y-64423421D01*
X141387737Y-64373639D01*
X141405120Y-64362024D01*
X141422503Y-64373639D01*
X141542689Y-64423421D01*
X141670276Y-64448800D01*
X141800364Y-64448800D01*
X141927951Y-64423421D01*
X142048137Y-64373639D01*
X142154420Y-64302622D01*
X142260703Y-64373639D01*
X142380889Y-64423421D01*
X142508476Y-64448800D01*
X142638564Y-64448800D01*
X142766151Y-64423421D01*
X142886337Y-64373639D01*
X142903720Y-64362024D01*
X142921103Y-64373639D01*
X143041289Y-64423421D01*
X143168876Y-64448800D01*
X143298964Y-64448800D01*
X143426551Y-64423421D01*
X143546737Y-64373639D01*
X143653020Y-64302622D01*
X143759303Y-64373639D01*
X143879489Y-64423421D01*
X144007076Y-64448800D01*
X144137164Y-64448800D01*
X144264751Y-64423421D01*
X144384937Y-64373639D01*
X144402320Y-64362024D01*
X144419703Y-64373639D01*
X144539889Y-64423421D01*
X144667476Y-64448800D01*
X144797564Y-64448800D01*
X144925151Y-64423421D01*
X145045337Y-64373639D01*
X145151620Y-64302622D01*
X145257903Y-64373639D01*
X145378089Y-64423421D01*
X145505676Y-64448800D01*
X145635764Y-64448800D01*
X145763351Y-64423421D01*
X145883537Y-64373639D01*
X145900920Y-64362024D01*
X145918303Y-64373639D01*
X146038489Y-64423421D01*
X146166076Y-64448800D01*
X146296164Y-64448800D01*
X146423751Y-64423421D01*
X146543937Y-64373639D01*
X146650220Y-64302622D01*
X146756503Y-64373639D01*
X146876689Y-64423421D01*
X147004276Y-64448800D01*
X147134364Y-64448800D01*
X147261951Y-64423421D01*
X147382137Y-64373639D01*
X147399520Y-64362024D01*
X147416903Y-64373639D01*
X147537089Y-64423421D01*
X147664676Y-64448800D01*
X147794764Y-64448800D01*
X147922351Y-64423421D01*
X148042537Y-64373639D01*
X148150700Y-64301366D01*
X148190020Y-64262046D01*
X148229340Y-64301366D01*
X148337503Y-64373639D01*
X148457689Y-64423421D01*
X148585276Y-64448800D01*
X148715364Y-64448800D01*
X148842951Y-64423421D01*
X148963137Y-64373639D01*
X149071300Y-64301366D01*
X149163286Y-64209380D01*
X149235559Y-64101217D01*
X149285341Y-63981031D01*
X149310720Y-63853444D01*
X149310720Y-63723356D01*
X149285341Y-63595769D01*
X149284915Y-63594741D01*
X149314540Y-63624366D01*
X149422703Y-63696639D01*
X149542889Y-63746421D01*
X149670476Y-63771800D01*
X149800564Y-63771800D01*
X149928151Y-63746421D01*
X150048337Y-63696639D01*
X150156500Y-63624366D01*
X150248486Y-63532380D01*
X150320759Y-63424217D01*
X150370541Y-63304031D01*
X150395920Y-63176444D01*
X150395920Y-63046356D01*
X150370541Y-62918769D01*
X150320759Y-62798583D01*
X150283686Y-62743100D01*
X150320759Y-62687617D01*
X150370541Y-62567431D01*
X150395920Y-62439844D01*
X150395920Y-62309756D01*
X150370541Y-62182169D01*
X150320759Y-62061983D01*
X150248486Y-61953820D01*
X150156500Y-61861834D01*
X150048337Y-61789561D01*
X149928151Y-61739779D01*
X149800564Y-61714400D01*
X149670476Y-61714400D01*
X149542889Y-61739779D01*
X149422703Y-61789561D01*
X149314540Y-61861834D01*
X149222554Y-61953820D01*
X149150281Y-62061983D01*
X149100499Y-62182169D01*
X149075120Y-62309756D01*
X149075120Y-62439844D01*
X149100499Y-62567431D01*
X149150281Y-62687617D01*
X149187354Y-62743100D01*
X149150281Y-62798583D01*
X149100499Y-62918769D01*
X149075120Y-63046356D01*
X149075120Y-63176444D01*
X149100499Y-63304031D01*
X149100925Y-63305059D01*
X149071300Y-63275434D01*
X148963137Y-63203161D01*
X148842951Y-63153379D01*
X148715364Y-63128000D01*
X148585276Y-63128000D01*
X148457689Y-63153379D01*
X148337503Y-63203161D01*
X148229340Y-63275434D01*
X148190020Y-63314754D01*
X148150700Y-63275434D01*
X148042537Y-63203161D01*
X147922351Y-63153379D01*
X147794764Y-63128000D01*
X147664676Y-63128000D01*
X147537089Y-63153379D01*
X147416903Y-63203161D01*
X147399520Y-63214776D01*
X147382137Y-63203161D01*
X147261951Y-63153379D01*
X147134364Y-63128000D01*
X147004276Y-63128000D01*
X146876689Y-63153379D01*
X146756503Y-63203161D01*
X146650220Y-63274178D01*
X146543937Y-63203161D01*
X146423751Y-63153379D01*
X146296164Y-63128000D01*
X146166076Y-63128000D01*
X146038489Y-63153379D01*
X145918303Y-63203161D01*
X145900920Y-63214776D01*
X145883537Y-63203161D01*
X145763351Y-63153379D01*
X145635764Y-63128000D01*
X145505676Y-63128000D01*
X145378089Y-63153379D01*
X145257903Y-63203161D01*
X145151620Y-63274178D01*
X145045337Y-63203161D01*
X144925151Y-63153379D01*
X144797564Y-63128000D01*
X144667476Y-63128000D01*
X144539889Y-63153379D01*
X144419703Y-63203161D01*
X144402320Y-63214776D01*
X144384937Y-63203161D01*
X144264751Y-63153379D01*
X144137164Y-63128000D01*
X144007076Y-63128000D01*
X143879489Y-63153379D01*
X143759303Y-63203161D01*
X143653020Y-63274178D01*
X143546737Y-63203161D01*
X143426551Y-63153379D01*
X143298964Y-63128000D01*
X143168876Y-63128000D01*
X143041289Y-63153379D01*
X142921103Y-63203161D01*
X142903720Y-63214776D01*
X142886337Y-63203161D01*
X142766151Y-63153379D01*
X142638564Y-63128000D01*
X142508476Y-63128000D01*
X142380889Y-63153379D01*
X142260703Y-63203161D01*
X142154420Y-63274178D01*
X142048137Y-63203161D01*
X141927951Y-63153379D01*
X141800364Y-63128000D01*
X141670276Y-63128000D01*
X141542689Y-63153379D01*
X141422503Y-63203161D01*
X141405120Y-63214776D01*
X141387737Y-63203161D01*
X141267551Y-63153379D01*
X141139964Y-63128000D01*
X141009876Y-63128000D01*
X140882289Y-63153379D01*
X140762103Y-63203161D01*
X140655820Y-63274178D01*
X140549537Y-63203161D01*
X140429351Y-63153379D01*
X140301764Y-63128000D01*
X140171676Y-63128000D01*
X140044089Y-63153379D01*
X139923903Y-63203161D01*
X139906520Y-63214776D01*
X139889137Y-63203161D01*
X139768951Y-63153379D01*
X139641364Y-63128000D01*
X139511276Y-63128000D01*
X139383689Y-63153379D01*
X139263503Y-63203161D01*
X139155340Y-63275434D01*
X139154420Y-63276354D01*
X139153500Y-63275434D01*
X139045337Y-63203161D01*
X138925151Y-63153379D01*
X138797564Y-63128000D01*
X138667476Y-63128000D01*
X138539889Y-63153379D01*
X138419703Y-63203161D01*
X138402320Y-63214776D01*
X138384937Y-63203161D01*
X138264751Y-63153379D01*
X138137164Y-63128000D01*
X138007076Y-63128000D01*
X137879489Y-63153379D01*
X137759303Y-63203161D01*
X137652325Y-63274642D01*
X137545347Y-63203161D01*
X137425161Y-63153379D01*
X137297574Y-63128000D01*
X137167486Y-63128000D01*
X137039899Y-63153379D01*
X136919713Y-63203161D01*
X136902330Y-63214776D01*
X136884947Y-63203161D01*
X136764761Y-63153379D01*
X136637174Y-63128000D01*
X136507086Y-63128000D01*
X136379499Y-63153379D01*
X136259313Y-63203161D01*
X136151150Y-63275434D01*
X136059164Y-63367420D01*
X135986891Y-63475583D01*
X135937109Y-63595769D01*
X135911730Y-63723356D01*
X134889523Y-63723356D01*
X134981547Y-63685239D01*
X135089710Y-63612966D01*
X135181696Y-63520980D01*
X135253969Y-63412817D01*
X135303751Y-63292631D01*
X135329130Y-63165044D01*
X135329130Y-63034956D01*
X135303751Y-62907369D01*
X135253969Y-62787183D01*
X135198588Y-62704300D01*
X135253969Y-62621417D01*
X135303751Y-62501231D01*
X135329130Y-62373644D01*
X135329130Y-62243556D01*
X135303751Y-62115969D01*
X135253969Y-61995783D01*
X135181696Y-61887620D01*
X135089710Y-61795634D01*
X134981547Y-61723361D01*
X134861361Y-61673579D01*
X134733774Y-61648200D01*
X134603686Y-61648200D01*
X134476099Y-61673579D01*
X134355913Y-61723361D01*
X134247750Y-61795634D01*
X134155764Y-61887620D01*
X134083491Y-61995783D01*
X134033709Y-62115969D01*
X134008330Y-62243556D01*
X120537460Y-62243556D01*
X120537460Y-59437470D01*
X164262540Y-59437470D01*
X164262540Y-128162540D01*
%TA.AperFunction,Conductor*%
D14*
G36*
X164262540Y-128162540D02*
G01*
X120537460Y-128162540D01*
X120537460Y-123582689D01*
X122693600Y-123582689D01*
X122693600Y-124017311D01*
X122778391Y-124443583D01*
X122944714Y-124845122D01*
X123186177Y-125206498D01*
X123493502Y-125513823D01*
X123854878Y-125755286D01*
X124256417Y-125921609D01*
X124682689Y-126006400D01*
X125117311Y-126006400D01*
X125543583Y-125921609D01*
X125945122Y-125755286D01*
X126306498Y-125513823D01*
X126613823Y-125206498D01*
X126855286Y-124845122D01*
X127021609Y-124443583D01*
X127106400Y-124017311D01*
X127106400Y-123582689D01*
X157693600Y-123582689D01*
X157693600Y-124017311D01*
X157778391Y-124443583D01*
X157944714Y-124845122D01*
X158186177Y-125206498D01*
X158493502Y-125513823D01*
X158854878Y-125755286D01*
X159256417Y-125921609D01*
X159682689Y-126006400D01*
X160117311Y-126006400D01*
X160543583Y-125921609D01*
X160945122Y-125755286D01*
X161306498Y-125513823D01*
X161613823Y-125206498D01*
X161855286Y-124845122D01*
X162021609Y-124443583D01*
X162106400Y-124017311D01*
X162106400Y-123582689D01*
X162021609Y-123156417D01*
X161855286Y-122754878D01*
X161613823Y-122393502D01*
X161306498Y-122086177D01*
X160945122Y-121844714D01*
X160543583Y-121678391D01*
X160117311Y-121593600D01*
X159682689Y-121593600D01*
X159256417Y-121678391D01*
X158854878Y-121844714D01*
X158493502Y-122086177D01*
X158186177Y-122393502D01*
X157944714Y-122754878D01*
X157778391Y-123156417D01*
X157693600Y-123582689D01*
X127106400Y-123582689D01*
X127021609Y-123156417D01*
X126855286Y-122754878D01*
X126613823Y-122393502D01*
X126306498Y-122086177D01*
X125945122Y-121844714D01*
X125543583Y-121678391D01*
X125117311Y-121593600D01*
X124682689Y-121593600D01*
X124256417Y-121678391D01*
X123854878Y-121844714D01*
X123493502Y-122086177D01*
X123186177Y-122393502D01*
X122944714Y-122754878D01*
X122778391Y-123156417D01*
X122693600Y-123582689D01*
X120537460Y-123582689D01*
X120537460Y-85284956D01*
X120789602Y-85284956D01*
X120789602Y-85415044D01*
X120814981Y-85542631D01*
X120864763Y-85662817D01*
X120937036Y-85770980D01*
X121029022Y-85862966D01*
X121137185Y-85935239D01*
X121257371Y-85985021D01*
X121384958Y-86010400D01*
X121515046Y-86010400D01*
X121571771Y-85999116D01*
X121447548Y-86185029D01*
X121327401Y-86475091D01*
X121266150Y-86783019D01*
X121266150Y-87096981D01*
X121327401Y-87404909D01*
X121447548Y-87694971D01*
X121621976Y-87956020D01*
X121843980Y-88178024D01*
X122105029Y-88352452D01*
X122395091Y-88472599D01*
X122703019Y-88533850D01*
X123016981Y-88533850D01*
X123324909Y-88472599D01*
X123614971Y-88352452D01*
X123854931Y-88192115D01*
X123864979Y-88242631D01*
X123914761Y-88362817D01*
X123987034Y-88470980D01*
X124079020Y-88562966D01*
X124187183Y-88635239D01*
X124307369Y-88685021D01*
X124434956Y-88710400D01*
X124565044Y-88710400D01*
X124692631Y-88685021D01*
X124812817Y-88635239D01*
X124920980Y-88562966D01*
X125012966Y-88470980D01*
X125085239Y-88362817D01*
X125100000Y-88327180D01*
X125114761Y-88362817D01*
X125187034Y-88470980D01*
X125279020Y-88562966D01*
X125387183Y-88635239D01*
X125507369Y-88685021D01*
X125634956Y-88710400D01*
X125765044Y-88710400D01*
X125892631Y-88685021D01*
X126012817Y-88635239D01*
X126120980Y-88562966D01*
X126212966Y-88470980D01*
X126285239Y-88362817D01*
X126335021Y-88242631D01*
X126360400Y-88115044D01*
X126360400Y-87984956D01*
X126335021Y-87857369D01*
X126285239Y-87737183D01*
X126212966Y-87629020D01*
X126120980Y-87537034D01*
X126095313Y-87519883D01*
X126100396Y-87514800D01*
X126199076Y-87367115D01*
X126267048Y-87203016D01*
X126301700Y-87028810D01*
X126301700Y-86851190D01*
X126267048Y-86676984D01*
X126199076Y-86512885D01*
X126100396Y-86365200D01*
X125974800Y-86239604D01*
X125827115Y-86140924D01*
X125663016Y-86072952D01*
X125488810Y-86038300D01*
X125311190Y-86038300D01*
X125136984Y-86072952D01*
X124972885Y-86140924D01*
X124825200Y-86239604D01*
X124699604Y-86365200D01*
X124600924Y-86512885D01*
X124532952Y-86676984D01*
X124498300Y-86851190D01*
X124498300Y-87028810D01*
X124532952Y-87203016D01*
X124600924Y-87367115D01*
X124623751Y-87401278D01*
X124565044Y-87389600D01*
X124434956Y-87389600D01*
X124394025Y-87397742D01*
X124453850Y-87096981D01*
X124453850Y-86783019D01*
X124392599Y-86475091D01*
X124272452Y-86185029D01*
X124098024Y-85923980D01*
X123876020Y-85701976D01*
X123614971Y-85527548D01*
X123324909Y-85407401D01*
X123048904Y-85352500D01*
X123324909Y-85297599D01*
X123614971Y-85177452D01*
X123876020Y-85003024D01*
X124098024Y-84781020D01*
X124272452Y-84519971D01*
X124392599Y-84229909D01*
X124453850Y-83921981D01*
X124453850Y-83608019D01*
X124392599Y-83300091D01*
X124272452Y-83010029D01*
X124098024Y-82748980D01*
X124044349Y-82695305D01*
X124120984Y-82727048D01*
X124295190Y-82761700D01*
X124472810Y-82761700D01*
X124647016Y-82727048D01*
X124811115Y-82659076D01*
X124958800Y-82560396D01*
X125084396Y-82434800D01*
X125183076Y-82287115D01*
X125251048Y-82123016D01*
X125285700Y-81948810D01*
X125285700Y-81771190D01*
X125514300Y-81771190D01*
X125514300Y-81948810D01*
X125548952Y-82123016D01*
X125616924Y-82287115D01*
X125715604Y-82434800D01*
X125841200Y-82560396D01*
X125988885Y-82659076D01*
X126152984Y-82727048D01*
X126327190Y-82761700D01*
X126504810Y-82761700D01*
X126679016Y-82727048D01*
X126755651Y-82695305D01*
X126701976Y-82748980D01*
X126527548Y-83010029D01*
X126407401Y-83300091D01*
X126346150Y-83608019D01*
X126346150Y-83921981D01*
X126407401Y-84229909D01*
X126527548Y-84519971D01*
X126701976Y-84781020D01*
X126923980Y-85003024D01*
X127185029Y-85177452D01*
X127475091Y-85297599D01*
X127751096Y-85352500D01*
X127475091Y-85407401D01*
X127185029Y-85527548D01*
X126923980Y-85701976D01*
X126701976Y-85923980D01*
X126527548Y-86185029D01*
X126407401Y-86475091D01*
X126346150Y-86783019D01*
X126346150Y-87096981D01*
X126407401Y-87404909D01*
X126527548Y-87694971D01*
X126701976Y-87956020D01*
X126923980Y-88178024D01*
X127185029Y-88352452D01*
X127475091Y-88472599D01*
X127783019Y-88533850D01*
X128096981Y-88533850D01*
X128404909Y-88472599D01*
X128694971Y-88352452D01*
X128956020Y-88178024D01*
X129178024Y-87956020D01*
X129352452Y-87694971D01*
X129472599Y-87404909D01*
X129533850Y-87096981D01*
X129533850Y-86783019D01*
X129472599Y-86475091D01*
X129453760Y-86429609D01*
X129512813Y-86405149D01*
X129620976Y-86332876D01*
X129712962Y-86240890D01*
X129785235Y-86132727D01*
X129835017Y-86012541D01*
X129860396Y-85884954D01*
X129860396Y-85754866D01*
X129835017Y-85627279D01*
X129785235Y-85507093D01*
X129712962Y-85398930D01*
X129620976Y-85306944D01*
X129512813Y-85234671D01*
X129392627Y-85184889D01*
X129265040Y-85159510D01*
X129134952Y-85159510D01*
X129007365Y-85184889D01*
X128887179Y-85234671D01*
X128779016Y-85306944D01*
X128687030Y-85398930D01*
X128621440Y-85497091D01*
X128404909Y-85407401D01*
X128128904Y-85352500D01*
X128404909Y-85297599D01*
X128694971Y-85177452D01*
X128956020Y-85003024D01*
X129178024Y-84781020D01*
X129352452Y-84519971D01*
X129472599Y-84229909D01*
X129533850Y-83921981D01*
X129533850Y-83608019D01*
X129472599Y-83300091D01*
X129352452Y-83010029D01*
X129178024Y-82748980D01*
X128956020Y-82526976D01*
X128694971Y-82352548D01*
X128404909Y-82232401D01*
X128167406Y-82185158D01*
X128185021Y-82142631D01*
X128210400Y-82015044D01*
X128210400Y-81884956D01*
X128185021Y-81757369D01*
X128135239Y-81637183D01*
X128062966Y-81529020D01*
X127970980Y-81437034D01*
X127862817Y-81364761D01*
X127742631Y-81314979D01*
X127615044Y-81289600D01*
X127484956Y-81289600D01*
X127357369Y-81314979D01*
X127237183Y-81364761D01*
X127190430Y-81396000D01*
X127116396Y-81285200D01*
X126990800Y-81159604D01*
X126843115Y-81060924D01*
X126679016Y-80992952D01*
X126504810Y-80958300D01*
X126327190Y-80958300D01*
X126152984Y-80992952D01*
X125988885Y-81060924D01*
X125841200Y-81159604D01*
X125715604Y-81285200D01*
X125616924Y-81432885D01*
X125548952Y-81596984D01*
X125514300Y-81771190D01*
X125285700Y-81771190D01*
X125251048Y-81596984D01*
X125183076Y-81432885D01*
X125084396Y-81285200D01*
X124958800Y-81159604D01*
X124811115Y-81060924D01*
X124647016Y-80992952D01*
X124472810Y-80958300D01*
X124295190Y-80958300D01*
X124120984Y-80992952D01*
X123956885Y-81060924D01*
X123809200Y-81159604D01*
X123683604Y-81285200D01*
X123584924Y-81432885D01*
X123516952Y-81596984D01*
X123482300Y-81771190D01*
X123482300Y-81948810D01*
X123516952Y-82123016D01*
X123584924Y-82287115D01*
X123639674Y-82369054D01*
X123614971Y-82352548D01*
X123324909Y-82232401D01*
X123016981Y-82171150D01*
X122703019Y-82171150D01*
X122395091Y-82232401D01*
X122105029Y-82352548D01*
X121843980Y-82526976D01*
X121621976Y-82748980D01*
X121447548Y-83010029D01*
X121327401Y-83300091D01*
X121266150Y-83608019D01*
X121266150Y-83921981D01*
X121327401Y-84229909D01*
X121447548Y-84519971D01*
X121567918Y-84700117D01*
X121515046Y-84689600D01*
X121384958Y-84689600D01*
X121257371Y-84714979D01*
X121137185Y-84764761D01*
X121029022Y-84837034D01*
X120937036Y-84929020D01*
X120864763Y-85037183D01*
X120814981Y-85157369D01*
X120789602Y-85284956D01*
X120537460Y-85284956D01*
X120537460Y-80234956D01*
X132439600Y-80234956D01*
X132439600Y-80365044D01*
X132464979Y-80492631D01*
X132514761Y-80612817D01*
X132587034Y-80720980D01*
X132679020Y-80812966D01*
X132787183Y-80885239D01*
X132907369Y-80935021D01*
X133034956Y-80960400D01*
X133165044Y-80960400D01*
X133292631Y-80935021D01*
X133412817Y-80885239D01*
X133520980Y-80812966D01*
X133612966Y-80720980D01*
X133685239Y-80612817D01*
X133735021Y-80492631D01*
X133760400Y-80365044D01*
X133760400Y-80234956D01*
X133735021Y-80107369D01*
X133726127Y-80085898D01*
X133833780Y-80013966D01*
X133925766Y-79921980D01*
X133998039Y-79813817D01*
X134047821Y-79693631D01*
X134073200Y-79566044D01*
X134073200Y-79435956D01*
X134047821Y-79308369D01*
X133998039Y-79188183D01*
X133925766Y-79080020D01*
X133833780Y-78988034D01*
X133725617Y-78915761D01*
X133605431Y-78865979D01*
X133477844Y-78840600D01*
X133347756Y-78840600D01*
X133220169Y-78865979D01*
X133099983Y-78915761D01*
X132991820Y-78988034D01*
X132899834Y-79080020D01*
X132827561Y-79188183D01*
X132777779Y-79308369D01*
X132752400Y-79435956D01*
X132752400Y-79566044D01*
X132777779Y-79693631D01*
X132786673Y-79715102D01*
X132679020Y-79787034D01*
X132587034Y-79879020D01*
X132514761Y-79987183D01*
X132464979Y-80107369D01*
X132439600Y-80234956D01*
X120537460Y-80234956D01*
X120537460Y-75582689D01*
X122693600Y-75582689D01*
X122693600Y-76017311D01*
X122778391Y-76443583D01*
X122944714Y-76845122D01*
X123186177Y-77206498D01*
X123493502Y-77513823D01*
X123854878Y-77755286D01*
X124256417Y-77921609D01*
X124682689Y-78006400D01*
X125117311Y-78006400D01*
X125543583Y-77921609D01*
X125945122Y-77755286D01*
X126306498Y-77513823D01*
X126613823Y-77206498D01*
X126855286Y-76845122D01*
X127021609Y-76443583D01*
X127057935Y-76260956D01*
X129145600Y-76260956D01*
X129145600Y-76391044D01*
X129170979Y-76518631D01*
X129220761Y-76638817D01*
X129293034Y-76746980D01*
X129385020Y-76838966D01*
X129493183Y-76911239D01*
X129613369Y-76961021D01*
X129740956Y-76986400D01*
X129871044Y-76986400D01*
X129998631Y-76961021D01*
X130118817Y-76911239D01*
X130226980Y-76838966D01*
X130318966Y-76746980D01*
X130391239Y-76638817D01*
X130441021Y-76518631D01*
X130466400Y-76391044D01*
X130466400Y-76260956D01*
X130441021Y-76133369D01*
X130391239Y-76013183D01*
X130318966Y-75905020D01*
X130293902Y-75879956D01*
X134860600Y-75879956D01*
X134860600Y-76010044D01*
X134885979Y-76137631D01*
X134935761Y-76257817D01*
X135008034Y-76365980D01*
X135100020Y-76457966D01*
X135208183Y-76530239D01*
X135328369Y-76580021D01*
X135455956Y-76605400D01*
X135586044Y-76605400D01*
X135713631Y-76580021D01*
X135833817Y-76530239D01*
X135941980Y-76457966D01*
X136033966Y-76365980D01*
X136106239Y-76257817D01*
X136156021Y-76137631D01*
X136181400Y-76010044D01*
X136181400Y-75879956D01*
X136156021Y-75752369D01*
X136106239Y-75632183D01*
X136073168Y-75582689D01*
X157693600Y-75582689D01*
X157693600Y-76017311D01*
X157778391Y-76443583D01*
X157944714Y-76845122D01*
X158186177Y-77206498D01*
X158493502Y-77513823D01*
X158854878Y-77755286D01*
X159256417Y-77921609D01*
X159682689Y-78006400D01*
X160117311Y-78006400D01*
X160543583Y-77921609D01*
X160945122Y-77755286D01*
X161306498Y-77513823D01*
X161613823Y-77206498D01*
X161855286Y-76845122D01*
X162021609Y-76443583D01*
X162106400Y-76017311D01*
X162106400Y-75582689D01*
X162021609Y-75156417D01*
X161855286Y-74754878D01*
X161613823Y-74393502D01*
X161306498Y-74086177D01*
X160945122Y-73844714D01*
X160543583Y-73678391D01*
X160117311Y-73593600D01*
X159682689Y-73593600D01*
X159256417Y-73678391D01*
X158854878Y-73844714D01*
X158493502Y-74086177D01*
X158186177Y-74393502D01*
X157944714Y-74754878D01*
X157778391Y-75156417D01*
X157693600Y-75582689D01*
X136073168Y-75582689D01*
X136033966Y-75524020D01*
X135941980Y-75432034D01*
X135833817Y-75359761D01*
X135713631Y-75309979D01*
X135586044Y-75284600D01*
X135455956Y-75284600D01*
X135328369Y-75309979D01*
X135208183Y-75359761D01*
X135100020Y-75432034D01*
X135008034Y-75524020D01*
X134935761Y-75632183D01*
X134885979Y-75752369D01*
X134860600Y-75879956D01*
X130293902Y-75879956D01*
X130226980Y-75813034D01*
X130118817Y-75740761D01*
X129998631Y-75690979D01*
X129871044Y-75665600D01*
X129740956Y-75665600D01*
X129613369Y-75690979D01*
X129493183Y-75740761D01*
X129385020Y-75813034D01*
X129293034Y-75905020D01*
X129220761Y-76013183D01*
X129170979Y-76133369D01*
X129145600Y-76260956D01*
X127057935Y-76260956D01*
X127106400Y-76017311D01*
X127106400Y-75582689D01*
X127021609Y-75156417D01*
X126855286Y-74754878D01*
X126613823Y-74393502D01*
X126525477Y-74305156D01*
X129145600Y-74305156D01*
X129145600Y-74435244D01*
X129170979Y-74562831D01*
X129220761Y-74683017D01*
X129293034Y-74791180D01*
X129385020Y-74883166D01*
X129493183Y-74955439D01*
X129613369Y-75005221D01*
X129740956Y-75030600D01*
X129871044Y-75030600D01*
X129998631Y-75005221D01*
X130118817Y-74955439D01*
X130226980Y-74883166D01*
X130318966Y-74791180D01*
X130391239Y-74683017D01*
X130441021Y-74562831D01*
X130466400Y-74435244D01*
X130466400Y-74305156D01*
X130441021Y-74177569D01*
X130391239Y-74057383D01*
X130318966Y-73949220D01*
X130226980Y-73857234D01*
X130118817Y-73784961D01*
X129998631Y-73735179D01*
X129871044Y-73709800D01*
X129740956Y-73709800D01*
X129613369Y-73735179D01*
X129493183Y-73784961D01*
X129385020Y-73857234D01*
X129293034Y-73949220D01*
X129220761Y-74057383D01*
X129170979Y-74177569D01*
X129145600Y-74305156D01*
X126525477Y-74305156D01*
X126306498Y-74086177D01*
X125945122Y-73844714D01*
X125543583Y-73678391D01*
X125117311Y-73593600D01*
X124682689Y-73593600D01*
X124256417Y-73678391D01*
X123854878Y-73844714D01*
X123493502Y-74086177D01*
X123186177Y-74393502D01*
X122944714Y-74754878D01*
X122778391Y-75156417D01*
X122693600Y-75582689D01*
X120537460Y-75582689D01*
X120537460Y-72501756D01*
X129247200Y-72501756D01*
X129247200Y-72631844D01*
X129272579Y-72759431D01*
X129322361Y-72879617D01*
X129394634Y-72987780D01*
X129486620Y-73079766D01*
X129594783Y-73152039D01*
X129714969Y-73201821D01*
X129842556Y-73227200D01*
X129972644Y-73227200D01*
X130100231Y-73201821D01*
X130220417Y-73152039D01*
X130328580Y-73079766D01*
X130420566Y-72987780D01*
X130492839Y-72879617D01*
X130542621Y-72759431D01*
X130568000Y-72631844D01*
X130568000Y-72501756D01*
X130542621Y-72374169D01*
X130492839Y-72253983D01*
X130420566Y-72145820D01*
X130328580Y-72053834D01*
X130220417Y-71981561D01*
X130100231Y-71931779D01*
X129972644Y-71906400D01*
X129842556Y-71906400D01*
X129714969Y-71931779D01*
X129594783Y-71981561D01*
X129486620Y-72053834D01*
X129394634Y-72145820D01*
X129322361Y-72253983D01*
X129272579Y-72374169D01*
X129247200Y-72501756D01*
X120537460Y-72501756D01*
X120537460Y-70444356D01*
X133057200Y-70444356D01*
X133057200Y-70574444D01*
X133082579Y-70702031D01*
X133132361Y-70822217D01*
X133204634Y-70930380D01*
X133296620Y-71022366D01*
X133404783Y-71094639D01*
X133524969Y-71144421D01*
X133652556Y-71169800D01*
X133782644Y-71169800D01*
X133910231Y-71144421D01*
X134030417Y-71094639D01*
X134138580Y-71022366D01*
X134174800Y-70986146D01*
X134211020Y-71022366D01*
X134319183Y-71094639D01*
X134439369Y-71144421D01*
X134566956Y-71169800D01*
X134697044Y-71169800D01*
X134824631Y-71144421D01*
X134944817Y-71094639D01*
X135052980Y-71022366D01*
X135144966Y-70930380D01*
X135217239Y-70822217D01*
X135267021Y-70702031D01*
X135292400Y-70574444D01*
X135292400Y-70444356D01*
X135267021Y-70316769D01*
X135217239Y-70196583D01*
X135144966Y-70088420D01*
X135052980Y-69996434D01*
X134944817Y-69924161D01*
X134894589Y-69903356D01*
X135911730Y-69903356D01*
X135911730Y-70033444D01*
X135937109Y-70161031D01*
X135986891Y-70281217D01*
X136059164Y-70389380D01*
X136151150Y-70481366D01*
X136259313Y-70553639D01*
X136379499Y-70603421D01*
X136507086Y-70628800D01*
X136637174Y-70628800D01*
X136764761Y-70603421D01*
X136884947Y-70553639D01*
X136902330Y-70542024D01*
X136919713Y-70553639D01*
X137039899Y-70603421D01*
X137167486Y-70628800D01*
X137297574Y-70628800D01*
X137425161Y-70603421D01*
X137545347Y-70553639D01*
X137653510Y-70481366D01*
X137745496Y-70389380D01*
X137817769Y-70281217D01*
X137867551Y-70161031D01*
X137892930Y-70033444D01*
X137892930Y-69971756D01*
X138456920Y-69971756D01*
X138456920Y-70101844D01*
X138482299Y-70229431D01*
X138532081Y-70349617D01*
X138543696Y-70367000D01*
X138532081Y-70384383D01*
X138482299Y-70504569D01*
X138456920Y-70632156D01*
X138456920Y-70762244D01*
X138482299Y-70889831D01*
X138532081Y-71010017D01*
X138604354Y-71118180D01*
X138696340Y-71210166D01*
X138804503Y-71282439D01*
X138924689Y-71332221D01*
X139052276Y-71357600D01*
X139182364Y-71357600D01*
X139309951Y-71332221D01*
X139430137Y-71282439D01*
X139538300Y-71210166D01*
X139630286Y-71118180D01*
X139702559Y-71010017D01*
X139752341Y-70889831D01*
X139777720Y-70762244D01*
X139777720Y-70632156D01*
X139752341Y-70504569D01*
X139710501Y-70403556D01*
X140387320Y-70403556D01*
X140387320Y-70533644D01*
X140412699Y-70661231D01*
X140462481Y-70781417D01*
X140534754Y-70889580D01*
X140626740Y-70981566D01*
X140734903Y-71053839D01*
X140855089Y-71103621D01*
X140982676Y-71129000D01*
X141009244Y-71129000D01*
X140996920Y-71190956D01*
X140996920Y-71321044D01*
X141022299Y-71448631D01*
X141072081Y-71568817D01*
X141144354Y-71676980D01*
X141236340Y-71768966D01*
X141344503Y-71841239D01*
X141464689Y-71891021D01*
X141592276Y-71916400D01*
X141722364Y-71916400D01*
X141849951Y-71891021D01*
X141970137Y-71841239D01*
X142078300Y-71768966D01*
X142170286Y-71676980D01*
X142242559Y-71568817D01*
X142292341Y-71448631D01*
X142317720Y-71321044D01*
X142317720Y-71190956D01*
X142292341Y-71063369D01*
X142242559Y-70943183D01*
X142170286Y-70835020D01*
X142078300Y-70743034D01*
X141970137Y-70670761D01*
X141849951Y-70620979D01*
X141722364Y-70595600D01*
X141695796Y-70595600D01*
X141708120Y-70533644D01*
X141708120Y-70403556D01*
X141682741Y-70275969D01*
X141632959Y-70155783D01*
X141560686Y-70047620D01*
X141468700Y-69955634D01*
X141378788Y-69895556D01*
X141989920Y-69895556D01*
X141989920Y-70025644D01*
X142015299Y-70153231D01*
X142065081Y-70273417D01*
X142137354Y-70381580D01*
X142229340Y-70473566D01*
X142337503Y-70545839D01*
X142457689Y-70595621D01*
X142534390Y-70610878D01*
X142515299Y-70656969D01*
X142489920Y-70784556D01*
X142489920Y-70914644D01*
X142515299Y-71042231D01*
X142565081Y-71162417D01*
X142637354Y-71270580D01*
X142729340Y-71362566D01*
X142837503Y-71434839D01*
X142957689Y-71484621D01*
X143085276Y-71510000D01*
X143215364Y-71510000D01*
X143342951Y-71484621D01*
X143463137Y-71434839D01*
X143571300Y-71362566D01*
X143663286Y-71270580D01*
X143735559Y-71162417D01*
X143785341Y-71042231D01*
X143810720Y-70914644D01*
X143810720Y-70784556D01*
X143785341Y-70656969D01*
X143735559Y-70536783D01*
X143663286Y-70428620D01*
X143571300Y-70336634D01*
X143463137Y-70264361D01*
X143342951Y-70214579D01*
X143266250Y-70199322D01*
X143285341Y-70153231D01*
X143310720Y-70025644D01*
X143310720Y-69895556D01*
X143489920Y-69895556D01*
X143489920Y-70025644D01*
X143515299Y-70153231D01*
X143565081Y-70273417D01*
X143637354Y-70381580D01*
X143729340Y-70473566D01*
X143837503Y-70545839D01*
X143957689Y-70595621D01*
X144034390Y-70610878D01*
X144015299Y-70656969D01*
X143989920Y-70784556D01*
X143989920Y-70914644D01*
X144015299Y-71042231D01*
X144065081Y-71162417D01*
X144137354Y-71270580D01*
X144229340Y-71362566D01*
X144337503Y-71434839D01*
X144457689Y-71484621D01*
X144585276Y-71510000D01*
X144715364Y-71510000D01*
X144842951Y-71484621D01*
X144963137Y-71434839D01*
X145071300Y-71362566D01*
X145163286Y-71270580D01*
X145235559Y-71162417D01*
X145285341Y-71042231D01*
X145310720Y-70914644D01*
X145310720Y-70784556D01*
X145285341Y-70656969D01*
X145235559Y-70536783D01*
X145163286Y-70428620D01*
X145071300Y-70336634D01*
X144963137Y-70264361D01*
X144842951Y-70214579D01*
X144766250Y-70199322D01*
X144785341Y-70153231D01*
X144810720Y-70025644D01*
X144810720Y-69895556D01*
X144989930Y-69895556D01*
X144989930Y-70025644D01*
X145015309Y-70153231D01*
X145065091Y-70273417D01*
X145137364Y-70381580D01*
X145229350Y-70473566D01*
X145337513Y-70545839D01*
X145457699Y-70595621D01*
X145534391Y-70610876D01*
X145515299Y-70656969D01*
X145489920Y-70784556D01*
X145489920Y-70914644D01*
X145515299Y-71042231D01*
X145565081Y-71162417D01*
X145637354Y-71270580D01*
X145729340Y-71362566D01*
X145837503Y-71434839D01*
X145957689Y-71484621D01*
X146085276Y-71510000D01*
X146215364Y-71510000D01*
X146342951Y-71484621D01*
X146463137Y-71434839D01*
X146571300Y-71362566D01*
X146663286Y-71270580D01*
X146735559Y-71162417D01*
X146785341Y-71042231D01*
X146810720Y-70914644D01*
X146810720Y-70784556D01*
X146785341Y-70656969D01*
X146735559Y-70536783D01*
X146731049Y-70530034D01*
X146754703Y-70545839D01*
X146874889Y-70595621D01*
X147002476Y-70621000D01*
X147132564Y-70621000D01*
X147260151Y-70595621D01*
X147380337Y-70545839D01*
X147397720Y-70534224D01*
X147415103Y-70545839D01*
X147535289Y-70595621D01*
X147662876Y-70621000D01*
X147792964Y-70621000D01*
X147920551Y-70595621D01*
X148040737Y-70545839D01*
X148148900Y-70473566D01*
X148240886Y-70381580D01*
X148311298Y-70276203D01*
X148312099Y-70280231D01*
X148361881Y-70400417D01*
X148434154Y-70508580D01*
X148526140Y-70600566D01*
X148634303Y-70672839D01*
X148754489Y-70722621D01*
X148882076Y-70748000D01*
X149012164Y-70748000D01*
X149139751Y-70722621D01*
X149259937Y-70672839D01*
X149368100Y-70600566D01*
X149460086Y-70508580D01*
X149532359Y-70400417D01*
X149582141Y-70280231D01*
X149607520Y-70152644D01*
X149607520Y-70022556D01*
X149583396Y-69901278D01*
X149670476Y-69918600D01*
X149800564Y-69918600D01*
X149928151Y-69893221D01*
X150048337Y-69843439D01*
X150156500Y-69771166D01*
X150248486Y-69679180D01*
X150320759Y-69571017D01*
X150370541Y-69450831D01*
X150395920Y-69323244D01*
X150395920Y-69193156D01*
X150370541Y-69065569D01*
X150320759Y-68945383D01*
X150292172Y-68902600D01*
X150320759Y-68859817D01*
X150370541Y-68739631D01*
X150395920Y-68612044D01*
X150395920Y-68481956D01*
X150370541Y-68354369D01*
X150320759Y-68234183D01*
X150248486Y-68126020D01*
X150156500Y-68034034D01*
X150048337Y-67961761D01*
X149928151Y-67911979D01*
X149800564Y-67886600D01*
X149670476Y-67886600D01*
X149542889Y-67911979D01*
X149422703Y-67961761D01*
X149314540Y-68034034D01*
X149222554Y-68126020D01*
X149150281Y-68234183D01*
X149100499Y-68354369D01*
X149075120Y-68481956D01*
X149075120Y-68612044D01*
X149100499Y-68739631D01*
X149150281Y-68859817D01*
X149178868Y-68902600D01*
X149150281Y-68945383D01*
X149100499Y-69065569D01*
X149075120Y-69193156D01*
X149075120Y-69323244D01*
X149099244Y-69444522D01*
X149012164Y-69427200D01*
X148882076Y-69427200D01*
X148754489Y-69452579D01*
X148634303Y-69502361D01*
X148526140Y-69574634D01*
X148434154Y-69666620D01*
X148363742Y-69771997D01*
X148362941Y-69767969D01*
X148313159Y-69647783D01*
X148240886Y-69539620D01*
X148148900Y-69447634D01*
X148040737Y-69375361D01*
X147920551Y-69325579D01*
X147792964Y-69300200D01*
X147662876Y-69300200D01*
X147535289Y-69325579D01*
X147415103Y-69375361D01*
X147397720Y-69386976D01*
X147380337Y-69375361D01*
X147260151Y-69325579D01*
X147132564Y-69300200D01*
X147002476Y-69300200D01*
X146874889Y-69325579D01*
X146754703Y-69375361D01*
X146646540Y-69447634D01*
X146554554Y-69539620D01*
X146482281Y-69647783D01*
X146432499Y-69767969D01*
X146407120Y-69895556D01*
X146407120Y-70025644D01*
X146432499Y-70153231D01*
X146482281Y-70273417D01*
X146486791Y-70280166D01*
X146463137Y-70264361D01*
X146342951Y-70214579D01*
X146266259Y-70199324D01*
X146285351Y-70153231D01*
X146310730Y-70025644D01*
X146310730Y-69895556D01*
X146285351Y-69767969D01*
X146235569Y-69647783D01*
X146163296Y-69539620D01*
X146071310Y-69447634D01*
X145963147Y-69375361D01*
X145842961Y-69325579D01*
X145715374Y-69300200D01*
X145585286Y-69300200D01*
X145457699Y-69325579D01*
X145337513Y-69375361D01*
X145229350Y-69447634D01*
X145137364Y-69539620D01*
X145065091Y-69647783D01*
X145015309Y-69767969D01*
X144989930Y-69895556D01*
X144810720Y-69895556D01*
X144785341Y-69767969D01*
X144735559Y-69647783D01*
X144663286Y-69539620D01*
X144571300Y-69447634D01*
X144463137Y-69375361D01*
X144342951Y-69325579D01*
X144215364Y-69300200D01*
X144085276Y-69300200D01*
X143957689Y-69325579D01*
X143837503Y-69375361D01*
X143729340Y-69447634D01*
X143637354Y-69539620D01*
X143565081Y-69647783D01*
X143515299Y-69767969D01*
X143489920Y-69895556D01*
X143310720Y-69895556D01*
X143285341Y-69767969D01*
X143235559Y-69647783D01*
X143163286Y-69539620D01*
X143071300Y-69447634D01*
X142963137Y-69375361D01*
X142842951Y-69325579D01*
X142715364Y-69300200D01*
X142585276Y-69300200D01*
X142457689Y-69325579D01*
X142337503Y-69375361D01*
X142229340Y-69447634D01*
X142137354Y-69539620D01*
X142065081Y-69647783D01*
X142015299Y-69767969D01*
X141989920Y-69895556D01*
X141378788Y-69895556D01*
X141360537Y-69883361D01*
X141240351Y-69833579D01*
X141112764Y-69808200D01*
X140982676Y-69808200D01*
X140855089Y-69833579D01*
X140734903Y-69883361D01*
X140626740Y-69955634D01*
X140534754Y-70047620D01*
X140462481Y-70155783D01*
X140412699Y-70275969D01*
X140387320Y-70403556D01*
X139710501Y-70403556D01*
X139702559Y-70384383D01*
X139690944Y-70367000D01*
X139702559Y-70349617D01*
X139752341Y-70229431D01*
X139777720Y-70101844D01*
X139777720Y-69971756D01*
X139752341Y-69844169D01*
X139702559Y-69723983D01*
X139630286Y-69615820D01*
X139538300Y-69523834D01*
X139430137Y-69451561D01*
X139309951Y-69401779D01*
X139182364Y-69376400D01*
X139052276Y-69376400D01*
X138924689Y-69401779D01*
X138804503Y-69451561D01*
X138696340Y-69523834D01*
X138604354Y-69615820D01*
X138532081Y-69723983D01*
X138482299Y-69844169D01*
X138456920Y-69971756D01*
X137892930Y-69971756D01*
X137892930Y-69903356D01*
X137867551Y-69775769D01*
X137817769Y-69655583D01*
X137745496Y-69547420D01*
X137653510Y-69455434D01*
X137545347Y-69383161D01*
X137425161Y-69333379D01*
X137297574Y-69308000D01*
X137167486Y-69308000D01*
X137039899Y-69333379D01*
X136919713Y-69383161D01*
X136902330Y-69394776D01*
X136884947Y-69383161D01*
X136764761Y-69333379D01*
X136637174Y-69308000D01*
X136507086Y-69308000D01*
X136379499Y-69333379D01*
X136259313Y-69383161D01*
X136151150Y-69455434D01*
X136059164Y-69547420D01*
X135986891Y-69655583D01*
X135937109Y-69775769D01*
X135911730Y-69903356D01*
X134894589Y-69903356D01*
X134824631Y-69874379D01*
X134697044Y-69849000D01*
X134566956Y-69849000D01*
X134439369Y-69874379D01*
X134319183Y-69924161D01*
X134211020Y-69996434D01*
X134174800Y-70032654D01*
X134138580Y-69996434D01*
X134030417Y-69924161D01*
X133910231Y-69874379D01*
X133782644Y-69849000D01*
X133652556Y-69849000D01*
X133524969Y-69874379D01*
X133404783Y-69924161D01*
X133296620Y-69996434D01*
X133204634Y-70088420D01*
X133132361Y-70196583D01*
X133082579Y-70316769D01*
X133057200Y-70444356D01*
X120537460Y-70444356D01*
X120537460Y-65582689D01*
X123193600Y-65582689D01*
X123193600Y-66017311D01*
X123278391Y-66443583D01*
X123444714Y-66845122D01*
X123686177Y-67206498D01*
X123993502Y-67513823D01*
X124354878Y-67755286D01*
X124756417Y-67921609D01*
X125182689Y-68006400D01*
X125617311Y-68006400D01*
X126043583Y-67921609D01*
X126445122Y-67755286D01*
X126453419Y-67749742D01*
X132243920Y-67749742D01*
X132243920Y-67930258D01*
X132279137Y-68107304D01*
X132348217Y-68274078D01*
X132448506Y-68424171D01*
X132576149Y-68551814D01*
X132726242Y-68652103D01*
X132893016Y-68721183D01*
X133070062Y-68756400D01*
X133250578Y-68756400D01*
X133283743Y-68749803D01*
X133260400Y-68867156D01*
X133260400Y-68997244D01*
X133285779Y-69124831D01*
X133335561Y-69245017D01*
X133407834Y-69353180D01*
X133499820Y-69445166D01*
X133607983Y-69517439D01*
X133728169Y-69567221D01*
X133855756Y-69592600D01*
X133985844Y-69592600D01*
X134113431Y-69567221D01*
X134233617Y-69517439D01*
X134341780Y-69445166D01*
X134433766Y-69353180D01*
X134506039Y-69245017D01*
X134555821Y-69124831D01*
X134581200Y-68997244D01*
X134581200Y-68867156D01*
X134555821Y-68739569D01*
X134506039Y-68619383D01*
X134433766Y-68511220D01*
X134341780Y-68419234D01*
X134233617Y-68346961D01*
X134113431Y-68297179D01*
X133985844Y-68271800D01*
X133973367Y-68271800D01*
X134041503Y-68107304D01*
X134076720Y-67930258D01*
X134076720Y-67749742D01*
X150723920Y-67749742D01*
X150723920Y-67930258D01*
X150759137Y-68107304D01*
X150828217Y-68274078D01*
X150928506Y-68424171D01*
X151056149Y-68551814D01*
X151206242Y-68652103D01*
X151373016Y-68721183D01*
X151550062Y-68756400D01*
X151730578Y-68756400D01*
X151907624Y-68721183D01*
X152074398Y-68652103D01*
X152224491Y-68551814D01*
X152352134Y-68424171D01*
X152452423Y-68274078D01*
X152521503Y-68107304D01*
X152556720Y-67930258D01*
X152556720Y-67749742D01*
X152521503Y-67572696D01*
X152452423Y-67405922D01*
X152352134Y-67255829D01*
X152224491Y-67128186D01*
X152074398Y-67027897D01*
X151907624Y-66958817D01*
X151730578Y-66923600D01*
X151550062Y-66923600D01*
X151373016Y-66958817D01*
X151206242Y-67027897D01*
X151056149Y-67128186D01*
X150928506Y-67255829D01*
X150828217Y-67405922D01*
X150759137Y-67572696D01*
X150723920Y-67749742D01*
X134076720Y-67749742D01*
X134041503Y-67572696D01*
X133972423Y-67405922D01*
X133872134Y-67255829D01*
X133744491Y-67128186D01*
X133594398Y-67027897D01*
X133427624Y-66958817D01*
X133250578Y-66923600D01*
X133070062Y-66923600D01*
X132893016Y-66958817D01*
X132726242Y-67027897D01*
X132576149Y-67128186D01*
X132448506Y-67255829D01*
X132348217Y-67405922D01*
X132279137Y-67572696D01*
X132243920Y-67749742D01*
X126453419Y-67749742D01*
X126806498Y-67513823D01*
X127113823Y-67206498D01*
X127355286Y-66845122D01*
X127521609Y-66443583D01*
X127567897Y-66210878D01*
X130548920Y-66210878D01*
X130548920Y-66409122D01*
X130587595Y-66603556D01*
X130663459Y-66786709D01*
X130773598Y-66951543D01*
X130913777Y-67091722D01*
X131078611Y-67201861D01*
X131261764Y-67277725D01*
X131456198Y-67316400D01*
X131654442Y-67316400D01*
X131848876Y-67277725D01*
X132032029Y-67201861D01*
X132196863Y-67091722D01*
X132337042Y-66951543D01*
X132447181Y-66786709D01*
X132523045Y-66603556D01*
X132561720Y-66409122D01*
X132561720Y-66210878D01*
X152238920Y-66210878D01*
X152238920Y-66409122D01*
X152277595Y-66603556D01*
X152353459Y-66786709D01*
X152463598Y-66951543D01*
X152603777Y-67091722D01*
X152768611Y-67201861D01*
X152951764Y-67277725D01*
X153146198Y-67316400D01*
X153344442Y-67316400D01*
X153538876Y-67277725D01*
X153722029Y-67201861D01*
X153886863Y-67091722D01*
X154027042Y-66951543D01*
X154137181Y-66786709D01*
X154213045Y-66603556D01*
X154251720Y-66409122D01*
X154251720Y-66210878D01*
X154213045Y-66016444D01*
X154137181Y-65833291D01*
X154027042Y-65668457D01*
X153941274Y-65582689D01*
X157193600Y-65582689D01*
X157193600Y-66017311D01*
X157278391Y-66443583D01*
X157444714Y-66845122D01*
X157686177Y-67206498D01*
X157993502Y-67513823D01*
X158354878Y-67755286D01*
X158756417Y-67921609D01*
X159182689Y-68006400D01*
X159617311Y-68006400D01*
X160043583Y-67921609D01*
X160445122Y-67755286D01*
X160806498Y-67513823D01*
X161113823Y-67206498D01*
X161355286Y-66845122D01*
X161521609Y-66443583D01*
X161606400Y-66017311D01*
X161606400Y-65582689D01*
X161521609Y-65156417D01*
X161355286Y-64754878D01*
X161113823Y-64393502D01*
X160806498Y-64086177D01*
X160445122Y-63844714D01*
X160043583Y-63678391D01*
X159617311Y-63593600D01*
X159182689Y-63593600D01*
X158756417Y-63678391D01*
X158354878Y-63844714D01*
X157993502Y-64086177D01*
X157686177Y-64393502D01*
X157444714Y-64754878D01*
X157278391Y-65156417D01*
X157193600Y-65582689D01*
X153941274Y-65582689D01*
X153886863Y-65528278D01*
X153722029Y-65418139D01*
X153538876Y-65342275D01*
X153344442Y-65303600D01*
X153146198Y-65303600D01*
X152951764Y-65342275D01*
X152768611Y-65418139D01*
X152603777Y-65528278D01*
X152463598Y-65668457D01*
X152353459Y-65833291D01*
X152277595Y-66016444D01*
X152238920Y-66210878D01*
X132561720Y-66210878D01*
X132523045Y-66016444D01*
X132447181Y-65833291D01*
X132337042Y-65668457D01*
X132196863Y-65528278D01*
X132032029Y-65418139D01*
X131848876Y-65342275D01*
X131654442Y-65303600D01*
X131456198Y-65303600D01*
X131261764Y-65342275D01*
X131078611Y-65418139D01*
X130913777Y-65528278D01*
X130773598Y-65668457D01*
X130663459Y-65833291D01*
X130587595Y-66016444D01*
X130548920Y-66210878D01*
X127567897Y-66210878D01*
X127606400Y-66017311D01*
X127606400Y-65582689D01*
X127521609Y-65156417D01*
X127355286Y-64754878D01*
X127113823Y-64393502D01*
X126806498Y-64086177D01*
X126445122Y-63844714D01*
X126043583Y-63678391D01*
X125617311Y-63593600D01*
X125182689Y-63593600D01*
X124756417Y-63678391D01*
X124354878Y-63844714D01*
X123993502Y-64086177D01*
X123686177Y-64393502D01*
X123444714Y-64754878D01*
X123278391Y-65156417D01*
X123193600Y-65582689D01*
X120537460Y-65582689D01*
X120537460Y-62243556D01*
X134008330Y-62243556D01*
X134008330Y-62373644D01*
X134033709Y-62501231D01*
X134083491Y-62621417D01*
X134138872Y-62704300D01*
X134083491Y-62787183D01*
X134033709Y-62907369D01*
X134008330Y-63034956D01*
X134008330Y-63165044D01*
X134033709Y-63292631D01*
X134083491Y-63412817D01*
X134155764Y-63520980D01*
X134247750Y-63612966D01*
X134355913Y-63685239D01*
X134476099Y-63735021D01*
X134603686Y-63760400D01*
X134733774Y-63760400D01*
X134861361Y-63735021D01*
X134889523Y-63723356D01*
X135911730Y-63723356D01*
X135911730Y-63853444D01*
X135937109Y-63981031D01*
X135986891Y-64101217D01*
X136059164Y-64209380D01*
X136151150Y-64301366D01*
X136259313Y-64373639D01*
X136379499Y-64423421D01*
X136507086Y-64448800D01*
X136637174Y-64448800D01*
X136764761Y-64423421D01*
X136884947Y-64373639D01*
X136902330Y-64362024D01*
X136919713Y-64373639D01*
X137039899Y-64423421D01*
X137167486Y-64448800D01*
X137297574Y-64448800D01*
X137425161Y-64423421D01*
X137545347Y-64373639D01*
X137652325Y-64302158D01*
X137759303Y-64373639D01*
X137879489Y-64423421D01*
X138007076Y-64448800D01*
X138137164Y-64448800D01*
X138264751Y-64423421D01*
X138384937Y-64373639D01*
X138402320Y-64362024D01*
X138419703Y-64373639D01*
X138539889Y-64423421D01*
X138667476Y-64448800D01*
X138797564Y-64448800D01*
X138925151Y-64423421D01*
X139045337Y-64373639D01*
X139153500Y-64301366D01*
X139154420Y-64300446D01*
X139155340Y-64301366D01*
X139263503Y-64373639D01*
X139383689Y-64423421D01*
X139511276Y-64448800D01*
X139641364Y-64448800D01*
X139768951Y-64423421D01*
X139889137Y-64373639D01*
X139906520Y-64362024D01*
X139923903Y-64373639D01*
X140044089Y-64423421D01*
X140171676Y-64448800D01*
X140301764Y-64448800D01*
X140429351Y-64423421D01*
X140549537Y-64373639D01*
X140655820Y-64302622D01*
X140762103Y-64373639D01*
X140882289Y-64423421D01*
X141009876Y-64448800D01*
X141139964Y-64448800D01*
X141267551Y-64423421D01*
X141387737Y-64373639D01*
X141405120Y-64362024D01*
X141422503Y-64373639D01*
X141542689Y-64423421D01*
X141670276Y-64448800D01*
X141800364Y-64448800D01*
X141927951Y-64423421D01*
X142048137Y-64373639D01*
X142154420Y-64302622D01*
X142260703Y-64373639D01*
X142380889Y-64423421D01*
X142508476Y-64448800D01*
X142638564Y-64448800D01*
X142766151Y-64423421D01*
X142886337Y-64373639D01*
X142903720Y-64362024D01*
X142921103Y-64373639D01*
X143041289Y-64423421D01*
X143168876Y-64448800D01*
X143298964Y-64448800D01*
X143426551Y-64423421D01*
X143546737Y-64373639D01*
X143653020Y-64302622D01*
X143759303Y-64373639D01*
X143879489Y-64423421D01*
X144007076Y-64448800D01*
X144137164Y-64448800D01*
X144264751Y-64423421D01*
X144384937Y-64373639D01*
X144402320Y-64362024D01*
X144419703Y-64373639D01*
X144539889Y-64423421D01*
X144667476Y-64448800D01*
X144797564Y-64448800D01*
X144925151Y-64423421D01*
X145045337Y-64373639D01*
X145151620Y-64302622D01*
X145257903Y-64373639D01*
X145378089Y-64423421D01*
X145505676Y-64448800D01*
X145635764Y-64448800D01*
X145763351Y-64423421D01*
X145883537Y-64373639D01*
X145900920Y-64362024D01*
X145918303Y-64373639D01*
X146038489Y-64423421D01*
X146166076Y-64448800D01*
X146296164Y-64448800D01*
X146423751Y-64423421D01*
X146543937Y-64373639D01*
X146650220Y-64302622D01*
X146756503Y-64373639D01*
X146876689Y-64423421D01*
X147004276Y-64448800D01*
X147134364Y-64448800D01*
X147261951Y-64423421D01*
X147382137Y-64373639D01*
X147399520Y-64362024D01*
X147416903Y-64373639D01*
X147537089Y-64423421D01*
X147664676Y-64448800D01*
X147794764Y-64448800D01*
X147922351Y-64423421D01*
X148042537Y-64373639D01*
X148150700Y-64301366D01*
X148190020Y-64262046D01*
X148229340Y-64301366D01*
X148337503Y-64373639D01*
X148457689Y-64423421D01*
X148585276Y-64448800D01*
X148715364Y-64448800D01*
X148842951Y-64423421D01*
X148963137Y-64373639D01*
X149071300Y-64301366D01*
X149163286Y-64209380D01*
X149235559Y-64101217D01*
X149285341Y-63981031D01*
X149310720Y-63853444D01*
X149310720Y-63723356D01*
X149285341Y-63595769D01*
X149284915Y-63594741D01*
X149314540Y-63624366D01*
X149422703Y-63696639D01*
X149542889Y-63746421D01*
X149670476Y-63771800D01*
X149800564Y-63771800D01*
X149928151Y-63746421D01*
X150048337Y-63696639D01*
X150156500Y-63624366D01*
X150248486Y-63532380D01*
X150320759Y-63424217D01*
X150370541Y-63304031D01*
X150395920Y-63176444D01*
X150395920Y-63046356D01*
X150370541Y-62918769D01*
X150320759Y-62798583D01*
X150283686Y-62743100D01*
X150320759Y-62687617D01*
X150370541Y-62567431D01*
X150395920Y-62439844D01*
X150395920Y-62309756D01*
X150370541Y-62182169D01*
X150320759Y-62061983D01*
X150248486Y-61953820D01*
X150156500Y-61861834D01*
X150048337Y-61789561D01*
X149928151Y-61739779D01*
X149800564Y-61714400D01*
X149670476Y-61714400D01*
X149542889Y-61739779D01*
X149422703Y-61789561D01*
X149314540Y-61861834D01*
X149222554Y-61953820D01*
X149150281Y-62061983D01*
X149100499Y-62182169D01*
X149075120Y-62309756D01*
X149075120Y-62439844D01*
X149100499Y-62567431D01*
X149150281Y-62687617D01*
X149187354Y-62743100D01*
X149150281Y-62798583D01*
X149100499Y-62918769D01*
X149075120Y-63046356D01*
X149075120Y-63176444D01*
X149100499Y-63304031D01*
X149100925Y-63305059D01*
X149071300Y-63275434D01*
X148963137Y-63203161D01*
X148842951Y-63153379D01*
X148715364Y-63128000D01*
X148585276Y-63128000D01*
X148457689Y-63153379D01*
X148337503Y-63203161D01*
X148229340Y-63275434D01*
X148190020Y-63314754D01*
X148150700Y-63275434D01*
X148042537Y-63203161D01*
X147922351Y-63153379D01*
X147794764Y-63128000D01*
X147664676Y-63128000D01*
X147537089Y-63153379D01*
X147416903Y-63203161D01*
X147399520Y-63214776D01*
X147382137Y-63203161D01*
X147261951Y-63153379D01*
X147134364Y-63128000D01*
X147004276Y-63128000D01*
X146876689Y-63153379D01*
X146756503Y-63203161D01*
X146650220Y-63274178D01*
X146543937Y-63203161D01*
X146423751Y-63153379D01*
X146296164Y-63128000D01*
X146166076Y-63128000D01*
X146038489Y-63153379D01*
X145918303Y-63203161D01*
X145900920Y-63214776D01*
X145883537Y-63203161D01*
X145763351Y-63153379D01*
X145635764Y-63128000D01*
X145505676Y-63128000D01*
X145378089Y-63153379D01*
X145257903Y-63203161D01*
X145151620Y-63274178D01*
X145045337Y-63203161D01*
X144925151Y-63153379D01*
X144797564Y-63128000D01*
X144667476Y-63128000D01*
X144539889Y-63153379D01*
X144419703Y-63203161D01*
X144402320Y-63214776D01*
X144384937Y-63203161D01*
X144264751Y-63153379D01*
X144137164Y-63128000D01*
X144007076Y-63128000D01*
X143879489Y-63153379D01*
X143759303Y-63203161D01*
X143653020Y-63274178D01*
X143546737Y-63203161D01*
X143426551Y-63153379D01*
X143298964Y-63128000D01*
X143168876Y-63128000D01*
X143041289Y-63153379D01*
X142921103Y-63203161D01*
X142903720Y-63214776D01*
X142886337Y-63203161D01*
X142766151Y-63153379D01*
X142638564Y-63128000D01*
X142508476Y-63128000D01*
X142380889Y-63153379D01*
X142260703Y-63203161D01*
X142154420Y-63274178D01*
X142048137Y-63203161D01*
X141927951Y-63153379D01*
X141800364Y-63128000D01*
X141670276Y-63128000D01*
X141542689Y-63153379D01*
X141422503Y-63203161D01*
X141405120Y-63214776D01*
X141387737Y-63203161D01*
X141267551Y-63153379D01*
X141139964Y-63128000D01*
X141009876Y-63128000D01*
X140882289Y-63153379D01*
X140762103Y-63203161D01*
X140655820Y-63274178D01*
X140549537Y-63203161D01*
X140429351Y-63153379D01*
X140301764Y-63128000D01*
X140171676Y-63128000D01*
X140044089Y-63153379D01*
X139923903Y-63203161D01*
X139906520Y-63214776D01*
X139889137Y-63203161D01*
X139768951Y-63153379D01*
X139641364Y-63128000D01*
X139511276Y-63128000D01*
X139383689Y-63153379D01*
X139263503Y-63203161D01*
X139155340Y-63275434D01*
X139154420Y-63276354D01*
X139153500Y-63275434D01*
X139045337Y-63203161D01*
X138925151Y-63153379D01*
X138797564Y-63128000D01*
X138667476Y-63128000D01*
X138539889Y-63153379D01*
X138419703Y-63203161D01*
X138402320Y-63214776D01*
X138384937Y-63203161D01*
X138264751Y-63153379D01*
X138137164Y-63128000D01*
X138007076Y-63128000D01*
X137879489Y-63153379D01*
X137759303Y-63203161D01*
X137652325Y-63274642D01*
X137545347Y-63203161D01*
X137425161Y-63153379D01*
X137297574Y-63128000D01*
X137167486Y-63128000D01*
X137039899Y-63153379D01*
X136919713Y-63203161D01*
X136902330Y-63214776D01*
X136884947Y-63203161D01*
X136764761Y-63153379D01*
X136637174Y-63128000D01*
X136507086Y-63128000D01*
X136379499Y-63153379D01*
X136259313Y-63203161D01*
X136151150Y-63275434D01*
X136059164Y-63367420D01*
X135986891Y-63475583D01*
X135937109Y-63595769D01*
X135911730Y-63723356D01*
X134889523Y-63723356D01*
X134981547Y-63685239D01*
X135089710Y-63612966D01*
X135181696Y-63520980D01*
X135253969Y-63412817D01*
X135303751Y-63292631D01*
X135329130Y-63165044D01*
X135329130Y-63034956D01*
X135303751Y-62907369D01*
X135253969Y-62787183D01*
X135198588Y-62704300D01*
X135253969Y-62621417D01*
X135303751Y-62501231D01*
X135329130Y-62373644D01*
X135329130Y-62243556D01*
X135303751Y-62115969D01*
X135253969Y-61995783D01*
X135181696Y-61887620D01*
X135089710Y-61795634D01*
X134981547Y-61723361D01*
X134861361Y-61673579D01*
X134733774Y-61648200D01*
X134603686Y-61648200D01*
X134476099Y-61673579D01*
X134355913Y-61723361D01*
X134247750Y-61795634D01*
X134155764Y-61887620D01*
X134083491Y-61995783D01*
X134033709Y-62115969D01*
X134008330Y-62243556D01*
X120537460Y-62243556D01*
X120537460Y-59437470D01*
X164262540Y-59437470D01*
X164262540Y-128162540D01*
G37*
%TD.AperFunction*%
%TD*%
M02*
