%TF.GenerationSoftware,KiCad,Pcbnew,(5.1.9)-1*%
%TF.CreationDate,2021-04-14T12:05:26-07:00*%
%TF.ProjectId,SZG-TEMPLATE-TXR,535a472d-5445-44d5-904c-4154452d5458,A*%
%TF.SameCoordinates,Original*%
%TF.FileFunction,Copper,L1,Top*%
%TF.FilePolarity,Positive*%
%FSLAX46Y46*%
G04 Gerber Fmt 4.6, Leading zero omitted, Abs format (unit mm)*
G04 Created by KiCad (PCBNEW (5.1.9)-1) date 2021-04-14 12:05:26*
%MOMM*%
%LPD*%
G01*
G04 APERTURE LIST*
%TA.AperFunction,ConnectorPad*%
%ADD10C,0.787400*%
%TD*%
%TA.AperFunction,ComponentPad*%
%ADD11C,1.200000*%
%TD*%
%TA.AperFunction,ConnectorPad*%
%ADD12C,6.500000*%
%TD*%
%TA.AperFunction,ComponentPad*%
%ADD13C,3.600000*%
%TD*%
%TA.AperFunction,SMDPad,CuDef*%
%ADD14C,1.000000*%
%TD*%
%TA.AperFunction,ViaPad*%
%ADD15C,0.508000*%
%TD*%
%TA.AperFunction,Conductor*%
%ADD16C,0.177800*%
%TD*%
%TA.AperFunction,Conductor*%
%ADD17C,0.133350*%
%TD*%
%TA.AperFunction,Conductor*%
%ADD18C,0.152400*%
%TD*%
G04 APERTURE END LIST*
D10*
%TO.P,J2,1*%
%TO.N,/MCU_MISO*%
X126035000Y-85670000D03*
%TO.P,J2,2*%
%TO.N,+3V3*%
X124765000Y-85670000D03*
%TO.P,J2,3*%
%TO.N,/MCU_SCL_USCK*%
X126035000Y-84400000D03*
%TO.P,J2,4*%
%TO.N,/MCU_SDA_MOSI*%
X124765000Y-84400000D03*
%TO.P,J2,5*%
%TO.N,/MCU_RESET_B*%
X126035000Y-83130000D03*
%TO.P,J2,6*%
%TO.N,GND*%
X124765000Y-83130000D03*
%TD*%
D11*
%TO.P,J1,MH*%
%TO.N,N/C*%
X131555320Y-66310000D03*
X153245320Y-66310000D03*
%TD*%
D12*
%TO.P,H6,1*%
%TO.N,Net-(H6-Pad1)*%
X159900000Y-123800000D03*
D13*
X159900000Y-123800000D03*
%TD*%
D12*
%TO.P,H5,1*%
%TO.N,Net-(H5-Pad1)*%
X124900000Y-123800000D03*
D13*
X124900000Y-123800000D03*
%TD*%
D12*
%TO.P,H4,1*%
%TO.N,Net-(H4-Pad1)*%
X159900000Y-75800000D03*
D13*
X159900000Y-75800000D03*
%TD*%
D12*
%TO.P,H3,1*%
%TO.N,Net-(H3-Pad1)*%
X124900000Y-75800000D03*
D13*
X124900000Y-75800000D03*
%TD*%
D12*
%TO.P,H2,1*%
%TO.N,Net-(H2-Pad1)*%
X159400000Y-65800000D03*
D13*
X159400000Y-65800000D03*
%TD*%
D12*
%TO.P,H1,1*%
%TO.N,Net-(H1-Pad1)*%
X125400000Y-65800000D03*
D13*
X125400000Y-65800000D03*
%TD*%
D14*
%TO.P,FID5,*%
%TO.N,*%
X121900000Y-60800000D03*
%TD*%
%TO.P,FID6,*%
%TO.N,*%
X162900000Y-60800000D03*
%TD*%
%TO.P,FID7,*%
%TO.N,*%
X121322400Y-127350800D03*
%TD*%
%TO.P,FID8,*%
%TO.N,*%
X163212400Y-127165200D03*
%TD*%
D15*
%TO.N,+5V*%
X134668730Y-63100000D03*
X134668730Y-62308600D03*
%TO.N,GND*%
X145900320Y-66510000D03*
X139422120Y-66513440D03*
X143500320Y-66510000D03*
X145200320Y-66510000D03*
X150166320Y-66510000D03*
X151436320Y-66510000D03*
X147499320Y-66510000D03*
X141276320Y-66510000D03*
X139975320Y-66513440D03*
X137694920Y-66510000D03*
X133057200Y-66544600D03*
X125400000Y-82100000D03*
X132295200Y-75960800D03*
X133301600Y-75960800D03*
X132295200Y-74751200D03*
X133301600Y-74751200D03*
X135521000Y-75259200D03*
X135394000Y-72135000D03*
X135419400Y-73786000D03*
X134022400Y-66544600D03*
%TO.N,+3V3*%
X149735520Y-62374800D03*
X149735520Y-63111400D03*
%TO.N,/MCU_MISO*%
X125700000Y-88050000D03*
%TO.N,+3V3*%
X135521000Y-75945000D03*
X133412800Y-79501000D03*
X134632000Y-70509400D03*
%TO.N,/R_GA*%
X133717600Y-70509400D03*
X133920800Y-68932200D03*
%TO.N,/RSVD_38*%
X148650320Y-63788400D03*
%TO.N,/RSVD_37*%
X149995240Y-71092070D03*
%TO.N,/C2P_CLKN*%
X147737710Y-64034600D03*
%TO.N,/C2P_CLKP*%
X147077310Y-64034600D03*
%TO.N,/MCU_SDA_MOSI*%
X129806000Y-76326000D03*
%TO.N,/MCU_SCL_USCK*%
X129199996Y-85819910D03*
%TO.N,+3V3*%
X124500000Y-88050000D03*
%TO.N,/MCU_SCL_USCK*%
X129907600Y-72566800D03*
%TO.N,+3V3*%
X129850000Y-78925000D03*
%TO.N,/MCU_SDA_MOSI*%
X121450002Y-85350000D03*
%TO.N,/MCU_MISO*%
X129806000Y-74370200D03*
%TO.N,/MCU_RESET_B*%
X127550000Y-81950000D03*
%TO.N,/VIO*%
X149735520Y-69258200D03*
X149735520Y-68547000D03*
%TO.N,/RX0P*%
X136577320Y-70214600D03*
%TO.N,/RX0N*%
X137237720Y-70214600D03*
%TO.N,/TX2P*%
X145577320Y-64034600D03*
%TO.N,/TX1P*%
X138077310Y-64034600D03*
%TO.N,/TX3P*%
X144077310Y-64034600D03*
%TO.N,/S3*%
X141074920Y-63788400D03*
%TO.N,/TX0P*%
X136577320Y-64034600D03*
%TO.N,/S9*%
X143233920Y-63788400D03*
%TO.N,/RX1P*%
X138077320Y-70214600D03*
%TO.N,/RX1N*%
X138737720Y-70214600D03*
%TO.N,/TX2N*%
X146237720Y-64034600D03*
%TO.N,/RX2P*%
X145577320Y-70214600D03*
%TO.N,/S5*%
X141735320Y-63788400D03*
%TO.N,/RX2N*%
X146237720Y-70214600D03*
%TO.N,/TX3N*%
X144737710Y-64034600D03*
%TO.N,/S7*%
X142573520Y-63788400D03*
%TO.N,/S1*%
X140236720Y-63788400D03*
%TO.N,/S0*%
X139576320Y-63788400D03*
%TO.N,/TX1N*%
X138737710Y-64034600D03*
%TO.N,/RX3N*%
X144737710Y-70214600D03*
%TO.N,/TX0N*%
X137237720Y-64034600D03*
%TO.N,/RX3P*%
X144077310Y-70214600D03*
%TD*%
D16*
%TO.N,GND*%
X125400000Y-82200000D02*
X125400000Y-82100000D01*
X124765000Y-82835000D02*
X125400000Y-82200000D01*
X124765000Y-83130000D02*
X124765000Y-82835000D01*
%TO.N,/MCU_MISO*%
X126428699Y-87321301D02*
X125700000Y-88050000D01*
X126035000Y-85670000D02*
X126428699Y-86063699D01*
X126428699Y-86063699D02*
X126428699Y-87321301D01*
%TO.N,/R_GA*%
X133717600Y-69135400D02*
X133920800Y-68932200D01*
X133717600Y-70509400D02*
X133717600Y-69135400D01*
D17*
%TO.N,/C2P_CLKN*%
X147737710Y-64034600D02*
X147550385Y-64221925D01*
X147550385Y-64221925D02*
X147550385Y-64948329D01*
X147550385Y-64948329D02*
X149142875Y-66540819D01*
X149142875Y-66540819D02*
X149142875Y-71300000D01*
%TO.N,/C2P_CLKP*%
X147264635Y-64221925D02*
X147264635Y-65066691D01*
X147077310Y-64034600D02*
X147264635Y-64221925D01*
X147264635Y-65066691D02*
X148857125Y-66659181D01*
X148857125Y-66659181D02*
X148857125Y-71300000D01*
D16*
%TO.N,/MCU_SDA_MOSI*%
X129700000Y-76432000D02*
X129806000Y-76326000D01*
%TO.N,/MCU_SCL_USCK*%
X127250000Y-85350000D02*
X128730086Y-85350000D01*
X128730086Y-85350000D02*
X129199996Y-85819910D01*
X126300000Y-84400000D02*
X127250000Y-85350000D01*
X126035000Y-84400000D02*
X126300000Y-84400000D01*
%TO.N,+3V3*%
X124765000Y-85670000D02*
X124500000Y-85935000D01*
X124500000Y-85935000D02*
X124500000Y-88050000D01*
X124500000Y-88050000D02*
X124500000Y-88050000D01*
X129515000Y-79260000D02*
X129850000Y-78925000D01*
X128325000Y-80450000D02*
X129515000Y-79260000D01*
X120750000Y-82850000D02*
X123150000Y-80450000D01*
X120750000Y-87250000D02*
X120750000Y-82850000D01*
X122150000Y-88650000D02*
X120750000Y-87250000D01*
X123900000Y-88650000D02*
X122150000Y-88650000D01*
X123150000Y-80450000D02*
X128325000Y-80450000D01*
X124500000Y-88050000D02*
X123900000Y-88650000D01*
%TO.N,/MCU_SDA_MOSI*%
X122000000Y-85350000D02*
X122000000Y-85350000D01*
X123550000Y-85350000D02*
X121450002Y-85350000D01*
X124500000Y-84400000D02*
X123550000Y-85350000D01*
X124765000Y-84400000D02*
X124500000Y-84400000D01*
X130319901Y-76839901D02*
X129806000Y-76326000D01*
X130319901Y-79205099D02*
X130319901Y-76839901D01*
X128725000Y-80800000D02*
X130319901Y-79205099D01*
X121100000Y-83000000D02*
X123300000Y-80800000D01*
X121100000Y-84999998D02*
X121100000Y-83000000D01*
X123300000Y-80800000D02*
X128725000Y-80800000D01*
X121450002Y-85350000D02*
X121100000Y-84999998D01*
%TO.N,/MCU_SCL_USCK*%
X129275000Y-73199400D02*
X129907600Y-72566800D01*
X129275000Y-74837500D02*
X129275000Y-73199400D01*
X130624711Y-76187211D02*
X129275000Y-74837500D01*
X129600000Y-80356066D02*
X130624711Y-79331355D01*
X130624711Y-79331355D02*
X130624711Y-76187211D01*
X129600000Y-85419906D02*
X129600000Y-80356066D01*
X129199996Y-85819910D02*
X129600000Y-85419906D01*
%TO.N,/MCU_MISO*%
X130929521Y-75493721D02*
X129806000Y-74370200D01*
X130929521Y-79457611D02*
X130929521Y-75493721D01*
X130000000Y-80387132D02*
X130929521Y-79457611D01*
X130000000Y-87700000D02*
X130000000Y-80387132D01*
X129050000Y-88650000D02*
X130000000Y-87700000D01*
X126300000Y-88650000D02*
X129050000Y-88650000D01*
X125700000Y-88050000D02*
X126300000Y-88650000D01*
%TO.N,/MCU_RESET_B*%
X126763699Y-82736301D02*
X127550000Y-81950000D01*
X126428699Y-82736301D02*
X126763699Y-82736301D01*
X126035000Y-83130000D02*
X126428699Y-82736301D01*
X127550000Y-81950000D02*
X127550000Y-81950000D01*
D17*
%TO.N,/RX0P*%
X136764645Y-70401925D02*
X136764645Y-71200000D01*
X136577320Y-70214600D02*
X136764645Y-70401925D01*
%TO.N,/RX0N*%
X137050395Y-70401925D02*
X137050395Y-71200000D01*
X137237720Y-70214600D02*
X137050395Y-70401925D01*
%TO.N,/TX2P*%
X146557125Y-65959181D02*
X146557125Y-67859181D01*
X145764645Y-65166701D02*
X146557125Y-65959181D01*
X145764645Y-64221925D02*
X145764645Y-65166701D01*
X145577320Y-64034600D02*
X145764645Y-64221925D01*
X146557125Y-67859181D02*
X147957125Y-69259181D01*
X147957125Y-69259181D02*
X147957125Y-71300000D01*
%TO.N,/TX1P*%
X138264635Y-64221925D02*
X138264635Y-66566691D01*
X138077310Y-64034600D02*
X138264635Y-64221925D01*
X138264635Y-66566691D02*
X140957125Y-69259181D01*
X140957125Y-69259181D02*
X140957125Y-71200000D01*
%TO.N,/TX3P*%
X144264635Y-64221925D02*
X144264635Y-67166691D01*
X144077310Y-64034600D02*
X144264635Y-64221925D01*
X144264635Y-67166691D02*
X147057125Y-69959181D01*
X147057125Y-69959181D02*
X147057125Y-71300000D01*
D18*
%TO.N,/S3*%
X142400320Y-71210000D02*
X142400320Y-68109980D01*
X141074920Y-63788400D02*
X141816870Y-64530350D01*
X141816870Y-67526530D02*
X142400320Y-68109980D01*
X141816870Y-64530350D02*
X141816870Y-67526530D01*
D17*
%TO.N,/TX0P*%
X136577320Y-64034600D02*
X136764645Y-64221925D01*
X136764645Y-64221925D02*
X136764645Y-66766701D01*
X136764645Y-66766701D02*
X139757125Y-69759181D01*
X139757125Y-69759181D02*
X139757125Y-71200000D01*
D18*
%TO.N,/S9*%
X142955950Y-64066360D02*
X143233920Y-63788400D01*
X142955950Y-67365610D02*
X142955950Y-64066360D01*
X142955950Y-67365610D02*
X143238520Y-67648170D01*
X143238520Y-71210000D02*
X143238520Y-67648170D01*
D17*
%TO.N,/RX1P*%
X138264645Y-70401925D02*
X138264645Y-71200000D01*
X138077320Y-70214600D02*
X138264645Y-70401925D01*
%TO.N,/RX1N*%
X138550395Y-70401925D02*
X138550395Y-71200000D01*
X138737720Y-70214600D02*
X138550395Y-70401925D01*
%TO.N,/TX2N*%
X146050395Y-64221925D02*
X146050395Y-65048339D01*
X146237720Y-64034600D02*
X146050395Y-64221925D01*
X146050395Y-65048339D02*
X146842875Y-65840819D01*
X146842875Y-65840819D02*
X146842875Y-67740819D01*
X146842875Y-67740819D02*
X148242875Y-69140819D01*
X148242875Y-69140819D02*
X148242875Y-71300000D01*
%TO.N,/RX2P*%
X145764645Y-70401925D02*
X145764645Y-71300000D01*
X145577320Y-70214600D02*
X145764645Y-70401925D01*
D18*
%TO.N,/S5*%
X141735320Y-63788400D02*
X142213590Y-64266670D01*
X142679720Y-71210000D02*
X142679720Y-67889360D01*
X142213590Y-67423244D02*
X142679713Y-67889367D01*
X142213590Y-64266670D02*
X142213590Y-67423244D01*
D17*
%TO.N,/RX2N*%
X146050395Y-70401925D02*
X146050395Y-71300000D01*
X146237720Y-70214600D02*
X146050395Y-70401925D01*
%TO.N,/TX3N*%
X144550385Y-64221925D02*
X144550385Y-67048329D01*
X144737710Y-64034600D02*
X144550385Y-64221925D01*
X144550385Y-67048329D02*
X147342875Y-69840819D01*
X147342875Y-69840819D02*
X147342875Y-71300000D01*
D18*
%TO.N,/S7*%
X142959120Y-71210000D02*
X142959120Y-67773630D01*
X142573520Y-67388030D02*
X142573520Y-63788400D01*
X142573520Y-67388030D02*
X142959120Y-67773630D01*
%TO.N,/S1*%
X140236720Y-63788400D02*
X140800320Y-64352000D01*
X140800320Y-64352000D02*
X140800320Y-67005174D01*
X140800320Y-67005174D02*
X142120920Y-68325774D01*
X142120920Y-68325774D02*
X142120920Y-71210000D01*
%TO.N,/S0*%
X141828980Y-68700000D02*
X141828980Y-71210000D01*
X141828980Y-68528980D02*
X141828980Y-68700000D01*
X140500000Y-67200000D02*
X141828980Y-68528980D01*
X140500000Y-65409680D02*
X140500000Y-67200000D01*
X139576320Y-64486000D02*
X140500000Y-65409680D01*
X139576320Y-63788400D02*
X139576320Y-64486000D01*
D17*
%TO.N,/TX1N*%
X138550385Y-64221925D02*
X138550385Y-66448329D01*
X138737710Y-64034600D02*
X138550385Y-64221925D01*
X138550385Y-66448329D02*
X141242875Y-69140819D01*
X141242875Y-69140819D02*
X141242875Y-71200000D01*
%TO.N,/RX3N*%
X144550385Y-70401925D02*
X144550385Y-71300000D01*
X144737710Y-70214600D02*
X144550385Y-70401925D01*
%TO.N,/TX0N*%
X137237720Y-64034600D02*
X137050395Y-64221925D01*
X137050395Y-64221925D02*
X137050395Y-66648339D01*
X137050395Y-66648339D02*
X140042875Y-69640819D01*
X140042875Y-69640819D02*
X140042875Y-71200000D01*
%TO.N,/RX3P*%
X144264635Y-70401925D02*
X144264635Y-71300000D01*
X144077310Y-70214600D02*
X144264635Y-70401925D01*
%TD*%
M02*
