%TF.GenerationSoftware,KiCad,Pcbnew,(5.1.9)-1*%
%TF.CreationDate,2021-04-14T12:05:26-07:00*%
%TF.ProjectId,SZG-TEMPLATE-TXR,535a472d-5445-44d5-904c-4154452d5458,A*%
%TF.SameCoordinates,Original*%
%TF.FileFunction,Copper,L2,Inr*%
%TF.FilePolarity,Positive*%
%FSLAX46Y46*%
G04 Gerber Fmt 4.6, Leading zero omitted, Abs format (unit mm)*
G04 Created by KiCad (PCBNEW (5.1.9)-1) date 2021-04-14 12:05:26*
%MOMM*%
%LPD*%
G01*
G04 APERTURE LIST*
%TA.AperFunction,ComponentPad*%
%ADD10C,1.200000*%
%TD*%
%TA.AperFunction,ComponentPad*%
%ADD11C,3.600000*%
%TD*%
%TA.AperFunction,ViaPad*%
%ADD12C,0.508000*%
%TD*%
%TA.AperFunction,Conductor*%
%ADD13C,0.254000*%
%TD*%
%TA.AperFunction,Conductor*%
%ADD14C,0.100000*%
%TD*%
G04 APERTURE END LIST*
D10*
%TO.N,N/C*%
%TO.C,J1*%
X131555320Y-66310000D03*
X153245320Y-66310000D03*
%TD*%
D11*
%TO.N,Net-(H6-Pad1)*%
%TO.C,H6*%
X159900000Y-123800000D03*
%TD*%
%TO.N,Net-(H5-Pad1)*%
%TO.C,H5*%
X124900000Y-123800000D03*
%TD*%
%TO.N,Net-(H4-Pad1)*%
%TO.C,H4*%
X159900000Y-75800000D03*
%TD*%
%TO.N,Net-(H3-Pad1)*%
%TO.C,H3*%
X124900000Y-75800000D03*
%TD*%
%TO.N,Net-(H2-Pad1)*%
%TO.C,H2*%
X159400000Y-65800000D03*
%TD*%
%TO.N,Net-(H1-Pad1)*%
%TO.C,H1*%
X125400000Y-65800000D03*
%TD*%
D12*
%TO.N,+5V*%
X134668730Y-63100000D03*
X134668730Y-62308600D03*
%TO.N,GND*%
X145900320Y-66510000D03*
X139422120Y-66513440D03*
X143500320Y-66510000D03*
X145200320Y-66510000D03*
X150166320Y-66510000D03*
X151436320Y-66510000D03*
X147499320Y-66510000D03*
X141276320Y-66510000D03*
X139975320Y-66513440D03*
X137694920Y-66510000D03*
X133057200Y-66544600D03*
X125400000Y-82100000D03*
X132295200Y-75960800D03*
X133301600Y-75960800D03*
X132295200Y-74751200D03*
X133301600Y-74751200D03*
X135521000Y-75259200D03*
X135394000Y-72135000D03*
X135419400Y-73786000D03*
X134022400Y-66544600D03*
%TO.N,+3V3*%
X149735520Y-62374800D03*
X149735520Y-63111400D03*
%TO.N,/MCU_MISO*%
X125700000Y-88050000D03*
%TO.N,+3V3*%
X135521000Y-75945000D03*
X133412800Y-79501000D03*
X134632000Y-70509400D03*
%TO.N,/R_GA*%
X133717600Y-70509400D03*
X133920800Y-68932200D03*
%TO.N,/RSVD_38*%
X148650320Y-63788400D03*
%TO.N,/RSVD_37*%
X149995240Y-71092070D03*
%TO.N,/C2P_CLKN*%
X147737710Y-64034600D03*
%TO.N,/C2P_CLKP*%
X147077310Y-64034600D03*
%TO.N,/MCU_SDA_MOSI*%
X129806000Y-76326000D03*
%TO.N,/MCU_SCL_USCK*%
X129199996Y-85819910D03*
%TO.N,+3V3*%
X124500000Y-88050000D03*
%TO.N,/MCU_SCL_USCK*%
X129907600Y-72566800D03*
%TO.N,+3V3*%
X129850000Y-78925000D03*
%TO.N,/MCU_SDA_MOSI*%
X121450002Y-85350000D03*
%TO.N,/MCU_MISO*%
X129806000Y-74370200D03*
%TO.N,/MCU_RESET_B*%
X127550000Y-81950000D03*
%TO.N,/VIO*%
X149735520Y-69258200D03*
X149735520Y-68547000D03*
%TO.N,/RX0P*%
X136577320Y-70214600D03*
%TO.N,/RX0N*%
X137237720Y-70214600D03*
%TO.N,/TX2P*%
X145577320Y-64034600D03*
%TO.N,/TX1P*%
X138077310Y-64034600D03*
%TO.N,/TX3P*%
X144077310Y-64034600D03*
%TO.N,/S3*%
X141074920Y-63788400D03*
%TO.N,/TX0P*%
X136577320Y-64034600D03*
%TO.N,/S9*%
X143233920Y-63788400D03*
%TO.N,/RX1P*%
X138077320Y-70214600D03*
%TO.N,/RX1N*%
X138737720Y-70214600D03*
%TO.N,/TX2N*%
X146237720Y-64034600D03*
%TO.N,/RX2P*%
X145577320Y-70214600D03*
%TO.N,/S5*%
X141735320Y-63788400D03*
%TO.N,/RX2N*%
X146237720Y-70214600D03*
%TO.N,/TX3N*%
X144737710Y-64034600D03*
%TO.N,/S7*%
X142573520Y-63788400D03*
%TO.N,/S1*%
X140236720Y-63788400D03*
%TO.N,/S0*%
X139576320Y-63788400D03*
%TO.N,/TX1N*%
X138737710Y-64034600D03*
%TO.N,/RX3N*%
X144737710Y-70214600D03*
%TO.N,/TX0N*%
X137237720Y-64034600D03*
%TO.N,/RX3P*%
X144077310Y-70214600D03*
%TD*%
D13*
%TO.N,GND*%
X164262540Y-128162540D02*
X120537460Y-128162540D01*
X120537460Y-123582689D01*
X122693600Y-123582689D01*
X122693600Y-124017311D01*
X122778391Y-124443583D01*
X122944714Y-124845122D01*
X123186177Y-125206498D01*
X123493502Y-125513823D01*
X123854878Y-125755286D01*
X124256417Y-125921609D01*
X124682689Y-126006400D01*
X125117311Y-126006400D01*
X125543583Y-125921609D01*
X125945122Y-125755286D01*
X126306498Y-125513823D01*
X126613823Y-125206498D01*
X126855286Y-124845122D01*
X127021609Y-124443583D01*
X127106400Y-124017311D01*
X127106400Y-123582689D01*
X157693600Y-123582689D01*
X157693600Y-124017311D01*
X157778391Y-124443583D01*
X157944714Y-124845122D01*
X158186177Y-125206498D01*
X158493502Y-125513823D01*
X158854878Y-125755286D01*
X159256417Y-125921609D01*
X159682689Y-126006400D01*
X160117311Y-126006400D01*
X160543583Y-125921609D01*
X160945122Y-125755286D01*
X161306498Y-125513823D01*
X161613823Y-125206498D01*
X161855286Y-124845122D01*
X162021609Y-124443583D01*
X162106400Y-124017311D01*
X162106400Y-123582689D01*
X162021609Y-123156417D01*
X161855286Y-122754878D01*
X161613823Y-122393502D01*
X161306498Y-122086177D01*
X160945122Y-121844714D01*
X160543583Y-121678391D01*
X160117311Y-121593600D01*
X159682689Y-121593600D01*
X159256417Y-121678391D01*
X158854878Y-121844714D01*
X158493502Y-122086177D01*
X158186177Y-122393502D01*
X157944714Y-122754878D01*
X157778391Y-123156417D01*
X157693600Y-123582689D01*
X127106400Y-123582689D01*
X127021609Y-123156417D01*
X126855286Y-122754878D01*
X126613823Y-122393502D01*
X126306498Y-122086177D01*
X125945122Y-121844714D01*
X125543583Y-121678391D01*
X125117311Y-121593600D01*
X124682689Y-121593600D01*
X124256417Y-121678391D01*
X123854878Y-121844714D01*
X123493502Y-122086177D01*
X123186177Y-122393502D01*
X122944714Y-122754878D01*
X122778391Y-123156417D01*
X122693600Y-123582689D01*
X120537460Y-123582689D01*
X120537460Y-85284956D01*
X120789602Y-85284956D01*
X120789602Y-85415044D01*
X120814981Y-85542631D01*
X120864763Y-85662817D01*
X120937036Y-85770980D01*
X121029022Y-85862966D01*
X121137185Y-85935239D01*
X121257371Y-85985021D01*
X121384958Y-86010400D01*
X121515046Y-86010400D01*
X121571771Y-85999116D01*
X121447548Y-86185029D01*
X121327401Y-86475091D01*
X121266150Y-86783019D01*
X121266150Y-87096981D01*
X121327401Y-87404909D01*
X121447548Y-87694971D01*
X121621976Y-87956020D01*
X121843980Y-88178024D01*
X122105029Y-88352452D01*
X122395091Y-88472599D01*
X122703019Y-88533850D01*
X123016981Y-88533850D01*
X123324909Y-88472599D01*
X123614971Y-88352452D01*
X123854931Y-88192115D01*
X123864979Y-88242631D01*
X123914761Y-88362817D01*
X123987034Y-88470980D01*
X124079020Y-88562966D01*
X124187183Y-88635239D01*
X124307369Y-88685021D01*
X124434956Y-88710400D01*
X124565044Y-88710400D01*
X124692631Y-88685021D01*
X124812817Y-88635239D01*
X124920980Y-88562966D01*
X125012966Y-88470980D01*
X125085239Y-88362817D01*
X125100000Y-88327180D01*
X125114761Y-88362817D01*
X125187034Y-88470980D01*
X125279020Y-88562966D01*
X125387183Y-88635239D01*
X125507369Y-88685021D01*
X125634956Y-88710400D01*
X125765044Y-88710400D01*
X125892631Y-88685021D01*
X126012817Y-88635239D01*
X126120980Y-88562966D01*
X126212966Y-88470980D01*
X126285239Y-88362817D01*
X126335021Y-88242631D01*
X126360400Y-88115044D01*
X126360400Y-87984956D01*
X126335021Y-87857369D01*
X126285239Y-87737183D01*
X126212966Y-87629020D01*
X126120980Y-87537034D01*
X126095313Y-87519883D01*
X126100396Y-87514800D01*
X126199076Y-87367115D01*
X126267048Y-87203016D01*
X126301700Y-87028810D01*
X126301700Y-86851190D01*
X126267048Y-86676984D01*
X126199076Y-86512885D01*
X126100396Y-86365200D01*
X125974800Y-86239604D01*
X125827115Y-86140924D01*
X125663016Y-86072952D01*
X125488810Y-86038300D01*
X125311190Y-86038300D01*
X125136984Y-86072952D01*
X124972885Y-86140924D01*
X124825200Y-86239604D01*
X124699604Y-86365200D01*
X124600924Y-86512885D01*
X124532952Y-86676984D01*
X124498300Y-86851190D01*
X124498300Y-87028810D01*
X124532952Y-87203016D01*
X124600924Y-87367115D01*
X124623751Y-87401278D01*
X124565044Y-87389600D01*
X124434956Y-87389600D01*
X124394025Y-87397742D01*
X124453850Y-87096981D01*
X124453850Y-86783019D01*
X124392599Y-86475091D01*
X124272452Y-86185029D01*
X124098024Y-85923980D01*
X123876020Y-85701976D01*
X123614971Y-85527548D01*
X123324909Y-85407401D01*
X123048904Y-85352500D01*
X123324909Y-85297599D01*
X123614971Y-85177452D01*
X123876020Y-85003024D01*
X124098024Y-84781020D01*
X124272452Y-84519971D01*
X124392599Y-84229909D01*
X124453850Y-83921981D01*
X124453850Y-83608019D01*
X124392599Y-83300091D01*
X124272452Y-83010029D01*
X124098024Y-82748980D01*
X124044349Y-82695305D01*
X124120984Y-82727048D01*
X124295190Y-82761700D01*
X124472810Y-82761700D01*
X124647016Y-82727048D01*
X124811115Y-82659076D01*
X124958800Y-82560396D01*
X125084396Y-82434800D01*
X125183076Y-82287115D01*
X125251048Y-82123016D01*
X125285700Y-81948810D01*
X125285700Y-81771190D01*
X125514300Y-81771190D01*
X125514300Y-81948810D01*
X125548952Y-82123016D01*
X125616924Y-82287115D01*
X125715604Y-82434800D01*
X125841200Y-82560396D01*
X125988885Y-82659076D01*
X126152984Y-82727048D01*
X126327190Y-82761700D01*
X126504810Y-82761700D01*
X126679016Y-82727048D01*
X126755651Y-82695305D01*
X126701976Y-82748980D01*
X126527548Y-83010029D01*
X126407401Y-83300091D01*
X126346150Y-83608019D01*
X126346150Y-83921981D01*
X126407401Y-84229909D01*
X126527548Y-84519971D01*
X126701976Y-84781020D01*
X126923980Y-85003024D01*
X127185029Y-85177452D01*
X127475091Y-85297599D01*
X127751096Y-85352500D01*
X127475091Y-85407401D01*
X127185029Y-85527548D01*
X126923980Y-85701976D01*
X126701976Y-85923980D01*
X126527548Y-86185029D01*
X126407401Y-86475091D01*
X126346150Y-86783019D01*
X126346150Y-87096981D01*
X126407401Y-87404909D01*
X126527548Y-87694971D01*
X126701976Y-87956020D01*
X126923980Y-88178024D01*
X127185029Y-88352452D01*
X127475091Y-88472599D01*
X127783019Y-88533850D01*
X128096981Y-88533850D01*
X128404909Y-88472599D01*
X128694971Y-88352452D01*
X128956020Y-88178024D01*
X129178024Y-87956020D01*
X129352452Y-87694971D01*
X129472599Y-87404909D01*
X129533850Y-87096981D01*
X129533850Y-86783019D01*
X129472599Y-86475091D01*
X129453760Y-86429609D01*
X129512813Y-86405149D01*
X129620976Y-86332876D01*
X129712962Y-86240890D01*
X129785235Y-86132727D01*
X129835017Y-86012541D01*
X129860396Y-85884954D01*
X129860396Y-85754866D01*
X129835017Y-85627279D01*
X129785235Y-85507093D01*
X129712962Y-85398930D01*
X129620976Y-85306944D01*
X129512813Y-85234671D01*
X129392627Y-85184889D01*
X129265040Y-85159510D01*
X129134952Y-85159510D01*
X129007365Y-85184889D01*
X128887179Y-85234671D01*
X128779016Y-85306944D01*
X128687030Y-85398930D01*
X128621440Y-85497091D01*
X128404909Y-85407401D01*
X128128904Y-85352500D01*
X128404909Y-85297599D01*
X128694971Y-85177452D01*
X128956020Y-85003024D01*
X129178024Y-84781020D01*
X129352452Y-84519971D01*
X129472599Y-84229909D01*
X129533850Y-83921981D01*
X129533850Y-83608019D01*
X129472599Y-83300091D01*
X129352452Y-83010029D01*
X129178024Y-82748980D01*
X128956020Y-82526976D01*
X128694971Y-82352548D01*
X128404909Y-82232401D01*
X128167406Y-82185158D01*
X128185021Y-82142631D01*
X128210400Y-82015044D01*
X128210400Y-81884956D01*
X128185021Y-81757369D01*
X128135239Y-81637183D01*
X128062966Y-81529020D01*
X127970980Y-81437034D01*
X127862817Y-81364761D01*
X127742631Y-81314979D01*
X127615044Y-81289600D01*
X127484956Y-81289600D01*
X127357369Y-81314979D01*
X127237183Y-81364761D01*
X127190430Y-81396000D01*
X127116396Y-81285200D01*
X126990800Y-81159604D01*
X126843115Y-81060924D01*
X126679016Y-80992952D01*
X126504810Y-80958300D01*
X126327190Y-80958300D01*
X126152984Y-80992952D01*
X125988885Y-81060924D01*
X125841200Y-81159604D01*
X125715604Y-81285200D01*
X125616924Y-81432885D01*
X125548952Y-81596984D01*
X125514300Y-81771190D01*
X125285700Y-81771190D01*
X125251048Y-81596984D01*
X125183076Y-81432885D01*
X125084396Y-81285200D01*
X124958800Y-81159604D01*
X124811115Y-81060924D01*
X124647016Y-80992952D01*
X124472810Y-80958300D01*
X124295190Y-80958300D01*
X124120984Y-80992952D01*
X123956885Y-81060924D01*
X123809200Y-81159604D01*
X123683604Y-81285200D01*
X123584924Y-81432885D01*
X123516952Y-81596984D01*
X123482300Y-81771190D01*
X123482300Y-81948810D01*
X123516952Y-82123016D01*
X123584924Y-82287115D01*
X123639674Y-82369054D01*
X123614971Y-82352548D01*
X123324909Y-82232401D01*
X123016981Y-82171150D01*
X122703019Y-82171150D01*
X122395091Y-82232401D01*
X122105029Y-82352548D01*
X121843980Y-82526976D01*
X121621976Y-82748980D01*
X121447548Y-83010029D01*
X121327401Y-83300091D01*
X121266150Y-83608019D01*
X121266150Y-83921981D01*
X121327401Y-84229909D01*
X121447548Y-84519971D01*
X121567918Y-84700117D01*
X121515046Y-84689600D01*
X121384958Y-84689600D01*
X121257371Y-84714979D01*
X121137185Y-84764761D01*
X121029022Y-84837034D01*
X120937036Y-84929020D01*
X120864763Y-85037183D01*
X120814981Y-85157369D01*
X120789602Y-85284956D01*
X120537460Y-85284956D01*
X120537460Y-78859956D01*
X129189600Y-78859956D01*
X129189600Y-78990044D01*
X129214979Y-79117631D01*
X129264761Y-79237817D01*
X129337034Y-79345980D01*
X129429020Y-79437966D01*
X129537183Y-79510239D01*
X129657369Y-79560021D01*
X129784956Y-79585400D01*
X129915044Y-79585400D01*
X130042631Y-79560021D01*
X130162817Y-79510239D01*
X130270980Y-79437966D01*
X130272990Y-79435956D01*
X132752400Y-79435956D01*
X132752400Y-79566044D01*
X132777779Y-79693631D01*
X132827561Y-79813817D01*
X132899834Y-79921980D01*
X132991820Y-80013966D01*
X133099983Y-80086239D01*
X133220169Y-80136021D01*
X133347756Y-80161400D01*
X133477844Y-80161400D01*
X133605431Y-80136021D01*
X133725617Y-80086239D01*
X133833780Y-80013966D01*
X133925766Y-79921980D01*
X133998039Y-79813817D01*
X134047821Y-79693631D01*
X134073200Y-79566044D01*
X134073200Y-79435956D01*
X134047821Y-79308369D01*
X133998039Y-79188183D01*
X133925766Y-79080020D01*
X133833780Y-78988034D01*
X133725617Y-78915761D01*
X133605431Y-78865979D01*
X133477844Y-78840600D01*
X133347756Y-78840600D01*
X133220169Y-78865979D01*
X133099983Y-78915761D01*
X132991820Y-78988034D01*
X132899834Y-79080020D01*
X132827561Y-79188183D01*
X132777779Y-79308369D01*
X132752400Y-79435956D01*
X130272990Y-79435956D01*
X130362966Y-79345980D01*
X130435239Y-79237817D01*
X130485021Y-79117631D01*
X130510400Y-78990044D01*
X130510400Y-78859956D01*
X130485021Y-78732369D01*
X130435239Y-78612183D01*
X130362966Y-78504020D01*
X130270980Y-78412034D01*
X130162817Y-78339761D01*
X130042631Y-78289979D01*
X129915044Y-78264600D01*
X129784956Y-78264600D01*
X129657369Y-78289979D01*
X129537183Y-78339761D01*
X129429020Y-78412034D01*
X129337034Y-78504020D01*
X129264761Y-78612183D01*
X129214979Y-78732369D01*
X129189600Y-78859956D01*
X120537460Y-78859956D01*
X120537460Y-75582689D01*
X122693600Y-75582689D01*
X122693600Y-76017311D01*
X122778391Y-76443583D01*
X122944714Y-76845122D01*
X123186177Y-77206498D01*
X123493502Y-77513823D01*
X123854878Y-77755286D01*
X124256417Y-77921609D01*
X124682689Y-78006400D01*
X125117311Y-78006400D01*
X125543583Y-77921609D01*
X125945122Y-77755286D01*
X126306498Y-77513823D01*
X126613823Y-77206498D01*
X126855286Y-76845122D01*
X127021609Y-76443583D01*
X127057935Y-76260956D01*
X129145600Y-76260956D01*
X129145600Y-76391044D01*
X129170979Y-76518631D01*
X129220761Y-76638817D01*
X129293034Y-76746980D01*
X129385020Y-76838966D01*
X129493183Y-76911239D01*
X129613369Y-76961021D01*
X129740956Y-76986400D01*
X129871044Y-76986400D01*
X129998631Y-76961021D01*
X130118817Y-76911239D01*
X130226980Y-76838966D01*
X130318966Y-76746980D01*
X130391239Y-76638817D01*
X130441021Y-76518631D01*
X130466400Y-76391044D01*
X130466400Y-76260956D01*
X130441021Y-76133369D01*
X130391239Y-76013183D01*
X130318966Y-75905020D01*
X130293902Y-75879956D01*
X134860600Y-75879956D01*
X134860600Y-76010044D01*
X134885979Y-76137631D01*
X134935761Y-76257817D01*
X135008034Y-76365980D01*
X135100020Y-76457966D01*
X135208183Y-76530239D01*
X135328369Y-76580021D01*
X135455956Y-76605400D01*
X135586044Y-76605400D01*
X135713631Y-76580021D01*
X135833817Y-76530239D01*
X135941980Y-76457966D01*
X136033966Y-76365980D01*
X136106239Y-76257817D01*
X136156021Y-76137631D01*
X136181400Y-76010044D01*
X136181400Y-75879956D01*
X136156021Y-75752369D01*
X136106239Y-75632183D01*
X136073168Y-75582689D01*
X157693600Y-75582689D01*
X157693600Y-76017311D01*
X157778391Y-76443583D01*
X157944714Y-76845122D01*
X158186177Y-77206498D01*
X158493502Y-77513823D01*
X158854878Y-77755286D01*
X159256417Y-77921609D01*
X159682689Y-78006400D01*
X160117311Y-78006400D01*
X160543583Y-77921609D01*
X160945122Y-77755286D01*
X161306498Y-77513823D01*
X161613823Y-77206498D01*
X161855286Y-76845122D01*
X162021609Y-76443583D01*
X162106400Y-76017311D01*
X162106400Y-75582689D01*
X162021609Y-75156417D01*
X161855286Y-74754878D01*
X161613823Y-74393502D01*
X161306498Y-74086177D01*
X160945122Y-73844714D01*
X160543583Y-73678391D01*
X160117311Y-73593600D01*
X159682689Y-73593600D01*
X159256417Y-73678391D01*
X158854878Y-73844714D01*
X158493502Y-74086177D01*
X158186177Y-74393502D01*
X157944714Y-74754878D01*
X157778391Y-75156417D01*
X157693600Y-75582689D01*
X136073168Y-75582689D01*
X136033966Y-75524020D01*
X135941980Y-75432034D01*
X135833817Y-75359761D01*
X135713631Y-75309979D01*
X135586044Y-75284600D01*
X135455956Y-75284600D01*
X135328369Y-75309979D01*
X135208183Y-75359761D01*
X135100020Y-75432034D01*
X135008034Y-75524020D01*
X134935761Y-75632183D01*
X134885979Y-75752369D01*
X134860600Y-75879956D01*
X130293902Y-75879956D01*
X130226980Y-75813034D01*
X130118817Y-75740761D01*
X129998631Y-75690979D01*
X129871044Y-75665600D01*
X129740956Y-75665600D01*
X129613369Y-75690979D01*
X129493183Y-75740761D01*
X129385020Y-75813034D01*
X129293034Y-75905020D01*
X129220761Y-76013183D01*
X129170979Y-76133369D01*
X129145600Y-76260956D01*
X127057935Y-76260956D01*
X127106400Y-76017311D01*
X127106400Y-75582689D01*
X127021609Y-75156417D01*
X126855286Y-74754878D01*
X126613823Y-74393502D01*
X126525477Y-74305156D01*
X129145600Y-74305156D01*
X129145600Y-74435244D01*
X129170979Y-74562831D01*
X129220761Y-74683017D01*
X129293034Y-74791180D01*
X129385020Y-74883166D01*
X129493183Y-74955439D01*
X129613369Y-75005221D01*
X129740956Y-75030600D01*
X129871044Y-75030600D01*
X129998631Y-75005221D01*
X130118817Y-74955439D01*
X130226980Y-74883166D01*
X130318966Y-74791180D01*
X130391239Y-74683017D01*
X130441021Y-74562831D01*
X130466400Y-74435244D01*
X130466400Y-74305156D01*
X130441021Y-74177569D01*
X130391239Y-74057383D01*
X130318966Y-73949220D01*
X130226980Y-73857234D01*
X130118817Y-73784961D01*
X129998631Y-73735179D01*
X129871044Y-73709800D01*
X129740956Y-73709800D01*
X129613369Y-73735179D01*
X129493183Y-73784961D01*
X129385020Y-73857234D01*
X129293034Y-73949220D01*
X129220761Y-74057383D01*
X129170979Y-74177569D01*
X129145600Y-74305156D01*
X126525477Y-74305156D01*
X126306498Y-74086177D01*
X125945122Y-73844714D01*
X125543583Y-73678391D01*
X125117311Y-73593600D01*
X124682689Y-73593600D01*
X124256417Y-73678391D01*
X123854878Y-73844714D01*
X123493502Y-74086177D01*
X123186177Y-74393502D01*
X122944714Y-74754878D01*
X122778391Y-75156417D01*
X122693600Y-75582689D01*
X120537460Y-75582689D01*
X120537460Y-72501756D01*
X129247200Y-72501756D01*
X129247200Y-72631844D01*
X129272579Y-72759431D01*
X129322361Y-72879617D01*
X129394634Y-72987780D01*
X129486620Y-73079766D01*
X129594783Y-73152039D01*
X129714969Y-73201821D01*
X129842556Y-73227200D01*
X129972644Y-73227200D01*
X130100231Y-73201821D01*
X130220417Y-73152039D01*
X130328580Y-73079766D01*
X130420566Y-72987780D01*
X130492839Y-72879617D01*
X130542621Y-72759431D01*
X130568000Y-72631844D01*
X130568000Y-72501756D01*
X130542621Y-72374169D01*
X130492839Y-72253983D01*
X130420566Y-72145820D01*
X130328580Y-72053834D01*
X130220417Y-71981561D01*
X130100231Y-71931779D01*
X129972644Y-71906400D01*
X129842556Y-71906400D01*
X129714969Y-71931779D01*
X129594783Y-71981561D01*
X129486620Y-72053834D01*
X129394634Y-72145820D01*
X129322361Y-72253983D01*
X129272579Y-72374169D01*
X129247200Y-72501756D01*
X120537460Y-72501756D01*
X120537460Y-70444356D01*
X133057200Y-70444356D01*
X133057200Y-70574444D01*
X133082579Y-70702031D01*
X133132361Y-70822217D01*
X133204634Y-70930380D01*
X133296620Y-71022366D01*
X133404783Y-71094639D01*
X133524969Y-71144421D01*
X133652556Y-71169800D01*
X133782644Y-71169800D01*
X133910231Y-71144421D01*
X134030417Y-71094639D01*
X134138580Y-71022366D01*
X134174800Y-70986146D01*
X134211020Y-71022366D01*
X134319183Y-71094639D01*
X134439369Y-71144421D01*
X134566956Y-71169800D01*
X134697044Y-71169800D01*
X134824631Y-71144421D01*
X134944817Y-71094639D01*
X135046005Y-71027026D01*
X149334840Y-71027026D01*
X149334840Y-71157114D01*
X149360219Y-71284701D01*
X149410001Y-71404887D01*
X149482274Y-71513050D01*
X149574260Y-71605036D01*
X149682423Y-71677309D01*
X149802609Y-71727091D01*
X149930196Y-71752470D01*
X150060284Y-71752470D01*
X150187871Y-71727091D01*
X150308057Y-71677309D01*
X150416220Y-71605036D01*
X150508206Y-71513050D01*
X150580479Y-71404887D01*
X150630261Y-71284701D01*
X150655640Y-71157114D01*
X150655640Y-71027026D01*
X150630261Y-70899439D01*
X150580479Y-70779253D01*
X150508206Y-70671090D01*
X150416220Y-70579104D01*
X150308057Y-70506831D01*
X150187871Y-70457049D01*
X150060284Y-70431670D01*
X149930196Y-70431670D01*
X149802609Y-70457049D01*
X149682423Y-70506831D01*
X149574260Y-70579104D01*
X149482274Y-70671090D01*
X149410001Y-70779253D01*
X149360219Y-70899439D01*
X149334840Y-71027026D01*
X135046005Y-71027026D01*
X135052980Y-71022366D01*
X135144966Y-70930380D01*
X135217239Y-70822217D01*
X135267021Y-70702031D01*
X135292400Y-70574444D01*
X135292400Y-70444356D01*
X135267021Y-70316769D01*
X135217239Y-70196583D01*
X135185817Y-70149556D01*
X135916920Y-70149556D01*
X135916920Y-70279644D01*
X135942299Y-70407231D01*
X135992081Y-70527417D01*
X136064354Y-70635580D01*
X136156340Y-70727566D01*
X136264503Y-70799839D01*
X136384689Y-70849621D01*
X136512276Y-70875000D01*
X136642364Y-70875000D01*
X136769951Y-70849621D01*
X136890137Y-70799839D01*
X136907520Y-70788224D01*
X136924903Y-70799839D01*
X137045089Y-70849621D01*
X137172676Y-70875000D01*
X137302764Y-70875000D01*
X137430351Y-70849621D01*
X137550537Y-70799839D01*
X137657520Y-70728354D01*
X137764503Y-70799839D01*
X137884689Y-70849621D01*
X138012276Y-70875000D01*
X138142364Y-70875000D01*
X138269951Y-70849621D01*
X138390137Y-70799839D01*
X138407520Y-70788224D01*
X138424903Y-70799839D01*
X138545089Y-70849621D01*
X138672676Y-70875000D01*
X138802764Y-70875000D01*
X138930351Y-70849621D01*
X139050537Y-70799839D01*
X139158700Y-70727566D01*
X139250686Y-70635580D01*
X139322959Y-70527417D01*
X139372741Y-70407231D01*
X139398120Y-70279644D01*
X139398120Y-70149556D01*
X143416910Y-70149556D01*
X143416910Y-70279644D01*
X143442289Y-70407231D01*
X143492071Y-70527417D01*
X143564344Y-70635580D01*
X143656330Y-70727566D01*
X143764493Y-70799839D01*
X143884679Y-70849621D01*
X144012266Y-70875000D01*
X144142354Y-70875000D01*
X144269941Y-70849621D01*
X144390127Y-70799839D01*
X144407510Y-70788224D01*
X144424893Y-70799839D01*
X144545079Y-70849621D01*
X144672666Y-70875000D01*
X144802754Y-70875000D01*
X144930341Y-70849621D01*
X145050527Y-70799839D01*
X145157515Y-70728351D01*
X145264503Y-70799839D01*
X145384689Y-70849621D01*
X145512276Y-70875000D01*
X145642364Y-70875000D01*
X145769951Y-70849621D01*
X145890137Y-70799839D01*
X145907520Y-70788224D01*
X145924903Y-70799839D01*
X146045089Y-70849621D01*
X146172676Y-70875000D01*
X146302764Y-70875000D01*
X146430351Y-70849621D01*
X146550537Y-70799839D01*
X146658700Y-70727566D01*
X146750686Y-70635580D01*
X146822959Y-70527417D01*
X146872741Y-70407231D01*
X146898120Y-70279644D01*
X146898120Y-70149556D01*
X146872741Y-70021969D01*
X146822959Y-69901783D01*
X146750686Y-69793620D01*
X146658700Y-69701634D01*
X146550537Y-69629361D01*
X146430351Y-69579579D01*
X146302764Y-69554200D01*
X146172676Y-69554200D01*
X146045089Y-69579579D01*
X145924903Y-69629361D01*
X145907520Y-69640976D01*
X145890137Y-69629361D01*
X145769951Y-69579579D01*
X145642364Y-69554200D01*
X145512276Y-69554200D01*
X145384689Y-69579579D01*
X145264503Y-69629361D01*
X145157515Y-69700849D01*
X145050527Y-69629361D01*
X144930341Y-69579579D01*
X144802754Y-69554200D01*
X144672666Y-69554200D01*
X144545079Y-69579579D01*
X144424893Y-69629361D01*
X144407510Y-69640976D01*
X144390127Y-69629361D01*
X144269941Y-69579579D01*
X144142354Y-69554200D01*
X144012266Y-69554200D01*
X143884679Y-69579579D01*
X143764493Y-69629361D01*
X143656330Y-69701634D01*
X143564344Y-69793620D01*
X143492071Y-69901783D01*
X143442289Y-70021969D01*
X143416910Y-70149556D01*
X139398120Y-70149556D01*
X139372741Y-70021969D01*
X139322959Y-69901783D01*
X139250686Y-69793620D01*
X139158700Y-69701634D01*
X139050537Y-69629361D01*
X138930351Y-69579579D01*
X138802764Y-69554200D01*
X138672676Y-69554200D01*
X138545089Y-69579579D01*
X138424903Y-69629361D01*
X138407520Y-69640976D01*
X138390137Y-69629361D01*
X138269951Y-69579579D01*
X138142364Y-69554200D01*
X138012276Y-69554200D01*
X137884689Y-69579579D01*
X137764503Y-69629361D01*
X137657520Y-69700846D01*
X137550537Y-69629361D01*
X137430351Y-69579579D01*
X137302764Y-69554200D01*
X137172676Y-69554200D01*
X137045089Y-69579579D01*
X136924903Y-69629361D01*
X136907520Y-69640976D01*
X136890137Y-69629361D01*
X136769951Y-69579579D01*
X136642364Y-69554200D01*
X136512276Y-69554200D01*
X136384689Y-69579579D01*
X136264503Y-69629361D01*
X136156340Y-69701634D01*
X136064354Y-69793620D01*
X135992081Y-69901783D01*
X135942299Y-70021969D01*
X135916920Y-70149556D01*
X135185817Y-70149556D01*
X135144966Y-70088420D01*
X135052980Y-69996434D01*
X134944817Y-69924161D01*
X134824631Y-69874379D01*
X134697044Y-69849000D01*
X134566956Y-69849000D01*
X134439369Y-69874379D01*
X134319183Y-69924161D01*
X134211020Y-69996434D01*
X134174800Y-70032654D01*
X134138580Y-69996434D01*
X134030417Y-69924161D01*
X133910231Y-69874379D01*
X133782644Y-69849000D01*
X133652556Y-69849000D01*
X133524969Y-69874379D01*
X133404783Y-69924161D01*
X133296620Y-69996434D01*
X133204634Y-70088420D01*
X133132361Y-70196583D01*
X133082579Y-70316769D01*
X133057200Y-70444356D01*
X120537460Y-70444356D01*
X120537460Y-65582689D01*
X123193600Y-65582689D01*
X123193600Y-66017311D01*
X123278391Y-66443583D01*
X123444714Y-66845122D01*
X123686177Y-67206498D01*
X123993502Y-67513823D01*
X124354878Y-67755286D01*
X124756417Y-67921609D01*
X125182689Y-68006400D01*
X125617311Y-68006400D01*
X126043583Y-67921609D01*
X126445122Y-67755286D01*
X126453419Y-67749742D01*
X132243920Y-67749742D01*
X132243920Y-67930258D01*
X132279137Y-68107304D01*
X132348217Y-68274078D01*
X132448506Y-68424171D01*
X132576149Y-68551814D01*
X132726242Y-68652103D01*
X132893016Y-68721183D01*
X133070062Y-68756400D01*
X133250578Y-68756400D01*
X133283743Y-68749803D01*
X133260400Y-68867156D01*
X133260400Y-68997244D01*
X133285779Y-69124831D01*
X133335561Y-69245017D01*
X133407834Y-69353180D01*
X133499820Y-69445166D01*
X133607983Y-69517439D01*
X133728169Y-69567221D01*
X133855756Y-69592600D01*
X133985844Y-69592600D01*
X134113431Y-69567221D01*
X134233617Y-69517439D01*
X134341780Y-69445166D01*
X134433766Y-69353180D01*
X134506039Y-69245017D01*
X134555821Y-69124831D01*
X134581200Y-68997244D01*
X134581200Y-68867156D01*
X134555821Y-68739569D01*
X134506039Y-68619383D01*
X134433766Y-68511220D01*
X134404502Y-68481956D01*
X149075120Y-68481956D01*
X149075120Y-68612044D01*
X149100499Y-68739631D01*
X149150281Y-68859817D01*
X149178868Y-68902600D01*
X149150281Y-68945383D01*
X149100499Y-69065569D01*
X149075120Y-69193156D01*
X149075120Y-69323244D01*
X149100499Y-69450831D01*
X149150281Y-69571017D01*
X149222554Y-69679180D01*
X149314540Y-69771166D01*
X149422703Y-69843439D01*
X149542889Y-69893221D01*
X149670476Y-69918600D01*
X149800564Y-69918600D01*
X149928151Y-69893221D01*
X150048337Y-69843439D01*
X150156500Y-69771166D01*
X150248486Y-69679180D01*
X150320759Y-69571017D01*
X150370541Y-69450831D01*
X150395920Y-69323244D01*
X150395920Y-69193156D01*
X150370541Y-69065569D01*
X150320759Y-68945383D01*
X150292172Y-68902600D01*
X150320759Y-68859817D01*
X150370541Y-68739631D01*
X150395920Y-68612044D01*
X150395920Y-68481956D01*
X150370541Y-68354369D01*
X150320759Y-68234183D01*
X150248486Y-68126020D01*
X150156500Y-68034034D01*
X150048337Y-67961761D01*
X149928151Y-67911979D01*
X149800564Y-67886600D01*
X149670476Y-67886600D01*
X149542889Y-67911979D01*
X149422703Y-67961761D01*
X149314540Y-68034034D01*
X149222554Y-68126020D01*
X149150281Y-68234183D01*
X149100499Y-68354369D01*
X149075120Y-68481956D01*
X134404502Y-68481956D01*
X134341780Y-68419234D01*
X134233617Y-68346961D01*
X134113431Y-68297179D01*
X133985844Y-68271800D01*
X133973367Y-68271800D01*
X134041503Y-68107304D01*
X134076720Y-67930258D01*
X134076720Y-67749742D01*
X150723920Y-67749742D01*
X150723920Y-67930258D01*
X150759137Y-68107304D01*
X150828217Y-68274078D01*
X150928506Y-68424171D01*
X151056149Y-68551814D01*
X151206242Y-68652103D01*
X151373016Y-68721183D01*
X151550062Y-68756400D01*
X151730578Y-68756400D01*
X151907624Y-68721183D01*
X152074398Y-68652103D01*
X152224491Y-68551814D01*
X152352134Y-68424171D01*
X152452423Y-68274078D01*
X152521503Y-68107304D01*
X152556720Y-67930258D01*
X152556720Y-67749742D01*
X152521503Y-67572696D01*
X152452423Y-67405922D01*
X152352134Y-67255829D01*
X152224491Y-67128186D01*
X152074398Y-67027897D01*
X151907624Y-66958817D01*
X151730578Y-66923600D01*
X151550062Y-66923600D01*
X151373016Y-66958817D01*
X151206242Y-67027897D01*
X151056149Y-67128186D01*
X150928506Y-67255829D01*
X150828217Y-67405922D01*
X150759137Y-67572696D01*
X150723920Y-67749742D01*
X134076720Y-67749742D01*
X134041503Y-67572696D01*
X133972423Y-67405922D01*
X133872134Y-67255829D01*
X133744491Y-67128186D01*
X133594398Y-67027897D01*
X133427624Y-66958817D01*
X133250578Y-66923600D01*
X133070062Y-66923600D01*
X132893016Y-66958817D01*
X132726242Y-67027897D01*
X132576149Y-67128186D01*
X132448506Y-67255829D01*
X132348217Y-67405922D01*
X132279137Y-67572696D01*
X132243920Y-67749742D01*
X126453419Y-67749742D01*
X126806498Y-67513823D01*
X127113823Y-67206498D01*
X127355286Y-66845122D01*
X127521609Y-66443583D01*
X127567897Y-66210878D01*
X130548920Y-66210878D01*
X130548920Y-66409122D01*
X130587595Y-66603556D01*
X130663459Y-66786709D01*
X130773598Y-66951543D01*
X130913777Y-67091722D01*
X131078611Y-67201861D01*
X131261764Y-67277725D01*
X131456198Y-67316400D01*
X131654442Y-67316400D01*
X131848876Y-67277725D01*
X132032029Y-67201861D01*
X132196863Y-67091722D01*
X132337042Y-66951543D01*
X132447181Y-66786709D01*
X132523045Y-66603556D01*
X132561720Y-66409122D01*
X132561720Y-66210878D01*
X152238920Y-66210878D01*
X152238920Y-66409122D01*
X152277595Y-66603556D01*
X152353459Y-66786709D01*
X152463598Y-66951543D01*
X152603777Y-67091722D01*
X152768611Y-67201861D01*
X152951764Y-67277725D01*
X153146198Y-67316400D01*
X153344442Y-67316400D01*
X153538876Y-67277725D01*
X153722029Y-67201861D01*
X153886863Y-67091722D01*
X154027042Y-66951543D01*
X154137181Y-66786709D01*
X154213045Y-66603556D01*
X154251720Y-66409122D01*
X154251720Y-66210878D01*
X154213045Y-66016444D01*
X154137181Y-65833291D01*
X154027042Y-65668457D01*
X153941274Y-65582689D01*
X157193600Y-65582689D01*
X157193600Y-66017311D01*
X157278391Y-66443583D01*
X157444714Y-66845122D01*
X157686177Y-67206498D01*
X157993502Y-67513823D01*
X158354878Y-67755286D01*
X158756417Y-67921609D01*
X159182689Y-68006400D01*
X159617311Y-68006400D01*
X160043583Y-67921609D01*
X160445122Y-67755286D01*
X160806498Y-67513823D01*
X161113823Y-67206498D01*
X161355286Y-66845122D01*
X161521609Y-66443583D01*
X161606400Y-66017311D01*
X161606400Y-65582689D01*
X161521609Y-65156417D01*
X161355286Y-64754878D01*
X161113823Y-64393502D01*
X160806498Y-64086177D01*
X160445122Y-63844714D01*
X160043583Y-63678391D01*
X159617311Y-63593600D01*
X159182689Y-63593600D01*
X158756417Y-63678391D01*
X158354878Y-63844714D01*
X157993502Y-64086177D01*
X157686177Y-64393502D01*
X157444714Y-64754878D01*
X157278391Y-65156417D01*
X157193600Y-65582689D01*
X153941274Y-65582689D01*
X153886863Y-65528278D01*
X153722029Y-65418139D01*
X153538876Y-65342275D01*
X153344442Y-65303600D01*
X153146198Y-65303600D01*
X152951764Y-65342275D01*
X152768611Y-65418139D01*
X152603777Y-65528278D01*
X152463598Y-65668457D01*
X152353459Y-65833291D01*
X152277595Y-66016444D01*
X152238920Y-66210878D01*
X132561720Y-66210878D01*
X132523045Y-66016444D01*
X132447181Y-65833291D01*
X132337042Y-65668457D01*
X132196863Y-65528278D01*
X132032029Y-65418139D01*
X131848876Y-65342275D01*
X131654442Y-65303600D01*
X131456198Y-65303600D01*
X131261764Y-65342275D01*
X131078611Y-65418139D01*
X130913777Y-65528278D01*
X130773598Y-65668457D01*
X130663459Y-65833291D01*
X130587595Y-66016444D01*
X130548920Y-66210878D01*
X127567897Y-66210878D01*
X127606400Y-66017311D01*
X127606400Y-65582689D01*
X127521609Y-65156417D01*
X127355286Y-64754878D01*
X127113823Y-64393502D01*
X126806498Y-64086177D01*
X126631962Y-63969556D01*
X135916920Y-63969556D01*
X135916920Y-64099644D01*
X135942299Y-64227231D01*
X135992081Y-64347417D01*
X136064354Y-64455580D01*
X136156340Y-64547566D01*
X136264503Y-64619839D01*
X136384689Y-64669621D01*
X136512276Y-64695000D01*
X136642364Y-64695000D01*
X136769951Y-64669621D01*
X136890137Y-64619839D01*
X136907520Y-64608224D01*
X136924903Y-64619839D01*
X137045089Y-64669621D01*
X137172676Y-64695000D01*
X137302764Y-64695000D01*
X137430351Y-64669621D01*
X137550537Y-64619839D01*
X137657515Y-64548358D01*
X137764493Y-64619839D01*
X137884679Y-64669621D01*
X138012266Y-64695000D01*
X138142354Y-64695000D01*
X138269941Y-64669621D01*
X138390127Y-64619839D01*
X138407510Y-64608224D01*
X138424893Y-64619839D01*
X138545079Y-64669621D01*
X138672666Y-64695000D01*
X138802754Y-64695000D01*
X138930341Y-64669621D01*
X139050527Y-64619839D01*
X139158690Y-64547566D01*
X139250676Y-64455580D01*
X139296340Y-64387240D01*
X139383689Y-64423421D01*
X139511276Y-64448800D01*
X139641364Y-64448800D01*
X139768951Y-64423421D01*
X139889137Y-64373639D01*
X139906520Y-64362024D01*
X139923903Y-64373639D01*
X140044089Y-64423421D01*
X140171676Y-64448800D01*
X140301764Y-64448800D01*
X140429351Y-64423421D01*
X140549537Y-64373639D01*
X140655820Y-64302622D01*
X140762103Y-64373639D01*
X140882289Y-64423421D01*
X141009876Y-64448800D01*
X141139964Y-64448800D01*
X141267551Y-64423421D01*
X141387737Y-64373639D01*
X141405120Y-64362024D01*
X141422503Y-64373639D01*
X141542689Y-64423421D01*
X141670276Y-64448800D01*
X141800364Y-64448800D01*
X141927951Y-64423421D01*
X142048137Y-64373639D01*
X142154420Y-64302622D01*
X142260703Y-64373639D01*
X142380889Y-64423421D01*
X142508476Y-64448800D01*
X142638564Y-64448800D01*
X142766151Y-64423421D01*
X142886337Y-64373639D01*
X142903720Y-64362024D01*
X142921103Y-64373639D01*
X143041289Y-64423421D01*
X143168876Y-64448800D01*
X143298964Y-64448800D01*
X143426551Y-64423421D01*
X143517644Y-64385689D01*
X143564344Y-64455580D01*
X143656330Y-64547566D01*
X143764493Y-64619839D01*
X143884679Y-64669621D01*
X144012266Y-64695000D01*
X144142354Y-64695000D01*
X144269941Y-64669621D01*
X144390127Y-64619839D01*
X144407510Y-64608224D01*
X144424893Y-64619839D01*
X144545079Y-64669621D01*
X144672666Y-64695000D01*
X144802754Y-64695000D01*
X144930341Y-64669621D01*
X145050527Y-64619839D01*
X145157515Y-64548351D01*
X145264503Y-64619839D01*
X145384689Y-64669621D01*
X145512276Y-64695000D01*
X145642364Y-64695000D01*
X145769951Y-64669621D01*
X145890137Y-64619839D01*
X145907520Y-64608224D01*
X145924903Y-64619839D01*
X146045089Y-64669621D01*
X146172676Y-64695000D01*
X146302764Y-64695000D01*
X146430351Y-64669621D01*
X146550537Y-64619839D01*
X146657515Y-64548358D01*
X146764493Y-64619839D01*
X146884679Y-64669621D01*
X147012266Y-64695000D01*
X147142354Y-64695000D01*
X147269941Y-64669621D01*
X147390127Y-64619839D01*
X147407510Y-64608224D01*
X147424893Y-64619839D01*
X147545079Y-64669621D01*
X147672666Y-64695000D01*
X147802754Y-64695000D01*
X147930341Y-64669621D01*
X148050527Y-64619839D01*
X148158690Y-64547566D01*
X148250676Y-64455580D01*
X148315328Y-64358822D01*
X148337503Y-64373639D01*
X148457689Y-64423421D01*
X148585276Y-64448800D01*
X148715364Y-64448800D01*
X148842951Y-64423421D01*
X148963137Y-64373639D01*
X149071300Y-64301366D01*
X149163286Y-64209380D01*
X149235559Y-64101217D01*
X149285341Y-63981031D01*
X149310720Y-63853444D01*
X149310720Y-63723356D01*
X149285341Y-63595769D01*
X149284915Y-63594741D01*
X149314540Y-63624366D01*
X149422703Y-63696639D01*
X149542889Y-63746421D01*
X149670476Y-63771800D01*
X149800564Y-63771800D01*
X149928151Y-63746421D01*
X150048337Y-63696639D01*
X150156500Y-63624366D01*
X150248486Y-63532380D01*
X150320759Y-63424217D01*
X150370541Y-63304031D01*
X150395920Y-63176444D01*
X150395920Y-63046356D01*
X150370541Y-62918769D01*
X150320759Y-62798583D01*
X150283686Y-62743100D01*
X150320759Y-62687617D01*
X150370541Y-62567431D01*
X150395920Y-62439844D01*
X150395920Y-62309756D01*
X150370541Y-62182169D01*
X150320759Y-62061983D01*
X150248486Y-61953820D01*
X150156500Y-61861834D01*
X150048337Y-61789561D01*
X149928151Y-61739779D01*
X149800564Y-61714400D01*
X149670476Y-61714400D01*
X149542889Y-61739779D01*
X149422703Y-61789561D01*
X149314540Y-61861834D01*
X149222554Y-61953820D01*
X149150281Y-62061983D01*
X149100499Y-62182169D01*
X149075120Y-62309756D01*
X149075120Y-62439844D01*
X149100499Y-62567431D01*
X149150281Y-62687617D01*
X149187354Y-62743100D01*
X149150281Y-62798583D01*
X149100499Y-62918769D01*
X149075120Y-63046356D01*
X149075120Y-63176444D01*
X149100499Y-63304031D01*
X149100925Y-63305059D01*
X149071300Y-63275434D01*
X148963137Y-63203161D01*
X148842951Y-63153379D01*
X148715364Y-63128000D01*
X148585276Y-63128000D01*
X148457689Y-63153379D01*
X148337503Y-63203161D01*
X148229340Y-63275434D01*
X148137354Y-63367420D01*
X148072702Y-63464178D01*
X148050527Y-63449361D01*
X147930341Y-63399579D01*
X147802754Y-63374200D01*
X147672666Y-63374200D01*
X147545079Y-63399579D01*
X147424893Y-63449361D01*
X147407510Y-63460976D01*
X147390127Y-63449361D01*
X147269941Y-63399579D01*
X147142354Y-63374200D01*
X147012266Y-63374200D01*
X146884679Y-63399579D01*
X146764493Y-63449361D01*
X146657515Y-63520842D01*
X146550537Y-63449361D01*
X146430351Y-63399579D01*
X146302764Y-63374200D01*
X146172676Y-63374200D01*
X146045089Y-63399579D01*
X145924903Y-63449361D01*
X145907520Y-63460976D01*
X145890137Y-63449361D01*
X145769951Y-63399579D01*
X145642364Y-63374200D01*
X145512276Y-63374200D01*
X145384689Y-63399579D01*
X145264503Y-63449361D01*
X145157515Y-63520849D01*
X145050527Y-63449361D01*
X144930341Y-63399579D01*
X144802754Y-63374200D01*
X144672666Y-63374200D01*
X144545079Y-63399579D01*
X144424893Y-63449361D01*
X144407510Y-63460976D01*
X144390127Y-63449361D01*
X144269941Y-63399579D01*
X144142354Y-63374200D01*
X144012266Y-63374200D01*
X143884679Y-63399579D01*
X143793586Y-63437311D01*
X143746886Y-63367420D01*
X143654900Y-63275434D01*
X143546737Y-63203161D01*
X143426551Y-63153379D01*
X143298964Y-63128000D01*
X143168876Y-63128000D01*
X143041289Y-63153379D01*
X142921103Y-63203161D01*
X142903720Y-63214776D01*
X142886337Y-63203161D01*
X142766151Y-63153379D01*
X142638564Y-63128000D01*
X142508476Y-63128000D01*
X142380889Y-63153379D01*
X142260703Y-63203161D01*
X142154420Y-63274178D01*
X142048137Y-63203161D01*
X141927951Y-63153379D01*
X141800364Y-63128000D01*
X141670276Y-63128000D01*
X141542689Y-63153379D01*
X141422503Y-63203161D01*
X141405120Y-63214776D01*
X141387737Y-63203161D01*
X141267551Y-63153379D01*
X141139964Y-63128000D01*
X141009876Y-63128000D01*
X140882289Y-63153379D01*
X140762103Y-63203161D01*
X140655820Y-63274178D01*
X140549537Y-63203161D01*
X140429351Y-63153379D01*
X140301764Y-63128000D01*
X140171676Y-63128000D01*
X140044089Y-63153379D01*
X139923903Y-63203161D01*
X139906520Y-63214776D01*
X139889137Y-63203161D01*
X139768951Y-63153379D01*
X139641364Y-63128000D01*
X139511276Y-63128000D01*
X139383689Y-63153379D01*
X139263503Y-63203161D01*
X139155340Y-63275434D01*
X139063354Y-63367420D01*
X139017690Y-63435760D01*
X138930341Y-63399579D01*
X138802754Y-63374200D01*
X138672666Y-63374200D01*
X138545079Y-63399579D01*
X138424893Y-63449361D01*
X138407510Y-63460976D01*
X138390127Y-63449361D01*
X138269941Y-63399579D01*
X138142354Y-63374200D01*
X138012266Y-63374200D01*
X137884679Y-63399579D01*
X137764493Y-63449361D01*
X137657515Y-63520842D01*
X137550537Y-63449361D01*
X137430351Y-63399579D01*
X137302764Y-63374200D01*
X137172676Y-63374200D01*
X137045089Y-63399579D01*
X136924903Y-63449361D01*
X136907520Y-63460976D01*
X136890137Y-63449361D01*
X136769951Y-63399579D01*
X136642364Y-63374200D01*
X136512276Y-63374200D01*
X136384689Y-63399579D01*
X136264503Y-63449361D01*
X136156340Y-63521634D01*
X136064354Y-63613620D01*
X135992081Y-63721783D01*
X135942299Y-63841969D01*
X135916920Y-63969556D01*
X126631962Y-63969556D01*
X126445122Y-63844714D01*
X126043583Y-63678391D01*
X125617311Y-63593600D01*
X125182689Y-63593600D01*
X124756417Y-63678391D01*
X124354878Y-63844714D01*
X123993502Y-64086177D01*
X123686177Y-64393502D01*
X123444714Y-64754878D01*
X123278391Y-65156417D01*
X123193600Y-65582689D01*
X120537460Y-65582689D01*
X120537460Y-62243556D01*
X134008330Y-62243556D01*
X134008330Y-62373644D01*
X134033709Y-62501231D01*
X134083491Y-62621417D01*
X134138872Y-62704300D01*
X134083491Y-62787183D01*
X134033709Y-62907369D01*
X134008330Y-63034956D01*
X134008330Y-63165044D01*
X134033709Y-63292631D01*
X134083491Y-63412817D01*
X134155764Y-63520980D01*
X134247750Y-63612966D01*
X134355913Y-63685239D01*
X134476099Y-63735021D01*
X134603686Y-63760400D01*
X134733774Y-63760400D01*
X134861361Y-63735021D01*
X134981547Y-63685239D01*
X135089710Y-63612966D01*
X135181696Y-63520980D01*
X135253969Y-63412817D01*
X135303751Y-63292631D01*
X135329130Y-63165044D01*
X135329130Y-63034956D01*
X135303751Y-62907369D01*
X135253969Y-62787183D01*
X135198588Y-62704300D01*
X135253969Y-62621417D01*
X135303751Y-62501231D01*
X135329130Y-62373644D01*
X135329130Y-62243556D01*
X135303751Y-62115969D01*
X135253969Y-61995783D01*
X135181696Y-61887620D01*
X135089710Y-61795634D01*
X134981547Y-61723361D01*
X134861361Y-61673579D01*
X134733774Y-61648200D01*
X134603686Y-61648200D01*
X134476099Y-61673579D01*
X134355913Y-61723361D01*
X134247750Y-61795634D01*
X134155764Y-61887620D01*
X134083491Y-61995783D01*
X134033709Y-62115969D01*
X134008330Y-62243556D01*
X120537460Y-62243556D01*
X120537460Y-59437470D01*
X164262540Y-59437470D01*
X164262540Y-128162540D01*
%TA.AperFunction,Conductor*%
D14*
G36*
X164262540Y-128162540D02*
G01*
X120537460Y-128162540D01*
X120537460Y-123582689D01*
X122693600Y-123582689D01*
X122693600Y-124017311D01*
X122778391Y-124443583D01*
X122944714Y-124845122D01*
X123186177Y-125206498D01*
X123493502Y-125513823D01*
X123854878Y-125755286D01*
X124256417Y-125921609D01*
X124682689Y-126006400D01*
X125117311Y-126006400D01*
X125543583Y-125921609D01*
X125945122Y-125755286D01*
X126306498Y-125513823D01*
X126613823Y-125206498D01*
X126855286Y-124845122D01*
X127021609Y-124443583D01*
X127106400Y-124017311D01*
X127106400Y-123582689D01*
X157693600Y-123582689D01*
X157693600Y-124017311D01*
X157778391Y-124443583D01*
X157944714Y-124845122D01*
X158186177Y-125206498D01*
X158493502Y-125513823D01*
X158854878Y-125755286D01*
X159256417Y-125921609D01*
X159682689Y-126006400D01*
X160117311Y-126006400D01*
X160543583Y-125921609D01*
X160945122Y-125755286D01*
X161306498Y-125513823D01*
X161613823Y-125206498D01*
X161855286Y-124845122D01*
X162021609Y-124443583D01*
X162106400Y-124017311D01*
X162106400Y-123582689D01*
X162021609Y-123156417D01*
X161855286Y-122754878D01*
X161613823Y-122393502D01*
X161306498Y-122086177D01*
X160945122Y-121844714D01*
X160543583Y-121678391D01*
X160117311Y-121593600D01*
X159682689Y-121593600D01*
X159256417Y-121678391D01*
X158854878Y-121844714D01*
X158493502Y-122086177D01*
X158186177Y-122393502D01*
X157944714Y-122754878D01*
X157778391Y-123156417D01*
X157693600Y-123582689D01*
X127106400Y-123582689D01*
X127021609Y-123156417D01*
X126855286Y-122754878D01*
X126613823Y-122393502D01*
X126306498Y-122086177D01*
X125945122Y-121844714D01*
X125543583Y-121678391D01*
X125117311Y-121593600D01*
X124682689Y-121593600D01*
X124256417Y-121678391D01*
X123854878Y-121844714D01*
X123493502Y-122086177D01*
X123186177Y-122393502D01*
X122944714Y-122754878D01*
X122778391Y-123156417D01*
X122693600Y-123582689D01*
X120537460Y-123582689D01*
X120537460Y-85284956D01*
X120789602Y-85284956D01*
X120789602Y-85415044D01*
X120814981Y-85542631D01*
X120864763Y-85662817D01*
X120937036Y-85770980D01*
X121029022Y-85862966D01*
X121137185Y-85935239D01*
X121257371Y-85985021D01*
X121384958Y-86010400D01*
X121515046Y-86010400D01*
X121571771Y-85999116D01*
X121447548Y-86185029D01*
X121327401Y-86475091D01*
X121266150Y-86783019D01*
X121266150Y-87096981D01*
X121327401Y-87404909D01*
X121447548Y-87694971D01*
X121621976Y-87956020D01*
X121843980Y-88178024D01*
X122105029Y-88352452D01*
X122395091Y-88472599D01*
X122703019Y-88533850D01*
X123016981Y-88533850D01*
X123324909Y-88472599D01*
X123614971Y-88352452D01*
X123854931Y-88192115D01*
X123864979Y-88242631D01*
X123914761Y-88362817D01*
X123987034Y-88470980D01*
X124079020Y-88562966D01*
X124187183Y-88635239D01*
X124307369Y-88685021D01*
X124434956Y-88710400D01*
X124565044Y-88710400D01*
X124692631Y-88685021D01*
X124812817Y-88635239D01*
X124920980Y-88562966D01*
X125012966Y-88470980D01*
X125085239Y-88362817D01*
X125100000Y-88327180D01*
X125114761Y-88362817D01*
X125187034Y-88470980D01*
X125279020Y-88562966D01*
X125387183Y-88635239D01*
X125507369Y-88685021D01*
X125634956Y-88710400D01*
X125765044Y-88710400D01*
X125892631Y-88685021D01*
X126012817Y-88635239D01*
X126120980Y-88562966D01*
X126212966Y-88470980D01*
X126285239Y-88362817D01*
X126335021Y-88242631D01*
X126360400Y-88115044D01*
X126360400Y-87984956D01*
X126335021Y-87857369D01*
X126285239Y-87737183D01*
X126212966Y-87629020D01*
X126120980Y-87537034D01*
X126095313Y-87519883D01*
X126100396Y-87514800D01*
X126199076Y-87367115D01*
X126267048Y-87203016D01*
X126301700Y-87028810D01*
X126301700Y-86851190D01*
X126267048Y-86676984D01*
X126199076Y-86512885D01*
X126100396Y-86365200D01*
X125974800Y-86239604D01*
X125827115Y-86140924D01*
X125663016Y-86072952D01*
X125488810Y-86038300D01*
X125311190Y-86038300D01*
X125136984Y-86072952D01*
X124972885Y-86140924D01*
X124825200Y-86239604D01*
X124699604Y-86365200D01*
X124600924Y-86512885D01*
X124532952Y-86676984D01*
X124498300Y-86851190D01*
X124498300Y-87028810D01*
X124532952Y-87203016D01*
X124600924Y-87367115D01*
X124623751Y-87401278D01*
X124565044Y-87389600D01*
X124434956Y-87389600D01*
X124394025Y-87397742D01*
X124453850Y-87096981D01*
X124453850Y-86783019D01*
X124392599Y-86475091D01*
X124272452Y-86185029D01*
X124098024Y-85923980D01*
X123876020Y-85701976D01*
X123614971Y-85527548D01*
X123324909Y-85407401D01*
X123048904Y-85352500D01*
X123324909Y-85297599D01*
X123614971Y-85177452D01*
X123876020Y-85003024D01*
X124098024Y-84781020D01*
X124272452Y-84519971D01*
X124392599Y-84229909D01*
X124453850Y-83921981D01*
X124453850Y-83608019D01*
X124392599Y-83300091D01*
X124272452Y-83010029D01*
X124098024Y-82748980D01*
X124044349Y-82695305D01*
X124120984Y-82727048D01*
X124295190Y-82761700D01*
X124472810Y-82761700D01*
X124647016Y-82727048D01*
X124811115Y-82659076D01*
X124958800Y-82560396D01*
X125084396Y-82434800D01*
X125183076Y-82287115D01*
X125251048Y-82123016D01*
X125285700Y-81948810D01*
X125285700Y-81771190D01*
X125514300Y-81771190D01*
X125514300Y-81948810D01*
X125548952Y-82123016D01*
X125616924Y-82287115D01*
X125715604Y-82434800D01*
X125841200Y-82560396D01*
X125988885Y-82659076D01*
X126152984Y-82727048D01*
X126327190Y-82761700D01*
X126504810Y-82761700D01*
X126679016Y-82727048D01*
X126755651Y-82695305D01*
X126701976Y-82748980D01*
X126527548Y-83010029D01*
X126407401Y-83300091D01*
X126346150Y-83608019D01*
X126346150Y-83921981D01*
X126407401Y-84229909D01*
X126527548Y-84519971D01*
X126701976Y-84781020D01*
X126923980Y-85003024D01*
X127185029Y-85177452D01*
X127475091Y-85297599D01*
X127751096Y-85352500D01*
X127475091Y-85407401D01*
X127185029Y-85527548D01*
X126923980Y-85701976D01*
X126701976Y-85923980D01*
X126527548Y-86185029D01*
X126407401Y-86475091D01*
X126346150Y-86783019D01*
X126346150Y-87096981D01*
X126407401Y-87404909D01*
X126527548Y-87694971D01*
X126701976Y-87956020D01*
X126923980Y-88178024D01*
X127185029Y-88352452D01*
X127475091Y-88472599D01*
X127783019Y-88533850D01*
X128096981Y-88533850D01*
X128404909Y-88472599D01*
X128694971Y-88352452D01*
X128956020Y-88178024D01*
X129178024Y-87956020D01*
X129352452Y-87694971D01*
X129472599Y-87404909D01*
X129533850Y-87096981D01*
X129533850Y-86783019D01*
X129472599Y-86475091D01*
X129453760Y-86429609D01*
X129512813Y-86405149D01*
X129620976Y-86332876D01*
X129712962Y-86240890D01*
X129785235Y-86132727D01*
X129835017Y-86012541D01*
X129860396Y-85884954D01*
X129860396Y-85754866D01*
X129835017Y-85627279D01*
X129785235Y-85507093D01*
X129712962Y-85398930D01*
X129620976Y-85306944D01*
X129512813Y-85234671D01*
X129392627Y-85184889D01*
X129265040Y-85159510D01*
X129134952Y-85159510D01*
X129007365Y-85184889D01*
X128887179Y-85234671D01*
X128779016Y-85306944D01*
X128687030Y-85398930D01*
X128621440Y-85497091D01*
X128404909Y-85407401D01*
X128128904Y-85352500D01*
X128404909Y-85297599D01*
X128694971Y-85177452D01*
X128956020Y-85003024D01*
X129178024Y-84781020D01*
X129352452Y-84519971D01*
X129472599Y-84229909D01*
X129533850Y-83921981D01*
X129533850Y-83608019D01*
X129472599Y-83300091D01*
X129352452Y-83010029D01*
X129178024Y-82748980D01*
X128956020Y-82526976D01*
X128694971Y-82352548D01*
X128404909Y-82232401D01*
X128167406Y-82185158D01*
X128185021Y-82142631D01*
X128210400Y-82015044D01*
X128210400Y-81884956D01*
X128185021Y-81757369D01*
X128135239Y-81637183D01*
X128062966Y-81529020D01*
X127970980Y-81437034D01*
X127862817Y-81364761D01*
X127742631Y-81314979D01*
X127615044Y-81289600D01*
X127484956Y-81289600D01*
X127357369Y-81314979D01*
X127237183Y-81364761D01*
X127190430Y-81396000D01*
X127116396Y-81285200D01*
X126990800Y-81159604D01*
X126843115Y-81060924D01*
X126679016Y-80992952D01*
X126504810Y-80958300D01*
X126327190Y-80958300D01*
X126152984Y-80992952D01*
X125988885Y-81060924D01*
X125841200Y-81159604D01*
X125715604Y-81285200D01*
X125616924Y-81432885D01*
X125548952Y-81596984D01*
X125514300Y-81771190D01*
X125285700Y-81771190D01*
X125251048Y-81596984D01*
X125183076Y-81432885D01*
X125084396Y-81285200D01*
X124958800Y-81159604D01*
X124811115Y-81060924D01*
X124647016Y-80992952D01*
X124472810Y-80958300D01*
X124295190Y-80958300D01*
X124120984Y-80992952D01*
X123956885Y-81060924D01*
X123809200Y-81159604D01*
X123683604Y-81285200D01*
X123584924Y-81432885D01*
X123516952Y-81596984D01*
X123482300Y-81771190D01*
X123482300Y-81948810D01*
X123516952Y-82123016D01*
X123584924Y-82287115D01*
X123639674Y-82369054D01*
X123614971Y-82352548D01*
X123324909Y-82232401D01*
X123016981Y-82171150D01*
X122703019Y-82171150D01*
X122395091Y-82232401D01*
X122105029Y-82352548D01*
X121843980Y-82526976D01*
X121621976Y-82748980D01*
X121447548Y-83010029D01*
X121327401Y-83300091D01*
X121266150Y-83608019D01*
X121266150Y-83921981D01*
X121327401Y-84229909D01*
X121447548Y-84519971D01*
X121567918Y-84700117D01*
X121515046Y-84689600D01*
X121384958Y-84689600D01*
X121257371Y-84714979D01*
X121137185Y-84764761D01*
X121029022Y-84837034D01*
X120937036Y-84929020D01*
X120864763Y-85037183D01*
X120814981Y-85157369D01*
X120789602Y-85284956D01*
X120537460Y-85284956D01*
X120537460Y-78859956D01*
X129189600Y-78859956D01*
X129189600Y-78990044D01*
X129214979Y-79117631D01*
X129264761Y-79237817D01*
X129337034Y-79345980D01*
X129429020Y-79437966D01*
X129537183Y-79510239D01*
X129657369Y-79560021D01*
X129784956Y-79585400D01*
X129915044Y-79585400D01*
X130042631Y-79560021D01*
X130162817Y-79510239D01*
X130270980Y-79437966D01*
X130272990Y-79435956D01*
X132752400Y-79435956D01*
X132752400Y-79566044D01*
X132777779Y-79693631D01*
X132827561Y-79813817D01*
X132899834Y-79921980D01*
X132991820Y-80013966D01*
X133099983Y-80086239D01*
X133220169Y-80136021D01*
X133347756Y-80161400D01*
X133477844Y-80161400D01*
X133605431Y-80136021D01*
X133725617Y-80086239D01*
X133833780Y-80013966D01*
X133925766Y-79921980D01*
X133998039Y-79813817D01*
X134047821Y-79693631D01*
X134073200Y-79566044D01*
X134073200Y-79435956D01*
X134047821Y-79308369D01*
X133998039Y-79188183D01*
X133925766Y-79080020D01*
X133833780Y-78988034D01*
X133725617Y-78915761D01*
X133605431Y-78865979D01*
X133477844Y-78840600D01*
X133347756Y-78840600D01*
X133220169Y-78865979D01*
X133099983Y-78915761D01*
X132991820Y-78988034D01*
X132899834Y-79080020D01*
X132827561Y-79188183D01*
X132777779Y-79308369D01*
X132752400Y-79435956D01*
X130272990Y-79435956D01*
X130362966Y-79345980D01*
X130435239Y-79237817D01*
X130485021Y-79117631D01*
X130510400Y-78990044D01*
X130510400Y-78859956D01*
X130485021Y-78732369D01*
X130435239Y-78612183D01*
X130362966Y-78504020D01*
X130270980Y-78412034D01*
X130162817Y-78339761D01*
X130042631Y-78289979D01*
X129915044Y-78264600D01*
X129784956Y-78264600D01*
X129657369Y-78289979D01*
X129537183Y-78339761D01*
X129429020Y-78412034D01*
X129337034Y-78504020D01*
X129264761Y-78612183D01*
X129214979Y-78732369D01*
X129189600Y-78859956D01*
X120537460Y-78859956D01*
X120537460Y-75582689D01*
X122693600Y-75582689D01*
X122693600Y-76017311D01*
X122778391Y-76443583D01*
X122944714Y-76845122D01*
X123186177Y-77206498D01*
X123493502Y-77513823D01*
X123854878Y-77755286D01*
X124256417Y-77921609D01*
X124682689Y-78006400D01*
X125117311Y-78006400D01*
X125543583Y-77921609D01*
X125945122Y-77755286D01*
X126306498Y-77513823D01*
X126613823Y-77206498D01*
X126855286Y-76845122D01*
X127021609Y-76443583D01*
X127057935Y-76260956D01*
X129145600Y-76260956D01*
X129145600Y-76391044D01*
X129170979Y-76518631D01*
X129220761Y-76638817D01*
X129293034Y-76746980D01*
X129385020Y-76838966D01*
X129493183Y-76911239D01*
X129613369Y-76961021D01*
X129740956Y-76986400D01*
X129871044Y-76986400D01*
X129998631Y-76961021D01*
X130118817Y-76911239D01*
X130226980Y-76838966D01*
X130318966Y-76746980D01*
X130391239Y-76638817D01*
X130441021Y-76518631D01*
X130466400Y-76391044D01*
X130466400Y-76260956D01*
X130441021Y-76133369D01*
X130391239Y-76013183D01*
X130318966Y-75905020D01*
X130293902Y-75879956D01*
X134860600Y-75879956D01*
X134860600Y-76010044D01*
X134885979Y-76137631D01*
X134935761Y-76257817D01*
X135008034Y-76365980D01*
X135100020Y-76457966D01*
X135208183Y-76530239D01*
X135328369Y-76580021D01*
X135455956Y-76605400D01*
X135586044Y-76605400D01*
X135713631Y-76580021D01*
X135833817Y-76530239D01*
X135941980Y-76457966D01*
X136033966Y-76365980D01*
X136106239Y-76257817D01*
X136156021Y-76137631D01*
X136181400Y-76010044D01*
X136181400Y-75879956D01*
X136156021Y-75752369D01*
X136106239Y-75632183D01*
X136073168Y-75582689D01*
X157693600Y-75582689D01*
X157693600Y-76017311D01*
X157778391Y-76443583D01*
X157944714Y-76845122D01*
X158186177Y-77206498D01*
X158493502Y-77513823D01*
X158854878Y-77755286D01*
X159256417Y-77921609D01*
X159682689Y-78006400D01*
X160117311Y-78006400D01*
X160543583Y-77921609D01*
X160945122Y-77755286D01*
X161306498Y-77513823D01*
X161613823Y-77206498D01*
X161855286Y-76845122D01*
X162021609Y-76443583D01*
X162106400Y-76017311D01*
X162106400Y-75582689D01*
X162021609Y-75156417D01*
X161855286Y-74754878D01*
X161613823Y-74393502D01*
X161306498Y-74086177D01*
X160945122Y-73844714D01*
X160543583Y-73678391D01*
X160117311Y-73593600D01*
X159682689Y-73593600D01*
X159256417Y-73678391D01*
X158854878Y-73844714D01*
X158493502Y-74086177D01*
X158186177Y-74393502D01*
X157944714Y-74754878D01*
X157778391Y-75156417D01*
X157693600Y-75582689D01*
X136073168Y-75582689D01*
X136033966Y-75524020D01*
X135941980Y-75432034D01*
X135833817Y-75359761D01*
X135713631Y-75309979D01*
X135586044Y-75284600D01*
X135455956Y-75284600D01*
X135328369Y-75309979D01*
X135208183Y-75359761D01*
X135100020Y-75432034D01*
X135008034Y-75524020D01*
X134935761Y-75632183D01*
X134885979Y-75752369D01*
X134860600Y-75879956D01*
X130293902Y-75879956D01*
X130226980Y-75813034D01*
X130118817Y-75740761D01*
X129998631Y-75690979D01*
X129871044Y-75665600D01*
X129740956Y-75665600D01*
X129613369Y-75690979D01*
X129493183Y-75740761D01*
X129385020Y-75813034D01*
X129293034Y-75905020D01*
X129220761Y-76013183D01*
X129170979Y-76133369D01*
X129145600Y-76260956D01*
X127057935Y-76260956D01*
X127106400Y-76017311D01*
X127106400Y-75582689D01*
X127021609Y-75156417D01*
X126855286Y-74754878D01*
X126613823Y-74393502D01*
X126525477Y-74305156D01*
X129145600Y-74305156D01*
X129145600Y-74435244D01*
X129170979Y-74562831D01*
X129220761Y-74683017D01*
X129293034Y-74791180D01*
X129385020Y-74883166D01*
X129493183Y-74955439D01*
X129613369Y-75005221D01*
X129740956Y-75030600D01*
X129871044Y-75030600D01*
X129998631Y-75005221D01*
X130118817Y-74955439D01*
X130226980Y-74883166D01*
X130318966Y-74791180D01*
X130391239Y-74683017D01*
X130441021Y-74562831D01*
X130466400Y-74435244D01*
X130466400Y-74305156D01*
X130441021Y-74177569D01*
X130391239Y-74057383D01*
X130318966Y-73949220D01*
X130226980Y-73857234D01*
X130118817Y-73784961D01*
X129998631Y-73735179D01*
X129871044Y-73709800D01*
X129740956Y-73709800D01*
X129613369Y-73735179D01*
X129493183Y-73784961D01*
X129385020Y-73857234D01*
X129293034Y-73949220D01*
X129220761Y-74057383D01*
X129170979Y-74177569D01*
X129145600Y-74305156D01*
X126525477Y-74305156D01*
X126306498Y-74086177D01*
X125945122Y-73844714D01*
X125543583Y-73678391D01*
X125117311Y-73593600D01*
X124682689Y-73593600D01*
X124256417Y-73678391D01*
X123854878Y-73844714D01*
X123493502Y-74086177D01*
X123186177Y-74393502D01*
X122944714Y-74754878D01*
X122778391Y-75156417D01*
X122693600Y-75582689D01*
X120537460Y-75582689D01*
X120537460Y-72501756D01*
X129247200Y-72501756D01*
X129247200Y-72631844D01*
X129272579Y-72759431D01*
X129322361Y-72879617D01*
X129394634Y-72987780D01*
X129486620Y-73079766D01*
X129594783Y-73152039D01*
X129714969Y-73201821D01*
X129842556Y-73227200D01*
X129972644Y-73227200D01*
X130100231Y-73201821D01*
X130220417Y-73152039D01*
X130328580Y-73079766D01*
X130420566Y-72987780D01*
X130492839Y-72879617D01*
X130542621Y-72759431D01*
X130568000Y-72631844D01*
X130568000Y-72501756D01*
X130542621Y-72374169D01*
X130492839Y-72253983D01*
X130420566Y-72145820D01*
X130328580Y-72053834D01*
X130220417Y-71981561D01*
X130100231Y-71931779D01*
X129972644Y-71906400D01*
X129842556Y-71906400D01*
X129714969Y-71931779D01*
X129594783Y-71981561D01*
X129486620Y-72053834D01*
X129394634Y-72145820D01*
X129322361Y-72253983D01*
X129272579Y-72374169D01*
X129247200Y-72501756D01*
X120537460Y-72501756D01*
X120537460Y-70444356D01*
X133057200Y-70444356D01*
X133057200Y-70574444D01*
X133082579Y-70702031D01*
X133132361Y-70822217D01*
X133204634Y-70930380D01*
X133296620Y-71022366D01*
X133404783Y-71094639D01*
X133524969Y-71144421D01*
X133652556Y-71169800D01*
X133782644Y-71169800D01*
X133910231Y-71144421D01*
X134030417Y-71094639D01*
X134138580Y-71022366D01*
X134174800Y-70986146D01*
X134211020Y-71022366D01*
X134319183Y-71094639D01*
X134439369Y-71144421D01*
X134566956Y-71169800D01*
X134697044Y-71169800D01*
X134824631Y-71144421D01*
X134944817Y-71094639D01*
X135046005Y-71027026D01*
X149334840Y-71027026D01*
X149334840Y-71157114D01*
X149360219Y-71284701D01*
X149410001Y-71404887D01*
X149482274Y-71513050D01*
X149574260Y-71605036D01*
X149682423Y-71677309D01*
X149802609Y-71727091D01*
X149930196Y-71752470D01*
X150060284Y-71752470D01*
X150187871Y-71727091D01*
X150308057Y-71677309D01*
X150416220Y-71605036D01*
X150508206Y-71513050D01*
X150580479Y-71404887D01*
X150630261Y-71284701D01*
X150655640Y-71157114D01*
X150655640Y-71027026D01*
X150630261Y-70899439D01*
X150580479Y-70779253D01*
X150508206Y-70671090D01*
X150416220Y-70579104D01*
X150308057Y-70506831D01*
X150187871Y-70457049D01*
X150060284Y-70431670D01*
X149930196Y-70431670D01*
X149802609Y-70457049D01*
X149682423Y-70506831D01*
X149574260Y-70579104D01*
X149482274Y-70671090D01*
X149410001Y-70779253D01*
X149360219Y-70899439D01*
X149334840Y-71027026D01*
X135046005Y-71027026D01*
X135052980Y-71022366D01*
X135144966Y-70930380D01*
X135217239Y-70822217D01*
X135267021Y-70702031D01*
X135292400Y-70574444D01*
X135292400Y-70444356D01*
X135267021Y-70316769D01*
X135217239Y-70196583D01*
X135185817Y-70149556D01*
X135916920Y-70149556D01*
X135916920Y-70279644D01*
X135942299Y-70407231D01*
X135992081Y-70527417D01*
X136064354Y-70635580D01*
X136156340Y-70727566D01*
X136264503Y-70799839D01*
X136384689Y-70849621D01*
X136512276Y-70875000D01*
X136642364Y-70875000D01*
X136769951Y-70849621D01*
X136890137Y-70799839D01*
X136907520Y-70788224D01*
X136924903Y-70799839D01*
X137045089Y-70849621D01*
X137172676Y-70875000D01*
X137302764Y-70875000D01*
X137430351Y-70849621D01*
X137550537Y-70799839D01*
X137657520Y-70728354D01*
X137764503Y-70799839D01*
X137884689Y-70849621D01*
X138012276Y-70875000D01*
X138142364Y-70875000D01*
X138269951Y-70849621D01*
X138390137Y-70799839D01*
X138407520Y-70788224D01*
X138424903Y-70799839D01*
X138545089Y-70849621D01*
X138672676Y-70875000D01*
X138802764Y-70875000D01*
X138930351Y-70849621D01*
X139050537Y-70799839D01*
X139158700Y-70727566D01*
X139250686Y-70635580D01*
X139322959Y-70527417D01*
X139372741Y-70407231D01*
X139398120Y-70279644D01*
X139398120Y-70149556D01*
X143416910Y-70149556D01*
X143416910Y-70279644D01*
X143442289Y-70407231D01*
X143492071Y-70527417D01*
X143564344Y-70635580D01*
X143656330Y-70727566D01*
X143764493Y-70799839D01*
X143884679Y-70849621D01*
X144012266Y-70875000D01*
X144142354Y-70875000D01*
X144269941Y-70849621D01*
X144390127Y-70799839D01*
X144407510Y-70788224D01*
X144424893Y-70799839D01*
X144545079Y-70849621D01*
X144672666Y-70875000D01*
X144802754Y-70875000D01*
X144930341Y-70849621D01*
X145050527Y-70799839D01*
X145157515Y-70728351D01*
X145264503Y-70799839D01*
X145384689Y-70849621D01*
X145512276Y-70875000D01*
X145642364Y-70875000D01*
X145769951Y-70849621D01*
X145890137Y-70799839D01*
X145907520Y-70788224D01*
X145924903Y-70799839D01*
X146045089Y-70849621D01*
X146172676Y-70875000D01*
X146302764Y-70875000D01*
X146430351Y-70849621D01*
X146550537Y-70799839D01*
X146658700Y-70727566D01*
X146750686Y-70635580D01*
X146822959Y-70527417D01*
X146872741Y-70407231D01*
X146898120Y-70279644D01*
X146898120Y-70149556D01*
X146872741Y-70021969D01*
X146822959Y-69901783D01*
X146750686Y-69793620D01*
X146658700Y-69701634D01*
X146550537Y-69629361D01*
X146430351Y-69579579D01*
X146302764Y-69554200D01*
X146172676Y-69554200D01*
X146045089Y-69579579D01*
X145924903Y-69629361D01*
X145907520Y-69640976D01*
X145890137Y-69629361D01*
X145769951Y-69579579D01*
X145642364Y-69554200D01*
X145512276Y-69554200D01*
X145384689Y-69579579D01*
X145264503Y-69629361D01*
X145157515Y-69700849D01*
X145050527Y-69629361D01*
X144930341Y-69579579D01*
X144802754Y-69554200D01*
X144672666Y-69554200D01*
X144545079Y-69579579D01*
X144424893Y-69629361D01*
X144407510Y-69640976D01*
X144390127Y-69629361D01*
X144269941Y-69579579D01*
X144142354Y-69554200D01*
X144012266Y-69554200D01*
X143884679Y-69579579D01*
X143764493Y-69629361D01*
X143656330Y-69701634D01*
X143564344Y-69793620D01*
X143492071Y-69901783D01*
X143442289Y-70021969D01*
X143416910Y-70149556D01*
X139398120Y-70149556D01*
X139372741Y-70021969D01*
X139322959Y-69901783D01*
X139250686Y-69793620D01*
X139158700Y-69701634D01*
X139050537Y-69629361D01*
X138930351Y-69579579D01*
X138802764Y-69554200D01*
X138672676Y-69554200D01*
X138545089Y-69579579D01*
X138424903Y-69629361D01*
X138407520Y-69640976D01*
X138390137Y-69629361D01*
X138269951Y-69579579D01*
X138142364Y-69554200D01*
X138012276Y-69554200D01*
X137884689Y-69579579D01*
X137764503Y-69629361D01*
X137657520Y-69700846D01*
X137550537Y-69629361D01*
X137430351Y-69579579D01*
X137302764Y-69554200D01*
X137172676Y-69554200D01*
X137045089Y-69579579D01*
X136924903Y-69629361D01*
X136907520Y-69640976D01*
X136890137Y-69629361D01*
X136769951Y-69579579D01*
X136642364Y-69554200D01*
X136512276Y-69554200D01*
X136384689Y-69579579D01*
X136264503Y-69629361D01*
X136156340Y-69701634D01*
X136064354Y-69793620D01*
X135992081Y-69901783D01*
X135942299Y-70021969D01*
X135916920Y-70149556D01*
X135185817Y-70149556D01*
X135144966Y-70088420D01*
X135052980Y-69996434D01*
X134944817Y-69924161D01*
X134824631Y-69874379D01*
X134697044Y-69849000D01*
X134566956Y-69849000D01*
X134439369Y-69874379D01*
X134319183Y-69924161D01*
X134211020Y-69996434D01*
X134174800Y-70032654D01*
X134138580Y-69996434D01*
X134030417Y-69924161D01*
X133910231Y-69874379D01*
X133782644Y-69849000D01*
X133652556Y-69849000D01*
X133524969Y-69874379D01*
X133404783Y-69924161D01*
X133296620Y-69996434D01*
X133204634Y-70088420D01*
X133132361Y-70196583D01*
X133082579Y-70316769D01*
X133057200Y-70444356D01*
X120537460Y-70444356D01*
X120537460Y-65582689D01*
X123193600Y-65582689D01*
X123193600Y-66017311D01*
X123278391Y-66443583D01*
X123444714Y-66845122D01*
X123686177Y-67206498D01*
X123993502Y-67513823D01*
X124354878Y-67755286D01*
X124756417Y-67921609D01*
X125182689Y-68006400D01*
X125617311Y-68006400D01*
X126043583Y-67921609D01*
X126445122Y-67755286D01*
X126453419Y-67749742D01*
X132243920Y-67749742D01*
X132243920Y-67930258D01*
X132279137Y-68107304D01*
X132348217Y-68274078D01*
X132448506Y-68424171D01*
X132576149Y-68551814D01*
X132726242Y-68652103D01*
X132893016Y-68721183D01*
X133070062Y-68756400D01*
X133250578Y-68756400D01*
X133283743Y-68749803D01*
X133260400Y-68867156D01*
X133260400Y-68997244D01*
X133285779Y-69124831D01*
X133335561Y-69245017D01*
X133407834Y-69353180D01*
X133499820Y-69445166D01*
X133607983Y-69517439D01*
X133728169Y-69567221D01*
X133855756Y-69592600D01*
X133985844Y-69592600D01*
X134113431Y-69567221D01*
X134233617Y-69517439D01*
X134341780Y-69445166D01*
X134433766Y-69353180D01*
X134506039Y-69245017D01*
X134555821Y-69124831D01*
X134581200Y-68997244D01*
X134581200Y-68867156D01*
X134555821Y-68739569D01*
X134506039Y-68619383D01*
X134433766Y-68511220D01*
X134404502Y-68481956D01*
X149075120Y-68481956D01*
X149075120Y-68612044D01*
X149100499Y-68739631D01*
X149150281Y-68859817D01*
X149178868Y-68902600D01*
X149150281Y-68945383D01*
X149100499Y-69065569D01*
X149075120Y-69193156D01*
X149075120Y-69323244D01*
X149100499Y-69450831D01*
X149150281Y-69571017D01*
X149222554Y-69679180D01*
X149314540Y-69771166D01*
X149422703Y-69843439D01*
X149542889Y-69893221D01*
X149670476Y-69918600D01*
X149800564Y-69918600D01*
X149928151Y-69893221D01*
X150048337Y-69843439D01*
X150156500Y-69771166D01*
X150248486Y-69679180D01*
X150320759Y-69571017D01*
X150370541Y-69450831D01*
X150395920Y-69323244D01*
X150395920Y-69193156D01*
X150370541Y-69065569D01*
X150320759Y-68945383D01*
X150292172Y-68902600D01*
X150320759Y-68859817D01*
X150370541Y-68739631D01*
X150395920Y-68612044D01*
X150395920Y-68481956D01*
X150370541Y-68354369D01*
X150320759Y-68234183D01*
X150248486Y-68126020D01*
X150156500Y-68034034D01*
X150048337Y-67961761D01*
X149928151Y-67911979D01*
X149800564Y-67886600D01*
X149670476Y-67886600D01*
X149542889Y-67911979D01*
X149422703Y-67961761D01*
X149314540Y-68034034D01*
X149222554Y-68126020D01*
X149150281Y-68234183D01*
X149100499Y-68354369D01*
X149075120Y-68481956D01*
X134404502Y-68481956D01*
X134341780Y-68419234D01*
X134233617Y-68346961D01*
X134113431Y-68297179D01*
X133985844Y-68271800D01*
X133973367Y-68271800D01*
X134041503Y-68107304D01*
X134076720Y-67930258D01*
X134076720Y-67749742D01*
X150723920Y-67749742D01*
X150723920Y-67930258D01*
X150759137Y-68107304D01*
X150828217Y-68274078D01*
X150928506Y-68424171D01*
X151056149Y-68551814D01*
X151206242Y-68652103D01*
X151373016Y-68721183D01*
X151550062Y-68756400D01*
X151730578Y-68756400D01*
X151907624Y-68721183D01*
X152074398Y-68652103D01*
X152224491Y-68551814D01*
X152352134Y-68424171D01*
X152452423Y-68274078D01*
X152521503Y-68107304D01*
X152556720Y-67930258D01*
X152556720Y-67749742D01*
X152521503Y-67572696D01*
X152452423Y-67405922D01*
X152352134Y-67255829D01*
X152224491Y-67128186D01*
X152074398Y-67027897D01*
X151907624Y-66958817D01*
X151730578Y-66923600D01*
X151550062Y-66923600D01*
X151373016Y-66958817D01*
X151206242Y-67027897D01*
X151056149Y-67128186D01*
X150928506Y-67255829D01*
X150828217Y-67405922D01*
X150759137Y-67572696D01*
X150723920Y-67749742D01*
X134076720Y-67749742D01*
X134041503Y-67572696D01*
X133972423Y-67405922D01*
X133872134Y-67255829D01*
X133744491Y-67128186D01*
X133594398Y-67027897D01*
X133427624Y-66958817D01*
X133250578Y-66923600D01*
X133070062Y-66923600D01*
X132893016Y-66958817D01*
X132726242Y-67027897D01*
X132576149Y-67128186D01*
X132448506Y-67255829D01*
X132348217Y-67405922D01*
X132279137Y-67572696D01*
X132243920Y-67749742D01*
X126453419Y-67749742D01*
X126806498Y-67513823D01*
X127113823Y-67206498D01*
X127355286Y-66845122D01*
X127521609Y-66443583D01*
X127567897Y-66210878D01*
X130548920Y-66210878D01*
X130548920Y-66409122D01*
X130587595Y-66603556D01*
X130663459Y-66786709D01*
X130773598Y-66951543D01*
X130913777Y-67091722D01*
X131078611Y-67201861D01*
X131261764Y-67277725D01*
X131456198Y-67316400D01*
X131654442Y-67316400D01*
X131848876Y-67277725D01*
X132032029Y-67201861D01*
X132196863Y-67091722D01*
X132337042Y-66951543D01*
X132447181Y-66786709D01*
X132523045Y-66603556D01*
X132561720Y-66409122D01*
X132561720Y-66210878D01*
X152238920Y-66210878D01*
X152238920Y-66409122D01*
X152277595Y-66603556D01*
X152353459Y-66786709D01*
X152463598Y-66951543D01*
X152603777Y-67091722D01*
X152768611Y-67201861D01*
X152951764Y-67277725D01*
X153146198Y-67316400D01*
X153344442Y-67316400D01*
X153538876Y-67277725D01*
X153722029Y-67201861D01*
X153886863Y-67091722D01*
X154027042Y-66951543D01*
X154137181Y-66786709D01*
X154213045Y-66603556D01*
X154251720Y-66409122D01*
X154251720Y-66210878D01*
X154213045Y-66016444D01*
X154137181Y-65833291D01*
X154027042Y-65668457D01*
X153941274Y-65582689D01*
X157193600Y-65582689D01*
X157193600Y-66017311D01*
X157278391Y-66443583D01*
X157444714Y-66845122D01*
X157686177Y-67206498D01*
X157993502Y-67513823D01*
X158354878Y-67755286D01*
X158756417Y-67921609D01*
X159182689Y-68006400D01*
X159617311Y-68006400D01*
X160043583Y-67921609D01*
X160445122Y-67755286D01*
X160806498Y-67513823D01*
X161113823Y-67206498D01*
X161355286Y-66845122D01*
X161521609Y-66443583D01*
X161606400Y-66017311D01*
X161606400Y-65582689D01*
X161521609Y-65156417D01*
X161355286Y-64754878D01*
X161113823Y-64393502D01*
X160806498Y-64086177D01*
X160445122Y-63844714D01*
X160043583Y-63678391D01*
X159617311Y-63593600D01*
X159182689Y-63593600D01*
X158756417Y-63678391D01*
X158354878Y-63844714D01*
X157993502Y-64086177D01*
X157686177Y-64393502D01*
X157444714Y-64754878D01*
X157278391Y-65156417D01*
X157193600Y-65582689D01*
X153941274Y-65582689D01*
X153886863Y-65528278D01*
X153722029Y-65418139D01*
X153538876Y-65342275D01*
X153344442Y-65303600D01*
X153146198Y-65303600D01*
X152951764Y-65342275D01*
X152768611Y-65418139D01*
X152603777Y-65528278D01*
X152463598Y-65668457D01*
X152353459Y-65833291D01*
X152277595Y-66016444D01*
X152238920Y-66210878D01*
X132561720Y-66210878D01*
X132523045Y-66016444D01*
X132447181Y-65833291D01*
X132337042Y-65668457D01*
X132196863Y-65528278D01*
X132032029Y-65418139D01*
X131848876Y-65342275D01*
X131654442Y-65303600D01*
X131456198Y-65303600D01*
X131261764Y-65342275D01*
X131078611Y-65418139D01*
X130913777Y-65528278D01*
X130773598Y-65668457D01*
X130663459Y-65833291D01*
X130587595Y-66016444D01*
X130548920Y-66210878D01*
X127567897Y-66210878D01*
X127606400Y-66017311D01*
X127606400Y-65582689D01*
X127521609Y-65156417D01*
X127355286Y-64754878D01*
X127113823Y-64393502D01*
X126806498Y-64086177D01*
X126631962Y-63969556D01*
X135916920Y-63969556D01*
X135916920Y-64099644D01*
X135942299Y-64227231D01*
X135992081Y-64347417D01*
X136064354Y-64455580D01*
X136156340Y-64547566D01*
X136264503Y-64619839D01*
X136384689Y-64669621D01*
X136512276Y-64695000D01*
X136642364Y-64695000D01*
X136769951Y-64669621D01*
X136890137Y-64619839D01*
X136907520Y-64608224D01*
X136924903Y-64619839D01*
X137045089Y-64669621D01*
X137172676Y-64695000D01*
X137302764Y-64695000D01*
X137430351Y-64669621D01*
X137550537Y-64619839D01*
X137657515Y-64548358D01*
X137764493Y-64619839D01*
X137884679Y-64669621D01*
X138012266Y-64695000D01*
X138142354Y-64695000D01*
X138269941Y-64669621D01*
X138390127Y-64619839D01*
X138407510Y-64608224D01*
X138424893Y-64619839D01*
X138545079Y-64669621D01*
X138672666Y-64695000D01*
X138802754Y-64695000D01*
X138930341Y-64669621D01*
X139050527Y-64619839D01*
X139158690Y-64547566D01*
X139250676Y-64455580D01*
X139296340Y-64387240D01*
X139383689Y-64423421D01*
X139511276Y-64448800D01*
X139641364Y-64448800D01*
X139768951Y-64423421D01*
X139889137Y-64373639D01*
X139906520Y-64362024D01*
X139923903Y-64373639D01*
X140044089Y-64423421D01*
X140171676Y-64448800D01*
X140301764Y-64448800D01*
X140429351Y-64423421D01*
X140549537Y-64373639D01*
X140655820Y-64302622D01*
X140762103Y-64373639D01*
X140882289Y-64423421D01*
X141009876Y-64448800D01*
X141139964Y-64448800D01*
X141267551Y-64423421D01*
X141387737Y-64373639D01*
X141405120Y-64362024D01*
X141422503Y-64373639D01*
X141542689Y-64423421D01*
X141670276Y-64448800D01*
X141800364Y-64448800D01*
X141927951Y-64423421D01*
X142048137Y-64373639D01*
X142154420Y-64302622D01*
X142260703Y-64373639D01*
X142380889Y-64423421D01*
X142508476Y-64448800D01*
X142638564Y-64448800D01*
X142766151Y-64423421D01*
X142886337Y-64373639D01*
X142903720Y-64362024D01*
X142921103Y-64373639D01*
X143041289Y-64423421D01*
X143168876Y-64448800D01*
X143298964Y-64448800D01*
X143426551Y-64423421D01*
X143517644Y-64385689D01*
X143564344Y-64455580D01*
X143656330Y-64547566D01*
X143764493Y-64619839D01*
X143884679Y-64669621D01*
X144012266Y-64695000D01*
X144142354Y-64695000D01*
X144269941Y-64669621D01*
X144390127Y-64619839D01*
X144407510Y-64608224D01*
X144424893Y-64619839D01*
X144545079Y-64669621D01*
X144672666Y-64695000D01*
X144802754Y-64695000D01*
X144930341Y-64669621D01*
X145050527Y-64619839D01*
X145157515Y-64548351D01*
X145264503Y-64619839D01*
X145384689Y-64669621D01*
X145512276Y-64695000D01*
X145642364Y-64695000D01*
X145769951Y-64669621D01*
X145890137Y-64619839D01*
X145907520Y-64608224D01*
X145924903Y-64619839D01*
X146045089Y-64669621D01*
X146172676Y-64695000D01*
X146302764Y-64695000D01*
X146430351Y-64669621D01*
X146550537Y-64619839D01*
X146657515Y-64548358D01*
X146764493Y-64619839D01*
X146884679Y-64669621D01*
X147012266Y-64695000D01*
X147142354Y-64695000D01*
X147269941Y-64669621D01*
X147390127Y-64619839D01*
X147407510Y-64608224D01*
X147424893Y-64619839D01*
X147545079Y-64669621D01*
X147672666Y-64695000D01*
X147802754Y-64695000D01*
X147930341Y-64669621D01*
X148050527Y-64619839D01*
X148158690Y-64547566D01*
X148250676Y-64455580D01*
X148315328Y-64358822D01*
X148337503Y-64373639D01*
X148457689Y-64423421D01*
X148585276Y-64448800D01*
X148715364Y-64448800D01*
X148842951Y-64423421D01*
X148963137Y-64373639D01*
X149071300Y-64301366D01*
X149163286Y-64209380D01*
X149235559Y-64101217D01*
X149285341Y-63981031D01*
X149310720Y-63853444D01*
X149310720Y-63723356D01*
X149285341Y-63595769D01*
X149284915Y-63594741D01*
X149314540Y-63624366D01*
X149422703Y-63696639D01*
X149542889Y-63746421D01*
X149670476Y-63771800D01*
X149800564Y-63771800D01*
X149928151Y-63746421D01*
X150048337Y-63696639D01*
X150156500Y-63624366D01*
X150248486Y-63532380D01*
X150320759Y-63424217D01*
X150370541Y-63304031D01*
X150395920Y-63176444D01*
X150395920Y-63046356D01*
X150370541Y-62918769D01*
X150320759Y-62798583D01*
X150283686Y-62743100D01*
X150320759Y-62687617D01*
X150370541Y-62567431D01*
X150395920Y-62439844D01*
X150395920Y-62309756D01*
X150370541Y-62182169D01*
X150320759Y-62061983D01*
X150248486Y-61953820D01*
X150156500Y-61861834D01*
X150048337Y-61789561D01*
X149928151Y-61739779D01*
X149800564Y-61714400D01*
X149670476Y-61714400D01*
X149542889Y-61739779D01*
X149422703Y-61789561D01*
X149314540Y-61861834D01*
X149222554Y-61953820D01*
X149150281Y-62061983D01*
X149100499Y-62182169D01*
X149075120Y-62309756D01*
X149075120Y-62439844D01*
X149100499Y-62567431D01*
X149150281Y-62687617D01*
X149187354Y-62743100D01*
X149150281Y-62798583D01*
X149100499Y-62918769D01*
X149075120Y-63046356D01*
X149075120Y-63176444D01*
X149100499Y-63304031D01*
X149100925Y-63305059D01*
X149071300Y-63275434D01*
X148963137Y-63203161D01*
X148842951Y-63153379D01*
X148715364Y-63128000D01*
X148585276Y-63128000D01*
X148457689Y-63153379D01*
X148337503Y-63203161D01*
X148229340Y-63275434D01*
X148137354Y-63367420D01*
X148072702Y-63464178D01*
X148050527Y-63449361D01*
X147930341Y-63399579D01*
X147802754Y-63374200D01*
X147672666Y-63374200D01*
X147545079Y-63399579D01*
X147424893Y-63449361D01*
X147407510Y-63460976D01*
X147390127Y-63449361D01*
X147269941Y-63399579D01*
X147142354Y-63374200D01*
X147012266Y-63374200D01*
X146884679Y-63399579D01*
X146764493Y-63449361D01*
X146657515Y-63520842D01*
X146550537Y-63449361D01*
X146430351Y-63399579D01*
X146302764Y-63374200D01*
X146172676Y-63374200D01*
X146045089Y-63399579D01*
X145924903Y-63449361D01*
X145907520Y-63460976D01*
X145890137Y-63449361D01*
X145769951Y-63399579D01*
X145642364Y-63374200D01*
X145512276Y-63374200D01*
X145384689Y-63399579D01*
X145264503Y-63449361D01*
X145157515Y-63520849D01*
X145050527Y-63449361D01*
X144930341Y-63399579D01*
X144802754Y-63374200D01*
X144672666Y-63374200D01*
X144545079Y-63399579D01*
X144424893Y-63449361D01*
X144407510Y-63460976D01*
X144390127Y-63449361D01*
X144269941Y-63399579D01*
X144142354Y-63374200D01*
X144012266Y-63374200D01*
X143884679Y-63399579D01*
X143793586Y-63437311D01*
X143746886Y-63367420D01*
X143654900Y-63275434D01*
X143546737Y-63203161D01*
X143426551Y-63153379D01*
X143298964Y-63128000D01*
X143168876Y-63128000D01*
X143041289Y-63153379D01*
X142921103Y-63203161D01*
X142903720Y-63214776D01*
X142886337Y-63203161D01*
X142766151Y-63153379D01*
X142638564Y-63128000D01*
X142508476Y-63128000D01*
X142380889Y-63153379D01*
X142260703Y-63203161D01*
X142154420Y-63274178D01*
X142048137Y-63203161D01*
X141927951Y-63153379D01*
X141800364Y-63128000D01*
X141670276Y-63128000D01*
X141542689Y-63153379D01*
X141422503Y-63203161D01*
X141405120Y-63214776D01*
X141387737Y-63203161D01*
X141267551Y-63153379D01*
X141139964Y-63128000D01*
X141009876Y-63128000D01*
X140882289Y-63153379D01*
X140762103Y-63203161D01*
X140655820Y-63274178D01*
X140549537Y-63203161D01*
X140429351Y-63153379D01*
X140301764Y-63128000D01*
X140171676Y-63128000D01*
X140044089Y-63153379D01*
X139923903Y-63203161D01*
X139906520Y-63214776D01*
X139889137Y-63203161D01*
X139768951Y-63153379D01*
X139641364Y-63128000D01*
X139511276Y-63128000D01*
X139383689Y-63153379D01*
X139263503Y-63203161D01*
X139155340Y-63275434D01*
X139063354Y-63367420D01*
X139017690Y-63435760D01*
X138930341Y-63399579D01*
X138802754Y-63374200D01*
X138672666Y-63374200D01*
X138545079Y-63399579D01*
X138424893Y-63449361D01*
X138407510Y-63460976D01*
X138390127Y-63449361D01*
X138269941Y-63399579D01*
X138142354Y-63374200D01*
X138012266Y-63374200D01*
X137884679Y-63399579D01*
X137764493Y-63449361D01*
X137657515Y-63520842D01*
X137550537Y-63449361D01*
X137430351Y-63399579D01*
X137302764Y-63374200D01*
X137172676Y-63374200D01*
X137045089Y-63399579D01*
X136924903Y-63449361D01*
X136907520Y-63460976D01*
X136890137Y-63449361D01*
X136769951Y-63399579D01*
X136642364Y-63374200D01*
X136512276Y-63374200D01*
X136384689Y-63399579D01*
X136264503Y-63449361D01*
X136156340Y-63521634D01*
X136064354Y-63613620D01*
X135992081Y-63721783D01*
X135942299Y-63841969D01*
X135916920Y-63969556D01*
X126631962Y-63969556D01*
X126445122Y-63844714D01*
X126043583Y-63678391D01*
X125617311Y-63593600D01*
X125182689Y-63593600D01*
X124756417Y-63678391D01*
X124354878Y-63844714D01*
X123993502Y-64086177D01*
X123686177Y-64393502D01*
X123444714Y-64754878D01*
X123278391Y-65156417D01*
X123193600Y-65582689D01*
X120537460Y-65582689D01*
X120537460Y-62243556D01*
X134008330Y-62243556D01*
X134008330Y-62373644D01*
X134033709Y-62501231D01*
X134083491Y-62621417D01*
X134138872Y-62704300D01*
X134083491Y-62787183D01*
X134033709Y-62907369D01*
X134008330Y-63034956D01*
X134008330Y-63165044D01*
X134033709Y-63292631D01*
X134083491Y-63412817D01*
X134155764Y-63520980D01*
X134247750Y-63612966D01*
X134355913Y-63685239D01*
X134476099Y-63735021D01*
X134603686Y-63760400D01*
X134733774Y-63760400D01*
X134861361Y-63735021D01*
X134981547Y-63685239D01*
X135089710Y-63612966D01*
X135181696Y-63520980D01*
X135253969Y-63412817D01*
X135303751Y-63292631D01*
X135329130Y-63165044D01*
X135329130Y-63034956D01*
X135303751Y-62907369D01*
X135253969Y-62787183D01*
X135198588Y-62704300D01*
X135253969Y-62621417D01*
X135303751Y-62501231D01*
X135329130Y-62373644D01*
X135329130Y-62243556D01*
X135303751Y-62115969D01*
X135253969Y-61995783D01*
X135181696Y-61887620D01*
X135089710Y-61795634D01*
X134981547Y-61723361D01*
X134861361Y-61673579D01*
X134733774Y-61648200D01*
X134603686Y-61648200D01*
X134476099Y-61673579D01*
X134355913Y-61723361D01*
X134247750Y-61795634D01*
X134155764Y-61887620D01*
X134083491Y-61995783D01*
X134033709Y-62115969D01*
X134008330Y-62243556D01*
X120537460Y-62243556D01*
X120537460Y-59437470D01*
X164262540Y-59437470D01*
X164262540Y-128162540D01*
G37*
%TD.AperFunction*%
%TD*%
M02*
