%TF.GenerationSoftware,KiCad,Pcbnew,(6.0.7)*%
%TF.CreationDate,2022-08-04T10:24:46-07:00*%
%TF.ProjectId,SZG-TEMPLATE-STD,535a472d-5445-44d5-904c-4154452d5354,A*%
%TF.SameCoordinates,Original*%
%TF.FileFunction,Copper,L2,Inr*%
%TF.FilePolarity,Positive*%
%FSLAX46Y46*%
G04 Gerber Fmt 4.6, Leading zero omitted, Abs format (unit mm)*
G04 Created by KiCad (PCBNEW (6.0.7)) date 2022-08-04 10:24:46*
%MOMM*%
%LPD*%
G01*
G04 APERTURE LIST*
%TA.AperFunction,ComponentPad*%
%ADD10C,3.600000*%
%TD*%
%TA.AperFunction,ComponentPad*%
%ADD11C,1.200000*%
%TD*%
%TA.AperFunction,ViaPad*%
%ADD12C,0.508000*%
%TD*%
G04 APERTURE END LIST*
D10*
%TO.N,N/C*%
%TO.C,H6*%
X159900000Y-123800000D03*
%TD*%
%TO.N,N/C*%
%TO.C,H5*%
X124900000Y-123800000D03*
%TD*%
%TO.N,N/C*%
%TO.C,H4*%
X159900000Y-75800000D03*
%TD*%
%TO.N,N/C*%
%TO.C,H3*%
X124900000Y-75800000D03*
%TD*%
%TO.N,N/C*%
%TO.C,H2*%
X159400000Y-65800000D03*
%TD*%
%TO.N,N/C*%
%TO.C,H1*%
X125400000Y-65800000D03*
%TD*%
D11*
%TO.N,N/C*%
%TO.C,J1*%
X131555320Y-66300000D03*
X153245320Y-66300000D03*
%TD*%
D12*
%TO.N,+5V*%
X134073200Y-61993800D03*
X134073200Y-63416200D03*
X134066940Y-62716200D03*
%TO.N,GND*%
X125400000Y-82100000D03*
X132295200Y-75960800D03*
X133301600Y-75960800D03*
X132295200Y-74751200D03*
X133301600Y-74751200D03*
X137883200Y-65150000D03*
X140499400Y-65150000D03*
X141261400Y-65150000D03*
X139229400Y-65150000D03*
X137095800Y-65150000D03*
X134936800Y-65150000D03*
X133946200Y-65150000D03*
X132981000Y-65150000D03*
X135521000Y-75259200D03*
X135394000Y-72135000D03*
X135419400Y-73786000D03*
X149879800Y-65150000D03*
X150845000Y-65150000D03*
X151835600Y-65150000D03*
X143517600Y-65150000D03*
X145575000Y-65150000D03*
X147607000Y-65150000D03*
X146591000Y-65150000D03*
X144559000Y-65150000D03*
%TO.N,/MCU_MISO*%
X125700000Y-88050000D03*
%TO.N,+3V3*%
X135521000Y-75945000D03*
X133412800Y-79501000D03*
X134632000Y-70509400D03*
X150735600Y-63415000D03*
X150729340Y-62715000D03*
X150729340Y-62003800D03*
X128725000Y-79450000D03*
%TO.N,/R_GA*%
X133717600Y-70509400D03*
X135597200Y-63778400D03*
%TO.N,/RSVD_38*%
X149202120Y-63778400D03*
%TO.N,/C2P_CLKN*%
X148402020Y-63778400D03*
%TO.N,/C2P_CLKP*%
X147601920Y-63778400D03*
%TO.N,/S27*%
X146801820Y-63778400D03*
%TO.N,/S25*%
X146001720Y-63778400D03*
%TO.N,/S23*%
X145201620Y-63778400D03*
%TO.N,/S21*%
X144401520Y-63778400D03*
%TO.N,/S19*%
X143601420Y-63778400D03*
%TO.N,/S17*%
X142801320Y-63778400D03*
%TO.N,/S15_D7N*%
X142001220Y-63778400D03*
%TO.N,/S13_D7P*%
X141201120Y-63778400D03*
%TO.N,/S11_D5N*%
X140401020Y-63778400D03*
%TO.N,/S9_D5P*%
X139600920Y-63778400D03*
%TO.N,/S7_D3N*%
X138800820Y-63778400D03*
%TO.N,/S5_D3P*%
X138000720Y-63778400D03*
%TO.N,/S3_D1N*%
X137200620Y-63778400D03*
%TO.N,/S1_D1P*%
X136400520Y-63778400D03*
%TO.N,/MCU_SCL_USCK*%
X129400000Y-85819910D03*
%TO.N,+3V3*%
X124500000Y-88050000D03*
%TO.N,/MCU_SCL_USCK*%
X129907600Y-72566800D03*
%TO.N,/MCU_SDA_MOSI*%
X121450002Y-85350000D03*
%TO.N,/MCU_MISO*%
X129806000Y-74370200D03*
%TO.N,/MCU_SDA_MOSI*%
X129025004Y-76300000D03*
%TO.N,/MCU_RESET_B*%
X127550000Y-81950000D03*
%TO.N,/VIO*%
X150729340Y-68400000D03*
X150729340Y-69136600D03*
X150735600Y-69836600D03*
%TD*%
%TA.AperFunction,Conductor*%
%TO.N,GND*%
G36*
X164331661Y-59330472D02*
G01*
X164378154Y-59384128D01*
X164389540Y-59436470D01*
X164389540Y-128163540D01*
X164369538Y-128231661D01*
X164315882Y-128278154D01*
X164263540Y-128289540D01*
X120536460Y-128289540D01*
X120468339Y-128269538D01*
X120421846Y-128215882D01*
X120410460Y-128163540D01*
X120410460Y-123778169D01*
X122815354Y-123778169D01*
X122831679Y-124061290D01*
X122832504Y-124065495D01*
X122832505Y-124065503D01*
X122864065Y-124226363D01*
X122886276Y-124339576D01*
X122887663Y-124343626D01*
X122887664Y-124343631D01*
X122976748Y-124603821D01*
X122978137Y-124607877D01*
X123105559Y-124861229D01*
X123107985Y-124864758D01*
X123107988Y-124864764D01*
X123143937Y-124917070D01*
X123266187Y-125094944D01*
X123457048Y-125304697D01*
X123460337Y-125307447D01*
X123671317Y-125483854D01*
X123671322Y-125483858D01*
X123674609Y-125486606D01*
X123730418Y-125521615D01*
X123911205Y-125635023D01*
X123911209Y-125635025D01*
X123914845Y-125637306D01*
X123918755Y-125639071D01*
X123918756Y-125639072D01*
X124169399Y-125752242D01*
X124169403Y-125752244D01*
X124173311Y-125754008D01*
X124177431Y-125755228D01*
X124177430Y-125755228D01*
X124441111Y-125833334D01*
X124441115Y-125833335D01*
X124445224Y-125834552D01*
X124449458Y-125835200D01*
X124449463Y-125835201D01*
X124721310Y-125876799D01*
X124721312Y-125876799D01*
X124725552Y-125877448D01*
X124869875Y-125879715D01*
X125004817Y-125881836D01*
X125004823Y-125881836D01*
X125009108Y-125881903D01*
X125290645Y-125847833D01*
X125564954Y-125775870D01*
X125568914Y-125774230D01*
X125568919Y-125774228D01*
X125695956Y-125721607D01*
X125826958Y-125667344D01*
X126071809Y-125524264D01*
X126294977Y-125349279D01*
X126341255Y-125301524D01*
X126489348Y-125148702D01*
X126492331Y-125145624D01*
X126494864Y-125142176D01*
X126494868Y-125142171D01*
X126657683Y-124920525D01*
X126660221Y-124917070D01*
X126690540Y-124861229D01*
X126793489Y-124671622D01*
X126793490Y-124671620D01*
X126795539Y-124667846D01*
X126895781Y-124402562D01*
X126959093Y-124126128D01*
X126984303Y-123843660D01*
X126984760Y-123800000D01*
X126984591Y-123797519D01*
X126983272Y-123778169D01*
X157815354Y-123778169D01*
X157831679Y-124061290D01*
X157832504Y-124065495D01*
X157832505Y-124065503D01*
X157864065Y-124226363D01*
X157886276Y-124339576D01*
X157887663Y-124343626D01*
X157887664Y-124343631D01*
X157976748Y-124603821D01*
X157978137Y-124607877D01*
X158105559Y-124861229D01*
X158107985Y-124864758D01*
X158107988Y-124864764D01*
X158143937Y-124917070D01*
X158266187Y-125094944D01*
X158457048Y-125304697D01*
X158460337Y-125307447D01*
X158671317Y-125483854D01*
X158671322Y-125483858D01*
X158674609Y-125486606D01*
X158730418Y-125521615D01*
X158911205Y-125635023D01*
X158911209Y-125635025D01*
X158914845Y-125637306D01*
X158918755Y-125639071D01*
X158918756Y-125639072D01*
X159169399Y-125752242D01*
X159169403Y-125752244D01*
X159173311Y-125754008D01*
X159177431Y-125755228D01*
X159177430Y-125755228D01*
X159441111Y-125833334D01*
X159441115Y-125833335D01*
X159445224Y-125834552D01*
X159449458Y-125835200D01*
X159449463Y-125835201D01*
X159721310Y-125876799D01*
X159721312Y-125876799D01*
X159725552Y-125877448D01*
X159869875Y-125879715D01*
X160004817Y-125881836D01*
X160004823Y-125881836D01*
X160009108Y-125881903D01*
X160290645Y-125847833D01*
X160564954Y-125775870D01*
X160568914Y-125774230D01*
X160568919Y-125774228D01*
X160695956Y-125721607D01*
X160826958Y-125667344D01*
X161071809Y-125524264D01*
X161294977Y-125349279D01*
X161341255Y-125301524D01*
X161489348Y-125148702D01*
X161492331Y-125145624D01*
X161494864Y-125142176D01*
X161494868Y-125142171D01*
X161657683Y-124920525D01*
X161660221Y-124917070D01*
X161690540Y-124861229D01*
X161793489Y-124671622D01*
X161793490Y-124671620D01*
X161795539Y-124667846D01*
X161895781Y-124402562D01*
X161959093Y-124126128D01*
X161984303Y-123843660D01*
X161984760Y-123800000D01*
X161984591Y-123797519D01*
X161965763Y-123521343D01*
X161965762Y-123521337D01*
X161965471Y-123517066D01*
X161907963Y-123239367D01*
X161813298Y-122972042D01*
X161683229Y-122720038D01*
X161672821Y-122705228D01*
X161522626Y-122491523D01*
X161520163Y-122488018D01*
X161327116Y-122280275D01*
X161107662Y-122100654D01*
X160865861Y-121952478D01*
X160848070Y-121944668D01*
X160610119Y-121840215D01*
X160606187Y-121838489D01*
X160333446Y-121760797D01*
X160124934Y-121731122D01*
X160056936Y-121721444D01*
X160056934Y-121721444D01*
X160052684Y-121720839D01*
X159903222Y-121720056D01*
X159773383Y-121719376D01*
X159773376Y-121719376D01*
X159769097Y-121719354D01*
X159764853Y-121719913D01*
X159764849Y-121719913D01*
X159641234Y-121736187D01*
X159487932Y-121756370D01*
X159483792Y-121757503D01*
X159483790Y-121757503D01*
X159218537Y-121830068D01*
X159214392Y-121831202D01*
X158953539Y-121942465D01*
X158949858Y-121944668D01*
X158713881Y-122085897D01*
X158713877Y-122085900D01*
X158710199Y-122088101D01*
X158488876Y-122265414D01*
X158293665Y-122471124D01*
X158128178Y-122701424D01*
X157995477Y-122952052D01*
X157898018Y-123218371D01*
X157837605Y-123495452D01*
X157815354Y-123778169D01*
X126983272Y-123778169D01*
X126965763Y-123521343D01*
X126965762Y-123521337D01*
X126965471Y-123517066D01*
X126907963Y-123239367D01*
X126813298Y-122972042D01*
X126683229Y-122720038D01*
X126672821Y-122705228D01*
X126522626Y-122491523D01*
X126520163Y-122488018D01*
X126327116Y-122280275D01*
X126107662Y-122100654D01*
X125865861Y-121952478D01*
X125848070Y-121944668D01*
X125610119Y-121840215D01*
X125606187Y-121838489D01*
X125333446Y-121760797D01*
X125124934Y-121731122D01*
X125056936Y-121721444D01*
X125056934Y-121721444D01*
X125052684Y-121720839D01*
X124903222Y-121720056D01*
X124773383Y-121719376D01*
X124773376Y-121719376D01*
X124769097Y-121719354D01*
X124764853Y-121719913D01*
X124764849Y-121719913D01*
X124641234Y-121736187D01*
X124487932Y-121756370D01*
X124483792Y-121757503D01*
X124483790Y-121757503D01*
X124218537Y-121830068D01*
X124214392Y-121831202D01*
X123953539Y-121942465D01*
X123949858Y-121944668D01*
X123713881Y-122085897D01*
X123713877Y-122085900D01*
X123710199Y-122088101D01*
X123488876Y-122265414D01*
X123293665Y-122471124D01*
X123128178Y-122701424D01*
X122995477Y-122952052D01*
X122898018Y-123218371D01*
X122837605Y-123495452D01*
X122815354Y-123778169D01*
X120410460Y-123778169D01*
X120410460Y-85350000D01*
X120911495Y-85350000D01*
X120929844Y-85489376D01*
X120983641Y-85619253D01*
X121013064Y-85657598D01*
X121054708Y-85711869D01*
X121069220Y-85730782D01*
X121075770Y-85735808D01*
X121075773Y-85735811D01*
X121121162Y-85770639D01*
X121180748Y-85816361D01*
X121209084Y-85828098D01*
X121302996Y-85866998D01*
X121302999Y-85866999D01*
X121310626Y-85870158D01*
X121450002Y-85888507D01*
X121458190Y-85887429D01*
X121555903Y-85874565D01*
X121626052Y-85885504D01*
X121679150Y-85932633D01*
X121698340Y-86000987D01*
X121677529Y-86068864D01*
X121671231Y-86077579D01*
X121662083Y-86089163D01*
X121633624Y-86125198D01*
X121517013Y-86336438D01*
X121436470Y-86563887D01*
X121435563Y-86568979D01*
X121398066Y-86779484D01*
X121394155Y-86801437D01*
X121394092Y-86806600D01*
X121392482Y-86938442D01*
X121391208Y-87042708D01*
X121427705Y-87281221D01*
X121502668Y-87510570D01*
X121614083Y-87724596D01*
X121617186Y-87728729D01*
X121617188Y-87728732D01*
X121748029Y-87902995D01*
X121758958Y-87917551D01*
X121933402Y-88084253D01*
X121970209Y-88109361D01*
X122103013Y-88199954D01*
X122132730Y-88220226D01*
X122137413Y-88222400D01*
X122137417Y-88222402D01*
X122346895Y-88319638D01*
X122346898Y-88319639D01*
X122351590Y-88321817D01*
X122584104Y-88386299D01*
X122589241Y-88386848D01*
X122777751Y-88406994D01*
X122777759Y-88406994D01*
X122781086Y-88407350D01*
X122921169Y-88407350D01*
X122923742Y-88407138D01*
X122923753Y-88407138D01*
X123024249Y-88398875D01*
X123100478Y-88392608D01*
X123334497Y-88333826D01*
X123482498Y-88269474D01*
X123551037Y-88239673D01*
X123551040Y-88239671D01*
X123555774Y-88237613D01*
X123737318Y-88120167D01*
X123754022Y-88109361D01*
X123754025Y-88109359D01*
X123758365Y-88106551D01*
X123768148Y-88097649D01*
X123831993Y-88066597D01*
X123902492Y-88074991D01*
X123957261Y-88120167D01*
X123977870Y-88174397D01*
X123979842Y-88189376D01*
X124033639Y-88319253D01*
X124038666Y-88325804D01*
X124088959Y-88391347D01*
X124119218Y-88430782D01*
X124125768Y-88435808D01*
X124125771Y-88435811D01*
X124174982Y-88473572D01*
X124230746Y-88516361D01*
X124295685Y-88543260D01*
X124352994Y-88566998D01*
X124352997Y-88566999D01*
X124360624Y-88570158D01*
X124500000Y-88588507D01*
X124508188Y-88587429D01*
X124631188Y-88571236D01*
X124639376Y-88570158D01*
X124647003Y-88566999D01*
X124647006Y-88566998D01*
X124704315Y-88543259D01*
X124769254Y-88516361D01*
X124825018Y-88473572D01*
X124874229Y-88435811D01*
X124874232Y-88435808D01*
X124880782Y-88430782D01*
X124911042Y-88391347D01*
X124961334Y-88325804D01*
X124966361Y-88319253D01*
X124983591Y-88277656D01*
X125028139Y-88222375D01*
X125095503Y-88199954D01*
X125164294Y-88217512D01*
X125212672Y-88269474D01*
X125216408Y-88277654D01*
X125233639Y-88319253D01*
X125238666Y-88325804D01*
X125288959Y-88391347D01*
X125319218Y-88430782D01*
X125325768Y-88435808D01*
X125325771Y-88435811D01*
X125374982Y-88473572D01*
X125430746Y-88516361D01*
X125495685Y-88543260D01*
X125552994Y-88566998D01*
X125552997Y-88566999D01*
X125560624Y-88570158D01*
X125700000Y-88588507D01*
X125708188Y-88587429D01*
X125831188Y-88571236D01*
X125839376Y-88570158D01*
X125847003Y-88566999D01*
X125847006Y-88566998D01*
X125904315Y-88543259D01*
X125969254Y-88516361D01*
X126025018Y-88473572D01*
X126074229Y-88435811D01*
X126074232Y-88435808D01*
X126080782Y-88430782D01*
X126111042Y-88391347D01*
X126161334Y-88325804D01*
X126166361Y-88319253D01*
X126220158Y-88189376D01*
X126238507Y-88050000D01*
X126220158Y-87910624D01*
X126166361Y-87780747D01*
X126080782Y-87669218D01*
X126074232Y-87664192D01*
X126074229Y-87664189D01*
X126017529Y-87620682D01*
X125975662Y-87563344D01*
X125971440Y-87492473D01*
X126000265Y-87440643D01*
X125998554Y-87439268D01*
X126002966Y-87433781D01*
X126007965Y-87428817D01*
X126011737Y-87422874D01*
X126011739Y-87422871D01*
X126097377Y-87287927D01*
X126101154Y-87281976D01*
X126111432Y-87253111D01*
X126157132Y-87124773D01*
X126157133Y-87124768D01*
X126159494Y-87118138D01*
X126160327Y-87111152D01*
X126160328Y-87111148D01*
X126179252Y-86952439D01*
X126180086Y-86945446D01*
X126164950Y-86801437D01*
X126162643Y-86779484D01*
X126162642Y-86779482D01*
X126161907Y-86772484D01*
X126105860Y-86607847D01*
X126102169Y-86601847D01*
X126018422Y-86465718D01*
X126018420Y-86465716D01*
X126014731Y-86459719D01*
X125893049Y-86335462D01*
X125746862Y-86241251D01*
X125740242Y-86238841D01*
X125740239Y-86238840D01*
X125590055Y-86184177D01*
X125590054Y-86184177D01*
X125583436Y-86181768D01*
X125576448Y-86180885D01*
X125576447Y-86180885D01*
X125544121Y-86176801D01*
X125449118Y-86164800D01*
X125356271Y-86164800D01*
X125227169Y-86179281D01*
X125220516Y-86181598D01*
X125220515Y-86181598D01*
X125184497Y-86194141D01*
X125062928Y-86236476D01*
X125056954Y-86240209D01*
X125056952Y-86240210D01*
X124921414Y-86324904D01*
X124915440Y-86328637D01*
X124910442Y-86333600D01*
X124910441Y-86333601D01*
X124891892Y-86352021D01*
X124792035Y-86451183D01*
X124698846Y-86598024D01*
X124696481Y-86604666D01*
X124642868Y-86755227D01*
X124642867Y-86755232D01*
X124640506Y-86761862D01*
X124639673Y-86768848D01*
X124639672Y-86768852D01*
X124630895Y-86842462D01*
X124619914Y-86934554D01*
X124620650Y-86941557D01*
X124620650Y-86941558D01*
X124635585Y-87083651D01*
X124638093Y-87107516D01*
X124694140Y-87272153D01*
X124697829Y-87278149D01*
X124697832Y-87278156D01*
X124732739Y-87334895D01*
X124751398Y-87403396D01*
X124730059Y-87471111D01*
X124675500Y-87516539D01*
X124608977Y-87525840D01*
X124500000Y-87511493D01*
X124404227Y-87524102D01*
X124334080Y-87513163D01*
X124280981Y-87466035D01*
X124261791Y-87397681D01*
X124269009Y-87357122D01*
X124281803Y-87320992D01*
X124281805Y-87320984D01*
X124283530Y-87316113D01*
X124317614Y-87124773D01*
X124324939Y-87083651D01*
X124324939Y-87083647D01*
X124325845Y-87078563D01*
X124327471Y-86945446D01*
X124328729Y-86842462D01*
X124328729Y-86842460D01*
X124328792Y-86837292D01*
X124292295Y-86598779D01*
X124217332Y-86369430D01*
X124149351Y-86238840D01*
X124108306Y-86159993D01*
X124108305Y-86159992D01*
X124105917Y-86155404D01*
X124086639Y-86129727D01*
X123964147Y-85966584D01*
X123964145Y-85966581D01*
X123961042Y-85962449D01*
X123786598Y-85795747D01*
X123587270Y-85659774D01*
X123582587Y-85657600D01*
X123582583Y-85657598D01*
X123373105Y-85560362D01*
X123373102Y-85560361D01*
X123368410Y-85558183D01*
X123135896Y-85493701D01*
X123130759Y-85493152D01*
X122985730Y-85477653D01*
X122920120Y-85450525D01*
X122879592Y-85392233D01*
X122877013Y-85321283D01*
X122913202Y-85260202D01*
X122976669Y-85228382D01*
X122988793Y-85226790D01*
X123100478Y-85217608D01*
X123334497Y-85158826D01*
X123463309Y-85102817D01*
X123551037Y-85064673D01*
X123551040Y-85064671D01*
X123555774Y-85062613D01*
X123707905Y-84964195D01*
X123754022Y-84934361D01*
X123754025Y-84934359D01*
X123758365Y-84931551D01*
X123782871Y-84909253D01*
X123933008Y-84772638D01*
X123933009Y-84772636D01*
X123936830Y-84769160D01*
X123940029Y-84765109D01*
X123940033Y-84765105D01*
X124083171Y-84583860D01*
X124086376Y-84579802D01*
X124202987Y-84368562D01*
X124283530Y-84141113D01*
X124325845Y-83903563D01*
X124328792Y-83662292D01*
X124292295Y-83423779D01*
X124217332Y-83194430D01*
X124105917Y-82980404D01*
X123961042Y-82787449D01*
X123957305Y-82783877D01*
X123954482Y-82780698D01*
X123924214Y-82716477D01*
X123933472Y-82646087D01*
X123979316Y-82591875D01*
X124047191Y-82571055D01*
X124091800Y-82578645D01*
X124200564Y-82618232D01*
X124207552Y-82619115D01*
X124207553Y-82619115D01*
X124226465Y-82621504D01*
X124334882Y-82635200D01*
X124427729Y-82635200D01*
X124556831Y-82620719D01*
X124563484Y-82618402D01*
X124563485Y-82618402D01*
X124639659Y-82591875D01*
X124721072Y-82563524D01*
X124734826Y-82554930D01*
X124862586Y-82475096D01*
X124868560Y-82471363D01*
X124874639Y-82465327D01*
X124967376Y-82373235D01*
X124991965Y-82348817D01*
X125085154Y-82201976D01*
X125128165Y-82081188D01*
X125141132Y-82044773D01*
X125141133Y-82044768D01*
X125143494Y-82038138D01*
X125144327Y-82031152D01*
X125144328Y-82031148D01*
X125163252Y-81872439D01*
X125164086Y-81865446D01*
X125162941Y-81854554D01*
X125635914Y-81854554D01*
X125654093Y-82027516D01*
X125710140Y-82192153D01*
X125713830Y-82198151D01*
X125713831Y-82198153D01*
X125784112Y-82312392D01*
X125801269Y-82340281D01*
X125922951Y-82464538D01*
X126069138Y-82558749D01*
X126075758Y-82561159D01*
X126075761Y-82561160D01*
X126225945Y-82615823D01*
X126232564Y-82618232D01*
X126239552Y-82619115D01*
X126239553Y-82619115D01*
X126258465Y-82621504D01*
X126366882Y-82635200D01*
X126459729Y-82635200D01*
X126588831Y-82620719D01*
X126595485Y-82618402D01*
X126652781Y-82598449D01*
X126711641Y-82577952D01*
X126782549Y-82574438D01*
X126844102Y-82609819D01*
X126876754Y-82672861D01*
X126870140Y-82743549D01*
X126851959Y-82775035D01*
X126838889Y-82791585D01*
X126713624Y-82950198D01*
X126597013Y-83161438D01*
X126516470Y-83388887D01*
X126474155Y-83626437D01*
X126471208Y-83867708D01*
X126507705Y-84106221D01*
X126582668Y-84335570D01*
X126694083Y-84549596D01*
X126697186Y-84553729D01*
X126697188Y-84553732D01*
X126800234Y-84690976D01*
X126838958Y-84742551D01*
X127013402Y-84909253D01*
X127212730Y-85045226D01*
X127217413Y-85047400D01*
X127217417Y-85047402D01*
X127426895Y-85144638D01*
X127426898Y-85144639D01*
X127431590Y-85146817D01*
X127664104Y-85211299D01*
X127669241Y-85211848D01*
X127814270Y-85227347D01*
X127879880Y-85254475D01*
X127920408Y-85312767D01*
X127922987Y-85383717D01*
X127886798Y-85444798D01*
X127823331Y-85476618D01*
X127811207Y-85478210D01*
X127699522Y-85487392D01*
X127465503Y-85546174D01*
X127432873Y-85560362D01*
X127248963Y-85640327D01*
X127248960Y-85640329D01*
X127244226Y-85642387D01*
X127163964Y-85694311D01*
X127045978Y-85770639D01*
X127045975Y-85770641D01*
X127041635Y-85773449D01*
X127037812Y-85776928D01*
X127037809Y-85776930D01*
X126930510Y-85874565D01*
X126863170Y-85935840D01*
X126859971Y-85939891D01*
X126859967Y-85939895D01*
X126838628Y-85966915D01*
X126713624Y-86125198D01*
X126597013Y-86336438D01*
X126516470Y-86563887D01*
X126515563Y-86568979D01*
X126478066Y-86779484D01*
X126474155Y-86801437D01*
X126474092Y-86806600D01*
X126472482Y-86938442D01*
X126471208Y-87042708D01*
X126507705Y-87281221D01*
X126582668Y-87510570D01*
X126694083Y-87724596D01*
X126697186Y-87728729D01*
X126697188Y-87728732D01*
X126828029Y-87902995D01*
X126838958Y-87917551D01*
X127013402Y-88084253D01*
X127050209Y-88109361D01*
X127183013Y-88199954D01*
X127212730Y-88220226D01*
X127217413Y-88222400D01*
X127217417Y-88222402D01*
X127426895Y-88319638D01*
X127426898Y-88319639D01*
X127431590Y-88321817D01*
X127664104Y-88386299D01*
X127669241Y-88386848D01*
X127857751Y-88406994D01*
X127857759Y-88406994D01*
X127861086Y-88407350D01*
X128001169Y-88407350D01*
X128003742Y-88407138D01*
X128003753Y-88407138D01*
X128104249Y-88398875D01*
X128180478Y-88392608D01*
X128414497Y-88333826D01*
X128562498Y-88269474D01*
X128631037Y-88239673D01*
X128631040Y-88239671D01*
X128635774Y-88237613D01*
X128817318Y-88120167D01*
X128834022Y-88109361D01*
X128834025Y-88109359D01*
X128838365Y-88106551D01*
X128848149Y-88097649D01*
X129013008Y-87947638D01*
X129013009Y-87947636D01*
X129016830Y-87944160D01*
X129020029Y-87940109D01*
X129020033Y-87940105D01*
X129145886Y-87780747D01*
X129166376Y-87754802D01*
X129282987Y-87543562D01*
X129363530Y-87316113D01*
X129397614Y-87124773D01*
X129404939Y-87083651D01*
X129404939Y-87083647D01*
X129405845Y-87078563D01*
X129407471Y-86945446D01*
X129408729Y-86842462D01*
X129408729Y-86842460D01*
X129408792Y-86837292D01*
X129372295Y-86598779D01*
X129345267Y-86516087D01*
X129343116Y-86445125D01*
X129379672Y-86384263D01*
X129448585Y-86352021D01*
X129531188Y-86341146D01*
X129539376Y-86340068D01*
X129547003Y-86336909D01*
X129547006Y-86336908D01*
X129604315Y-86313170D01*
X129669254Y-86286271D01*
X129727925Y-86241251D01*
X129774229Y-86205721D01*
X129774232Y-86205718D01*
X129780782Y-86200692D01*
X129793455Y-86184177D01*
X129861334Y-86095714D01*
X129866361Y-86089163D01*
X129920158Y-85959286D01*
X129938507Y-85819910D01*
X129920158Y-85680534D01*
X129866361Y-85550657D01*
X129780782Y-85439128D01*
X129774232Y-85434102D01*
X129774229Y-85434099D01*
X129708569Y-85383717D01*
X129669254Y-85353549D01*
X129591357Y-85321283D01*
X129547006Y-85302912D01*
X129547003Y-85302911D01*
X129539376Y-85299752D01*
X129400000Y-85281403D01*
X129260624Y-85299752D01*
X129130747Y-85353549D01*
X129019218Y-85439128D01*
X128933639Y-85550657D01*
X128930479Y-85558287D01*
X128899048Y-85634167D01*
X128854500Y-85689448D01*
X128787136Y-85711869D01*
X128718345Y-85694311D01*
X128711635Y-85690037D01*
X128671546Y-85662690D01*
X128671538Y-85662685D01*
X128667270Y-85659774D01*
X128662587Y-85657600D01*
X128662583Y-85657598D01*
X128453105Y-85560362D01*
X128453102Y-85560361D01*
X128448410Y-85558183D01*
X128215896Y-85493701D01*
X128210759Y-85493152D01*
X128065730Y-85477653D01*
X128000120Y-85450525D01*
X127959592Y-85392233D01*
X127957013Y-85321283D01*
X127993202Y-85260202D01*
X128056669Y-85228382D01*
X128068793Y-85226790D01*
X128180478Y-85217608D01*
X128414497Y-85158826D01*
X128543309Y-85102817D01*
X128631037Y-85064673D01*
X128631040Y-85064671D01*
X128635774Y-85062613D01*
X128787905Y-84964195D01*
X128834022Y-84934361D01*
X128834025Y-84934359D01*
X128838365Y-84931551D01*
X128862871Y-84909253D01*
X129013008Y-84772638D01*
X129013009Y-84772636D01*
X129016830Y-84769160D01*
X129020029Y-84765109D01*
X129020033Y-84765105D01*
X129163171Y-84583860D01*
X129166376Y-84579802D01*
X129282987Y-84368562D01*
X129363530Y-84141113D01*
X129405845Y-83903563D01*
X129408792Y-83662292D01*
X129372295Y-83423779D01*
X129297332Y-83194430D01*
X129185917Y-82980404D01*
X129166639Y-82954727D01*
X129044147Y-82791584D01*
X129044145Y-82791581D01*
X129041042Y-82787449D01*
X128866598Y-82620747D01*
X128667270Y-82484774D01*
X128662587Y-82482600D01*
X128662583Y-82482598D01*
X128453105Y-82385362D01*
X128453102Y-82385361D01*
X128448410Y-82383183D01*
X128215896Y-82318701D01*
X128210759Y-82318152D01*
X128152847Y-82311963D01*
X128087237Y-82284835D01*
X128046709Y-82226543D01*
X128044130Y-82155593D01*
X128049828Y-82138457D01*
X128066997Y-82097009D01*
X128066998Y-82097004D01*
X128070158Y-82089376D01*
X128088507Y-81950000D01*
X128070158Y-81810624D01*
X128016361Y-81680747D01*
X127930782Y-81569218D01*
X127924232Y-81564192D01*
X127924229Y-81564189D01*
X127869047Y-81521847D01*
X127819254Y-81483639D01*
X127754315Y-81456741D01*
X127697006Y-81433002D01*
X127697003Y-81433001D01*
X127689376Y-81429842D01*
X127550000Y-81411493D01*
X127410624Y-81429842D01*
X127280747Y-81483639D01*
X127274198Y-81488664D01*
X127274195Y-81488666D01*
X127265163Y-81495597D01*
X127198943Y-81521198D01*
X127129394Y-81506934D01*
X127081141Y-81461658D01*
X127034424Y-81385720D01*
X127034419Y-81385713D01*
X127030731Y-81379719D01*
X126909049Y-81255462D01*
X126762862Y-81161251D01*
X126756242Y-81158841D01*
X126756239Y-81158840D01*
X126606055Y-81104177D01*
X126606054Y-81104177D01*
X126599436Y-81101768D01*
X126592448Y-81100885D01*
X126592447Y-81100885D01*
X126560121Y-81096801D01*
X126465118Y-81084800D01*
X126372271Y-81084800D01*
X126243169Y-81099281D01*
X126236516Y-81101598D01*
X126236515Y-81101598D01*
X126169497Y-81124936D01*
X126078928Y-81156476D01*
X126072954Y-81160209D01*
X126072952Y-81160210D01*
X125937414Y-81244904D01*
X125931440Y-81248637D01*
X125808035Y-81371183D01*
X125714846Y-81518024D01*
X125712481Y-81524666D01*
X125658868Y-81675227D01*
X125658867Y-81675232D01*
X125656506Y-81681862D01*
X125655673Y-81688848D01*
X125655672Y-81688852D01*
X125642062Y-81802995D01*
X125635914Y-81854554D01*
X125162941Y-81854554D01*
X125145907Y-81692484D01*
X125089860Y-81527847D01*
X125060719Y-81480479D01*
X125002422Y-81385718D01*
X125002420Y-81385716D01*
X124998731Y-81379719D01*
X124877049Y-81255462D01*
X124730862Y-81161251D01*
X124724242Y-81158841D01*
X124724239Y-81158840D01*
X124574055Y-81104177D01*
X124574054Y-81104177D01*
X124567436Y-81101768D01*
X124560448Y-81100885D01*
X124560447Y-81100885D01*
X124528121Y-81096801D01*
X124433118Y-81084800D01*
X124340271Y-81084800D01*
X124211169Y-81099281D01*
X124204516Y-81101598D01*
X124204515Y-81101598D01*
X124137497Y-81124936D01*
X124046928Y-81156476D01*
X124040954Y-81160209D01*
X124040952Y-81160210D01*
X123905414Y-81244904D01*
X123899440Y-81248637D01*
X123776035Y-81371183D01*
X123682846Y-81518024D01*
X123680481Y-81524666D01*
X123626868Y-81675227D01*
X123626867Y-81675232D01*
X123624506Y-81681862D01*
X123623673Y-81688848D01*
X123623672Y-81688852D01*
X123610062Y-81802995D01*
X123603914Y-81854554D01*
X123622093Y-82027516D01*
X123678140Y-82192153D01*
X123681830Y-82198151D01*
X123681831Y-82198153D01*
X123747073Y-82304202D01*
X123765731Y-82372703D01*
X123744392Y-82440417D01*
X123689832Y-82485845D01*
X123619373Y-82494565D01*
X123586707Y-82484513D01*
X123476826Y-82433508D01*
X123373105Y-82385362D01*
X123373102Y-82385361D01*
X123368410Y-82383183D01*
X123135896Y-82318701D01*
X123130759Y-82318152D01*
X122942249Y-82298006D01*
X122942241Y-82298006D01*
X122938914Y-82297650D01*
X122798831Y-82297650D01*
X122796258Y-82297862D01*
X122796247Y-82297862D01*
X122695751Y-82306125D01*
X122619522Y-82312392D01*
X122385503Y-82371174D01*
X122352873Y-82385362D01*
X122168963Y-82465327D01*
X122168960Y-82465329D01*
X122164226Y-82467387D01*
X122040387Y-82547502D01*
X121965978Y-82595639D01*
X121965975Y-82595641D01*
X121961635Y-82598449D01*
X121957812Y-82601928D01*
X121957809Y-82601930D01*
X121786992Y-82757362D01*
X121783170Y-82760840D01*
X121779971Y-82764891D01*
X121779967Y-82764895D01*
X121758889Y-82791585D01*
X121633624Y-82950198D01*
X121517013Y-83161438D01*
X121436470Y-83388887D01*
X121394155Y-83626437D01*
X121391208Y-83867708D01*
X121427705Y-84106221D01*
X121502668Y-84335570D01*
X121614083Y-84549596D01*
X121617186Y-84553729D01*
X121617188Y-84553732D01*
X121670317Y-84624492D01*
X121695223Y-84690976D01*
X121680231Y-84760372D01*
X121630101Y-84810646D01*
X121560748Y-84825837D01*
X121553111Y-84825067D01*
X121458191Y-84812571D01*
X121458190Y-84812571D01*
X121450002Y-84811493D01*
X121310626Y-84829842D01*
X121180749Y-84883639D01*
X121069220Y-84969218D01*
X120983641Y-85080747D01*
X120929844Y-85210624D01*
X120911495Y-85350000D01*
X120410460Y-85350000D01*
X120410460Y-79450000D01*
X128186493Y-79450000D01*
X128204842Y-79589376D01*
X128258639Y-79719253D01*
X128344218Y-79830782D01*
X128350768Y-79835808D01*
X128350771Y-79835811D01*
X128399982Y-79873572D01*
X128455746Y-79916361D01*
X128520685Y-79943259D01*
X128577994Y-79966998D01*
X128577997Y-79966999D01*
X128585624Y-79970158D01*
X128725000Y-79988507D01*
X128733188Y-79987429D01*
X128856188Y-79971236D01*
X128864376Y-79970158D01*
X128872003Y-79966999D01*
X128872006Y-79966998D01*
X128929315Y-79943259D01*
X128994254Y-79916361D01*
X129050018Y-79873572D01*
X129099229Y-79835811D01*
X129099232Y-79835808D01*
X129105782Y-79830782D01*
X129191361Y-79719253D01*
X129245158Y-79589376D01*
X129256793Y-79501000D01*
X132874293Y-79501000D01*
X132892642Y-79640376D01*
X132946439Y-79770253D01*
X133032018Y-79881782D01*
X133038568Y-79886808D01*
X133038571Y-79886811D01*
X133070528Y-79911332D01*
X133143546Y-79967361D01*
X133191995Y-79987429D01*
X133265794Y-80017998D01*
X133265797Y-80017999D01*
X133273424Y-80021158D01*
X133412800Y-80039507D01*
X133420988Y-80038429D01*
X133543988Y-80022236D01*
X133552176Y-80021158D01*
X133559803Y-80017999D01*
X133559806Y-80017998D01*
X133633605Y-79987429D01*
X133682054Y-79967361D01*
X133755072Y-79911332D01*
X133787029Y-79886811D01*
X133787032Y-79886808D01*
X133793582Y-79881782D01*
X133879161Y-79770253D01*
X133932958Y-79640376D01*
X133951307Y-79501000D01*
X133932958Y-79361624D01*
X133879161Y-79231747D01*
X133793582Y-79120218D01*
X133787032Y-79115192D01*
X133787029Y-79115189D01*
X133720564Y-79064189D01*
X133682054Y-79034639D01*
X133617115Y-79007741D01*
X133559806Y-78984002D01*
X133559803Y-78984001D01*
X133552176Y-78980842D01*
X133412800Y-78962493D01*
X133273424Y-78980842D01*
X133143547Y-79034639D01*
X133032018Y-79120218D01*
X132946439Y-79231747D01*
X132892642Y-79361624D01*
X132874293Y-79501000D01*
X129256793Y-79501000D01*
X129263507Y-79450000D01*
X129245158Y-79310624D01*
X129191361Y-79180747D01*
X129105782Y-79069218D01*
X129099232Y-79064192D01*
X129099229Y-79064189D01*
X129050018Y-79026429D01*
X128994254Y-78983639D01*
X128929315Y-78956740D01*
X128872006Y-78933002D01*
X128872003Y-78933001D01*
X128864376Y-78929842D01*
X128725000Y-78911493D01*
X128585624Y-78929842D01*
X128455747Y-78983639D01*
X128344218Y-79069218D01*
X128258639Y-79180747D01*
X128204842Y-79310624D01*
X128186493Y-79450000D01*
X120410460Y-79450000D01*
X120410460Y-75778169D01*
X122815354Y-75778169D01*
X122831679Y-76061290D01*
X122832504Y-76065495D01*
X122832505Y-76065503D01*
X122851167Y-76160624D01*
X122886276Y-76339576D01*
X122887663Y-76343626D01*
X122887664Y-76343631D01*
X122964913Y-76569253D01*
X122978137Y-76607877D01*
X123041848Y-76734553D01*
X123084903Y-76820158D01*
X123105559Y-76861229D01*
X123107985Y-76864758D01*
X123107988Y-76864764D01*
X123143937Y-76917070D01*
X123266187Y-77094944D01*
X123457048Y-77304697D01*
X123460337Y-77307447D01*
X123671317Y-77483854D01*
X123671322Y-77483858D01*
X123674609Y-77486606D01*
X123730418Y-77521615D01*
X123911205Y-77635023D01*
X123911209Y-77635025D01*
X123914845Y-77637306D01*
X123918755Y-77639071D01*
X123918756Y-77639072D01*
X124169399Y-77752242D01*
X124169403Y-77752244D01*
X124173311Y-77754008D01*
X124177431Y-77755228D01*
X124177430Y-77755228D01*
X124441111Y-77833334D01*
X124441115Y-77833335D01*
X124445224Y-77834552D01*
X124449458Y-77835200D01*
X124449463Y-77835201D01*
X124721310Y-77876799D01*
X124721312Y-77876799D01*
X124725552Y-77877448D01*
X124869875Y-77879715D01*
X125004817Y-77881836D01*
X125004823Y-77881836D01*
X125009108Y-77881903D01*
X125290645Y-77847833D01*
X125564954Y-77775870D01*
X125568914Y-77774230D01*
X125568919Y-77774228D01*
X125695956Y-77721607D01*
X125826958Y-77667344D01*
X126071809Y-77524264D01*
X126294977Y-77349279D01*
X126341255Y-77301524D01*
X126489348Y-77148702D01*
X126492331Y-77145624D01*
X126494864Y-77142176D01*
X126494868Y-77142171D01*
X126657683Y-76920525D01*
X126660221Y-76917070D01*
X126690540Y-76861229D01*
X126793489Y-76671622D01*
X126793490Y-76671620D01*
X126795539Y-76667846D01*
X126895781Y-76402562D01*
X126919271Y-76300000D01*
X128486497Y-76300000D01*
X128504846Y-76439376D01*
X128558643Y-76569253D01*
X128644222Y-76680782D01*
X128650772Y-76685808D01*
X128650775Y-76685811D01*
X128699986Y-76723571D01*
X128755750Y-76766361D01*
X128820689Y-76793260D01*
X128877998Y-76816998D01*
X128878001Y-76816999D01*
X128885628Y-76820158D01*
X129025004Y-76838507D01*
X129033192Y-76837429D01*
X129156192Y-76821236D01*
X129164380Y-76820158D01*
X129172007Y-76816999D01*
X129172010Y-76816998D01*
X129229319Y-76793259D01*
X129294258Y-76766361D01*
X129350022Y-76723571D01*
X129399233Y-76685811D01*
X129399236Y-76685808D01*
X129405786Y-76680782D01*
X129491365Y-76569253D01*
X129545162Y-76439376D01*
X129563511Y-76300000D01*
X129545162Y-76160624D01*
X129491365Y-76030747D01*
X129425569Y-75945000D01*
X134982493Y-75945000D01*
X135000842Y-76084376D01*
X135054639Y-76214253D01*
X135059666Y-76220804D01*
X135126718Y-76308188D01*
X135140218Y-76325782D01*
X135146768Y-76330808D01*
X135146771Y-76330811D01*
X135163479Y-76343631D01*
X135251746Y-76411361D01*
X135299613Y-76431188D01*
X135373994Y-76461998D01*
X135373997Y-76461999D01*
X135381624Y-76465158D01*
X135521000Y-76483507D01*
X135529188Y-76482429D01*
X135652188Y-76466236D01*
X135660376Y-76465158D01*
X135668003Y-76461999D01*
X135668006Y-76461998D01*
X135742387Y-76431188D01*
X135790254Y-76411361D01*
X135878521Y-76343631D01*
X135895229Y-76330811D01*
X135895232Y-76330808D01*
X135901782Y-76325782D01*
X135915283Y-76308188D01*
X135982334Y-76220804D01*
X135987361Y-76214253D01*
X136041158Y-76084376D01*
X136059507Y-75945000D01*
X136046490Y-75846124D01*
X136042236Y-75813812D01*
X136041158Y-75805624D01*
X136029786Y-75778169D01*
X157815354Y-75778169D01*
X157831679Y-76061290D01*
X157832504Y-76065495D01*
X157832505Y-76065503D01*
X157851167Y-76160624D01*
X157886276Y-76339576D01*
X157887663Y-76343626D01*
X157887664Y-76343631D01*
X157964913Y-76569253D01*
X157978137Y-76607877D01*
X158041848Y-76734553D01*
X158084903Y-76820158D01*
X158105559Y-76861229D01*
X158107985Y-76864758D01*
X158107988Y-76864764D01*
X158143937Y-76917070D01*
X158266187Y-77094944D01*
X158457048Y-77304697D01*
X158460337Y-77307447D01*
X158671317Y-77483854D01*
X158671322Y-77483858D01*
X158674609Y-77486606D01*
X158730418Y-77521615D01*
X158911205Y-77635023D01*
X158911209Y-77635025D01*
X158914845Y-77637306D01*
X158918755Y-77639071D01*
X158918756Y-77639072D01*
X159169399Y-77752242D01*
X159169403Y-77752244D01*
X159173311Y-77754008D01*
X159177431Y-77755228D01*
X159177430Y-77755228D01*
X159441111Y-77833334D01*
X159441115Y-77833335D01*
X159445224Y-77834552D01*
X159449458Y-77835200D01*
X159449463Y-77835201D01*
X159721310Y-77876799D01*
X159721312Y-77876799D01*
X159725552Y-77877448D01*
X159869875Y-77879715D01*
X160004817Y-77881836D01*
X160004823Y-77881836D01*
X160009108Y-77881903D01*
X160290645Y-77847833D01*
X160564954Y-77775870D01*
X160568914Y-77774230D01*
X160568919Y-77774228D01*
X160695956Y-77721607D01*
X160826958Y-77667344D01*
X161071809Y-77524264D01*
X161294977Y-77349279D01*
X161341255Y-77301524D01*
X161489348Y-77148702D01*
X161492331Y-77145624D01*
X161494864Y-77142176D01*
X161494868Y-77142171D01*
X161657683Y-76920525D01*
X161660221Y-76917070D01*
X161690540Y-76861229D01*
X161793489Y-76671622D01*
X161793490Y-76671620D01*
X161795539Y-76667846D01*
X161895781Y-76402562D01*
X161949317Y-76168812D01*
X161958136Y-76130308D01*
X161958137Y-76130303D01*
X161959093Y-76126128D01*
X161984303Y-75843660D01*
X161984760Y-75800000D01*
X161983601Y-75783002D01*
X161965763Y-75521343D01*
X161965762Y-75521337D01*
X161965471Y-75517066D01*
X161907963Y-75239367D01*
X161813298Y-74972042D01*
X161683229Y-74720038D01*
X161672821Y-74705228D01*
X161535314Y-74509576D01*
X161520163Y-74488018D01*
X161327116Y-74280275D01*
X161107662Y-74100654D01*
X160865861Y-73952478D01*
X160848070Y-73944668D01*
X160610119Y-73840215D01*
X160606187Y-73838489D01*
X160582330Y-73831693D01*
X160337574Y-73761973D01*
X160337576Y-73761973D01*
X160333446Y-73760797D01*
X160124934Y-73731122D01*
X160056936Y-73721444D01*
X160056934Y-73721444D01*
X160052684Y-73720839D01*
X159903222Y-73720056D01*
X159773383Y-73719376D01*
X159773376Y-73719376D01*
X159769097Y-73719354D01*
X159764853Y-73719913D01*
X159764849Y-73719913D01*
X159641234Y-73736187D01*
X159487932Y-73756370D01*
X159483792Y-73757503D01*
X159483790Y-73757503D01*
X159218537Y-73830068D01*
X159214392Y-73831202D01*
X158953539Y-73942465D01*
X158949858Y-73944668D01*
X158713881Y-74085897D01*
X158713877Y-74085900D01*
X158710199Y-74088101D01*
X158488876Y-74265414D01*
X158293665Y-74471124D01*
X158128178Y-74701424D01*
X157995477Y-74952052D01*
X157898018Y-75218371D01*
X157837605Y-75495452D01*
X157815354Y-75778169D01*
X136029786Y-75778169D01*
X135987361Y-75675747D01*
X135901782Y-75564218D01*
X135895232Y-75559192D01*
X135895229Y-75559189D01*
X135834863Y-75512869D01*
X135790254Y-75478639D01*
X135725315Y-75451741D01*
X135668006Y-75428002D01*
X135668003Y-75428001D01*
X135660376Y-75424842D01*
X135521000Y-75406493D01*
X135381624Y-75424842D01*
X135251747Y-75478639D01*
X135140218Y-75564218D01*
X135054639Y-75675747D01*
X135000842Y-75805624D01*
X134999764Y-75813812D01*
X134995510Y-75846124D01*
X134982493Y-75945000D01*
X129425569Y-75945000D01*
X129410813Y-75925769D01*
X129410812Y-75925768D01*
X129405786Y-75919218D01*
X129399236Y-75914192D01*
X129399233Y-75914189D01*
X129350022Y-75876428D01*
X129294258Y-75833639D01*
X129213046Y-75800000D01*
X129172010Y-75783002D01*
X129172007Y-75783001D01*
X129164380Y-75779842D01*
X129025004Y-75761493D01*
X128885628Y-75779842D01*
X128755751Y-75833639D01*
X128644222Y-75919218D01*
X128558643Y-76030747D01*
X128504846Y-76160624D01*
X128486497Y-76300000D01*
X126919271Y-76300000D01*
X126949317Y-76168812D01*
X126958136Y-76130308D01*
X126958137Y-76130303D01*
X126959093Y-76126128D01*
X126984303Y-75843660D01*
X126984760Y-75800000D01*
X126983601Y-75783002D01*
X126965763Y-75521343D01*
X126965762Y-75521337D01*
X126965471Y-75517066D01*
X126907963Y-75239367D01*
X126813298Y-74972042D01*
X126683229Y-74720038D01*
X126672821Y-74705228D01*
X126535314Y-74509576D01*
X126520163Y-74488018D01*
X126410680Y-74370200D01*
X129267493Y-74370200D01*
X129285842Y-74509576D01*
X129339639Y-74639453D01*
X129425218Y-74750982D01*
X129431768Y-74756008D01*
X129431771Y-74756011D01*
X129480982Y-74793771D01*
X129536746Y-74836561D01*
X129601685Y-74863459D01*
X129658994Y-74887198D01*
X129658997Y-74887199D01*
X129666624Y-74890358D01*
X129806000Y-74908707D01*
X129814188Y-74907629D01*
X129937188Y-74891436D01*
X129945376Y-74890358D01*
X129953003Y-74887199D01*
X129953006Y-74887198D01*
X130010315Y-74863459D01*
X130075254Y-74836561D01*
X130131018Y-74793772D01*
X130180229Y-74756011D01*
X130180232Y-74756008D01*
X130186782Y-74750982D01*
X130272361Y-74639453D01*
X130326158Y-74509576D01*
X130344507Y-74370200D01*
X130326158Y-74230824D01*
X130272361Y-74100947D01*
X130186782Y-73989418D01*
X130180232Y-73984392D01*
X130180229Y-73984389D01*
X130123401Y-73940784D01*
X130075254Y-73903839D01*
X130010315Y-73876941D01*
X129953006Y-73853202D01*
X129953003Y-73853201D01*
X129945376Y-73850042D01*
X129806000Y-73831693D01*
X129666624Y-73850042D01*
X129536747Y-73903839D01*
X129425218Y-73989418D01*
X129339639Y-74100947D01*
X129285842Y-74230824D01*
X129267493Y-74370200D01*
X126410680Y-74370200D01*
X126327116Y-74280275D01*
X126107662Y-74100654D01*
X125865861Y-73952478D01*
X125848070Y-73944668D01*
X125610119Y-73840215D01*
X125606187Y-73838489D01*
X125582330Y-73831693D01*
X125337574Y-73761973D01*
X125337576Y-73761973D01*
X125333446Y-73760797D01*
X125124934Y-73731122D01*
X125056936Y-73721444D01*
X125056934Y-73721444D01*
X125052684Y-73720839D01*
X124903222Y-73720056D01*
X124773383Y-73719376D01*
X124773376Y-73719376D01*
X124769097Y-73719354D01*
X124764853Y-73719913D01*
X124764849Y-73719913D01*
X124641234Y-73736187D01*
X124487932Y-73756370D01*
X124483792Y-73757503D01*
X124483790Y-73757503D01*
X124218537Y-73830068D01*
X124214392Y-73831202D01*
X123953539Y-73942465D01*
X123949858Y-73944668D01*
X123713881Y-74085897D01*
X123713877Y-74085900D01*
X123710199Y-74088101D01*
X123488876Y-74265414D01*
X123293665Y-74471124D01*
X123128178Y-74701424D01*
X122995477Y-74952052D01*
X122898018Y-75218371D01*
X122837605Y-75495452D01*
X122815354Y-75778169D01*
X120410460Y-75778169D01*
X120410460Y-72566800D01*
X129369093Y-72566800D01*
X129387442Y-72706176D01*
X129441239Y-72836053D01*
X129526818Y-72947582D01*
X129533368Y-72952608D01*
X129533371Y-72952611D01*
X129582582Y-72990371D01*
X129638346Y-73033161D01*
X129703285Y-73060059D01*
X129760594Y-73083798D01*
X129760597Y-73083799D01*
X129768224Y-73086958D01*
X129907600Y-73105307D01*
X129915788Y-73104229D01*
X130038788Y-73088036D01*
X130046976Y-73086958D01*
X130054603Y-73083799D01*
X130054606Y-73083798D01*
X130111915Y-73060059D01*
X130176854Y-73033161D01*
X130232618Y-72990371D01*
X130281829Y-72952611D01*
X130281832Y-72952608D01*
X130288382Y-72947582D01*
X130373961Y-72836053D01*
X130427758Y-72706176D01*
X130446107Y-72566800D01*
X130427758Y-72427424D01*
X130373961Y-72297547D01*
X130288382Y-72186018D01*
X130281832Y-72180992D01*
X130281829Y-72180989D01*
X130232618Y-72143228D01*
X130176854Y-72100439D01*
X130111915Y-72073541D01*
X130054606Y-72049802D01*
X130054603Y-72049801D01*
X130046976Y-72046642D01*
X129907600Y-72028293D01*
X129768224Y-72046642D01*
X129638347Y-72100439D01*
X129526818Y-72186018D01*
X129441239Y-72297547D01*
X129387442Y-72427424D01*
X129369093Y-72566800D01*
X120410460Y-72566800D01*
X120410460Y-70509400D01*
X133179093Y-70509400D01*
X133197442Y-70648776D01*
X133251239Y-70778653D01*
X133336818Y-70890182D01*
X133343368Y-70895208D01*
X133343371Y-70895211D01*
X133392582Y-70932971D01*
X133448346Y-70975761D01*
X133513285Y-71002660D01*
X133570594Y-71026398D01*
X133570597Y-71026399D01*
X133578224Y-71029558D01*
X133717600Y-71047907D01*
X133725788Y-71046829D01*
X133848788Y-71030636D01*
X133856976Y-71029558D01*
X133864603Y-71026399D01*
X133864606Y-71026398D01*
X133921915Y-71002660D01*
X133986854Y-70975761D01*
X134098098Y-70890400D01*
X134164316Y-70864800D01*
X134233865Y-70879064D01*
X134251495Y-70890395D01*
X134362746Y-70975761D01*
X134427685Y-71002660D01*
X134484994Y-71026398D01*
X134484997Y-71026399D01*
X134492624Y-71029558D01*
X134632000Y-71047907D01*
X134640188Y-71046829D01*
X134763188Y-71030636D01*
X134771376Y-71029558D01*
X134779003Y-71026399D01*
X134779006Y-71026398D01*
X134836315Y-71002660D01*
X134901254Y-70975761D01*
X134957018Y-70932971D01*
X135006229Y-70895211D01*
X135006232Y-70895208D01*
X135012782Y-70890182D01*
X135098361Y-70778653D01*
X135152158Y-70648776D01*
X135170507Y-70509400D01*
X135152158Y-70370024D01*
X135098361Y-70240147D01*
X135055571Y-70184382D01*
X135017809Y-70135169D01*
X135017808Y-70135168D01*
X135012782Y-70128618D01*
X135006232Y-70123592D01*
X135006229Y-70123589D01*
X134957018Y-70085829D01*
X134901254Y-70043039D01*
X134836315Y-70016141D01*
X134779006Y-69992402D01*
X134779003Y-69992401D01*
X134771376Y-69989242D01*
X134632000Y-69970893D01*
X134492624Y-69989242D01*
X134362747Y-70043039D01*
X134356193Y-70048068D01*
X134251503Y-70128399D01*
X134185282Y-70153999D01*
X134115734Y-70139734D01*
X134098095Y-70128398D01*
X134077252Y-70112404D01*
X133986854Y-70043039D01*
X133921915Y-70016141D01*
X133864606Y-69992402D01*
X133864603Y-69992401D01*
X133856976Y-69989242D01*
X133717600Y-69970893D01*
X133578224Y-69989242D01*
X133448347Y-70043039D01*
X133441793Y-70048068D01*
X133357949Y-70112404D01*
X133336818Y-70128618D01*
X133331795Y-70135164D01*
X133312003Y-70160958D01*
X133251239Y-70240147D01*
X133197442Y-70370024D01*
X133179093Y-70509400D01*
X120410460Y-70509400D01*
X120410460Y-69136600D01*
X150190833Y-69136600D01*
X150209182Y-69275976D01*
X150262979Y-69405853D01*
X150268006Y-69412404D01*
X150268008Y-69412408D01*
X150269215Y-69413981D01*
X150269821Y-69415548D01*
X150272136Y-69419558D01*
X150271511Y-69419919D01*
X150294815Y-69480201D01*
X150278372Y-69553682D01*
X150274262Y-69560801D01*
X150269239Y-69567347D01*
X150266081Y-69574972D01*
X150266080Y-69574973D01*
X150218602Y-69689595D01*
X150215442Y-69697224D01*
X150197093Y-69836600D01*
X150215442Y-69975976D01*
X150269239Y-70105853D01*
X150354818Y-70217382D01*
X150361368Y-70222408D01*
X150361371Y-70222411D01*
X150394429Y-70247777D01*
X150466346Y-70302961D01*
X150531285Y-70329860D01*
X150588594Y-70353598D01*
X150588597Y-70353599D01*
X150596224Y-70356758D01*
X150735600Y-70375107D01*
X150743788Y-70374029D01*
X150774210Y-70370024D01*
X150874976Y-70356758D01*
X150882603Y-70353599D01*
X150882606Y-70353598D01*
X150939915Y-70329859D01*
X151004854Y-70302961D01*
X151076771Y-70247777D01*
X151109829Y-70222411D01*
X151109832Y-70222408D01*
X151116382Y-70217382D01*
X151201961Y-70105853D01*
X151255758Y-69975976D01*
X151274107Y-69836600D01*
X151255758Y-69697224D01*
X151201961Y-69567347D01*
X151196934Y-69560796D01*
X151196932Y-69560792D01*
X151195725Y-69559219D01*
X151195119Y-69557652D01*
X151192804Y-69553642D01*
X151193429Y-69553281D01*
X151170125Y-69492999D01*
X151186568Y-69419518D01*
X151190678Y-69412399D01*
X151195701Y-69405853D01*
X151198862Y-69398223D01*
X151246338Y-69283605D01*
X151249498Y-69275976D01*
X151267847Y-69136600D01*
X151249498Y-68997224D01*
X151195701Y-68867347D01*
X151190677Y-68860799D01*
X151190672Y-68860791D01*
X151178557Y-68845003D01*
X151152957Y-68778782D01*
X151167222Y-68709234D01*
X151178557Y-68691597D01*
X151190672Y-68675809D01*
X151190677Y-68675801D01*
X151195701Y-68669253D01*
X151198861Y-68661624D01*
X151198864Y-68661619D01*
X151203694Y-68649958D01*
X151248242Y-68594677D01*
X151315606Y-68572257D01*
X151363195Y-68579776D01*
X151453406Y-68612610D01*
X151590268Y-68629900D01*
X151684877Y-68629900D01*
X151776747Y-68619595D01*
X151809431Y-68615929D01*
X151809432Y-68615929D01*
X151816428Y-68615144D01*
X151823705Y-68612610D01*
X151977137Y-68559180D01*
X151977139Y-68559179D01*
X151983784Y-68556865D01*
X152134069Y-68462956D01*
X152259814Y-68338086D01*
X152303777Y-68268812D01*
X152350992Y-68194414D01*
X152350994Y-68194410D01*
X152354770Y-68188460D01*
X152375321Y-68130747D01*
X152411854Y-68028151D01*
X152411855Y-68028146D01*
X152414216Y-68021516D01*
X152435199Y-67845549D01*
X152434112Y-67835201D01*
X152425706Y-67755228D01*
X152416675Y-67669307D01*
X152359565Y-67501549D01*
X152266708Y-67350612D01*
X152261781Y-67345581D01*
X152261779Y-67345578D01*
X152204714Y-67287305D01*
X152142719Y-67223998D01*
X151993760Y-67128001D01*
X151911658Y-67098118D01*
X151833853Y-67069799D01*
X151833852Y-67069799D01*
X151827234Y-67067390D01*
X151690372Y-67050100D01*
X151595763Y-67050100D01*
X151503893Y-67060405D01*
X151471209Y-67064071D01*
X151471208Y-67064071D01*
X151464212Y-67064856D01*
X151457564Y-67067171D01*
X151303503Y-67120820D01*
X151303501Y-67120821D01*
X151296856Y-67123135D01*
X151290886Y-67126866D01*
X151290885Y-67126866D01*
X151152545Y-67213311D01*
X151146571Y-67217044D01*
X151020826Y-67341914D01*
X151017052Y-67347860D01*
X151017051Y-67347862D01*
X150929648Y-67485586D01*
X150929646Y-67485590D01*
X150925870Y-67491540D01*
X150923505Y-67498182D01*
X150868786Y-67651849D01*
X150868785Y-67651854D01*
X150866424Y-67658484D01*
X150865591Y-67665470D01*
X150865590Y-67665474D01*
X150855334Y-67751490D01*
X150827407Y-67816763D01*
X150768624Y-67856576D01*
X150733564Y-67862049D01*
X150729340Y-67861493D01*
X150721152Y-67862571D01*
X150607640Y-67877515D01*
X150589964Y-67879842D01*
X150460087Y-67933639D01*
X150348558Y-68019218D01*
X150262979Y-68130747D01*
X150209182Y-68260624D01*
X150190833Y-68400000D01*
X150209182Y-68539376D01*
X150262979Y-68669253D01*
X150268003Y-68675801D01*
X150268008Y-68675809D01*
X150280123Y-68691597D01*
X150305723Y-68757818D01*
X150291458Y-68827366D01*
X150280123Y-68845003D01*
X150268008Y-68860791D01*
X150268003Y-68860799D01*
X150262979Y-68867347D01*
X150209182Y-68997224D01*
X150190833Y-69136600D01*
X120410460Y-69136600D01*
X120410460Y-65778169D01*
X123315354Y-65778169D01*
X123331679Y-66061290D01*
X123332504Y-66065495D01*
X123332505Y-66065503D01*
X123364065Y-66226363D01*
X123386276Y-66339576D01*
X123387663Y-66343626D01*
X123387664Y-66343631D01*
X123433459Y-66477385D01*
X123478137Y-66607877D01*
X123605559Y-66861229D01*
X123607985Y-66864758D01*
X123607988Y-66864764D01*
X123717602Y-67024252D01*
X123766187Y-67094944D01*
X123957048Y-67304697D01*
X123960337Y-67307447D01*
X124171317Y-67483854D01*
X124171322Y-67483858D01*
X124174609Y-67486606D01*
X124230418Y-67521615D01*
X124411205Y-67635023D01*
X124411209Y-67635025D01*
X124414845Y-67637306D01*
X124418755Y-67639071D01*
X124418756Y-67639072D01*
X124669399Y-67752242D01*
X124669403Y-67752244D01*
X124673311Y-67754008D01*
X124677431Y-67755228D01*
X124677430Y-67755228D01*
X124941111Y-67833334D01*
X124941115Y-67833335D01*
X124945224Y-67834552D01*
X124949458Y-67835200D01*
X124949463Y-67835201D01*
X125221310Y-67876799D01*
X125221312Y-67876799D01*
X125225552Y-67877448D01*
X125369875Y-67879715D01*
X125504817Y-67881836D01*
X125504823Y-67881836D01*
X125509108Y-67881903D01*
X125790645Y-67847833D01*
X125841655Y-67834451D01*
X132365441Y-67834451D01*
X132366177Y-67841454D01*
X132366177Y-67841455D01*
X132369892Y-67876799D01*
X132383965Y-68010693D01*
X132386234Y-68017359D01*
X132386235Y-68017362D01*
X132427433Y-68138377D01*
X132441075Y-68178451D01*
X132533932Y-68329388D01*
X132538859Y-68334419D01*
X132538861Y-68334422D01*
X132595062Y-68391812D01*
X132657921Y-68456002D01*
X132806880Y-68551999D01*
X132973406Y-68612610D01*
X133110268Y-68629900D01*
X133204877Y-68629900D01*
X133296747Y-68619595D01*
X133329431Y-68615929D01*
X133329432Y-68615929D01*
X133336428Y-68615144D01*
X133343705Y-68612610D01*
X133497137Y-68559180D01*
X133497139Y-68559179D01*
X133503784Y-68556865D01*
X133654069Y-68462956D01*
X133779814Y-68338086D01*
X133823777Y-68268812D01*
X133870992Y-68194414D01*
X133870994Y-68194410D01*
X133874770Y-68188460D01*
X133895321Y-68130747D01*
X133931854Y-68028151D01*
X133931855Y-68028146D01*
X133934216Y-68021516D01*
X133955199Y-67845549D01*
X133954112Y-67835201D01*
X133945706Y-67755228D01*
X133936675Y-67669307D01*
X133879565Y-67501549D01*
X133786708Y-67350612D01*
X133781781Y-67345581D01*
X133781779Y-67345578D01*
X133724714Y-67287305D01*
X133662719Y-67223998D01*
X133513760Y-67128001D01*
X133431658Y-67098118D01*
X133353853Y-67069799D01*
X133353852Y-67069799D01*
X133347234Y-67067390D01*
X133210372Y-67050100D01*
X133115763Y-67050100D01*
X133023893Y-67060405D01*
X132991209Y-67064071D01*
X132991208Y-67064071D01*
X132984212Y-67064856D01*
X132977564Y-67067171D01*
X132823503Y-67120820D01*
X132823501Y-67120821D01*
X132816856Y-67123135D01*
X132810886Y-67126866D01*
X132810885Y-67126866D01*
X132672545Y-67213311D01*
X132666571Y-67217044D01*
X132540826Y-67341914D01*
X132537052Y-67347860D01*
X132537051Y-67347862D01*
X132449648Y-67485586D01*
X132449646Y-67485590D01*
X132445870Y-67491540D01*
X132443505Y-67498182D01*
X132388786Y-67651849D01*
X132388785Y-67651854D01*
X132386424Y-67658484D01*
X132385591Y-67665472D01*
X132385590Y-67665475D01*
X132375244Y-67752242D01*
X132365441Y-67834451D01*
X125841655Y-67834451D01*
X126064954Y-67775870D01*
X126068914Y-67774230D01*
X126068919Y-67774228D01*
X126195956Y-67721607D01*
X126326958Y-67667344D01*
X126571809Y-67524264D01*
X126794977Y-67349279D01*
X126798564Y-67345578D01*
X126989348Y-67148702D01*
X126992331Y-67145624D01*
X126994864Y-67142176D01*
X126994868Y-67142171D01*
X127157683Y-66920525D01*
X127160221Y-66917070D01*
X127190540Y-66861229D01*
X127293489Y-66671622D01*
X127293490Y-66671620D01*
X127295539Y-66667846D01*
X127395781Y-66402562D01*
X127419271Y-66300000D01*
X130670573Y-66300000D01*
X130689907Y-66483949D01*
X130747063Y-66659859D01*
X130750366Y-66665580D01*
X130750367Y-66665582D01*
X130836243Y-66814323D01*
X130836246Y-66814328D01*
X130839545Y-66820041D01*
X130963309Y-66957495D01*
X131112946Y-67066213D01*
X131118974Y-67068897D01*
X131118976Y-67068898D01*
X131240795Y-67123135D01*
X131281918Y-67141444D01*
X131372378Y-67160672D01*
X131456382Y-67178528D01*
X131456386Y-67178528D01*
X131462839Y-67179900D01*
X131647801Y-67179900D01*
X131654254Y-67178528D01*
X131654258Y-67178528D01*
X131738262Y-67160672D01*
X131828722Y-67141444D01*
X131869845Y-67123135D01*
X131991664Y-67068898D01*
X131991666Y-67068897D01*
X131997694Y-67066213D01*
X132147331Y-66957495D01*
X132271095Y-66820041D01*
X132274394Y-66814328D01*
X132274397Y-66814323D01*
X132360273Y-66665582D01*
X132360274Y-66665580D01*
X132363577Y-66659859D01*
X132420733Y-66483949D01*
X132440067Y-66300000D01*
X152360573Y-66300000D01*
X152379907Y-66483949D01*
X152437063Y-66659859D01*
X152440366Y-66665580D01*
X152440367Y-66665582D01*
X152526243Y-66814323D01*
X152526246Y-66814328D01*
X152529545Y-66820041D01*
X152653309Y-66957495D01*
X152802946Y-67066213D01*
X152808974Y-67068897D01*
X152808976Y-67068898D01*
X152930795Y-67123135D01*
X152971918Y-67141444D01*
X153062378Y-67160672D01*
X153146382Y-67178528D01*
X153146386Y-67178528D01*
X153152839Y-67179900D01*
X153337801Y-67179900D01*
X153344254Y-67178528D01*
X153344258Y-67178528D01*
X153428262Y-67160672D01*
X153518722Y-67141444D01*
X153559845Y-67123135D01*
X153681664Y-67068898D01*
X153681666Y-67068897D01*
X153687694Y-67066213D01*
X153837331Y-66957495D01*
X153961095Y-66820041D01*
X153964394Y-66814328D01*
X153964397Y-66814323D01*
X154050273Y-66665582D01*
X154050274Y-66665580D01*
X154053577Y-66659859D01*
X154110733Y-66483949D01*
X154130067Y-66300000D01*
X154129377Y-66293435D01*
X154111423Y-66122615D01*
X154111423Y-66122614D01*
X154110733Y-66116051D01*
X154053577Y-65940141D01*
X153999296Y-65846124D01*
X153964397Y-65785677D01*
X153964394Y-65785672D01*
X153961095Y-65779959D01*
X153959483Y-65778169D01*
X157315354Y-65778169D01*
X157331679Y-66061290D01*
X157332504Y-66065495D01*
X157332505Y-66065503D01*
X157364065Y-66226363D01*
X157386276Y-66339576D01*
X157387663Y-66343626D01*
X157387664Y-66343631D01*
X157433459Y-66477385D01*
X157478137Y-66607877D01*
X157605559Y-66861229D01*
X157607985Y-66864758D01*
X157607988Y-66864764D01*
X157717602Y-67024252D01*
X157766187Y-67094944D01*
X157957048Y-67304697D01*
X157960337Y-67307447D01*
X158171317Y-67483854D01*
X158171322Y-67483858D01*
X158174609Y-67486606D01*
X158230418Y-67521615D01*
X158411205Y-67635023D01*
X158411209Y-67635025D01*
X158414845Y-67637306D01*
X158418755Y-67639071D01*
X158418756Y-67639072D01*
X158669399Y-67752242D01*
X158669403Y-67752244D01*
X158673311Y-67754008D01*
X158677431Y-67755228D01*
X158677430Y-67755228D01*
X158941111Y-67833334D01*
X158941115Y-67833335D01*
X158945224Y-67834552D01*
X158949458Y-67835200D01*
X158949463Y-67835201D01*
X159221310Y-67876799D01*
X159221312Y-67876799D01*
X159225552Y-67877448D01*
X159369875Y-67879715D01*
X159504817Y-67881836D01*
X159504823Y-67881836D01*
X159509108Y-67881903D01*
X159790645Y-67847833D01*
X160064954Y-67775870D01*
X160068914Y-67774230D01*
X160068919Y-67774228D01*
X160195956Y-67721607D01*
X160326958Y-67667344D01*
X160571809Y-67524264D01*
X160794977Y-67349279D01*
X160798564Y-67345578D01*
X160989348Y-67148702D01*
X160992331Y-67145624D01*
X160994864Y-67142176D01*
X160994868Y-67142171D01*
X161157683Y-66920525D01*
X161160221Y-66917070D01*
X161190540Y-66861229D01*
X161293489Y-66671622D01*
X161293490Y-66671620D01*
X161295539Y-66667846D01*
X161395781Y-66402562D01*
X161459093Y-66126128D01*
X161484303Y-65843660D01*
X161484760Y-65800000D01*
X161483784Y-65785677D01*
X161465763Y-65521343D01*
X161465762Y-65521337D01*
X161465471Y-65517066D01*
X161407963Y-65239367D01*
X161313298Y-64972042D01*
X161183229Y-64720038D01*
X161172821Y-64705228D01*
X161022626Y-64491523D01*
X161020163Y-64488018D01*
X160860155Y-64315829D01*
X160830037Y-64283418D01*
X160830034Y-64283415D01*
X160827116Y-64280275D01*
X160607662Y-64100654D01*
X160365861Y-63952478D01*
X160348070Y-63944668D01*
X160110119Y-63840215D01*
X160106187Y-63838489D01*
X159833446Y-63760797D01*
X159624934Y-63731122D01*
X159556936Y-63721444D01*
X159556934Y-63721444D01*
X159552684Y-63720839D01*
X159403222Y-63720056D01*
X159273383Y-63719376D01*
X159273376Y-63719376D01*
X159269097Y-63719354D01*
X159264853Y-63719913D01*
X159264849Y-63719913D01*
X159141234Y-63736187D01*
X158987932Y-63756370D01*
X158983792Y-63757503D01*
X158983790Y-63757503D01*
X158843866Y-63795782D01*
X158714392Y-63831202D01*
X158453539Y-63942465D01*
X158449858Y-63944668D01*
X158213881Y-64085897D01*
X158213877Y-64085900D01*
X158210199Y-64088101D01*
X157988876Y-64265414D01*
X157793665Y-64471124D01*
X157628178Y-64701424D01*
X157495477Y-64952052D01*
X157398018Y-65218371D01*
X157337605Y-65495452D01*
X157315354Y-65778169D01*
X153959483Y-65778169D01*
X153837331Y-65642505D01*
X153687694Y-65533787D01*
X153681666Y-65531103D01*
X153681664Y-65531102D01*
X153524753Y-65461241D01*
X153524752Y-65461241D01*
X153518722Y-65458556D01*
X153428261Y-65439328D01*
X153344258Y-65421472D01*
X153344254Y-65421472D01*
X153337801Y-65420100D01*
X153152839Y-65420100D01*
X153146386Y-65421472D01*
X153146382Y-65421472D01*
X153062379Y-65439328D01*
X152971918Y-65458556D01*
X152965889Y-65461241D01*
X152965887Y-65461241D01*
X152808977Y-65531102D01*
X152808975Y-65531103D01*
X152802947Y-65533787D01*
X152797606Y-65537667D01*
X152797605Y-65537668D01*
X152658653Y-65638622D01*
X152658651Y-65638624D01*
X152653309Y-65642505D01*
X152529545Y-65779959D01*
X152526246Y-65785672D01*
X152526243Y-65785677D01*
X152491344Y-65846124D01*
X152437063Y-65940141D01*
X152379907Y-66116051D01*
X152379217Y-66122614D01*
X152379217Y-66122615D01*
X152361263Y-66293435D01*
X152360573Y-66300000D01*
X132440067Y-66300000D01*
X132439377Y-66293435D01*
X132421423Y-66122615D01*
X132421423Y-66122614D01*
X132420733Y-66116051D01*
X132363577Y-65940141D01*
X132309296Y-65846124D01*
X132274397Y-65785677D01*
X132274394Y-65785672D01*
X132271095Y-65779959D01*
X132147331Y-65642505D01*
X131997694Y-65533787D01*
X131991666Y-65531103D01*
X131991664Y-65531102D01*
X131834753Y-65461241D01*
X131834752Y-65461241D01*
X131828722Y-65458556D01*
X131738261Y-65439328D01*
X131654258Y-65421472D01*
X131654254Y-65421472D01*
X131647801Y-65420100D01*
X131462839Y-65420100D01*
X131456386Y-65421472D01*
X131456382Y-65421472D01*
X131372379Y-65439328D01*
X131281918Y-65458556D01*
X131275889Y-65461241D01*
X131275887Y-65461241D01*
X131118977Y-65531102D01*
X131118975Y-65531103D01*
X131112947Y-65533787D01*
X131107606Y-65537667D01*
X131107605Y-65537668D01*
X130968653Y-65638622D01*
X130968651Y-65638624D01*
X130963309Y-65642505D01*
X130839545Y-65779959D01*
X130836246Y-65785672D01*
X130836243Y-65785677D01*
X130801344Y-65846124D01*
X130747063Y-65940141D01*
X130689907Y-66116051D01*
X130689217Y-66122614D01*
X130689217Y-66122615D01*
X130671263Y-66293435D01*
X130670573Y-66300000D01*
X127419271Y-66300000D01*
X127459093Y-66126128D01*
X127484303Y-65843660D01*
X127484760Y-65800000D01*
X127483784Y-65785677D01*
X127465763Y-65521343D01*
X127465762Y-65521337D01*
X127465471Y-65517066D01*
X127407963Y-65239367D01*
X127313298Y-64972042D01*
X127183229Y-64720038D01*
X127172821Y-64705228D01*
X127022626Y-64491523D01*
X127020163Y-64488018D01*
X126860155Y-64315829D01*
X126830037Y-64283418D01*
X126830034Y-64283415D01*
X126827116Y-64280275D01*
X126607662Y-64100654D01*
X126365861Y-63952478D01*
X126348070Y-63944668D01*
X126110119Y-63840215D01*
X126106187Y-63838489D01*
X125833446Y-63760797D01*
X125624934Y-63731122D01*
X125556936Y-63721444D01*
X125556934Y-63721444D01*
X125552684Y-63720839D01*
X125403222Y-63720056D01*
X125273383Y-63719376D01*
X125273376Y-63719376D01*
X125269097Y-63719354D01*
X125264853Y-63719913D01*
X125264849Y-63719913D01*
X125141234Y-63736187D01*
X124987932Y-63756370D01*
X124983792Y-63757503D01*
X124983790Y-63757503D01*
X124843866Y-63795782D01*
X124714392Y-63831202D01*
X124453539Y-63942465D01*
X124449858Y-63944668D01*
X124213881Y-64085897D01*
X124213877Y-64085900D01*
X124210199Y-64088101D01*
X123988876Y-64265414D01*
X123793665Y-64471124D01*
X123628178Y-64701424D01*
X123495477Y-64952052D01*
X123398018Y-65218371D01*
X123337605Y-65495452D01*
X123315354Y-65778169D01*
X120410460Y-65778169D01*
X120410460Y-62716200D01*
X133528433Y-62716200D01*
X133546782Y-62855576D01*
X133600579Y-62985453D01*
X133605606Y-62992004D01*
X133605608Y-62992008D01*
X133606815Y-62993581D01*
X133607421Y-62995148D01*
X133609736Y-62999158D01*
X133609111Y-62999519D01*
X133632415Y-63059801D01*
X133615972Y-63133282D01*
X133611862Y-63140401D01*
X133606839Y-63146947D01*
X133603681Y-63154572D01*
X133603680Y-63154573D01*
X133568339Y-63239893D01*
X133553042Y-63276824D01*
X133534693Y-63416200D01*
X133553042Y-63555576D01*
X133606839Y-63685453D01*
X133611866Y-63692004D01*
X133678160Y-63778400D01*
X133692418Y-63796982D01*
X133698968Y-63802008D01*
X133698971Y-63802011D01*
X133735536Y-63830068D01*
X133803946Y-63882561D01*
X133868885Y-63909459D01*
X133926194Y-63933198D01*
X133926197Y-63933199D01*
X133933824Y-63936358D01*
X134073200Y-63954707D01*
X134081388Y-63953629D01*
X134204388Y-63937436D01*
X134212576Y-63936358D01*
X134220203Y-63933199D01*
X134220206Y-63933198D01*
X134277515Y-63909459D01*
X134342454Y-63882561D01*
X134410864Y-63830068D01*
X134447429Y-63802011D01*
X134447432Y-63802008D01*
X134453982Y-63796982D01*
X134468241Y-63778400D01*
X135058693Y-63778400D01*
X135077042Y-63917776D01*
X135130839Y-64047653D01*
X135216418Y-64159182D01*
X135222968Y-64164208D01*
X135222971Y-64164211D01*
X135257469Y-64190682D01*
X135327946Y-64244761D01*
X135371344Y-64262737D01*
X135450194Y-64295398D01*
X135450197Y-64295399D01*
X135457824Y-64298558D01*
X135597200Y-64316907D01*
X135605388Y-64315829D01*
X135728388Y-64299636D01*
X135736576Y-64298558D01*
X135744203Y-64295399D01*
X135744206Y-64295398D01*
X135823056Y-64262737D01*
X135866454Y-64244761D01*
X135922156Y-64202019D01*
X135988376Y-64176418D01*
X136057925Y-64190682D01*
X136075563Y-64202019D01*
X136131266Y-64244761D01*
X136174664Y-64262737D01*
X136253514Y-64295398D01*
X136253517Y-64295399D01*
X136261144Y-64298558D01*
X136400520Y-64316907D01*
X136408708Y-64315829D01*
X136531708Y-64299636D01*
X136539896Y-64298558D01*
X136547523Y-64295399D01*
X136547526Y-64295398D01*
X136626376Y-64262737D01*
X136669774Y-64244761D01*
X136723868Y-64203253D01*
X136790085Y-64177653D01*
X136859634Y-64191917D01*
X136877265Y-64203248D01*
X136931366Y-64244761D01*
X136974764Y-64262737D01*
X137053614Y-64295398D01*
X137053617Y-64295399D01*
X137061244Y-64298558D01*
X137200620Y-64316907D01*
X137208808Y-64315829D01*
X137331808Y-64299636D01*
X137339996Y-64298558D01*
X137347623Y-64295399D01*
X137347626Y-64295398D01*
X137426476Y-64262737D01*
X137469874Y-64244761D01*
X137523968Y-64203253D01*
X137590185Y-64177653D01*
X137659734Y-64191917D01*
X137677365Y-64203248D01*
X137731466Y-64244761D01*
X137774864Y-64262737D01*
X137853714Y-64295398D01*
X137853717Y-64295399D01*
X137861344Y-64298558D01*
X138000720Y-64316907D01*
X138008908Y-64315829D01*
X138131908Y-64299636D01*
X138140096Y-64298558D01*
X138147723Y-64295399D01*
X138147726Y-64295398D01*
X138226576Y-64262737D01*
X138269974Y-64244761D01*
X138324068Y-64203253D01*
X138390285Y-64177653D01*
X138459834Y-64191917D01*
X138477465Y-64203248D01*
X138531566Y-64244761D01*
X138574964Y-64262737D01*
X138653814Y-64295398D01*
X138653817Y-64295399D01*
X138661444Y-64298558D01*
X138800820Y-64316907D01*
X138809008Y-64315829D01*
X138932008Y-64299636D01*
X138940196Y-64298558D01*
X138947823Y-64295399D01*
X138947826Y-64295398D01*
X139026676Y-64262737D01*
X139070074Y-64244761D01*
X139124168Y-64203253D01*
X139190385Y-64177653D01*
X139259934Y-64191917D01*
X139277565Y-64203248D01*
X139331666Y-64244761D01*
X139375064Y-64262737D01*
X139453914Y-64295398D01*
X139453917Y-64295399D01*
X139461544Y-64298558D01*
X139600920Y-64316907D01*
X139609108Y-64315829D01*
X139732108Y-64299636D01*
X139740296Y-64298558D01*
X139747923Y-64295399D01*
X139747926Y-64295398D01*
X139826776Y-64262737D01*
X139870174Y-64244761D01*
X139924268Y-64203253D01*
X139990485Y-64177653D01*
X140060034Y-64191917D01*
X140077665Y-64203248D01*
X140131766Y-64244761D01*
X140175164Y-64262737D01*
X140254014Y-64295398D01*
X140254017Y-64295399D01*
X140261644Y-64298558D01*
X140401020Y-64316907D01*
X140409208Y-64315829D01*
X140532208Y-64299636D01*
X140540396Y-64298558D01*
X140548023Y-64295399D01*
X140548026Y-64295398D01*
X140626876Y-64262737D01*
X140670274Y-64244761D01*
X140724368Y-64203253D01*
X140790585Y-64177653D01*
X140860134Y-64191917D01*
X140877765Y-64203248D01*
X140931866Y-64244761D01*
X140975264Y-64262737D01*
X141054114Y-64295398D01*
X141054117Y-64295399D01*
X141061744Y-64298558D01*
X141201120Y-64316907D01*
X141209308Y-64315829D01*
X141332308Y-64299636D01*
X141340496Y-64298558D01*
X141348123Y-64295399D01*
X141348126Y-64295398D01*
X141426976Y-64262737D01*
X141470374Y-64244761D01*
X141524468Y-64203253D01*
X141590685Y-64177653D01*
X141660234Y-64191917D01*
X141677865Y-64203248D01*
X141731966Y-64244761D01*
X141775364Y-64262737D01*
X141854214Y-64295398D01*
X141854217Y-64295399D01*
X141861844Y-64298558D01*
X142001220Y-64316907D01*
X142009408Y-64315829D01*
X142132408Y-64299636D01*
X142140596Y-64298558D01*
X142148223Y-64295399D01*
X142148226Y-64295398D01*
X142227076Y-64262737D01*
X142270474Y-64244761D01*
X142324568Y-64203253D01*
X142390785Y-64177653D01*
X142460334Y-64191917D01*
X142477965Y-64203248D01*
X142532066Y-64244761D01*
X142575464Y-64262737D01*
X142654314Y-64295398D01*
X142654317Y-64295399D01*
X142661944Y-64298558D01*
X142801320Y-64316907D01*
X142809508Y-64315829D01*
X142932508Y-64299636D01*
X142940696Y-64298558D01*
X142948323Y-64295399D01*
X142948326Y-64295398D01*
X143027176Y-64262737D01*
X143070574Y-64244761D01*
X143124668Y-64203253D01*
X143190885Y-64177653D01*
X143260434Y-64191917D01*
X143278065Y-64203248D01*
X143332166Y-64244761D01*
X143375564Y-64262737D01*
X143454414Y-64295398D01*
X143454417Y-64295399D01*
X143462044Y-64298558D01*
X143601420Y-64316907D01*
X143609608Y-64315829D01*
X143732608Y-64299636D01*
X143740796Y-64298558D01*
X143748423Y-64295399D01*
X143748426Y-64295398D01*
X143827276Y-64262737D01*
X143870674Y-64244761D01*
X143924768Y-64203253D01*
X143990985Y-64177653D01*
X144060534Y-64191917D01*
X144078165Y-64203248D01*
X144132266Y-64244761D01*
X144175664Y-64262737D01*
X144254514Y-64295398D01*
X144254517Y-64295399D01*
X144262144Y-64298558D01*
X144401520Y-64316907D01*
X144409708Y-64315829D01*
X144532708Y-64299636D01*
X144540896Y-64298558D01*
X144548523Y-64295399D01*
X144548526Y-64295398D01*
X144627376Y-64262737D01*
X144670774Y-64244761D01*
X144724868Y-64203253D01*
X144791085Y-64177653D01*
X144860634Y-64191917D01*
X144878265Y-64203248D01*
X144932366Y-64244761D01*
X144975764Y-64262737D01*
X145054614Y-64295398D01*
X145054617Y-64295399D01*
X145062244Y-64298558D01*
X145201620Y-64316907D01*
X145209808Y-64315829D01*
X145332808Y-64299636D01*
X145340996Y-64298558D01*
X145348623Y-64295399D01*
X145348626Y-64295398D01*
X145427476Y-64262737D01*
X145470874Y-64244761D01*
X145524968Y-64203253D01*
X145591185Y-64177653D01*
X145660734Y-64191917D01*
X145678365Y-64203248D01*
X145732466Y-64244761D01*
X145775864Y-64262737D01*
X145854714Y-64295398D01*
X145854717Y-64295399D01*
X145862344Y-64298558D01*
X146001720Y-64316907D01*
X146009908Y-64315829D01*
X146132908Y-64299636D01*
X146141096Y-64298558D01*
X146148723Y-64295399D01*
X146148726Y-64295398D01*
X146227576Y-64262737D01*
X146270974Y-64244761D01*
X146325068Y-64203253D01*
X146391285Y-64177653D01*
X146460834Y-64191917D01*
X146478465Y-64203248D01*
X146532566Y-64244761D01*
X146575964Y-64262737D01*
X146654814Y-64295398D01*
X146654817Y-64295399D01*
X146662444Y-64298558D01*
X146801820Y-64316907D01*
X146810008Y-64315829D01*
X146933008Y-64299636D01*
X146941196Y-64298558D01*
X146948823Y-64295399D01*
X146948826Y-64295398D01*
X147027676Y-64262737D01*
X147071074Y-64244761D01*
X147125168Y-64203253D01*
X147191385Y-64177653D01*
X147260934Y-64191917D01*
X147278565Y-64203248D01*
X147332666Y-64244761D01*
X147376064Y-64262737D01*
X147454914Y-64295398D01*
X147454917Y-64295399D01*
X147462544Y-64298558D01*
X147601920Y-64316907D01*
X147610108Y-64315829D01*
X147733108Y-64299636D01*
X147741296Y-64298558D01*
X147748923Y-64295399D01*
X147748926Y-64295398D01*
X147827776Y-64262737D01*
X147871174Y-64244761D01*
X147925268Y-64203253D01*
X147991485Y-64177653D01*
X148061034Y-64191917D01*
X148078665Y-64203248D01*
X148132766Y-64244761D01*
X148176164Y-64262737D01*
X148255014Y-64295398D01*
X148255017Y-64295399D01*
X148262644Y-64298558D01*
X148402020Y-64316907D01*
X148410208Y-64315829D01*
X148533208Y-64299636D01*
X148541396Y-64298558D01*
X148549023Y-64295399D01*
X148549026Y-64295398D01*
X148627876Y-64262737D01*
X148671274Y-64244761D01*
X148725368Y-64203253D01*
X148791585Y-64177653D01*
X148861134Y-64191917D01*
X148878765Y-64203248D01*
X148932866Y-64244761D01*
X148976264Y-64262737D01*
X149055114Y-64295398D01*
X149055117Y-64295399D01*
X149062744Y-64298558D01*
X149202120Y-64316907D01*
X149210308Y-64315829D01*
X149333308Y-64299636D01*
X149341496Y-64298558D01*
X149349123Y-64295399D01*
X149349126Y-64295398D01*
X149427976Y-64262737D01*
X149471374Y-64244761D01*
X149541851Y-64190682D01*
X149576349Y-64164211D01*
X149576352Y-64164208D01*
X149582902Y-64159182D01*
X149668481Y-64047653D01*
X149722278Y-63917776D01*
X149740627Y-63778400D01*
X149722278Y-63639024D01*
X149668481Y-63509147D01*
X149602170Y-63422729D01*
X149587929Y-63404169D01*
X149587928Y-63404168D01*
X149582902Y-63397618D01*
X149576352Y-63392592D01*
X149576349Y-63392589D01*
X149525467Y-63353546D01*
X149471374Y-63312039D01*
X149383460Y-63275624D01*
X149349126Y-63261402D01*
X149349123Y-63261401D01*
X149341496Y-63258242D01*
X149202120Y-63239893D01*
X149062744Y-63258242D01*
X148932867Y-63312039D01*
X148926313Y-63317068D01*
X148878774Y-63353546D01*
X148812554Y-63379146D01*
X148743005Y-63364881D01*
X148725370Y-63353548D01*
X148671274Y-63312039D01*
X148583360Y-63275624D01*
X148549026Y-63261402D01*
X148549023Y-63261401D01*
X148541396Y-63258242D01*
X148402020Y-63239893D01*
X148262644Y-63258242D01*
X148132767Y-63312039D01*
X148126213Y-63317068D01*
X148078674Y-63353546D01*
X148012454Y-63379146D01*
X147942905Y-63364881D01*
X147925270Y-63353548D01*
X147871174Y-63312039D01*
X147783260Y-63275624D01*
X147748926Y-63261402D01*
X147748923Y-63261401D01*
X147741296Y-63258242D01*
X147601920Y-63239893D01*
X147462544Y-63258242D01*
X147332667Y-63312039D01*
X147326113Y-63317068D01*
X147278574Y-63353546D01*
X147212354Y-63379146D01*
X147142805Y-63364881D01*
X147125170Y-63353548D01*
X147071074Y-63312039D01*
X146983160Y-63275624D01*
X146948826Y-63261402D01*
X146948823Y-63261401D01*
X146941196Y-63258242D01*
X146801820Y-63239893D01*
X146662444Y-63258242D01*
X146532567Y-63312039D01*
X146526013Y-63317068D01*
X146478474Y-63353546D01*
X146412254Y-63379146D01*
X146342705Y-63364881D01*
X146325070Y-63353548D01*
X146270974Y-63312039D01*
X146183060Y-63275624D01*
X146148726Y-63261402D01*
X146148723Y-63261401D01*
X146141096Y-63258242D01*
X146001720Y-63239893D01*
X145862344Y-63258242D01*
X145732467Y-63312039D01*
X145725913Y-63317068D01*
X145678374Y-63353546D01*
X145612154Y-63379146D01*
X145542605Y-63364881D01*
X145524970Y-63353548D01*
X145470874Y-63312039D01*
X145382960Y-63275624D01*
X145348626Y-63261402D01*
X145348623Y-63261401D01*
X145340996Y-63258242D01*
X145201620Y-63239893D01*
X145062244Y-63258242D01*
X144932367Y-63312039D01*
X144925813Y-63317068D01*
X144878274Y-63353546D01*
X144812054Y-63379146D01*
X144742505Y-63364881D01*
X144724870Y-63353548D01*
X144670774Y-63312039D01*
X144582860Y-63275624D01*
X144548526Y-63261402D01*
X144548523Y-63261401D01*
X144540896Y-63258242D01*
X144401520Y-63239893D01*
X144262144Y-63258242D01*
X144132267Y-63312039D01*
X144125713Y-63317068D01*
X144078174Y-63353546D01*
X144011954Y-63379146D01*
X143942405Y-63364881D01*
X143924770Y-63353548D01*
X143870674Y-63312039D01*
X143782760Y-63275624D01*
X143748426Y-63261402D01*
X143748423Y-63261401D01*
X143740796Y-63258242D01*
X143601420Y-63239893D01*
X143462044Y-63258242D01*
X143332167Y-63312039D01*
X143325613Y-63317068D01*
X143278074Y-63353546D01*
X143211854Y-63379146D01*
X143142305Y-63364881D01*
X143124670Y-63353548D01*
X143070574Y-63312039D01*
X142982660Y-63275624D01*
X142948326Y-63261402D01*
X142948323Y-63261401D01*
X142940696Y-63258242D01*
X142801320Y-63239893D01*
X142661944Y-63258242D01*
X142532067Y-63312039D01*
X142525513Y-63317068D01*
X142477974Y-63353546D01*
X142411754Y-63379146D01*
X142342205Y-63364881D01*
X142324570Y-63353548D01*
X142270474Y-63312039D01*
X142182560Y-63275624D01*
X142148226Y-63261402D01*
X142148223Y-63261401D01*
X142140596Y-63258242D01*
X142001220Y-63239893D01*
X141861844Y-63258242D01*
X141731967Y-63312039D01*
X141725413Y-63317068D01*
X141677874Y-63353546D01*
X141611654Y-63379146D01*
X141542105Y-63364881D01*
X141524470Y-63353548D01*
X141470374Y-63312039D01*
X141382460Y-63275624D01*
X141348126Y-63261402D01*
X141348123Y-63261401D01*
X141340496Y-63258242D01*
X141201120Y-63239893D01*
X141061744Y-63258242D01*
X140931867Y-63312039D01*
X140925313Y-63317068D01*
X140877774Y-63353546D01*
X140811554Y-63379146D01*
X140742005Y-63364881D01*
X140724370Y-63353548D01*
X140670274Y-63312039D01*
X140582360Y-63275624D01*
X140548026Y-63261402D01*
X140548023Y-63261401D01*
X140540396Y-63258242D01*
X140401020Y-63239893D01*
X140261644Y-63258242D01*
X140131767Y-63312039D01*
X140125213Y-63317068D01*
X140077674Y-63353546D01*
X140011454Y-63379146D01*
X139941905Y-63364881D01*
X139924270Y-63353548D01*
X139870174Y-63312039D01*
X139782260Y-63275624D01*
X139747926Y-63261402D01*
X139747923Y-63261401D01*
X139740296Y-63258242D01*
X139600920Y-63239893D01*
X139461544Y-63258242D01*
X139331667Y-63312039D01*
X139325113Y-63317068D01*
X139277574Y-63353546D01*
X139211354Y-63379146D01*
X139141805Y-63364881D01*
X139124170Y-63353548D01*
X139070074Y-63312039D01*
X138982160Y-63275624D01*
X138947826Y-63261402D01*
X138947823Y-63261401D01*
X138940196Y-63258242D01*
X138800820Y-63239893D01*
X138661444Y-63258242D01*
X138531567Y-63312039D01*
X138525013Y-63317068D01*
X138477474Y-63353546D01*
X138411254Y-63379146D01*
X138341705Y-63364881D01*
X138324070Y-63353548D01*
X138269974Y-63312039D01*
X138182060Y-63275624D01*
X138147726Y-63261402D01*
X138147723Y-63261401D01*
X138140096Y-63258242D01*
X138000720Y-63239893D01*
X137861344Y-63258242D01*
X137731467Y-63312039D01*
X137724913Y-63317068D01*
X137677374Y-63353546D01*
X137611154Y-63379146D01*
X137541605Y-63364881D01*
X137523970Y-63353548D01*
X137469874Y-63312039D01*
X137381960Y-63275624D01*
X137347626Y-63261402D01*
X137347623Y-63261401D01*
X137339996Y-63258242D01*
X137200620Y-63239893D01*
X137061244Y-63258242D01*
X136931367Y-63312039D01*
X136924813Y-63317068D01*
X136877274Y-63353546D01*
X136811054Y-63379146D01*
X136741505Y-63364881D01*
X136723870Y-63353548D01*
X136669774Y-63312039D01*
X136581860Y-63275624D01*
X136547526Y-63261402D01*
X136547523Y-63261401D01*
X136539896Y-63258242D01*
X136400520Y-63239893D01*
X136261144Y-63258242D01*
X136131267Y-63312039D01*
X136124718Y-63317064D01*
X136124715Y-63317066D01*
X136098719Y-63337014D01*
X136075564Y-63354781D01*
X136009344Y-63380382D01*
X135939796Y-63366118D01*
X135922156Y-63354781D01*
X135873007Y-63317067D01*
X135873004Y-63317065D01*
X135866454Y-63312039D01*
X135778540Y-63275624D01*
X135744206Y-63261402D01*
X135744203Y-63261401D01*
X135736576Y-63258242D01*
X135597200Y-63239893D01*
X135457824Y-63258242D01*
X135327947Y-63312039D01*
X135216418Y-63397618D01*
X135130839Y-63509147D01*
X135077042Y-63639024D01*
X135058693Y-63778400D01*
X134468241Y-63778400D01*
X134534534Y-63692004D01*
X134539561Y-63685453D01*
X134593358Y-63555576D01*
X134611707Y-63416200D01*
X134593358Y-63276824D01*
X134539561Y-63146947D01*
X134534534Y-63140396D01*
X134534532Y-63140392D01*
X134533325Y-63138819D01*
X134532719Y-63137252D01*
X134530404Y-63133242D01*
X134531029Y-63132881D01*
X134507725Y-63072599D01*
X134524168Y-62999118D01*
X134528278Y-62991999D01*
X134533301Y-62985453D01*
X134536462Y-62977823D01*
X134583938Y-62863205D01*
X134587098Y-62855576D01*
X134605447Y-62716200D01*
X134605289Y-62715000D01*
X150190833Y-62715000D01*
X150209182Y-62854376D01*
X150262979Y-62984253D01*
X150268006Y-62990804D01*
X150268008Y-62990808D01*
X150269215Y-62992381D01*
X150269821Y-62993948D01*
X150272136Y-62997958D01*
X150271511Y-62998319D01*
X150294815Y-63058601D01*
X150278372Y-63132082D01*
X150274262Y-63139201D01*
X150269239Y-63145747D01*
X150266081Y-63153372D01*
X150266080Y-63153373D01*
X150265583Y-63154573D01*
X150215442Y-63275624D01*
X150197093Y-63415000D01*
X150215442Y-63554376D01*
X150269239Y-63684253D01*
X150297312Y-63720839D01*
X150328876Y-63761973D01*
X150354818Y-63795782D01*
X150361368Y-63800808D01*
X150361371Y-63800811D01*
X150399500Y-63830068D01*
X150466346Y-63881361D01*
X150531285Y-63908260D01*
X150588594Y-63931998D01*
X150588597Y-63931999D01*
X150596224Y-63935158D01*
X150735600Y-63953507D01*
X150743788Y-63952429D01*
X150866788Y-63936236D01*
X150874976Y-63935158D01*
X150882603Y-63931999D01*
X150882606Y-63931998D01*
X150939915Y-63908260D01*
X151004854Y-63881361D01*
X151071700Y-63830068D01*
X151109829Y-63800811D01*
X151109832Y-63800808D01*
X151116382Y-63795782D01*
X151142325Y-63761973D01*
X151173888Y-63720839D01*
X151201961Y-63684253D01*
X151255758Y-63554376D01*
X151274107Y-63415000D01*
X151255758Y-63275624D01*
X151201961Y-63145747D01*
X151196934Y-63139196D01*
X151196932Y-63139192D01*
X151195725Y-63137619D01*
X151195119Y-63136052D01*
X151192804Y-63132042D01*
X151193429Y-63131681D01*
X151170125Y-63071399D01*
X151186568Y-62997918D01*
X151190678Y-62990799D01*
X151195701Y-62984253D01*
X151198862Y-62976623D01*
X151246338Y-62862005D01*
X151249498Y-62854376D01*
X151267847Y-62715000D01*
X151249498Y-62575624D01*
X151195701Y-62445747D01*
X151190674Y-62439196D01*
X151190672Y-62439192D01*
X151188301Y-62436102D01*
X151187112Y-62433025D01*
X151186544Y-62432042D01*
X151186697Y-62431953D01*
X151162702Y-62369881D01*
X151176968Y-62300332D01*
X151188301Y-62282698D01*
X151190672Y-62279608D01*
X151190674Y-62279604D01*
X151195701Y-62273053D01*
X151249498Y-62143176D01*
X151251893Y-62124988D01*
X151266769Y-62011988D01*
X151267847Y-62003800D01*
X151249498Y-61864424D01*
X151195701Y-61734547D01*
X151110122Y-61623018D01*
X151103572Y-61617992D01*
X151103569Y-61617989D01*
X151054358Y-61580229D01*
X150998594Y-61537439D01*
X150933655Y-61510540D01*
X150876346Y-61486802D01*
X150876343Y-61486801D01*
X150868716Y-61483642D01*
X150816761Y-61476802D01*
X150737528Y-61466371D01*
X150729340Y-61465293D01*
X150721152Y-61466371D01*
X150641920Y-61476802D01*
X150589964Y-61483642D01*
X150460087Y-61537439D01*
X150348558Y-61623018D01*
X150262979Y-61734547D01*
X150209182Y-61864424D01*
X150190833Y-62003800D01*
X150191911Y-62011988D01*
X150206788Y-62124988D01*
X150209182Y-62143176D01*
X150262979Y-62273053D01*
X150268006Y-62279604D01*
X150268008Y-62279608D01*
X150270379Y-62282698D01*
X150271568Y-62285775D01*
X150272136Y-62286758D01*
X150271983Y-62286847D01*
X150295978Y-62348919D01*
X150281712Y-62418468D01*
X150270379Y-62436102D01*
X150268008Y-62439192D01*
X150268006Y-62439196D01*
X150262979Y-62445747D01*
X150209182Y-62575624D01*
X150190833Y-62715000D01*
X134605289Y-62715000D01*
X134587098Y-62576824D01*
X134533301Y-62446947D01*
X134528276Y-62440398D01*
X134528270Y-62440388D01*
X134524734Y-62435780D01*
X134499135Y-62369560D01*
X134513401Y-62300011D01*
X134524735Y-62282376D01*
X134534532Y-62269608D01*
X134534534Y-62269604D01*
X134539561Y-62263053D01*
X134593358Y-62133176D01*
X134611707Y-61993800D01*
X134602532Y-61924112D01*
X134594436Y-61862612D01*
X134593358Y-61854424D01*
X134539561Y-61724547D01*
X134453982Y-61613018D01*
X134447432Y-61607992D01*
X134447429Y-61607989D01*
X134398218Y-61570228D01*
X134342454Y-61527439D01*
X134277515Y-61500541D01*
X134220206Y-61476802D01*
X134220203Y-61476801D01*
X134212576Y-61473642D01*
X134073200Y-61455293D01*
X133933824Y-61473642D01*
X133803947Y-61527439D01*
X133692418Y-61613018D01*
X133606839Y-61724547D01*
X133553042Y-61854424D01*
X133551964Y-61862612D01*
X133543867Y-61924112D01*
X133534693Y-61993800D01*
X133553042Y-62133176D01*
X133606839Y-62263053D01*
X133611864Y-62269602D01*
X133611870Y-62269612D01*
X133615406Y-62274220D01*
X133641005Y-62340440D01*
X133626739Y-62409989D01*
X133615405Y-62427624D01*
X133605608Y-62440392D01*
X133605606Y-62440396D01*
X133600579Y-62446947D01*
X133546782Y-62576824D01*
X133528433Y-62716200D01*
X120410460Y-62716200D01*
X120410460Y-59436470D01*
X120430462Y-59368349D01*
X120484118Y-59321856D01*
X120536460Y-59310470D01*
X164263540Y-59310470D01*
X164331661Y-59330472D01*
G37*
%TD.AperFunction*%
%TD*%
M02*
