%TF.GenerationSoftware,KiCad,Pcbnew,(6.0.7)*%
%TF.CreationDate,2022-08-04T10:24:46-07:00*%
%TF.ProjectId,SZG-TEMPLATE-STD,535a472d-5445-44d5-904c-4154452d5354,A*%
%TF.SameCoordinates,Original*%
%TF.FileFunction,Legend,Top*%
%TF.FilePolarity,Positive*%
%FSLAX46Y46*%
G04 Gerber Fmt 4.6, Leading zero omitted, Abs format (unit mm)*
G04 Created by KiCad (PCBNEW (6.0.7)) date 2022-08-04 10:24:46*
%MOMM*%
%LPD*%
G01*
G04 APERTURE LIST*
%ADD10C,0.190500*%
%ADD11C,0.250000*%
%ADD12C,0.150000*%
%ADD13C,0.254000*%
%ADD14C,0.120000*%
%ADD15C,0.010000*%
G04 APERTURE END LIST*
D10*
X136568967Y-66795018D02*
X136677825Y-66831304D01*
X136859253Y-66831304D01*
X136931825Y-66795018D01*
X136968110Y-66758732D01*
X137004396Y-66686161D01*
X137004396Y-66613590D01*
X136968110Y-66541018D01*
X136931825Y-66504732D01*
X136859253Y-66468447D01*
X136714110Y-66432161D01*
X136641539Y-66395875D01*
X136605253Y-66359590D01*
X136568967Y-66287018D01*
X136568967Y-66214447D01*
X136605253Y-66141875D01*
X136641539Y-66105590D01*
X136714110Y-66069304D01*
X136895539Y-66069304D01*
X137004396Y-66105590D01*
X137258396Y-66069304D02*
X137766396Y-66069304D01*
X137258396Y-66831304D01*
X137766396Y-66831304D01*
X138455825Y-66105590D02*
X138383253Y-66069304D01*
X138274396Y-66069304D01*
X138165539Y-66105590D01*
X138092967Y-66178161D01*
X138056682Y-66250732D01*
X138020396Y-66395875D01*
X138020396Y-66504732D01*
X138056682Y-66649875D01*
X138092967Y-66722447D01*
X138165539Y-66795018D01*
X138274396Y-66831304D01*
X138346967Y-66831304D01*
X138455825Y-66795018D01*
X138492110Y-66758732D01*
X138492110Y-66504732D01*
X138346967Y-66504732D01*
X138818682Y-66541018D02*
X139399253Y-66541018D01*
X139653253Y-66069304D02*
X140088682Y-66069304D01*
X139870967Y-66831304D02*
X139870967Y-66069304D01*
X140342682Y-66432161D02*
X140596682Y-66432161D01*
X140705539Y-66831304D02*
X140342682Y-66831304D01*
X140342682Y-66069304D01*
X140705539Y-66069304D01*
X141032110Y-66831304D02*
X141032110Y-66069304D01*
X141286110Y-66613590D01*
X141540110Y-66069304D01*
X141540110Y-66831304D01*
X141902967Y-66831304D02*
X141902967Y-66069304D01*
X142193253Y-66069304D01*
X142265825Y-66105590D01*
X142302110Y-66141875D01*
X142338396Y-66214447D01*
X142338396Y-66323304D01*
X142302110Y-66395875D01*
X142265825Y-66432161D01*
X142193253Y-66468447D01*
X141902967Y-66468447D01*
X143027825Y-66831304D02*
X142664967Y-66831304D01*
X142664967Y-66069304D01*
X143245539Y-66613590D02*
X143608396Y-66613590D01*
X143172967Y-66831304D02*
X143426967Y-66069304D01*
X143680967Y-66831304D01*
X143826110Y-66069304D02*
X144261539Y-66069304D01*
X144043825Y-66831304D02*
X144043825Y-66069304D01*
X144515539Y-66432161D02*
X144769539Y-66432161D01*
X144878396Y-66831304D02*
X144515539Y-66831304D01*
X144515539Y-66069304D01*
X144878396Y-66069304D01*
X145204967Y-66541018D02*
X145785539Y-66541018D01*
X146112110Y-66795018D02*
X146220967Y-66831304D01*
X146402396Y-66831304D01*
X146474967Y-66795018D01*
X146511253Y-66758732D01*
X146547539Y-66686161D01*
X146547539Y-66613590D01*
X146511253Y-66541018D01*
X146474967Y-66504732D01*
X146402396Y-66468447D01*
X146257253Y-66432161D01*
X146184682Y-66395875D01*
X146148396Y-66359590D01*
X146112110Y-66287018D01*
X146112110Y-66214447D01*
X146148396Y-66141875D01*
X146184682Y-66105590D01*
X146257253Y-66069304D01*
X146438682Y-66069304D01*
X146547539Y-66105590D01*
X146765253Y-66069304D02*
X147200682Y-66069304D01*
X146982967Y-66831304D02*
X146982967Y-66069304D01*
X147454682Y-66831304D02*
X147454682Y-66069304D01*
X147636110Y-66069304D01*
X147744967Y-66105590D01*
X147817539Y-66178161D01*
X147853825Y-66250732D01*
X147890110Y-66395875D01*
X147890110Y-66504732D01*
X147853825Y-66649875D01*
X147817539Y-66722447D01*
X147744967Y-66795018D01*
X147636110Y-66831304D01*
X147454682Y-66831304D01*
X137040682Y-68058124D02*
X136786682Y-67695267D01*
X136605253Y-68058124D02*
X136605253Y-67296124D01*
X136895539Y-67296124D01*
X136968110Y-67332410D01*
X137004396Y-67368695D01*
X137040682Y-67441267D01*
X137040682Y-67550124D01*
X137004396Y-67622695D01*
X136968110Y-67658981D01*
X136895539Y-67695267D01*
X136605253Y-67695267D01*
X137657539Y-68021838D02*
X137584967Y-68058124D01*
X137439825Y-68058124D01*
X137367253Y-68021838D01*
X137330967Y-67949267D01*
X137330967Y-67658981D01*
X137367253Y-67586410D01*
X137439825Y-67550124D01*
X137584967Y-67550124D01*
X137657539Y-67586410D01*
X137693825Y-67658981D01*
X137693825Y-67731552D01*
X137330967Y-67804124D01*
X137947825Y-67550124D02*
X138129253Y-68058124D01*
X138310682Y-67550124D01*
X139145253Y-67840410D02*
X139508110Y-67840410D01*
X139072682Y-68058124D02*
X139326682Y-67296124D01*
X139580682Y-68058124D01*
D11*
%TO.C,REF\u002A\u002A*%
X123766666Y-61426190D02*
X123966666Y-61488095D01*
X124300000Y-61488095D01*
X124433333Y-61426190D01*
X124500000Y-61364285D01*
X124566666Y-61240476D01*
X124566666Y-61116666D01*
X124500000Y-60992857D01*
X124433333Y-60930952D01*
X124300000Y-60869047D01*
X124033333Y-60807142D01*
X123900000Y-60745238D01*
X123833333Y-60683333D01*
X123766666Y-60559523D01*
X123766666Y-60435714D01*
X123833333Y-60311904D01*
X123900000Y-60250000D01*
X124033333Y-60188095D01*
X124366666Y-60188095D01*
X124566666Y-60250000D01*
X124966666Y-60188095D02*
X125766666Y-60188095D01*
X125366666Y-61488095D02*
X125366666Y-60188095D01*
X126233333Y-61488095D02*
X126233333Y-60188095D01*
X126566666Y-60188095D01*
X126766666Y-60250000D01*
X126900000Y-60373809D01*
X126966666Y-60497619D01*
X127033333Y-60745238D01*
X127033333Y-60930952D01*
X126966666Y-61178571D01*
X126900000Y-61302380D01*
X126766666Y-61426190D01*
X126566666Y-61488095D01*
X126233333Y-61488095D01*
D12*
%TO.C,J2*%
X125116666Y-79802380D02*
X125116666Y-80516666D01*
X125069047Y-80659523D01*
X124973809Y-80754761D01*
X124830952Y-80802380D01*
X124735714Y-80802380D01*
X125545238Y-79897619D02*
X125592857Y-79850000D01*
X125688095Y-79802380D01*
X125926190Y-79802380D01*
X126021428Y-79850000D01*
X126069047Y-79897619D01*
X126116666Y-79992857D01*
X126116666Y-80088095D01*
X126069047Y-80230952D01*
X125497619Y-80802380D01*
X126116666Y-80802380D01*
D13*
%TO.C,REF\u002A\u002A*%
X122300000Y-62000000D02*
X128500000Y-62000000D01*
X123400000Y-59700000D02*
X122300000Y-60800000D01*
X128500000Y-59700000D02*
X128500000Y-62000000D01*
X122300000Y-59700000D02*
X122300000Y-62000000D01*
X122300000Y-59700000D02*
X128500000Y-59700000D01*
X127400000Y-59700000D02*
X128500000Y-60800000D01*
G36*
X128500000Y-60800000D02*
G01*
X127400000Y-59700000D01*
X128500000Y-59700000D01*
X128500000Y-60800000D01*
G37*
D12*
X128500000Y-60800000D02*
X127400000Y-59700000D01*
X128500000Y-59700000D01*
X128500000Y-60800000D01*
G36*
X122300000Y-60800000D02*
G01*
X122300000Y-59700000D01*
X123400000Y-59700000D01*
X122300000Y-60800000D01*
G37*
X122300000Y-60800000D02*
X122300000Y-59700000D01*
X123400000Y-59700000D01*
X122300000Y-60800000D01*
D14*
%TO.C,J2*%
X126670000Y-86305000D02*
X126035000Y-86305000D01*
X126670000Y-85670000D02*
X126670000Y-86305000D01*
%TO.C,G\u002A\u002A\u002A*%
G36*
X138615665Y-60986671D02*
G01*
X138649857Y-61020317D01*
X138700432Y-61107181D01*
X138704999Y-61192039D01*
X138663594Y-61273666D01*
X138642140Y-61297413D01*
X138565822Y-61351641D01*
X138489925Y-61359840D01*
X138412268Y-61322041D01*
X138387947Y-61301409D01*
X138326643Y-61220996D01*
X138310914Y-61137904D01*
X138340870Y-61055317D01*
X138377967Y-61010149D01*
X138456503Y-60957794D01*
X138538029Y-60950054D01*
X138615665Y-60986671D01*
G37*
D15*
X138615665Y-60986671D02*
X138649857Y-61020317D01*
X138700432Y-61107181D01*
X138704999Y-61192039D01*
X138663594Y-61273666D01*
X138642140Y-61297413D01*
X138565822Y-61351641D01*
X138489925Y-61359840D01*
X138412268Y-61322041D01*
X138387947Y-61301409D01*
X138326643Y-61220996D01*
X138310914Y-61137904D01*
X138340870Y-61055317D01*
X138377967Y-61010149D01*
X138456503Y-60957794D01*
X138538029Y-60950054D01*
X138615665Y-60986671D01*
G36*
X136243672Y-60979340D02*
G01*
X136307979Y-61043724D01*
X136331739Y-61088944D01*
X136344378Y-61174419D01*
X136317235Y-61256084D01*
X136255650Y-61320301D01*
X136236804Y-61331362D01*
X136167449Y-61359476D01*
X136111867Y-61358228D01*
X136065728Y-61338108D01*
X135985288Y-61273839D01*
X135946418Y-61196398D01*
X135950396Y-61112534D01*
X135998497Y-61028995D01*
X136005719Y-61020987D01*
X136083011Y-60965985D01*
X136165505Y-60952764D01*
X136243672Y-60979340D01*
G37*
X136243672Y-60979340D02*
X136307979Y-61043724D01*
X136331739Y-61088944D01*
X136344378Y-61174419D01*
X136317235Y-61256084D01*
X136255650Y-61320301D01*
X136236804Y-61331362D01*
X136167449Y-61359476D01*
X136111867Y-61358228D01*
X136065728Y-61338108D01*
X135985288Y-61273839D01*
X135946418Y-61196398D01*
X135950396Y-61112534D01*
X135998497Y-61028995D01*
X136005719Y-61020987D01*
X136083011Y-60965985D01*
X136165505Y-60952764D01*
X136243672Y-60979340D01*
G36*
X136633492Y-61213003D02*
G01*
X136670035Y-61222917D01*
X136719393Y-61244197D01*
X136787848Y-61279657D01*
X136881683Y-61332109D01*
X137007178Y-61404368D01*
X137050962Y-61429761D01*
X137148696Y-61484874D01*
X137234230Y-61530126D01*
X137298524Y-61560934D01*
X137332537Y-61572716D01*
X137333014Y-61572727D01*
X137366510Y-61561237D01*
X137429310Y-61530151D01*
X137511680Y-61484549D01*
X137583143Y-61442235D01*
X137739850Y-61349193D01*
X137864494Y-61281743D01*
X137962595Y-61238639D01*
X138039672Y-61218634D01*
X138101246Y-61220482D01*
X138152834Y-61242935D01*
X138199958Y-61284748D01*
X138213250Y-61299928D01*
X138255819Y-61364061D01*
X138269021Y-61424830D01*
X138250344Y-61485930D01*
X138197277Y-61551057D01*
X138107309Y-61623906D01*
X137977929Y-61708172D01*
X137907290Y-61750156D01*
X137803529Y-61810325D01*
X137710825Y-61863621D01*
X137638188Y-61904894D01*
X137594631Y-61928995D01*
X137590275Y-61931265D01*
X137573494Y-61942627D01*
X137560919Y-61961656D01*
X137551650Y-61994986D01*
X137544784Y-62049246D01*
X137539421Y-62131068D01*
X137534660Y-62247085D01*
X137530646Y-62369992D01*
X137526283Y-62503164D01*
X137522053Y-62619295D01*
X137518260Y-62710953D01*
X137515211Y-62770707D01*
X137513328Y-62791112D01*
X137486699Y-62811605D01*
X137437418Y-62840917D01*
X137383673Y-62869132D01*
X137343657Y-62886335D01*
X137335728Y-62887919D01*
X137300272Y-62878780D01*
X137244927Y-62857623D01*
X137239409Y-62855248D01*
X137181368Y-62819869D01*
X137142066Y-62778286D01*
X137141273Y-62776852D01*
X137131762Y-62735462D01*
X137124220Y-62654311D01*
X137119018Y-62539792D01*
X137116528Y-62398298D01*
X137116364Y-62348080D01*
X137116364Y-61965852D01*
X137029773Y-61911505D01*
X136954221Y-61865664D01*
X136868014Y-61815520D01*
X136839273Y-61799328D01*
X136694956Y-61718392D01*
X136586266Y-61655000D01*
X136508173Y-61604792D01*
X136455649Y-61563405D01*
X136423664Y-61526478D01*
X136407192Y-61489649D01*
X136401201Y-61448555D01*
X136400546Y-61418786D01*
X136421718Y-61334706D01*
X136477558Y-61264045D01*
X136556552Y-61220283D01*
X136573728Y-61216021D01*
X136603484Y-61211643D01*
X136633492Y-61213003D01*
G37*
X136633492Y-61213003D02*
X136670035Y-61222917D01*
X136719393Y-61244197D01*
X136787848Y-61279657D01*
X136881683Y-61332109D01*
X137007178Y-61404368D01*
X137050962Y-61429761D01*
X137148696Y-61484874D01*
X137234230Y-61530126D01*
X137298524Y-61560934D01*
X137332537Y-61572716D01*
X137333014Y-61572727D01*
X137366510Y-61561237D01*
X137429310Y-61530151D01*
X137511680Y-61484549D01*
X137583143Y-61442235D01*
X137739850Y-61349193D01*
X137864494Y-61281743D01*
X137962595Y-61238639D01*
X138039672Y-61218634D01*
X138101246Y-61220482D01*
X138152834Y-61242935D01*
X138199958Y-61284748D01*
X138213250Y-61299928D01*
X138255819Y-61364061D01*
X138269021Y-61424830D01*
X138250344Y-61485930D01*
X138197277Y-61551057D01*
X138107309Y-61623906D01*
X137977929Y-61708172D01*
X137907290Y-61750156D01*
X137803529Y-61810325D01*
X137710825Y-61863621D01*
X137638188Y-61904894D01*
X137594631Y-61928995D01*
X137590275Y-61931265D01*
X137573494Y-61942627D01*
X137560919Y-61961656D01*
X137551650Y-61994986D01*
X137544784Y-62049246D01*
X137539421Y-62131068D01*
X137534660Y-62247085D01*
X137530646Y-62369992D01*
X137526283Y-62503164D01*
X137522053Y-62619295D01*
X137518260Y-62710953D01*
X137515211Y-62770707D01*
X137513328Y-62791112D01*
X137486699Y-62811605D01*
X137437418Y-62840917D01*
X137383673Y-62869132D01*
X137343657Y-62886335D01*
X137335728Y-62887919D01*
X137300272Y-62878780D01*
X137244927Y-62857623D01*
X137239409Y-62855248D01*
X137181368Y-62819869D01*
X137142066Y-62778286D01*
X137141273Y-62776852D01*
X137131762Y-62735462D01*
X137124220Y-62654311D01*
X137119018Y-62539792D01*
X137116528Y-62398298D01*
X137116364Y-62348080D01*
X137116364Y-61965852D01*
X137029773Y-61911505D01*
X136954221Y-61865664D01*
X136868014Y-61815520D01*
X136839273Y-61799328D01*
X136694956Y-61718392D01*
X136586266Y-61655000D01*
X136508173Y-61604792D01*
X136455649Y-61563405D01*
X136423664Y-61526478D01*
X136407192Y-61489649D01*
X136401201Y-61448555D01*
X136400546Y-61418786D01*
X136421718Y-61334706D01*
X136477558Y-61264045D01*
X136556552Y-61220283D01*
X136573728Y-61216021D01*
X136603484Y-61211643D01*
X136633492Y-61213003D01*
G36*
X146805766Y-61384187D02*
G01*
X146859727Y-61434375D01*
X146895254Y-61515085D01*
X146906569Y-61607941D01*
X146909601Y-61653315D01*
X146922381Y-61693100D01*
X146951003Y-61736698D01*
X147001557Y-61793514D01*
X147074879Y-61867732D01*
X147242849Y-62034580D01*
X147409697Y-61866611D01*
X147485155Y-61789523D01*
X147533583Y-61734771D01*
X147560959Y-61692387D01*
X147573260Y-61652407D01*
X147576465Y-61604865D01*
X147576546Y-61588453D01*
X147583230Y-61507420D01*
X147607845Y-61451079D01*
X147633223Y-61421587D01*
X147690798Y-61376192D01*
X147742597Y-61370302D01*
X147803387Y-61403203D01*
X147815886Y-61412767D01*
X147846270Y-61440090D01*
X147864412Y-61471020D01*
X147873439Y-61517596D01*
X147876477Y-61591858D01*
X147876728Y-61647127D01*
X147876728Y-61833629D01*
X147391818Y-62325711D01*
X147391818Y-62671445D01*
X147390709Y-62816442D01*
X147386995Y-62922058D01*
X147380094Y-62995046D01*
X147369424Y-63042164D01*
X147357888Y-63065621D01*
X147299058Y-63116871D01*
X147228231Y-63129165D01*
X147207091Y-63124592D01*
X147165336Y-63108688D01*
X147135042Y-63086333D01*
X147114387Y-63050577D01*
X147101546Y-62994468D01*
X147094696Y-62911056D01*
X147092013Y-62793388D01*
X147091637Y-62684549D01*
X147091637Y-62325711D01*
X146849182Y-62079670D01*
X146606728Y-61833629D01*
X146606728Y-61634438D01*
X146607601Y-61537357D01*
X146612052Y-61475463D01*
X146622826Y-61437765D01*
X146642670Y-61413275D01*
X146666244Y-61396250D01*
X146739298Y-61369739D01*
X146805766Y-61384187D01*
G37*
X146805766Y-61384187D02*
X146859727Y-61434375D01*
X146895254Y-61515085D01*
X146906569Y-61607941D01*
X146909601Y-61653315D01*
X146922381Y-61693100D01*
X146951003Y-61736698D01*
X147001557Y-61793514D01*
X147074879Y-61867732D01*
X147242849Y-62034580D01*
X147409697Y-61866611D01*
X147485155Y-61789523D01*
X147533583Y-61734771D01*
X147560959Y-61692387D01*
X147573260Y-61652407D01*
X147576465Y-61604865D01*
X147576546Y-61588453D01*
X147583230Y-61507420D01*
X147607845Y-61451079D01*
X147633223Y-61421587D01*
X147690798Y-61376192D01*
X147742597Y-61370302D01*
X147803387Y-61403203D01*
X147815886Y-61412767D01*
X147846270Y-61440090D01*
X147864412Y-61471020D01*
X147873439Y-61517596D01*
X147876477Y-61591858D01*
X147876728Y-61647127D01*
X147876728Y-61833629D01*
X147391818Y-62325711D01*
X147391818Y-62671445D01*
X147390709Y-62816442D01*
X147386995Y-62922058D01*
X147380094Y-62995046D01*
X147369424Y-63042164D01*
X147357888Y-63065621D01*
X147299058Y-63116871D01*
X147228231Y-63129165D01*
X147207091Y-63124592D01*
X147165336Y-63108688D01*
X147135042Y-63086333D01*
X147114387Y-63050577D01*
X147101546Y-62994468D01*
X147094696Y-62911056D01*
X147092013Y-62793388D01*
X147091637Y-62684549D01*
X147091637Y-62325711D01*
X146849182Y-62079670D01*
X146606728Y-61833629D01*
X146606728Y-61634438D01*
X146607601Y-61537357D01*
X146612052Y-61475463D01*
X146622826Y-61437765D01*
X146642670Y-61413275D01*
X146666244Y-61396250D01*
X146739298Y-61369739D01*
X146805766Y-61384187D01*
G36*
X146236649Y-61537472D02*
G01*
X146314988Y-61617970D01*
X146364192Y-61676821D01*
X146390151Y-61722482D01*
X146398750Y-61763411D01*
X146398909Y-61770575D01*
X146385271Y-61836470D01*
X146356682Y-61880876D01*
X146298073Y-61915366D01*
X146234884Y-61912619D01*
X146161729Y-61871092D01*
X146087182Y-61803636D01*
X145973464Y-61688182D01*
X145775080Y-61688182D01*
X145678313Y-61688973D01*
X145615097Y-61693701D01*
X145572802Y-61705900D01*
X145538798Y-61729103D01*
X145502894Y-61764327D01*
X145429091Y-61840471D01*
X145429091Y-62671718D01*
X145516656Y-62757223D01*
X145563455Y-62800730D01*
X145602868Y-62826226D01*
X145649675Y-62838520D01*
X145718654Y-62842418D01*
X145779514Y-62842727D01*
X145954808Y-62842727D01*
X146039473Y-62749013D01*
X146089130Y-62689522D01*
X146113112Y-62641048D01*
X146119049Y-62582619D01*
X146117206Y-62535422D01*
X146110273Y-62415545D01*
X145911030Y-62408915D01*
X145789282Y-62399921D01*
X145706837Y-62380109D01*
X145657385Y-62345904D01*
X145634618Y-62293729D01*
X145631137Y-62250297D01*
X145638381Y-62195542D01*
X145663991Y-62155843D01*
X145713782Y-62129018D01*
X145793569Y-62112886D01*
X145909167Y-62105263D01*
X146021517Y-62103818D01*
X146141845Y-62104300D01*
X146225149Y-62106752D01*
X146280585Y-62112684D01*
X146317308Y-62123604D01*
X146344474Y-62141023D01*
X146365323Y-62160496D01*
X146389710Y-62187601D01*
X146405878Y-62217213D01*
X146415507Y-62258952D01*
X146420278Y-62322436D01*
X146421870Y-62417286D01*
X146422000Y-62484915D01*
X146419303Y-62628926D01*
X146410893Y-62731851D01*
X146396294Y-62798490D01*
X146389175Y-62815010D01*
X146350287Y-62869990D01*
X146287581Y-62940278D01*
X146213944Y-63013158D01*
X146142266Y-63075915D01*
X146085435Y-63115834D01*
X146082927Y-63117149D01*
X146038460Y-63127656D01*
X145960036Y-63135188D01*
X145859786Y-63139679D01*
X145749842Y-63141064D01*
X145642338Y-63139278D01*
X145549404Y-63134258D01*
X145483174Y-63125936D01*
X145463728Y-63120460D01*
X145426720Y-63095431D01*
X145368819Y-63045984D01*
X145300698Y-62981415D01*
X145279000Y-62959604D01*
X145140455Y-62818270D01*
X145133426Y-62295676D01*
X145131948Y-62088855D01*
X145133639Y-61925532D01*
X145138475Y-61806437D01*
X145146435Y-61732301D01*
X145151947Y-61711401D01*
X145180172Y-61666396D01*
X145232230Y-61602101D01*
X145298113Y-61530647D01*
X145315570Y-61513087D01*
X145453643Y-61376455D01*
X146074388Y-61376455D01*
X146236649Y-61537472D01*
G37*
X146236649Y-61537472D02*
X146314988Y-61617970D01*
X146364192Y-61676821D01*
X146390151Y-61722482D01*
X146398750Y-61763411D01*
X146398909Y-61770575D01*
X146385271Y-61836470D01*
X146356682Y-61880876D01*
X146298073Y-61915366D01*
X146234884Y-61912619D01*
X146161729Y-61871092D01*
X146087182Y-61803636D01*
X145973464Y-61688182D01*
X145775080Y-61688182D01*
X145678313Y-61688973D01*
X145615097Y-61693701D01*
X145572802Y-61705900D01*
X145538798Y-61729103D01*
X145502894Y-61764327D01*
X145429091Y-61840471D01*
X145429091Y-62671718D01*
X145516656Y-62757223D01*
X145563455Y-62800730D01*
X145602868Y-62826226D01*
X145649675Y-62838520D01*
X145718654Y-62842418D01*
X145779514Y-62842727D01*
X145954808Y-62842727D01*
X146039473Y-62749013D01*
X146089130Y-62689522D01*
X146113112Y-62641048D01*
X146119049Y-62582619D01*
X146117206Y-62535422D01*
X146110273Y-62415545D01*
X145911030Y-62408915D01*
X145789282Y-62399921D01*
X145706837Y-62380109D01*
X145657385Y-62345904D01*
X145634618Y-62293729D01*
X145631137Y-62250297D01*
X145638381Y-62195542D01*
X145663991Y-62155843D01*
X145713782Y-62129018D01*
X145793569Y-62112886D01*
X145909167Y-62105263D01*
X146021517Y-62103818D01*
X146141845Y-62104300D01*
X146225149Y-62106752D01*
X146280585Y-62112684D01*
X146317308Y-62123604D01*
X146344474Y-62141023D01*
X146365323Y-62160496D01*
X146389710Y-62187601D01*
X146405878Y-62217213D01*
X146415507Y-62258952D01*
X146420278Y-62322436D01*
X146421870Y-62417286D01*
X146422000Y-62484915D01*
X146419303Y-62628926D01*
X146410893Y-62731851D01*
X146396294Y-62798490D01*
X146389175Y-62815010D01*
X146350287Y-62869990D01*
X146287581Y-62940278D01*
X146213944Y-63013158D01*
X146142266Y-63075915D01*
X146085435Y-63115834D01*
X146082927Y-63117149D01*
X146038460Y-63127656D01*
X145960036Y-63135188D01*
X145859786Y-63139679D01*
X145749842Y-63141064D01*
X145642338Y-63139278D01*
X145549404Y-63134258D01*
X145483174Y-63125936D01*
X145463728Y-63120460D01*
X145426720Y-63095431D01*
X145368819Y-63045984D01*
X145300698Y-62981415D01*
X145279000Y-62959604D01*
X145140455Y-62818270D01*
X145133426Y-62295676D01*
X145131948Y-62088855D01*
X145133639Y-61925532D01*
X145138475Y-61806437D01*
X145146435Y-61732301D01*
X145151947Y-61711401D01*
X145180172Y-61666396D01*
X145232230Y-61602101D01*
X145298113Y-61530647D01*
X145315570Y-61513087D01*
X145453643Y-61376455D01*
X146074388Y-61376455D01*
X146236649Y-61537472D01*
G36*
X143873347Y-61389100D02*
G01*
X143931037Y-61435267D01*
X143964748Y-61520426D01*
X143974364Y-61628169D01*
X143976732Y-61676003D01*
X143988013Y-61715761D01*
X144014476Y-61757264D01*
X144062390Y-61810332D01*
X144138021Y-61884784D01*
X144138371Y-61885123D01*
X144302379Y-62043459D01*
X144473190Y-61868732D01*
X144549538Y-61789500D01*
X144598936Y-61733109D01*
X144627227Y-61689888D01*
X144640259Y-61650166D01*
X144643876Y-61604270D01*
X144644000Y-61586135D01*
X144658514Y-61489061D01*
X144697150Y-61419596D01*
X144752555Y-61381914D01*
X144817373Y-61380187D01*
X144884248Y-61418590D01*
X144903773Y-61438746D01*
X144926594Y-61478499D01*
X144939331Y-61539172D01*
X144944025Y-61631920D01*
X144944182Y-61659554D01*
X144944182Y-61833629D01*
X144701728Y-62079670D01*
X144459273Y-62325711D01*
X144459273Y-62677632D01*
X144458987Y-62812403D01*
X144457393Y-62908966D01*
X144453383Y-62975294D01*
X144445853Y-63019361D01*
X144433696Y-63049139D01*
X144415806Y-63072602D01*
X144402595Y-63086231D01*
X144332475Y-63134435D01*
X144264450Y-63136558D01*
X144222271Y-63114045D01*
X144189610Y-63079383D01*
X144165868Y-63027975D01*
X144149868Y-62953230D01*
X144140431Y-62848557D01*
X144136380Y-62707365D01*
X144136000Y-62631315D01*
X144136000Y-62307455D01*
X143936129Y-62107500D01*
X143830501Y-61999751D01*
X143754389Y-61915443D01*
X143703103Y-61846992D01*
X143671951Y-61786812D01*
X143656243Y-61727316D01*
X143651290Y-61660919D01*
X143651177Y-61646626D01*
X143663342Y-61526095D01*
X143698291Y-61438984D01*
X143753421Y-61388313D01*
X143826129Y-61377099D01*
X143873347Y-61389100D01*
G37*
X143873347Y-61389100D02*
X143931037Y-61435267D01*
X143964748Y-61520426D01*
X143974364Y-61628169D01*
X143976732Y-61676003D01*
X143988013Y-61715761D01*
X144014476Y-61757264D01*
X144062390Y-61810332D01*
X144138021Y-61884784D01*
X144138371Y-61885123D01*
X144302379Y-62043459D01*
X144473190Y-61868732D01*
X144549538Y-61789500D01*
X144598936Y-61733109D01*
X144627227Y-61689888D01*
X144640259Y-61650166D01*
X144643876Y-61604270D01*
X144644000Y-61586135D01*
X144658514Y-61489061D01*
X144697150Y-61419596D01*
X144752555Y-61381914D01*
X144817373Y-61380187D01*
X144884248Y-61418590D01*
X144903773Y-61438746D01*
X144926594Y-61478499D01*
X144939331Y-61539172D01*
X144944025Y-61631920D01*
X144944182Y-61659554D01*
X144944182Y-61833629D01*
X144701728Y-62079670D01*
X144459273Y-62325711D01*
X144459273Y-62677632D01*
X144458987Y-62812403D01*
X144457393Y-62908966D01*
X144453383Y-62975294D01*
X144445853Y-63019361D01*
X144433696Y-63049139D01*
X144415806Y-63072602D01*
X144402595Y-63086231D01*
X144332475Y-63134435D01*
X144264450Y-63136558D01*
X144222271Y-63114045D01*
X144189610Y-63079383D01*
X144165868Y-63027975D01*
X144149868Y-62953230D01*
X144140431Y-62848557D01*
X144136380Y-62707365D01*
X144136000Y-62631315D01*
X144136000Y-62307455D01*
X143936129Y-62107500D01*
X143830501Y-61999751D01*
X143754389Y-61915443D01*
X143703103Y-61846992D01*
X143671951Y-61786812D01*
X143656243Y-61727316D01*
X143651290Y-61660919D01*
X143651177Y-61646626D01*
X143663342Y-61526095D01*
X143698291Y-61438984D01*
X143753421Y-61388313D01*
X143826129Y-61377099D01*
X143873347Y-61389100D01*
G36*
X142972718Y-61365898D02*
G01*
X143111265Y-61368664D01*
X143229391Y-61372904D01*
X143319419Y-61378318D01*
X143373672Y-61384602D01*
X143382879Y-61386986D01*
X143431873Y-61428703D01*
X143466826Y-61505524D01*
X143484794Y-61607724D01*
X143483466Y-61719293D01*
X143479680Y-61751963D01*
X143472807Y-61781646D01*
X143459319Y-61812590D01*
X143435689Y-61849043D01*
X143398389Y-61895255D01*
X143343891Y-61955473D01*
X143268666Y-62033946D01*
X143169188Y-62134921D01*
X143041929Y-62262647D01*
X142984612Y-62320022D01*
X142861931Y-62443354D01*
X142750551Y-62556385D01*
X142654491Y-62654949D01*
X142577772Y-62734885D01*
X142524411Y-62792029D01*
X142498429Y-62822216D01*
X142496546Y-62825606D01*
X142518464Y-62830892D01*
X142579535Y-62835516D01*
X142672729Y-62839207D01*
X142791018Y-62841697D01*
X142927374Y-62842716D01*
X142943240Y-62842727D01*
X143099081Y-62843087D01*
X143215292Y-62844547D01*
X143298421Y-62847678D01*
X143355017Y-62853049D01*
X143391627Y-62861231D01*
X143414801Y-62872795D01*
X143428149Y-62884955D01*
X143461607Y-62952943D01*
X143458649Y-63029805D01*
X143420182Y-63096727D01*
X143403100Y-63111405D01*
X143381015Y-63122600D01*
X143347948Y-63130782D01*
X143297915Y-63136419D01*
X143224936Y-63139981D01*
X143123027Y-63141937D01*
X142986209Y-63142756D01*
X142831364Y-63142909D01*
X142658695Y-63142704D01*
X142526225Y-63141778D01*
X142427974Y-63139660D01*
X142357958Y-63135881D01*
X142310196Y-63129973D01*
X142278706Y-63121467D01*
X142257508Y-63109892D01*
X142242546Y-63096727D01*
X142218809Y-63065521D01*
X142204728Y-63022767D01*
X142198012Y-62956777D01*
X142196364Y-62861273D01*
X142196364Y-62672000D01*
X142684906Y-62181527D01*
X143173447Y-61691054D01*
X142733450Y-61683845D01*
X142578359Y-61680903D01*
X142462683Y-61677405D01*
X142379655Y-61672643D01*
X142322509Y-61665907D01*
X142284477Y-61656488D01*
X142258793Y-61643677D01*
X142244908Y-61632648D01*
X142202852Y-61567790D01*
X142201366Y-61495371D01*
X142239716Y-61428491D01*
X142257205Y-61412767D01*
X142279688Y-61397031D01*
X142306023Y-61385175D01*
X142342648Y-61376652D01*
X142396001Y-61370916D01*
X142472519Y-61367422D01*
X142578638Y-61365624D01*
X142720798Y-61364974D01*
X142821429Y-61364909D01*
X142972718Y-61365898D01*
G37*
X142972718Y-61365898D02*
X143111265Y-61368664D01*
X143229391Y-61372904D01*
X143319419Y-61378318D01*
X143373672Y-61384602D01*
X143382879Y-61386986D01*
X143431873Y-61428703D01*
X143466826Y-61505524D01*
X143484794Y-61607724D01*
X143483466Y-61719293D01*
X143479680Y-61751963D01*
X143472807Y-61781646D01*
X143459319Y-61812590D01*
X143435689Y-61849043D01*
X143398389Y-61895255D01*
X143343891Y-61955473D01*
X143268666Y-62033946D01*
X143169188Y-62134921D01*
X143041929Y-62262647D01*
X142984612Y-62320022D01*
X142861931Y-62443354D01*
X142750551Y-62556385D01*
X142654491Y-62654949D01*
X142577772Y-62734885D01*
X142524411Y-62792029D01*
X142498429Y-62822216D01*
X142496546Y-62825606D01*
X142518464Y-62830892D01*
X142579535Y-62835516D01*
X142672729Y-62839207D01*
X142791018Y-62841697D01*
X142927374Y-62842716D01*
X142943240Y-62842727D01*
X143099081Y-62843087D01*
X143215292Y-62844547D01*
X143298421Y-62847678D01*
X143355017Y-62853049D01*
X143391627Y-62861231D01*
X143414801Y-62872795D01*
X143428149Y-62884955D01*
X143461607Y-62952943D01*
X143458649Y-63029805D01*
X143420182Y-63096727D01*
X143403100Y-63111405D01*
X143381015Y-63122600D01*
X143347948Y-63130782D01*
X143297915Y-63136419D01*
X143224936Y-63139981D01*
X143123027Y-63141937D01*
X142986209Y-63142756D01*
X142831364Y-63142909D01*
X142658695Y-63142704D01*
X142526225Y-63141778D01*
X142427974Y-63139660D01*
X142357958Y-63135881D01*
X142310196Y-63129973D01*
X142278706Y-63121467D01*
X142257508Y-63109892D01*
X142242546Y-63096727D01*
X142218809Y-63065521D01*
X142204728Y-63022767D01*
X142198012Y-62956777D01*
X142196364Y-62861273D01*
X142196364Y-62672000D01*
X142684906Y-62181527D01*
X143173447Y-61691054D01*
X142733450Y-61683845D01*
X142578359Y-61680903D01*
X142462683Y-61677405D01*
X142379655Y-61672643D01*
X142322509Y-61665907D01*
X142284477Y-61656488D01*
X142258793Y-61643677D01*
X142244908Y-61632648D01*
X142202852Y-61567790D01*
X142201366Y-61495371D01*
X142239716Y-61428491D01*
X142257205Y-61412767D01*
X142279688Y-61397031D01*
X142306023Y-61385175D01*
X142342648Y-61376652D01*
X142396001Y-61370916D01*
X142472519Y-61367422D01*
X142578638Y-61365624D01*
X142720798Y-61364974D01*
X142821429Y-61364909D01*
X142972718Y-61365898D01*
G36*
X141894454Y-61377231D02*
G01*
X141954959Y-61421587D01*
X141985236Y-61457608D01*
X142002405Y-61498951D01*
X142010018Y-61559581D01*
X142011637Y-61644401D01*
X142011637Y-61810538D01*
X141769182Y-62056579D01*
X141526728Y-62302620D01*
X141526728Y-62643093D01*
X141524675Y-62804422D01*
X141517541Y-62925625D01*
X141503858Y-63012615D01*
X141482159Y-63071306D01*
X141450977Y-63107612D01*
X141408846Y-63127448D01*
X141406425Y-63128113D01*
X141350543Y-63140086D01*
X141313710Y-63132687D01*
X141273520Y-63099499D01*
X141260132Y-63086231D01*
X141238715Y-63063112D01*
X141223510Y-63038286D01*
X141213454Y-63003914D01*
X141207484Y-62952157D01*
X141204537Y-62875178D01*
X141203550Y-62765136D01*
X141203455Y-62668420D01*
X141203455Y-62307286D01*
X140987676Y-62095870D01*
X140904124Y-62012195D01*
X140831252Y-61935844D01*
X140776350Y-61874694D01*
X140746712Y-61836619D01*
X140745222Y-61834018D01*
X140731282Y-61785006D01*
X140721628Y-61707763D01*
X140718546Y-61630923D01*
X140721015Y-61543400D01*
X140731135Y-61486883D01*
X140752979Y-61446334D01*
X140775223Y-61421587D01*
X140832798Y-61376192D01*
X140884597Y-61370302D01*
X140945387Y-61403203D01*
X140957886Y-61412767D01*
X140995682Y-61450292D01*
X141013757Y-61496321D01*
X141018701Y-61568679D01*
X141018728Y-61577315D01*
X141020098Y-61630670D01*
X141028075Y-61672501D01*
X141048456Y-61712700D01*
X141087038Y-61761157D01*
X141149621Y-61827766D01*
X141189538Y-61868732D01*
X141360349Y-62043459D01*
X141521667Y-61887719D01*
X141595930Y-61815080D01*
X141643443Y-61763031D01*
X141670784Y-61720195D01*
X141684534Y-61675195D01*
X141691273Y-61616655D01*
X141693169Y-61591191D01*
X141703419Y-61503543D01*
X141721699Y-61447953D01*
X141752816Y-61410413D01*
X141756144Y-61407656D01*
X141827096Y-61369865D01*
X141894454Y-61377231D01*
G37*
X141894454Y-61377231D02*
X141954959Y-61421587D01*
X141985236Y-61457608D01*
X142002405Y-61498951D01*
X142010018Y-61559581D01*
X142011637Y-61644401D01*
X142011637Y-61810538D01*
X141769182Y-62056579D01*
X141526728Y-62302620D01*
X141526728Y-62643093D01*
X141524675Y-62804422D01*
X141517541Y-62925625D01*
X141503858Y-63012615D01*
X141482159Y-63071306D01*
X141450977Y-63107612D01*
X141408846Y-63127448D01*
X141406425Y-63128113D01*
X141350543Y-63140086D01*
X141313710Y-63132687D01*
X141273520Y-63099499D01*
X141260132Y-63086231D01*
X141238715Y-63063112D01*
X141223510Y-63038286D01*
X141213454Y-63003914D01*
X141207484Y-62952157D01*
X141204537Y-62875178D01*
X141203550Y-62765136D01*
X141203455Y-62668420D01*
X141203455Y-62307286D01*
X140987676Y-62095870D01*
X140904124Y-62012195D01*
X140831252Y-61935844D01*
X140776350Y-61874694D01*
X140746712Y-61836619D01*
X140745222Y-61834018D01*
X140731282Y-61785006D01*
X140721628Y-61707763D01*
X140718546Y-61630923D01*
X140721015Y-61543400D01*
X140731135Y-61486883D01*
X140752979Y-61446334D01*
X140775223Y-61421587D01*
X140832798Y-61376192D01*
X140884597Y-61370302D01*
X140945387Y-61403203D01*
X140957886Y-61412767D01*
X140995682Y-61450292D01*
X141013757Y-61496321D01*
X141018701Y-61568679D01*
X141018728Y-61577315D01*
X141020098Y-61630670D01*
X141028075Y-61672501D01*
X141048456Y-61712700D01*
X141087038Y-61761157D01*
X141149621Y-61827766D01*
X141189538Y-61868732D01*
X141360349Y-62043459D01*
X141521667Y-61887719D01*
X141595930Y-61815080D01*
X141643443Y-61763031D01*
X141670784Y-61720195D01*
X141684534Y-61675195D01*
X141691273Y-61616655D01*
X141693169Y-61591191D01*
X141703419Y-61503543D01*
X141721699Y-61447953D01*
X141752816Y-61410413D01*
X141756144Y-61407656D01*
X141827096Y-61369865D01*
X141894454Y-61377231D01*
G36*
X139912174Y-61366870D02*
G01*
X139967120Y-61368518D01*
X140212930Y-61376455D01*
X140376223Y-61544053D01*
X140450500Y-61621648D01*
X140497134Y-61675763D01*
X140521514Y-61715193D01*
X140529030Y-61748732D01*
X140525070Y-61785174D01*
X140524810Y-61786507D01*
X140493734Y-61869412D01*
X140442574Y-61911818D01*
X140373667Y-61913604D01*
X140289351Y-61874643D01*
X140201160Y-61803636D01*
X140079083Y-61688182D01*
X139886305Y-61688182D01*
X139789468Y-61689402D01*
X139726031Y-61695113D01*
X139683234Y-61708389D01*
X139648319Y-61732303D01*
X139628764Y-61750229D01*
X139574059Y-61826638D01*
X139565267Y-61906095D01*
X139602329Y-61987213D01*
X139640145Y-62030016D01*
X139675727Y-62063032D01*
X139707814Y-62084358D01*
X139747340Y-62096547D01*
X139805241Y-62102155D01*
X139892451Y-62103738D01*
X139955969Y-62103818D01*
X140195648Y-62103818D01*
X140538852Y-62447022D01*
X140530393Y-62633284D01*
X140521935Y-62819547D01*
X140366092Y-62975455D01*
X140210249Y-63131364D01*
X139915988Y-63138044D01*
X139790104Y-63140058D01*
X139700940Y-63138770D01*
X139639093Y-63133224D01*
X139595161Y-63122465D01*
X139559743Y-63105534D01*
X139552455Y-63101073D01*
X139500403Y-63061126D01*
X139433473Y-63000320D01*
X139373500Y-62939518D01*
X139297302Y-62840815D01*
X139262023Y-62753771D01*
X139268102Y-62680744D01*
X139315138Y-62624673D01*
X139365546Y-62597463D01*
X139413618Y-62594420D01*
X139468529Y-62618616D01*
X139539459Y-62673123D01*
X139587091Y-62715727D01*
X139725235Y-62842727D01*
X139896974Y-62842727D01*
X139987052Y-62841376D01*
X140045951Y-62834266D01*
X140088659Y-62816810D01*
X140130164Y-62784425D01*
X140151174Y-62764955D01*
X140214909Y-62688498D01*
X140233810Y-62617895D01*
X140207797Y-62547625D01*
X140147046Y-62481105D01*
X140106763Y-62446560D01*
X140071777Y-62424275D01*
X140030751Y-62411563D01*
X139972352Y-62405735D01*
X139885245Y-62404102D01*
X139822059Y-62404018D01*
X139583663Y-62404000D01*
X139443680Y-62271227D01*
X139347423Y-62171400D01*
X139285433Y-62083324D01*
X139251852Y-61995895D01*
X139240817Y-61898007D01*
X139240728Y-61886699D01*
X139246902Y-61794682D01*
X139269627Y-61717731D01*
X139315207Y-61643544D01*
X139389946Y-61559818D01*
X139426972Y-61523263D01*
X139495449Y-61459973D01*
X139555251Y-61415477D01*
X139616600Y-61386849D01*
X139689721Y-61371157D01*
X139784837Y-61365474D01*
X139912174Y-61366870D01*
G37*
X139912174Y-61366870D02*
X139967120Y-61368518D01*
X140212930Y-61376455D01*
X140376223Y-61544053D01*
X140450500Y-61621648D01*
X140497134Y-61675763D01*
X140521514Y-61715193D01*
X140529030Y-61748732D01*
X140525070Y-61785174D01*
X140524810Y-61786507D01*
X140493734Y-61869412D01*
X140442574Y-61911818D01*
X140373667Y-61913604D01*
X140289351Y-61874643D01*
X140201160Y-61803636D01*
X140079083Y-61688182D01*
X139886305Y-61688182D01*
X139789468Y-61689402D01*
X139726031Y-61695113D01*
X139683234Y-61708389D01*
X139648319Y-61732303D01*
X139628764Y-61750229D01*
X139574059Y-61826638D01*
X139565267Y-61906095D01*
X139602329Y-61987213D01*
X139640145Y-62030016D01*
X139675727Y-62063032D01*
X139707814Y-62084358D01*
X139747340Y-62096547D01*
X139805241Y-62102155D01*
X139892451Y-62103738D01*
X139955969Y-62103818D01*
X140195648Y-62103818D01*
X140538852Y-62447022D01*
X140530393Y-62633284D01*
X140521935Y-62819547D01*
X140366092Y-62975455D01*
X140210249Y-63131364D01*
X139915988Y-63138044D01*
X139790104Y-63140058D01*
X139700940Y-63138770D01*
X139639093Y-63133224D01*
X139595161Y-63122465D01*
X139559743Y-63105534D01*
X139552455Y-63101073D01*
X139500403Y-63061126D01*
X139433473Y-63000320D01*
X139373500Y-62939518D01*
X139297302Y-62840815D01*
X139262023Y-62753771D01*
X139268102Y-62680744D01*
X139315138Y-62624673D01*
X139365546Y-62597463D01*
X139413618Y-62594420D01*
X139468529Y-62618616D01*
X139539459Y-62673123D01*
X139587091Y-62715727D01*
X139725235Y-62842727D01*
X139896974Y-62842727D01*
X139987052Y-62841376D01*
X140045951Y-62834266D01*
X140088659Y-62816810D01*
X140130164Y-62784425D01*
X140151174Y-62764955D01*
X140214909Y-62688498D01*
X140233810Y-62617895D01*
X140207797Y-62547625D01*
X140147046Y-62481105D01*
X140106763Y-62446560D01*
X140071777Y-62424275D01*
X140030751Y-62411563D01*
X139972352Y-62405735D01*
X139885245Y-62404102D01*
X139822059Y-62404018D01*
X139583663Y-62404000D01*
X139443680Y-62271227D01*
X139347423Y-62171400D01*
X139285433Y-62083324D01*
X139251852Y-61995895D01*
X139240817Y-61898007D01*
X139240728Y-61886699D01*
X139246902Y-61794682D01*
X139269627Y-61717731D01*
X139315207Y-61643544D01*
X139389946Y-61559818D01*
X139426972Y-61523263D01*
X139495449Y-61459973D01*
X139555251Y-61415477D01*
X139616600Y-61386849D01*
X139689721Y-61371157D01*
X139784837Y-61365474D01*
X139912174Y-61366870D01*
G36*
X137363294Y-62991878D02*
G01*
X137450714Y-63033196D01*
X137506562Y-63098970D01*
X137527738Y-63178861D01*
X137511142Y-63262529D01*
X137464504Y-63329413D01*
X137388884Y-63382990D01*
X137309734Y-63391842D01*
X137229233Y-63362281D01*
X137161946Y-63302367D01*
X137128583Y-63221681D01*
X137134284Y-63134231D01*
X137139906Y-63118729D01*
X137188231Y-63050473D01*
X137259379Y-63003885D01*
X137337059Y-62988217D01*
X137363294Y-62991878D01*
G37*
X137363294Y-62991878D02*
X137450714Y-63033196D01*
X137506562Y-63098970D01*
X137527738Y-63178861D01*
X137511142Y-63262529D01*
X137464504Y-63329413D01*
X137388884Y-63382990D01*
X137309734Y-63391842D01*
X137229233Y-63362281D01*
X137161946Y-63302367D01*
X137128583Y-63221681D01*
X137134284Y-63134231D01*
X137139906Y-63118729D01*
X137188231Y-63050473D01*
X137259379Y-63003885D01*
X137337059Y-62988217D01*
X137363294Y-62991878D01*
%TD*%
M02*
