%TF.GenerationSoftware,KiCad,Pcbnew,(6.0.7)*%
%TF.CreationDate,2022-08-04T10:24:46-07:00*%
%TF.ProjectId,SZG-TEMPLATE-STD,535a472d-5445-44d5-904c-4154452d5354,A*%
%TF.SameCoordinates,Original*%
%TF.FileFunction,Soldermask,Bot*%
%TF.FilePolarity,Negative*%
%FSLAX46Y46*%
G04 Gerber Fmt 4.6, Leading zero omitted, Abs format (unit mm)*
G04 Created by KiCad (PCBNEW (6.0.7)) date 2022-08-04 10:24:46*
%MOMM*%
%LPD*%
G01*
G04 APERTURE LIST*
G04 Aperture macros list*
%AMRoundRect*
0 Rectangle with rounded corners*
0 $1 Rounding radius*
0 $2 $3 $4 $5 $6 $7 $8 $9 X,Y pos of 4 corners*
0 Add a 4 corners polygon primitive as box body*
4,1,4,$2,$3,$4,$5,$6,$7,$8,$9,$2,$3,0*
0 Add four circle primitives for the rounded corners*
1,1,$1+$1,$2,$3*
1,1,$1+$1,$4,$5*
1,1,$1+$1,$6,$7*
1,1,$1+$1,$8,$9*
0 Add four rect primitives between the rounded corners*
20,1,$1+$1,$2,$3,$4,$5,0*
20,1,$1+$1,$4,$5,$6,$7,0*
20,1,$1+$1,$6,$7,$8,$9,0*
20,1,$1+$1,$8,$9,$2,$3,0*%
G04 Aperture macros list end*
%ADD10RoundRect,0.050800X-1.350000X1.350000X-1.350000X-1.350000X1.350000X-1.350000X1.350000X1.350000X0*%
%ADD11O,0.901600X0.351600*%
%ADD12O,0.351600X0.901600*%
%ADD13C,0.787400*%
%ADD14C,2.374900*%
%ADD15C,0.990600*%
%ADD16C,3.600000*%
%ADD17C,6.500000*%
%ADD18RoundRect,0.050800X-1.270000X-0.320000X1.270000X-0.320000X1.270000X0.320000X-1.270000X0.320000X0*%
%ADD19RoundRect,0.050800X-2.350000X-0.320000X2.350000X-0.320000X2.350000X0.320000X-2.350000X0.320000X0*%
%ADD20RoundRect,0.050800X-0.230000X-0.725000X0.230000X-0.725000X0.230000X0.725000X-0.230000X0.725000X0*%
%ADD21C,1.301600*%
%ADD22C,1.121600*%
%ADD23C,0.609600*%
%ADD24RoundRect,0.135000X0.135000X0.185000X-0.135000X0.185000X-0.135000X-0.185000X0.135000X-0.185000X0*%
%ADD25RoundRect,0.140000X-0.140000X-0.170000X0.140000X-0.170000X0.140000X0.170000X-0.140000X0.170000X0*%
%ADD26RoundRect,0.140000X0.170000X-0.140000X0.170000X0.140000X-0.170000X0.140000X-0.170000X-0.140000X0*%
%ADD27C,2.000000*%
G04 APERTURE END LIST*
D10*
%TO.C,U1*%
X132701600Y-75360800D03*
D11*
X130701600Y-75360800D03*
X130701600Y-74860800D03*
D12*
X131701600Y-77360800D03*
D11*
X130701600Y-74360800D03*
X130701600Y-76360800D03*
D12*
X133201600Y-77360800D03*
D11*
X134701600Y-75360800D03*
X134701600Y-74360800D03*
D12*
X131701600Y-73360800D03*
D11*
X130701600Y-75860800D03*
D12*
X132201600Y-77360800D03*
X132701600Y-77360800D03*
D11*
X134701600Y-74860800D03*
X134701600Y-75860800D03*
D12*
X132701600Y-73360800D03*
D11*
X134701600Y-76360800D03*
D12*
X133701600Y-77360800D03*
X133701600Y-73360800D03*
X133201600Y-73360800D03*
X132201600Y-73360800D03*
%TD*%
D13*
%TO.C,J2*%
X126035000Y-83130000D03*
X126035000Y-85670000D03*
X124765000Y-83130000D03*
X126035000Y-84400000D03*
X124765000Y-84400000D03*
X124765000Y-85670000D03*
D14*
X127940000Y-86940000D03*
X122860000Y-86940000D03*
X122860000Y-83765000D03*
X127940000Y-83765000D03*
D15*
X124384000Y-81860000D03*
X126416000Y-81860000D03*
X125400000Y-86940000D03*
%TD*%
D16*
%TO.C,H6*%
X159900000Y-123800000D03*
D17*
X159900000Y-123800000D03*
%TD*%
D16*
%TO.C,H5*%
X124900000Y-123800000D03*
D17*
X124900000Y-123800000D03*
%TD*%
D16*
%TO.C,H4*%
X159900000Y-75800000D03*
D17*
X159900000Y-75800000D03*
%TD*%
D16*
%TO.C,H3*%
X124900000Y-75800000D03*
D17*
X124900000Y-75800000D03*
%TD*%
D16*
%TO.C,H2*%
X159400000Y-65800000D03*
D17*
X159400000Y-65800000D03*
%TD*%
D16*
%TO.C,H1*%
X125400000Y-65800000D03*
D17*
X125400000Y-65800000D03*
%TD*%
D18*
%TO.C,J1*%
X150845320Y-65800000D03*
D19*
X145575320Y-65800000D03*
X139225320Y-65800000D03*
D18*
X133955320Y-65800000D03*
D20*
X150000320Y-62710000D03*
X150000320Y-68890000D03*
X149200320Y-62710000D03*
X149200320Y-68890000D03*
X148400320Y-62710000D03*
X148400320Y-68890000D03*
X147600320Y-62710000D03*
X147600320Y-68890000D03*
X146800320Y-62710000D03*
X146800320Y-68890000D03*
X146000320Y-62710000D03*
X146000320Y-68890000D03*
X145200320Y-62710000D03*
X145200320Y-68890000D03*
X144400320Y-62710000D03*
X144400320Y-68890000D03*
X143600320Y-62710000D03*
X143600320Y-68890000D03*
X142800320Y-62710000D03*
X142800320Y-68890000D03*
X142000320Y-62710000D03*
X142000320Y-68890000D03*
X141200320Y-62710000D03*
X141200320Y-68890000D03*
X140400320Y-62710000D03*
X140400320Y-68890000D03*
X139600320Y-62710000D03*
X139600320Y-68890000D03*
X138800320Y-62710000D03*
X138800320Y-68890000D03*
X138000320Y-62710000D03*
X138000320Y-68890000D03*
X137200320Y-62710000D03*
X137200320Y-68890000D03*
X136400320Y-62710000D03*
X136400320Y-68890000D03*
X135600320Y-62710000D03*
X135600320Y-68890000D03*
X134800320Y-62710000D03*
X134800320Y-68890000D03*
D21*
X131555320Y-66300000D03*
D22*
X151640320Y-67840000D03*
D21*
X153245320Y-66300000D03*
D22*
X133160320Y-67840000D03*
%TD*%
D23*
%TO.C,TP11*%
X130745800Y-78612000D03*
%TD*%
%TO.C,TP10*%
X131050600Y-72033400D03*
%TD*%
%TO.C,TP9*%
X131660200Y-78612000D03*
%TD*%
%TO.C,TP8*%
X131914200Y-72033400D03*
%TD*%
%TO.C,TP7*%
X134733600Y-78459600D03*
%TD*%
%TO.C,TP6*%
X132777800Y-72033400D03*
%TD*%
%TO.C,TP5*%
X135622600Y-77596000D03*
%TD*%
D24*
%TO.C,R1*%
X133664800Y-71169800D03*
X134684800Y-71169800D03*
%TD*%
%TO.C,R2*%
X132623400Y-78789800D03*
X133643400Y-78789800D03*
%TD*%
D25*
%TO.C,C2*%
X134654800Y-72135000D03*
X133694800Y-72135000D03*
%TD*%
D26*
%TO.C,C1*%
X136206800Y-75134800D03*
X136206800Y-76094800D03*
%TD*%
D27*
%TO.C,FID1*%
X163212400Y-127165200D03*
%TD*%
%TO.C,FID2*%
X121322400Y-127350800D03*
%TD*%
%TO.C,FID3*%
X162900000Y-60800000D03*
%TD*%
%TO.C,FID4*%
X122167000Y-70643000D03*
%TD*%
M02*
