%TF.GenerationSoftware,KiCad,Pcbnew,(5.1.9)-1*%
%TF.CreationDate,2021-04-14T12:12:14-07:00*%
%TF.ProjectId,SZG-TEMPLATE-STD,535a472d-5445-44d5-904c-4154452d5354,A*%
%TF.SameCoordinates,Original*%
%TF.FileFunction,OtherDrawing,Comment*%
%FSLAX46Y46*%
G04 Gerber Fmt 4.6, Leading zero omitted, Abs format (unit mm)*
G04 Created by KiCad (PCBNEW (5.1.9)-1) date 2021-04-14 12:12:14*
%MOMM*%
%LPD*%
G01*
G04 APERTURE LIST*
%ADD10C,0.150000*%
%ADD11C,0.100000*%
G04 APERTURE END LIST*
D10*
X138733328Y-48485714D02*
X138733328Y-49152380D01*
X138495233Y-48104761D02*
X138257137Y-48819047D01*
X138876185Y-48819047D01*
X139733328Y-48152380D02*
X139257137Y-48152380D01*
X139209518Y-48628571D01*
X139257137Y-48580952D01*
X139352375Y-48533333D01*
X139590471Y-48533333D01*
X139685709Y-48580952D01*
X139733328Y-48628571D01*
X139780947Y-48723809D01*
X139780947Y-48961904D01*
X139733328Y-49057142D01*
X139685709Y-49104761D01*
X139590471Y-49152380D01*
X139352375Y-49152380D01*
X139257137Y-49104761D01*
X139209518Y-49057142D01*
X140209518Y-49057142D02*
X140257137Y-49104761D01*
X140209518Y-49152380D01*
X140161899Y-49104761D01*
X140209518Y-49057142D01*
X140209518Y-49152380D01*
X140876185Y-48152380D02*
X140971423Y-48152380D01*
X141066661Y-48200000D01*
X141114280Y-48247619D01*
X141161899Y-48342857D01*
X141209518Y-48533333D01*
X141209518Y-48771428D01*
X141161899Y-48961904D01*
X141114280Y-49057142D01*
X141066661Y-49104761D01*
X140971423Y-49152380D01*
X140876185Y-49152380D01*
X140780947Y-49104761D01*
X140733328Y-49057142D01*
X140685709Y-48961904D01*
X140638090Y-48771428D01*
X140638090Y-48533333D01*
X140685709Y-48342857D01*
X140733328Y-48247619D01*
X140780947Y-48200000D01*
X140876185Y-48152380D01*
X141828566Y-48152380D02*
X141923804Y-48152380D01*
X142019042Y-48200000D01*
X142066661Y-48247619D01*
X142114280Y-48342857D01*
X142161899Y-48533333D01*
X142161899Y-48771428D01*
X142114280Y-48961904D01*
X142066661Y-49057142D01*
X142019042Y-49104761D01*
X141923804Y-49152380D01*
X141828566Y-49152380D01*
X141733328Y-49104761D01*
X141685709Y-49057142D01*
X141638090Y-48961904D01*
X141590471Y-48771428D01*
X141590471Y-48533333D01*
X141638090Y-48342857D01*
X141685709Y-48247619D01*
X141733328Y-48200000D01*
X141828566Y-48152380D01*
X142780947Y-48152380D02*
X142876185Y-48152380D01*
X142971423Y-48200000D01*
X143019042Y-48247619D01*
X143066661Y-48342857D01*
X143114280Y-48533333D01*
X143114280Y-48771428D01*
X143066661Y-48961904D01*
X143019042Y-49057142D01*
X142971423Y-49104761D01*
X142876185Y-49152380D01*
X142780947Y-49152380D01*
X142685709Y-49104761D01*
X142638090Y-49057142D01*
X142590471Y-48961904D01*
X142542852Y-48771428D01*
X142542852Y-48533333D01*
X142590471Y-48342857D01*
X142638090Y-48247619D01*
X142685709Y-48200000D01*
X142780947Y-48152380D01*
X144304756Y-49152380D02*
X144304756Y-48485714D01*
X144304756Y-48580952D02*
X144352375Y-48533333D01*
X144447614Y-48485714D01*
X144590471Y-48485714D01*
X144685709Y-48533333D01*
X144733328Y-48628571D01*
X144733328Y-49152380D01*
X144733328Y-48628571D02*
X144780947Y-48533333D01*
X144876185Y-48485714D01*
X145019042Y-48485714D01*
X145114280Y-48533333D01*
X145161899Y-48628571D01*
X145161899Y-49152380D01*
X145638090Y-49152380D02*
X145638090Y-48485714D01*
X145638090Y-48580952D02*
X145685709Y-48533333D01*
X145780947Y-48485714D01*
X145923804Y-48485714D01*
X146019042Y-48533333D01*
X146066661Y-48628571D01*
X146066661Y-49152380D01*
X146066661Y-48628571D02*
X146114280Y-48533333D01*
X146209518Y-48485714D01*
X146352375Y-48485714D01*
X146447614Y-48533333D01*
X146495233Y-48628571D01*
X146495233Y-49152380D01*
X119900000Y-50000000D02*
X164899990Y-50000000D01*
X119900000Y-58800010D02*
X119900000Y-49413579D01*
X164899990Y-58800010D02*
X164899990Y-49413579D01*
X164899990Y-50000000D02*
X163773486Y-50586421D01*
X164899990Y-50000000D02*
X163773486Y-49413579D01*
X119900000Y-50000000D02*
X121026504Y-50586421D01*
X119900000Y-50000000D02*
X121026504Y-49413579D01*
X104952380Y-97990476D02*
X104952380Y-97323809D01*
X105952380Y-97752380D01*
X104952380Y-96752380D02*
X104952380Y-96657142D01*
X105000000Y-96561904D01*
X105047619Y-96514285D01*
X105142857Y-96466666D01*
X105333333Y-96419047D01*
X105571428Y-96419047D01*
X105761904Y-96466666D01*
X105857142Y-96514285D01*
X105904761Y-96561904D01*
X105952380Y-96657142D01*
X105952380Y-96752380D01*
X105904761Y-96847619D01*
X105857142Y-96895238D01*
X105761904Y-96942857D01*
X105571428Y-96990476D01*
X105333333Y-96990476D01*
X105142857Y-96942857D01*
X105047619Y-96895238D01*
X105000000Y-96847619D01*
X104952380Y-96752380D01*
X105857142Y-95990476D02*
X105904761Y-95942857D01*
X105952380Y-95990476D01*
X105904761Y-96038095D01*
X105857142Y-95990476D01*
X105952380Y-95990476D01*
X104952380Y-95323809D02*
X104952380Y-95228571D01*
X105000000Y-95133333D01*
X105047619Y-95085714D01*
X105142857Y-95038095D01*
X105333333Y-94990476D01*
X105571428Y-94990476D01*
X105761904Y-95038095D01*
X105857142Y-95085714D01*
X105904761Y-95133333D01*
X105952380Y-95228571D01*
X105952380Y-95323809D01*
X105904761Y-95419047D01*
X105857142Y-95466666D01*
X105761904Y-95514285D01*
X105571428Y-95561904D01*
X105333333Y-95561904D01*
X105142857Y-95514285D01*
X105047619Y-95466666D01*
X105000000Y-95419047D01*
X104952380Y-95323809D01*
X104952380Y-94371428D02*
X104952380Y-94276190D01*
X105000000Y-94180952D01*
X105047619Y-94133333D01*
X105142857Y-94085714D01*
X105333333Y-94038095D01*
X105571428Y-94038095D01*
X105761904Y-94085714D01*
X105857142Y-94133333D01*
X105904761Y-94180952D01*
X105952380Y-94276190D01*
X105952380Y-94371428D01*
X105904761Y-94466666D01*
X105857142Y-94514285D01*
X105761904Y-94561904D01*
X105571428Y-94609523D01*
X105333333Y-94609523D01*
X105142857Y-94561904D01*
X105047619Y-94514285D01*
X105000000Y-94466666D01*
X104952380Y-94371428D01*
X104952380Y-93419047D02*
X104952380Y-93323809D01*
X105000000Y-93228571D01*
X105047619Y-93180952D01*
X105142857Y-93133333D01*
X105333333Y-93085714D01*
X105571428Y-93085714D01*
X105761904Y-93133333D01*
X105857142Y-93180952D01*
X105904761Y-93228571D01*
X105952380Y-93323809D01*
X105952380Y-93419047D01*
X105904761Y-93514285D01*
X105857142Y-93561904D01*
X105761904Y-93609523D01*
X105571428Y-93657142D01*
X105333333Y-93657142D01*
X105142857Y-93609523D01*
X105047619Y-93561904D01*
X105000000Y-93514285D01*
X104952380Y-93419047D01*
X105952380Y-91895238D02*
X105285714Y-91895238D01*
X105380952Y-91895238D02*
X105333333Y-91847619D01*
X105285714Y-91752380D01*
X105285714Y-91609523D01*
X105333333Y-91514285D01*
X105428571Y-91466666D01*
X105952380Y-91466666D01*
X105428571Y-91466666D02*
X105333333Y-91419047D01*
X105285714Y-91323809D01*
X105285714Y-91180952D01*
X105333333Y-91085714D01*
X105428571Y-91038095D01*
X105952380Y-91038095D01*
X105952380Y-90561904D02*
X105285714Y-90561904D01*
X105380952Y-90561904D02*
X105333333Y-90514285D01*
X105285714Y-90419047D01*
X105285714Y-90276190D01*
X105333333Y-90180952D01*
X105428571Y-90133333D01*
X105952380Y-90133333D01*
X105428571Y-90133333D02*
X105333333Y-90085714D01*
X105285714Y-89990476D01*
X105285714Y-89847619D01*
X105333333Y-89752380D01*
X105428571Y-89704761D01*
X105952380Y-89704761D01*
X106800000Y-128800000D02*
X106800000Y-58800000D01*
X119900000Y-128800000D02*
X106213579Y-128800000D01*
X119900000Y-58800000D02*
X106213579Y-58800000D01*
X106800000Y-58800000D02*
X107386421Y-59926504D01*
X106800000Y-58800000D02*
X106213579Y-59926504D01*
X106800000Y-128800000D02*
X107386421Y-127673496D01*
X106800000Y-128800000D02*
X106213579Y-127673496D01*
X115252380Y-69968928D02*
X115252380Y-69302261D01*
X116252380Y-69730833D01*
X116157142Y-68921309D02*
X116204761Y-68873690D01*
X116252380Y-68921309D01*
X116204761Y-68968928D01*
X116157142Y-68921309D01*
X116252380Y-68921309D01*
X115252380Y-68254642D02*
X115252380Y-68159404D01*
X115300000Y-68064166D01*
X115347619Y-68016547D01*
X115442857Y-67968928D01*
X115633333Y-67921309D01*
X115871428Y-67921309D01*
X116061904Y-67968928D01*
X116157142Y-68016547D01*
X116204761Y-68064166D01*
X116252380Y-68159404D01*
X116252380Y-68254642D01*
X116204761Y-68349880D01*
X116157142Y-68397500D01*
X116061904Y-68445119D01*
X115871428Y-68492738D01*
X115633333Y-68492738D01*
X115442857Y-68445119D01*
X115347619Y-68397500D01*
X115300000Y-68349880D01*
X115252380Y-68254642D01*
X115252380Y-67302261D02*
X115252380Y-67207023D01*
X115300000Y-67111785D01*
X115347619Y-67064166D01*
X115442857Y-67016547D01*
X115633333Y-66968928D01*
X115871428Y-66968928D01*
X116061904Y-67016547D01*
X116157142Y-67064166D01*
X116204761Y-67111785D01*
X116252380Y-67207023D01*
X116252380Y-67302261D01*
X116204761Y-67397500D01*
X116157142Y-67445119D01*
X116061904Y-67492738D01*
X115871428Y-67540357D01*
X115633333Y-67540357D01*
X115442857Y-67492738D01*
X115347619Y-67445119D01*
X115300000Y-67397500D01*
X115252380Y-67302261D01*
X115252380Y-66349880D02*
X115252380Y-66254642D01*
X115300000Y-66159404D01*
X115347619Y-66111785D01*
X115442857Y-66064166D01*
X115633333Y-66016547D01*
X115871428Y-66016547D01*
X116061904Y-66064166D01*
X116157142Y-66111785D01*
X116204761Y-66159404D01*
X116252380Y-66254642D01*
X116252380Y-66349880D01*
X116204761Y-66445119D01*
X116157142Y-66492738D01*
X116061904Y-66540357D01*
X115871428Y-66587976D01*
X115633333Y-66587976D01*
X115442857Y-66540357D01*
X115347619Y-66492738D01*
X115300000Y-66445119D01*
X115252380Y-66349880D01*
X116252380Y-64826071D02*
X115585714Y-64826071D01*
X115680952Y-64826071D02*
X115633333Y-64778452D01*
X115585714Y-64683214D01*
X115585714Y-64540357D01*
X115633333Y-64445119D01*
X115728571Y-64397500D01*
X116252380Y-64397500D01*
X115728571Y-64397500D02*
X115633333Y-64349880D01*
X115585714Y-64254642D01*
X115585714Y-64111785D01*
X115633333Y-64016547D01*
X115728571Y-63968928D01*
X116252380Y-63968928D01*
X116252380Y-63492738D02*
X115585714Y-63492738D01*
X115680952Y-63492738D02*
X115633333Y-63445119D01*
X115585714Y-63349880D01*
X115585714Y-63207023D01*
X115633333Y-63111785D01*
X115728571Y-63064166D01*
X116252380Y-63064166D01*
X115728571Y-63064166D02*
X115633333Y-63016547D01*
X115585714Y-62921309D01*
X115585714Y-62778452D01*
X115633333Y-62683214D01*
X115728571Y-62635595D01*
X116252380Y-62635595D01*
X117100000Y-65800000D02*
X117100000Y-58800000D01*
X125400000Y-65800000D02*
X116513579Y-65800000D01*
X125400000Y-58800000D02*
X116513579Y-58800000D01*
X117100000Y-58800000D02*
X117686421Y-59926504D01*
X117100000Y-58800000D02*
X116513579Y-59926504D01*
X117100000Y-65800000D02*
X117686421Y-64673496D01*
X117100000Y-65800000D02*
X116513579Y-64673496D01*
X111652380Y-70871428D02*
X111652380Y-71442857D01*
X111652380Y-71157142D02*
X110652380Y-71157142D01*
X110795238Y-71252380D01*
X110890476Y-71347619D01*
X110938095Y-71442857D01*
X110652380Y-70538095D02*
X110652380Y-69871428D01*
X111652380Y-70300000D01*
X111557142Y-69490476D02*
X111604761Y-69442857D01*
X111652380Y-69490476D01*
X111604761Y-69538095D01*
X111557142Y-69490476D01*
X111652380Y-69490476D01*
X110652380Y-68823809D02*
X110652380Y-68728571D01*
X110700000Y-68633333D01*
X110747619Y-68585714D01*
X110842857Y-68538095D01*
X111033333Y-68490476D01*
X111271428Y-68490476D01*
X111461904Y-68538095D01*
X111557142Y-68585714D01*
X111604761Y-68633333D01*
X111652380Y-68728571D01*
X111652380Y-68823809D01*
X111604761Y-68919047D01*
X111557142Y-68966666D01*
X111461904Y-69014285D01*
X111271428Y-69061904D01*
X111033333Y-69061904D01*
X110842857Y-69014285D01*
X110747619Y-68966666D01*
X110700000Y-68919047D01*
X110652380Y-68823809D01*
X110652380Y-67871428D02*
X110652380Y-67776190D01*
X110700000Y-67680952D01*
X110747619Y-67633333D01*
X110842857Y-67585714D01*
X111033333Y-67538095D01*
X111271428Y-67538095D01*
X111461904Y-67585714D01*
X111557142Y-67633333D01*
X111604761Y-67680952D01*
X111652380Y-67776190D01*
X111652380Y-67871428D01*
X111604761Y-67966666D01*
X111557142Y-68014285D01*
X111461904Y-68061904D01*
X111271428Y-68109523D01*
X111033333Y-68109523D01*
X110842857Y-68061904D01*
X110747619Y-68014285D01*
X110700000Y-67966666D01*
X110652380Y-67871428D01*
X110652380Y-66919047D02*
X110652380Y-66823809D01*
X110700000Y-66728571D01*
X110747619Y-66680952D01*
X110842857Y-66633333D01*
X111033333Y-66585714D01*
X111271428Y-66585714D01*
X111461904Y-66633333D01*
X111557142Y-66680952D01*
X111604761Y-66728571D01*
X111652380Y-66823809D01*
X111652380Y-66919047D01*
X111604761Y-67014285D01*
X111557142Y-67061904D01*
X111461904Y-67109523D01*
X111271428Y-67157142D01*
X111033333Y-67157142D01*
X110842857Y-67109523D01*
X110747619Y-67061904D01*
X110700000Y-67014285D01*
X110652380Y-66919047D01*
X111652380Y-65395238D02*
X110985714Y-65395238D01*
X111080952Y-65395238D02*
X111033333Y-65347619D01*
X110985714Y-65252380D01*
X110985714Y-65109523D01*
X111033333Y-65014285D01*
X111128571Y-64966666D01*
X111652380Y-64966666D01*
X111128571Y-64966666D02*
X111033333Y-64919047D01*
X110985714Y-64823809D01*
X110985714Y-64680952D01*
X111033333Y-64585714D01*
X111128571Y-64538095D01*
X111652380Y-64538095D01*
X111652380Y-64061904D02*
X110985714Y-64061904D01*
X111080952Y-64061904D02*
X111033333Y-64014285D01*
X110985714Y-63919047D01*
X110985714Y-63776190D01*
X111033333Y-63680952D01*
X111128571Y-63633333D01*
X111652380Y-63633333D01*
X111128571Y-63633333D02*
X111033333Y-63585714D01*
X110985714Y-63490476D01*
X110985714Y-63347619D01*
X111033333Y-63252380D01*
X111128571Y-63204761D01*
X111652380Y-63204761D01*
X112500000Y-75800000D02*
X112500000Y-58800000D01*
X124900000Y-75800000D02*
X111913579Y-75800000D01*
X124900000Y-58800000D02*
X111913579Y-58800000D01*
X112500000Y-58800000D02*
X113086421Y-59926504D01*
X112500000Y-58800000D02*
X111913579Y-59926504D01*
X112500000Y-75800000D02*
X113086421Y-74673496D01*
X112500000Y-75800000D02*
X111913579Y-74673496D01*
X123461785Y-52452380D02*
X122985595Y-52452380D01*
X122937976Y-52928571D01*
X122985595Y-52880952D01*
X123080833Y-52833333D01*
X123318928Y-52833333D01*
X123414166Y-52880952D01*
X123461785Y-52928571D01*
X123509404Y-53023809D01*
X123509404Y-53261904D01*
X123461785Y-53357142D01*
X123414166Y-53404761D01*
X123318928Y-53452380D01*
X123080833Y-53452380D01*
X122985595Y-53404761D01*
X122937976Y-53357142D01*
X123937976Y-53357142D02*
X123985595Y-53404761D01*
X123937976Y-53452380D01*
X123890357Y-53404761D01*
X123937976Y-53357142D01*
X123937976Y-53452380D01*
X124890357Y-52452380D02*
X124414166Y-52452380D01*
X124366547Y-52928571D01*
X124414166Y-52880952D01*
X124509404Y-52833333D01*
X124747500Y-52833333D01*
X124842738Y-52880952D01*
X124890357Y-52928571D01*
X124937976Y-53023809D01*
X124937976Y-53261904D01*
X124890357Y-53357142D01*
X124842738Y-53404761D01*
X124747500Y-53452380D01*
X124509404Y-53452380D01*
X124414166Y-53404761D01*
X124366547Y-53357142D01*
X125557023Y-52452380D02*
X125652261Y-52452380D01*
X125747500Y-52500000D01*
X125795119Y-52547619D01*
X125842738Y-52642857D01*
X125890357Y-52833333D01*
X125890357Y-53071428D01*
X125842738Y-53261904D01*
X125795119Y-53357142D01*
X125747500Y-53404761D01*
X125652261Y-53452380D01*
X125557023Y-53452380D01*
X125461785Y-53404761D01*
X125414166Y-53357142D01*
X125366547Y-53261904D01*
X125318928Y-53071428D01*
X125318928Y-52833333D01*
X125366547Y-52642857D01*
X125414166Y-52547619D01*
X125461785Y-52500000D01*
X125557023Y-52452380D01*
X126509404Y-52452380D02*
X126604642Y-52452380D01*
X126699880Y-52500000D01*
X126747500Y-52547619D01*
X126795119Y-52642857D01*
X126842738Y-52833333D01*
X126842738Y-53071428D01*
X126795119Y-53261904D01*
X126747500Y-53357142D01*
X126699880Y-53404761D01*
X126604642Y-53452380D01*
X126509404Y-53452380D01*
X126414166Y-53404761D01*
X126366547Y-53357142D01*
X126318928Y-53261904D01*
X126271309Y-53071428D01*
X126271309Y-52833333D01*
X126318928Y-52642857D01*
X126366547Y-52547619D01*
X126414166Y-52500000D01*
X126509404Y-52452380D01*
X128033214Y-53452380D02*
X128033214Y-52785714D01*
X128033214Y-52880952D02*
X128080833Y-52833333D01*
X128176071Y-52785714D01*
X128318928Y-52785714D01*
X128414166Y-52833333D01*
X128461785Y-52928571D01*
X128461785Y-53452380D01*
X128461785Y-52928571D02*
X128509404Y-52833333D01*
X128604642Y-52785714D01*
X128747500Y-52785714D01*
X128842738Y-52833333D01*
X128890357Y-52928571D01*
X128890357Y-53452380D01*
X129366547Y-53452380D02*
X129366547Y-52785714D01*
X129366547Y-52880952D02*
X129414166Y-52833333D01*
X129509404Y-52785714D01*
X129652261Y-52785714D01*
X129747500Y-52833333D01*
X129795119Y-52928571D01*
X129795119Y-53452380D01*
X129795119Y-52928571D02*
X129842738Y-52833333D01*
X129937976Y-52785714D01*
X130080833Y-52785714D01*
X130176071Y-52833333D01*
X130223690Y-52928571D01*
X130223690Y-53452380D01*
X125400000Y-54300000D02*
X119900000Y-54300000D01*
X125400000Y-65800000D02*
X125400000Y-53713579D01*
X119900000Y-65800000D02*
X119900000Y-53713579D01*
X119900000Y-54300000D02*
X121026504Y-53713579D01*
X119900000Y-54300000D02*
X121026504Y-54886421D01*
X125400000Y-54300000D02*
X124273496Y-53713579D01*
X125400000Y-54300000D02*
X124273496Y-54886421D01*
X138209523Y-52452380D02*
X138828571Y-52452380D01*
X138495238Y-52833333D01*
X138638095Y-52833333D01*
X138733333Y-52880952D01*
X138780952Y-52928571D01*
X138828571Y-53023809D01*
X138828571Y-53261904D01*
X138780952Y-53357142D01*
X138733333Y-53404761D01*
X138638095Y-53452380D01*
X138352380Y-53452380D01*
X138257142Y-53404761D01*
X138209523Y-53357142D01*
X139685714Y-52785714D02*
X139685714Y-53452380D01*
X139447619Y-52404761D02*
X139209523Y-53119047D01*
X139828571Y-53119047D01*
X140209523Y-53357142D02*
X140257142Y-53404761D01*
X140209523Y-53452380D01*
X140161904Y-53404761D01*
X140209523Y-53357142D01*
X140209523Y-53452380D01*
X140876190Y-52452380D02*
X140971428Y-52452380D01*
X141066666Y-52500000D01*
X141114285Y-52547619D01*
X141161904Y-52642857D01*
X141209523Y-52833333D01*
X141209523Y-53071428D01*
X141161904Y-53261904D01*
X141114285Y-53357142D01*
X141066666Y-53404761D01*
X140971428Y-53452380D01*
X140876190Y-53452380D01*
X140780952Y-53404761D01*
X140733333Y-53357142D01*
X140685714Y-53261904D01*
X140638095Y-53071428D01*
X140638095Y-52833333D01*
X140685714Y-52642857D01*
X140733333Y-52547619D01*
X140780952Y-52500000D01*
X140876190Y-52452380D01*
X141828571Y-52452380D02*
X141923809Y-52452380D01*
X142019047Y-52500000D01*
X142066666Y-52547619D01*
X142114285Y-52642857D01*
X142161904Y-52833333D01*
X142161904Y-53071428D01*
X142114285Y-53261904D01*
X142066666Y-53357142D01*
X142019047Y-53404761D01*
X141923809Y-53452380D01*
X141828571Y-53452380D01*
X141733333Y-53404761D01*
X141685714Y-53357142D01*
X141638095Y-53261904D01*
X141590476Y-53071428D01*
X141590476Y-52833333D01*
X141638095Y-52642857D01*
X141685714Y-52547619D01*
X141733333Y-52500000D01*
X141828571Y-52452380D01*
X142780952Y-52452380D02*
X142876190Y-52452380D01*
X142971428Y-52500000D01*
X143019047Y-52547619D01*
X143066666Y-52642857D01*
X143114285Y-52833333D01*
X143114285Y-53071428D01*
X143066666Y-53261904D01*
X143019047Y-53357142D01*
X142971428Y-53404761D01*
X142876190Y-53452380D01*
X142780952Y-53452380D01*
X142685714Y-53404761D01*
X142638095Y-53357142D01*
X142590476Y-53261904D01*
X142542857Y-53071428D01*
X142542857Y-52833333D01*
X142590476Y-52642857D01*
X142638095Y-52547619D01*
X142685714Y-52500000D01*
X142780952Y-52452380D01*
X144304761Y-53452380D02*
X144304761Y-52785714D01*
X144304761Y-52880952D02*
X144352380Y-52833333D01*
X144447619Y-52785714D01*
X144590476Y-52785714D01*
X144685714Y-52833333D01*
X144733333Y-52928571D01*
X144733333Y-53452380D01*
X144733333Y-52928571D02*
X144780952Y-52833333D01*
X144876190Y-52785714D01*
X145019047Y-52785714D01*
X145114285Y-52833333D01*
X145161904Y-52928571D01*
X145161904Y-53452380D01*
X145638095Y-53452380D02*
X145638095Y-52785714D01*
X145638095Y-52880952D02*
X145685714Y-52833333D01*
X145780952Y-52785714D01*
X145923809Y-52785714D01*
X146019047Y-52833333D01*
X146066666Y-52928571D01*
X146066666Y-53452380D01*
X146066666Y-52928571D02*
X146114285Y-52833333D01*
X146209523Y-52785714D01*
X146352380Y-52785714D01*
X146447619Y-52833333D01*
X146495238Y-52928571D01*
X146495238Y-53452380D01*
X125400000Y-54300000D02*
X159400000Y-54300000D01*
X125400000Y-65800000D02*
X125400000Y-53713579D01*
X159400000Y-65800000D02*
X159400000Y-53713579D01*
X159400000Y-54300000D02*
X158273496Y-54886421D01*
X159400000Y-54300000D02*
X158273496Y-53713579D01*
X125400000Y-54300000D02*
X126526504Y-54886421D01*
X125400000Y-54300000D02*
X126526504Y-53713579D01*
D11*
%TO.C,J2*%
X126035000Y-85670000D02*
X124765000Y-85670000D01*
X126035000Y-83130000D02*
X126035000Y-85670000D01*
X124765000Y-83130000D02*
X126035000Y-83130000D01*
X124765000Y-85670000D02*
X124765000Y-83130000D01*
X126035000Y-85670000D02*
X124765000Y-84400000D01*
X125400000Y-85670000D02*
X124765000Y-85035000D01*
X126035000Y-85035000D02*
X124765000Y-83765000D01*
X126035000Y-84400000D02*
X124765000Y-83130000D01*
X126035000Y-83765000D02*
X125400000Y-83130000D01*
%TD*%
M02*
