M48
; DRILL file {KiCad (6.0.7)} date Thu Aug  4 10:24:48 2022
; FORMAT={-:-/ absolute / inch / decimal}
; #@! TF.CreationDate,2022-08-04T10:24:48-07:00
; #@! TF.GenerationSoftware,Kicad,Pcbnew,(6.0.7)
; #@! TF.FileFunction,Plated,1,4,PTH
FMAT,2
INCH
; #@! TA.AperFunction,Plated,PTH,ViaDrill
T1C0.0100
; #@! TA.AperFunction,Plated,PTH,ComponentDrill
T2C0.0315
; #@! TA.AperFunction,Plated,PTH,ComponentDrill
T3C0.1260
%
G90
G05
T1
X4.7815Y-3.3602
X4.9016Y-3.4665
X4.937Y-3.2323
X4.9488Y-3.4665
X5.0217Y-3.2264
X5.0679Y-3.128
X5.0797Y-3.0039
X5.0945Y-3.3787
X5.1105Y-2.928
X5.1145Y-2.857
X5.2085Y-2.943
X5.2085Y-2.9906
X5.2355Y-2.565
X5.2481Y-2.943
X5.2481Y-2.9906
X5.2525Y-3.13
X5.2645Y-2.776
X5.2735Y-2.565
X5.2782Y-2.4691
X5.2785Y-2.4407
X5.2785Y-2.4967
X5.3005Y-2.776
X5.3125Y-2.565
X5.3305Y-2.84
X5.3315Y-2.905
X5.3355Y-2.963
X5.3355Y-2.99
X5.3385Y-2.511
X5.3701Y-2.511
X5.3975Y-2.565
X5.4016Y-2.511
X5.4285Y-2.565
X5.4331Y-2.511
X5.4646Y-2.511
X5.4815Y-2.565
X5.4961Y-2.511
X5.5276Y-2.511
X5.5315Y-2.565
X5.5591Y-2.511
X5.5615Y-2.565
X5.5906Y-2.511
X5.6221Y-2.511
X5.6503Y-2.565
X5.6536Y-2.511
X5.6851Y-2.511
X5.6913Y-2.565
X5.7166Y-2.511
X5.7313Y-2.565
X5.7481Y-2.511
X5.7713Y-2.565
X5.7796Y-2.511
X5.8111Y-2.511
X5.8113Y-2.565
X5.8426Y-2.511
X5.8741Y-2.511
X5.9008Y-2.565
X5.9342Y-2.4411
X5.9342Y-2.4691
X5.9342Y-2.6929
X5.9342Y-2.7219
X5.9345Y-2.4967
X5.9345Y-2.7495
X5.9388Y-2.565
X5.9778Y-2.565
T2
X5.1793Y-2.6102
X6.0333Y-2.6102
T3
X4.9173Y-2.9843
X4.9173Y-4.874
X4.937Y-2.5906
X6.2756Y-2.5906
X6.2953Y-2.9843
X6.2953Y-4.874
T0
M30
